%TF.GenerationSoftware,KiCad,Pcbnew,(6.0.1)*%
%TF.CreationDate,2022-04-15T14:04:08-07:00*%
%TF.ProjectId,Alpenglow_RadiantRainbow_PCB,416c7065-6e67-46c6-9f77-5f5261646961,rev?*%
%TF.SameCoordinates,Original*%
%TF.FileFunction,Soldermask,Bot*%
%TF.FilePolarity,Negative*%
%FSLAX46Y46*%
G04 Gerber Fmt 4.6, Leading zero omitted, Abs format (unit mm)*
G04 Created by KiCad (PCBNEW (6.0.1)) date 2022-04-15 14:04:08*
%MOMM*%
%LPD*%
G01*
G04 APERTURE LIST*
G04 Aperture macros list*
%AMHorizOval*
0 Thick line with rounded ends*
0 $1 width*
0 $2 $3 position (X,Y) of the first rounded end (center of the circle)*
0 $4 $5 position (X,Y) of the second rounded end (center of the circle)*
0 Add line between two ends*
20,1,$1,$2,$3,$4,$5,0*
0 Add two circle primitives to create the rounded ends*
1,1,$1,$2,$3*
1,1,$1,$4,$5*%
%AMRotRect*
0 Rectangle, with rotation*
0 The origin of the aperture is its center*
0 $1 length*
0 $2 width*
0 $3 Rotation angle, in degrees counterclockwise*
0 Add horizontal line*
21,1,$1,$2,0,0,$3*%
G04 Aperture macros list end*
%ADD10R,1.800000X1.800000*%
%ADD11C,1.800000*%
%ADD12HorizOval,1.900000X-0.612836X0.514230X0.612836X-0.514230X0*%
%ADD13RotRect,1.300000X2.500000X230.000000*%
%ADD14HorizOval,1.300000X-0.459627X0.385673X0.459627X-0.385673X0*%
%ADD15C,1.600000*%
%ADD16HorizOval,1.600000X0.000000X0.000000X0.000000X0.000000X0*%
%ADD17HorizOval,1.600000X0.000000X0.000000X0.000000X0.000000X0*%
%ADD18HorizOval,1.600000X0.000000X0.000000X0.000000X0.000000X0*%
%ADD19C,17.272000*%
%ADD20O,2.500000X4.000000*%
%ADD21HorizOval,1.600000X0.000000X0.000000X0.000000X0.000000X0*%
G04 APERTURE END LIST*
D10*
%TO.C,D1*%
X160346500Y-93472000D03*
D11*
X162886500Y-93472000D03*
%TD*%
D10*
%TO.C,D3*%
X136216500Y-83058000D03*
D11*
X138756500Y-83058000D03*
%TD*%
D10*
%TO.C,D5*%
X143836500Y-81788000D03*
D11*
X146376500Y-81788000D03*
%TD*%
D10*
%TO.C,D11*%
X141042500Y-91567000D03*
D11*
X143582500Y-91567000D03*
%TD*%
D12*
%TO.C,SW1*%
X160686571Y-118837782D03*
X165957429Y-112556218D03*
D13*
X164607575Y-114164911D03*
D14*
X163322000Y-115697000D03*
X162036425Y-117229089D03*
%TD*%
D10*
%TO.C,D4*%
X127000000Y-93726000D03*
D11*
X129540000Y-93726000D03*
%TD*%
D10*
%TO.C,D8*%
X146884500Y-91567000D03*
D11*
X149424500Y-91567000D03*
%TD*%
D10*
%TO.C,D7*%
X156536500Y-88392000D03*
D11*
X159076500Y-88392000D03*
%TD*%
D10*
%TO.C,D10*%
X150948500Y-95123000D03*
D11*
X153488500Y-95123000D03*
%TD*%
D10*
%TO.C,D9*%
X136470500Y-95250000D03*
D11*
X139010500Y-95250000D03*
%TD*%
D10*
%TO.C,D6*%
X130628500Y-87884000D03*
D11*
X133168500Y-87884000D03*
%TD*%
D10*
%TO.C,D2*%
X150948500Y-83312000D03*
D11*
X153488500Y-83312000D03*
%TD*%
D15*
%TO.C,R4*%
X124828901Y-87089957D03*
D16*
X120535099Y-96298044D03*
%TD*%
D15*
%TO.C,R1*%
X138003409Y-76454000D03*
D17*
X129204591Y-81534000D03*
%TD*%
D15*
%TO.C,R3*%
X169278901Y-96467639D03*
D18*
X165803976Y-86920362D03*
%TD*%
D19*
%TO.C,BT1*%
X144145000Y-112395000D03*
D20*
X154686000Y-112395000D03*
X133604000Y-112395000D03*
%TD*%
D15*
%TO.C,R2*%
X159290044Y-80378901D03*
D21*
X150081957Y-76085099D03*
%TD*%
M02*
