%TF.GenerationSoftware,KiCad,Pcbnew,(6.0.4)*%
%TF.CreationDate,2022-06-06T16:58:20-07:00*%
%TF.ProjectId,Alpenglow_RadiantRainbow_PCB,416c7065-6e67-46c6-9f77-5f5261646961,rev?*%
%TF.SameCoordinates,Original*%
%TF.FileFunction,Legend,Top*%
%TF.FilePolarity,Positive*%
%FSLAX46Y46*%
G04 Gerber Fmt 4.6, Leading zero omitted, Abs format (unit mm)*
G04 Created by KiCad (PCBNEW (6.0.4)) date 2022-06-06 16:58:20*
%MOMM*%
%LPD*%
G01*
G04 APERTURE LIST*
G04 Aperture macros list*
%AMHorizOval*
0 Thick line with rounded ends*
0 $1 width*
0 $2 $3 position (X,Y) of the first rounded end (center of the circle)*
0 $4 $5 position (X,Y) of the second rounded end (center of the circle)*
0 Add line between two ends*
20,1,$1,$2,$3,$4,$5,0*
0 Add two circle primitives to create the rounded ends*
1,1,$1,$2,$3*
1,1,$1,$4,$5*%
%AMRotRect*
0 Rectangle, with rotation*
0 The origin of the aperture is its center*
0 $1 length*
0 $2 width*
0 $3 Rotation angle, in degrees counterclockwise*
0 Add horizontal line*
21,1,$1,$2,0,0,$3*%
G04 Aperture macros list end*
%ADD10C,0.150000*%
%ADD11C,0.120000*%
%ADD12C,0.635000*%
%ADD13R,1.800000X1.800000*%
%ADD14C,1.800000*%
%ADD15C,1.600000*%
%ADD16HorizOval,1.600000X0.000000X0.000000X0.000000X0.000000X0*%
%ADD17HorizOval,1.600000X0.000000X0.000000X0.000000X0.000000X0*%
%ADD18HorizOval,1.600000X0.000000X0.000000X0.000000X0.000000X0*%
%ADD19HorizOval,1.900000X-0.612836X0.514230X0.612836X-0.514230X0*%
%ADD20RotRect,1.300000X2.500000X230.000000*%
%ADD21HorizOval,1.300000X-0.459627X0.385673X0.459627X-0.385673X0*%
%ADD22O,2.500000X4.000000*%
%ADD23HorizOval,1.600000X0.000000X0.000000X0.000000X0.000000X0*%
G04 APERTURE END LIST*
D10*
X132410200Y-85015390D02*
X132410200Y-85491580D01*
X132076866Y-84491580D02*
X132410200Y-85015390D01*
X132743533Y-84491580D01*
X150499723Y-80944980D02*
X150166390Y-80468790D01*
X149928295Y-80944980D02*
X149928295Y-79944980D01*
X150309247Y-79944980D01*
X150404485Y-79992600D01*
X150452104Y-80040219D01*
X150499723Y-80135457D01*
X150499723Y-80278314D01*
X150452104Y-80373552D01*
X150404485Y-80421171D01*
X150309247Y-80468790D01*
X149928295Y-80468790D01*
X156083000Y-85701190D02*
X156083000Y-86177380D01*
X155749666Y-85177380D02*
X156083000Y-85701190D01*
X156416333Y-85177380D01*
X137904504Y-91676600D02*
X137809266Y-91628980D01*
X137666409Y-91628980D01*
X137523552Y-91676600D01*
X137428314Y-91771838D01*
X137380695Y-91867076D01*
X137333076Y-92057552D01*
X137333076Y-92200409D01*
X137380695Y-92390885D01*
X137428314Y-92486123D01*
X137523552Y-92581361D01*
X137666409Y-92628980D01*
X137761647Y-92628980D01*
X137904504Y-92581361D01*
X137952123Y-92533742D01*
X137952123Y-92200409D01*
X137761647Y-92200409D01*
X143733828Y-88828571D02*
X143876685Y-88876190D01*
X143924304Y-88923809D01*
X143971923Y-89019047D01*
X143971923Y-89161904D01*
X143924304Y-89257142D01*
X143876685Y-89304761D01*
X143781447Y-89352380D01*
X143400495Y-89352380D01*
X143400495Y-88352380D01*
X143733828Y-88352380D01*
X143829066Y-88400000D01*
X143876685Y-88447619D01*
X143924304Y-88542857D01*
X143924304Y-88638095D01*
X143876685Y-88733333D01*
X143829066Y-88780952D01*
X143733828Y-88828571D01*
X143400495Y-88828571D01*
X161904323Y-90977980D02*
X161570990Y-90501790D01*
X161332895Y-90977980D02*
X161332895Y-89977980D01*
X161713847Y-89977980D01*
X161809085Y-90025600D01*
X161856704Y-90073219D01*
X161904323Y-90168457D01*
X161904323Y-90311314D01*
X161856704Y-90406552D01*
X161809085Y-90454171D01*
X161713847Y-90501790D01*
X161332895Y-90501790D01*
X151963428Y-92155971D02*
X152106285Y-92203590D01*
X152153904Y-92251209D01*
X152201523Y-92346447D01*
X152201523Y-92489304D01*
X152153904Y-92584542D01*
X152106285Y-92632161D01*
X152011047Y-92679780D01*
X151630095Y-92679780D01*
X151630095Y-91679780D01*
X151963428Y-91679780D01*
X152058666Y-91727400D01*
X152106285Y-91775019D01*
X152153904Y-91870257D01*
X152153904Y-91965495D01*
X152106285Y-92060733D01*
X152058666Y-92108352D01*
X151963428Y-92155971D01*
X151630095Y-92155971D01*
X147048504Y-88400000D02*
X146953266Y-88352380D01*
X146810409Y-88352380D01*
X146667552Y-88400000D01*
X146572314Y-88495238D01*
X146524695Y-88590476D01*
X146477076Y-88780952D01*
X146477076Y-88923809D01*
X146524695Y-89114285D01*
X146572314Y-89209523D01*
X146667552Y-89304761D01*
X146810409Y-89352380D01*
X146905647Y-89352380D01*
X147048504Y-89304761D01*
X147096123Y-89257142D01*
X147096123Y-88923809D01*
X146905647Y-88923809D01*
X143510000Y-79325790D02*
X143510000Y-79801980D01*
X143176666Y-78801980D02*
X143510000Y-79325790D01*
X143843333Y-78801980D01*
X139577723Y-80868780D02*
X139244390Y-80392590D01*
X139006295Y-80868780D02*
X139006295Y-79868780D01*
X139387247Y-79868780D01*
X139482485Y-79916400D01*
X139530104Y-79964019D01*
X139577723Y-80059257D01*
X139577723Y-80202114D01*
X139530104Y-80297352D01*
X139482485Y-80344971D01*
X139387247Y-80392590D01*
X139006295Y-80392590D01*
X128554123Y-91130380D02*
X128220790Y-90654190D01*
X127982695Y-91130380D02*
X127982695Y-90130380D01*
X128363647Y-90130380D01*
X128458885Y-90178000D01*
X128506504Y-90225619D01*
X128554123Y-90320857D01*
X128554123Y-90463714D01*
X128506504Y-90558952D01*
X128458885Y-90606571D01*
X128363647Y-90654190D01*
X127982695Y-90654190D01*
D11*
%TO.C,D1*%
X160056500Y-92236000D02*
X160056500Y-92392000D01*
X160056500Y-94552000D02*
X160056500Y-94708000D01*
X159076500Y-92202000D02*
X159076500Y-94742000D01*
X163288835Y-92393392D02*
G75*
G03*
X160056500Y-92236484I-1672335J-1078608D01*
G01*
X160056500Y-94707516D02*
G75*
G03*
X163288835Y-94550608I1560000J1235516D01*
G01*
%TO.C,D3*%
X134946500Y-81788000D02*
X134946500Y-84328000D01*
X135926500Y-84138000D02*
X135926500Y-84294000D01*
X135926500Y-81822000D02*
X135926500Y-81978000D01*
X139158835Y-81979392D02*
G75*
G03*
X135926500Y-81822484I-1672335J-1078608D01*
G01*
X135926500Y-84293516D02*
G75*
G03*
X139158835Y-84136608I1560000J1235516D01*
G01*
%TO.C,G\u002A\u002A\u002A*%
G36*
X131307695Y-95499913D02*
G01*
X131470774Y-95503790D01*
X131570818Y-95508551D01*
X131699136Y-95517165D01*
X131813281Y-95526738D01*
X131905225Y-95536445D01*
X131966938Y-95545460D01*
X131988948Y-95551498D01*
X132039999Y-95572745D01*
X132116323Y-95594697D01*
X132198962Y-95612722D01*
X132268962Y-95622189D01*
X132280164Y-95622654D01*
X132342619Y-95635354D01*
X132380515Y-95653885D01*
X132437894Y-95678530D01*
X132479233Y-95684860D01*
X132501858Y-95686307D01*
X132528329Y-95691593D01*
X132564296Y-95702942D01*
X132615404Y-95722577D01*
X132687300Y-95752722D01*
X132785631Y-95795599D01*
X132916045Y-95853431D01*
X132981309Y-95882521D01*
X133218178Y-95996823D01*
X133427129Y-96115311D01*
X133601204Y-96233922D01*
X133651810Y-96274054D01*
X133684849Y-96299196D01*
X133735998Y-96336000D01*
X133750718Y-96346330D01*
X133801004Y-96385537D01*
X133872149Y-96446318D01*
X133956026Y-96521139D01*
X134044506Y-96602468D01*
X134129460Y-96682773D01*
X134202759Y-96754520D01*
X134256274Y-96810177D01*
X134275294Y-96832439D01*
X134316569Y-96882907D01*
X134352776Y-96922680D01*
X134380600Y-96953697D01*
X134424778Y-97006665D01*
X134479133Y-97073751D01*
X134537484Y-97147121D01*
X134593653Y-97218940D01*
X134641461Y-97281376D01*
X134674730Y-97326595D01*
X134687279Y-97346761D01*
X134687280Y-97346785D01*
X134698115Y-97368268D01*
X134726795Y-97415433D01*
X134767579Y-97478907D01*
X134776481Y-97492428D01*
X134819106Y-97558995D01*
X134850644Y-97612206D01*
X134865288Y-97642173D01*
X134865682Y-97644365D01*
X134875461Y-97669335D01*
X134901496Y-97720971D01*
X134938833Y-97789609D01*
X134952805Y-97814367D01*
X134998109Y-97890808D01*
X135032138Y-97937495D01*
X135062425Y-97962126D01*
X135096502Y-97972397D01*
X135108906Y-97973858D01*
X135156547Y-97972669D01*
X135177811Y-97960950D01*
X135177885Y-97960011D01*
X135197122Y-97941876D01*
X135243523Y-97926347D01*
X135244786Y-97926086D01*
X135291603Y-97911102D01*
X135311674Y-97893842D01*
X135311687Y-97893470D01*
X135331120Y-97880281D01*
X135378143Y-97874473D01*
X135380722Y-97874460D01*
X135452663Y-97864809D01*
X135508949Y-97846117D01*
X135655323Y-97793488D01*
X135835167Y-97760661D01*
X135853095Y-97758637D01*
X135924594Y-97748296D01*
X135976268Y-97735927D01*
X135993788Y-97726996D01*
X136018607Y-97721932D01*
X136081119Y-97717743D01*
X136174427Y-97714425D01*
X136291636Y-97711973D01*
X136425847Y-97710383D01*
X136570164Y-97709652D01*
X136717689Y-97709774D01*
X136861527Y-97710745D01*
X136994780Y-97712561D01*
X137110551Y-97715218D01*
X137201943Y-97718711D01*
X137262060Y-97723036D01*
X137283856Y-97727803D01*
X137310712Y-97738929D01*
X137369600Y-97750629D01*
X137448069Y-97760463D01*
X137452512Y-97760883D01*
X137531668Y-97770550D01*
X137591899Y-97782213D01*
X137620754Y-97793430D01*
X137621168Y-97793962D01*
X137650632Y-97808139D01*
X137689574Y-97812509D01*
X137746588Y-97824449D01*
X137779052Y-97843484D01*
X137822529Y-97863910D01*
X137886322Y-97874175D01*
X137898252Y-97874460D01*
X137955014Y-97878092D01*
X137988608Y-97887102D01*
X137991435Y-97889948D01*
X138021090Y-97915420D01*
X138077494Y-97942936D01*
X138143803Y-97965808D01*
X138203173Y-97977351D01*
X138212528Y-97977712D01*
X138258716Y-97983730D01*
X138277622Y-97997969D01*
X138296544Y-98017543D01*
X138333373Y-98031183D01*
X138375119Y-98047127D01*
X138389123Y-98062552D01*
X138408147Y-98076618D01*
X138442488Y-98080964D01*
X138488735Y-98092498D01*
X138508689Y-98111940D01*
X138539324Y-98139422D01*
X138557163Y-98142915D01*
X138597762Y-98154271D01*
X138652484Y-98182299D01*
X138663789Y-98189431D01*
X138754449Y-98246375D01*
X138836663Y-98291247D01*
X138898502Y-98321126D01*
X138950609Y-98351065D01*
X138982337Y-98379671D01*
X138984514Y-98383648D01*
X139014123Y-98408979D01*
X139028132Y-98411371D01*
X139064289Y-98425493D01*
X139108679Y-98459810D01*
X139111929Y-98462997D01*
X139153266Y-98498136D01*
X139184646Y-98514475D01*
X139186529Y-98514623D01*
X139213624Y-98531124D01*
X139222297Y-98545598D01*
X139250941Y-98573052D01*
X139267211Y-98576574D01*
X139295816Y-98590845D01*
X139347461Y-98629537D01*
X139415233Y-98686471D01*
X139492220Y-98755464D01*
X139571509Y-98830336D01*
X139646188Y-98904907D01*
X139704839Y-98967888D01*
X139831045Y-99107726D01*
X139924347Y-99206411D01*
X139963627Y-99253281D01*
X140004344Y-99310992D01*
X140006776Y-99314826D01*
X140037714Y-99358300D01*
X140060918Y-99380994D01*
X140064034Y-99381940D01*
X140080036Y-99399387D01*
X140093101Y-99433566D01*
X140111008Y-99472242D01*
X140128969Y-99485192D01*
X140148378Y-99501924D01*
X140150844Y-99516167D01*
X140161727Y-99543664D01*
X140170963Y-99547143D01*
X140192379Y-99564283D01*
X140214428Y-99603932D01*
X140241419Y-99661101D01*
X140276507Y-99725706D01*
X140280798Y-99732997D01*
X140319577Y-99801259D01*
X140359478Y-99875959D01*
X140365559Y-99887875D01*
X140393348Y-99940417D01*
X140413987Y-99975091D01*
X140418447Y-99980802D01*
X140445234Y-100016417D01*
X140471202Y-100065317D01*
X140485021Y-100105637D01*
X140485348Y-100109892D01*
X140495041Y-100144309D01*
X140519014Y-100196004D01*
X140525680Y-100208262D01*
X140558383Y-100275472D01*
X140589731Y-100353423D01*
X140596543Y-100373159D01*
X140621273Y-100436532D01*
X140647541Y-100486543D01*
X140656563Y-100498688D01*
X140677558Y-100541923D01*
X140686050Y-100598135D01*
X140694259Y-100660741D01*
X140712255Y-100710086D01*
X140738899Y-100770885D01*
X140761957Y-100857586D01*
X140782571Y-100975456D01*
X140800429Y-101116574D01*
X140811997Y-101203562D01*
X140825028Y-101275252D01*
X140837502Y-101321491D01*
X140843366Y-101332371D01*
X140852614Y-101361185D01*
X140859138Y-101421144D01*
X140862977Y-101502172D01*
X140864169Y-101594193D01*
X140862751Y-101687131D01*
X140858762Y-101770909D01*
X140852240Y-101835452D01*
X140843223Y-101870682D01*
X140841323Y-101873147D01*
X140829365Y-101902406D01*
X140817388Y-101962016D01*
X140807389Y-102041071D01*
X140804506Y-102074163D01*
X140796314Y-102156107D01*
X140786156Y-102221158D01*
X140775768Y-102259189D01*
X140771885Y-102264598D01*
X140758341Y-102290969D01*
X140752951Y-102336893D01*
X140742383Y-102398837D01*
X140722156Y-102444089D01*
X140701987Y-102490879D01*
X140684726Y-102559450D01*
X140678315Y-102600512D01*
X140672502Y-102664492D01*
X140678636Y-102706139D01*
X140703579Y-102741840D01*
X140754191Y-102787978D01*
X140758300Y-102791528D01*
X140813408Y-102835469D01*
X140858088Y-102864647D01*
X140877068Y-102871858D01*
X140907441Y-102886946D01*
X140944481Y-102923248D01*
X140944673Y-102923484D01*
X140978423Y-102959604D01*
X141001748Y-102975100D01*
X141002066Y-102975110D01*
X141023850Y-102989109D01*
X141068969Y-103026673D01*
X141130347Y-103081158D01*
X141200911Y-103145917D01*
X141273584Y-103214306D01*
X141341291Y-103279678D01*
X141396957Y-103335389D01*
X141433506Y-103374791D01*
X141444259Y-103390456D01*
X141462359Y-103406713D01*
X141477710Y-103408769D01*
X141507275Y-103425299D01*
X141511160Y-103439745D01*
X141522404Y-103467236D01*
X141531958Y-103470720D01*
X141554949Y-103487682D01*
X141566028Y-103509444D01*
X141589109Y-103547124D01*
X141631977Y-103597293D01*
X141653978Y-103619372D01*
X141702293Y-103671641D01*
X141736809Y-103720185D01*
X141744062Y-103735527D01*
X141764079Y-103770782D01*
X141780266Y-103780476D01*
X141798725Y-103797223D01*
X141801064Y-103811452D01*
X141812308Y-103838944D01*
X141821861Y-103842428D01*
X141843784Y-103859631D01*
X141858317Y-103888891D01*
X141875904Y-103929401D01*
X141887695Y-103945680D01*
X141907663Y-103973075D01*
X141939916Y-104031426D01*
X141980502Y-104113222D01*
X142015338Y-104188322D01*
X142042437Y-104240495D01*
X142065617Y-104271929D01*
X142072958Y-104276086D01*
X142085725Y-104294013D01*
X142090967Y-104336562D01*
X142101988Y-104391536D01*
X142124417Y-104428014D01*
X142152480Y-104473567D01*
X142157868Y-104501766D01*
X142166917Y-104536115D01*
X142180168Y-104544541D01*
X142194236Y-104562840D01*
X142201960Y-104608458D01*
X142202468Y-104625668D01*
X142210645Y-104686238D01*
X142230823Y-104732104D01*
X142235919Y-104737770D01*
X142259262Y-104779258D01*
X142269358Y-104836594D01*
X142269369Y-104838367D01*
X142275260Y-104891743D01*
X142289554Y-104926581D01*
X142290694Y-104927736D01*
X142302312Y-104956365D01*
X142314426Y-105015103D01*
X142324894Y-105092832D01*
X142327410Y-105118369D01*
X142336636Y-105198204D01*
X142347711Y-105260997D01*
X142358662Y-105296333D01*
X142361835Y-105300150D01*
X142368111Y-105323118D01*
X142373106Y-105379044D01*
X142376818Y-105460337D01*
X142379249Y-105559406D01*
X142380396Y-105668660D01*
X142380261Y-105780507D01*
X142378842Y-105887357D01*
X142376139Y-105981619D01*
X142372152Y-106055700D01*
X142366880Y-106102011D01*
X142361875Y-106113972D01*
X142351565Y-106132985D01*
X142340737Y-106183595D01*
X142331280Y-106256159D01*
X142328809Y-106282950D01*
X142319639Y-106364004D01*
X142307748Y-106429594D01*
X142295324Y-106468409D01*
X142292053Y-106472934D01*
X142274979Y-106508013D01*
X142269369Y-106550040D01*
X142261938Y-106593663D01*
X142246543Y-106613186D01*
X142229336Y-106636248D01*
X142214452Y-106685090D01*
X142211315Y-106702671D01*
X142194413Y-106782427D01*
X142165256Y-106860885D01*
X142122355Y-106946825D01*
X142099361Y-107005690D01*
X142090967Y-107055239D01*
X142083455Y-107093245D01*
X142069677Y-107105192D01*
X142051982Y-107123244D01*
X142035927Y-107167666D01*
X142033745Y-107177468D01*
X142019145Y-107225116D01*
X142002115Y-107249074D01*
X141999284Y-107249745D01*
X141983175Y-107267060D01*
X141979466Y-107291045D01*
X141970303Y-107324604D01*
X141957590Y-107332346D01*
X141936453Y-107349868D01*
X141921722Y-107383972D01*
X141906420Y-107422652D01*
X141893422Y-107435794D01*
X141876988Y-107453097D01*
X141851020Y-107496984D01*
X141835091Y-107528721D01*
X141807401Y-107582295D01*
X141785749Y-107615789D01*
X141778875Y-107621452D01*
X141762218Y-107637963D01*
X141732865Y-107680231D01*
X141711863Y-107714379D01*
X141677637Y-107767196D01*
X141649928Y-107800861D01*
X141639852Y-107807306D01*
X141623253Y-107823262D01*
X141622662Y-107828857D01*
X141608671Y-107857069D01*
X141574266Y-107898552D01*
X141566911Y-107906085D01*
X141530230Y-107946864D01*
X141511705Y-107975574D01*
X141511160Y-107978446D01*
X141496296Y-108002517D01*
X141460044Y-108038942D01*
X141455410Y-108042977D01*
X141417393Y-108081937D01*
X141399803Y-108112453D01*
X141399659Y-108114267D01*
X141381646Y-108135049D01*
X141366208Y-108137712D01*
X141336519Y-108148020D01*
X141332758Y-108156774D01*
X141317878Y-108182195D01*
X141281854Y-108221702D01*
X141237608Y-108263036D01*
X141198061Y-108293939D01*
X141178709Y-108302915D01*
X141157150Y-108319106D01*
X141132056Y-108354541D01*
X141104202Y-108392060D01*
X141082622Y-108406167D01*
X141055502Y-108419972D01*
X141015593Y-108453625D01*
X141011357Y-108457793D01*
X140970926Y-108492852D01*
X140941485Y-108509254D01*
X140939718Y-108509419D01*
X140911562Y-108522296D01*
X140868031Y-108553987D01*
X140859623Y-108561045D01*
X140815654Y-108595164D01*
X140784847Y-108612664D01*
X140781800Y-108613245D01*
X140756435Y-108627115D01*
X140714455Y-108661099D01*
X140699059Y-108675196D01*
X140651482Y-108713805D01*
X140612280Y-108735111D01*
X140604283Y-108736574D01*
X140577055Y-108747608D01*
X140574549Y-108754986D01*
X140555650Y-108773165D01*
X140518798Y-108786355D01*
X140477032Y-108802937D01*
X140463048Y-108819569D01*
X140444979Y-108837543D01*
X140429597Y-108839826D01*
X140399907Y-108850106D01*
X140396147Y-108858836D01*
X140376923Y-108876048D01*
X140330547Y-108891184D01*
X140329246Y-108891452D01*
X140282429Y-108906436D01*
X140262358Y-108923696D01*
X140262345Y-108924068D01*
X140243776Y-108939841D01*
X140220475Y-108943078D01*
X140171204Y-108958076D01*
X140150844Y-108974054D01*
X140106814Y-109000561D01*
X140081213Y-109005029D01*
X140046466Y-109013022D01*
X140039343Y-109023040D01*
X140019645Y-109037214D01*
X139970411Y-109050786D01*
X139950142Y-109054260D01*
X139894374Y-109067027D01*
X139863270Y-109082902D01*
X139860941Y-109087875D01*
X139842018Y-109104058D01*
X139810765Y-109108938D01*
X139752460Y-109121940D01*
X139717302Y-109139914D01*
X139664321Y-109161515D01*
X139600225Y-109170232D01*
X139550344Y-109175000D01*
X139526729Y-109186640D01*
X139526437Y-109188244D01*
X139506739Y-109202417D01*
X139457505Y-109215990D01*
X139437236Y-109219463D01*
X139381468Y-109232230D01*
X139350364Y-109248106D01*
X139348035Y-109253078D01*
X139327104Y-109262766D01*
X139269700Y-109269771D01*
X139183907Y-109273252D01*
X139151792Y-109273484D01*
X139036971Y-109276728D01*
X138960542Y-109286219D01*
X138927675Y-109299297D01*
X138903302Y-109301486D01*
X138836287Y-109303607D01*
X138728590Y-109305660D01*
X138582168Y-109307642D01*
X138398980Y-109309553D01*
X138180986Y-109311391D01*
X137930144Y-109313155D01*
X137648413Y-109314842D01*
X137337751Y-109316453D01*
X137000118Y-109317985D01*
X136637472Y-109319437D01*
X136251772Y-109320808D01*
X135844976Y-109322095D01*
X135419044Y-109323299D01*
X134975934Y-109324418D01*
X134517605Y-109325449D01*
X134046015Y-109326392D01*
X133563125Y-109327245D01*
X133070891Y-109328007D01*
X132571273Y-109328677D01*
X132066230Y-109329253D01*
X131557720Y-109329733D01*
X131047703Y-109330117D01*
X130538136Y-109330402D01*
X130030980Y-109330588D01*
X129528192Y-109330674D01*
X129031731Y-109330656D01*
X128543556Y-109330536D01*
X128065626Y-109330310D01*
X127599899Y-109329977D01*
X127148335Y-109329537D01*
X126712892Y-109328987D01*
X126295529Y-109328327D01*
X125898204Y-109327555D01*
X125522876Y-109326669D01*
X125171505Y-109325668D01*
X124846049Y-109324551D01*
X124548466Y-109323316D01*
X124280716Y-109321963D01*
X124044756Y-109320489D01*
X123842547Y-109318892D01*
X123676046Y-109317173D01*
X123547213Y-109315329D01*
X123458006Y-109313359D01*
X123410384Y-109311262D01*
X123403346Y-109310368D01*
X123336232Y-109296787D01*
X123248653Y-109284702D01*
X123193306Y-109279415D01*
X123116561Y-109269333D01*
X123055574Y-109253634D01*
X123030036Y-109240499D01*
X122983448Y-109217232D01*
X122945914Y-109211533D01*
X122899328Y-109203699D01*
X122879290Y-109190883D01*
X122850276Y-109178098D01*
X122794115Y-109170850D01*
X122770735Y-109170232D01*
X122700292Y-109163223D01*
X122642887Y-109145801D01*
X122632674Y-109139914D01*
X122577095Y-109115173D01*
X122539211Y-109108938D01*
X122500026Y-109100988D01*
X122489036Y-109088567D01*
X122469541Y-109072180D01*
X122421569Y-109057313D01*
X122410985Y-109055293D01*
X122359570Y-109042941D01*
X122333673Y-109030024D01*
X122332934Y-109028010D01*
X122314370Y-109012517D01*
X122267053Y-108988298D01*
X122232794Y-108973519D01*
X122174804Y-108947052D01*
X122138548Y-108925003D01*
X122132443Y-108917265D01*
X122113201Y-108905488D01*
X122078074Y-108901777D01*
X122021504Y-108889414D01*
X121990465Y-108870802D01*
X121952802Y-108845413D01*
X121933122Y-108839826D01*
X121910195Y-108824979D01*
X121909229Y-108819176D01*
X121891283Y-108800611D01*
X121877371Y-108798525D01*
X121834300Y-108785457D01*
X121815104Y-108772712D01*
X121750713Y-108727146D01*
X121676064Y-108686049D01*
X121664417Y-108680800D01*
X121625974Y-108655880D01*
X121583809Y-108618981D01*
X121542818Y-108585420D01*
X121510945Y-108571371D01*
X121510842Y-108571371D01*
X121486806Y-108558149D01*
X121485524Y-108552112D01*
X121467083Y-108531272D01*
X121439730Y-108519394D01*
X121412589Y-108502351D01*
X121362441Y-108463244D01*
X121296500Y-108408438D01*
X121221984Y-108344297D01*
X121146109Y-108277187D01*
X121076090Y-108213474D01*
X121019144Y-108159521D01*
X120982487Y-108121695D01*
X120972618Y-108107370D01*
X120958943Y-108088831D01*
X120924805Y-108052036D01*
X120911292Y-108038351D01*
X120842696Y-107967428D01*
X120804519Y-107921744D01*
X120794216Y-107900232D01*
X120783132Y-107878446D01*
X120747047Y-107836174D01*
X120710590Y-107797739D01*
X120686973Y-107767153D01*
X120682714Y-107755777D01*
X120670362Y-107732531D01*
X120639500Y-107690472D01*
X120626964Y-107674914D01*
X120591495Y-107624498D01*
X120572319Y-107582927D01*
X120571213Y-107575249D01*
X120553165Y-107540471D01*
X120537762Y-107531383D01*
X120510216Y-107503371D01*
X120504312Y-107477547D01*
X120495276Y-107443638D01*
X120482437Y-107435598D01*
X120461299Y-107418076D01*
X120446569Y-107383972D01*
X120429351Y-107345314D01*
X120412694Y-107332346D01*
X120397469Y-107314740D01*
X120392811Y-107283249D01*
X120379491Y-107233868D01*
X120359360Y-107208444D01*
X120330735Y-107167671D01*
X120325910Y-107143964D01*
X120316029Y-107111806D01*
X120303610Y-107105192D01*
X120285273Y-107087962D01*
X120281309Y-107065366D01*
X120266145Y-107018020D01*
X120247859Y-106994565D01*
X120222457Y-106951297D01*
X120213699Y-106905325D01*
X120201517Y-106846611D01*
X120180249Y-106806977D01*
X120156739Y-106757673D01*
X120147508Y-106699781D01*
X120141264Y-106649752D01*
X120126144Y-106620502D01*
X120125208Y-106619907D01*
X120108201Y-106591559D01*
X120102907Y-106554696D01*
X120093430Y-106498551D01*
X120070641Y-106437195D01*
X120070631Y-106437174D01*
X120052514Y-106382672D01*
X120037069Y-106304621D01*
X120028319Y-106227549D01*
X120020725Y-106136393D01*
X120009664Y-106025337D01*
X119997264Y-105915454D01*
X119994625Y-105893989D01*
X119982163Y-105712842D01*
X119991792Y-105526713D01*
X119994560Y-105501631D01*
X120006593Y-105391086D01*
X120018042Y-105274214D01*
X120026956Y-105171298D01*
X120029032Y-105143504D01*
X120037198Y-105067198D01*
X120048766Y-105007889D01*
X120061437Y-104976864D01*
X120063305Y-104975339D01*
X120078648Y-104948594D01*
X120092181Y-104894928D01*
X120097684Y-104856068D01*
X120107430Y-104793734D01*
X120120322Y-104750289D01*
X120128090Y-104739071D01*
X120143374Y-104711891D01*
X120147508Y-104680079D01*
X120161168Y-104631043D01*
X120180958Y-104606493D01*
X120204118Y-104569156D01*
X120214380Y-104513957D01*
X120214409Y-104511037D01*
X120219740Y-104464273D01*
X120232788Y-104441671D01*
X120234937Y-104441289D01*
X120253525Y-104423487D01*
X120269870Y-104380543D01*
X120270159Y-104379338D01*
X120286341Y-104335985D01*
X120304980Y-104317399D01*
X120305382Y-104317387D01*
X120320029Y-104299495D01*
X120325910Y-104257964D01*
X120336909Y-104205558D01*
X120359360Y-104172834D01*
X120387985Y-104132062D01*
X120392811Y-104108354D01*
X120402692Y-104076196D01*
X120415111Y-104069582D01*
X120435292Y-104053021D01*
X120437411Y-104040816D01*
X120455399Y-104008936D01*
X120470862Y-104000163D01*
X120500534Y-103972159D01*
X120504312Y-103955926D01*
X120515898Y-103918475D01*
X120543561Y-103866536D01*
X120576656Y-103818687D01*
X120592998Y-103801127D01*
X120616544Y-103772367D01*
X120647956Y-103725915D01*
X120674495Y-103680707D01*
X120676043Y-103677679D01*
X120702954Y-103642080D01*
X120742802Y-103603035D01*
X120779044Y-103565076D01*
X120794215Y-103535562D01*
X120794216Y-103535466D01*
X120808493Y-103513208D01*
X120815013Y-103512021D01*
X120837562Y-103494955D01*
X120850226Y-103469961D01*
X120871596Y-103439361D01*
X120919160Y-103387013D01*
X120986265Y-103319086D01*
X121066260Y-103241750D01*
X121152491Y-103161176D01*
X121238308Y-103083534D01*
X121317057Y-103014995D01*
X121382087Y-102961727D01*
X121426745Y-102929903D01*
X121438679Y-102924144D01*
X121475888Y-102905614D01*
X121485524Y-102891117D01*
X121502677Y-102872554D01*
X121508889Y-102871858D01*
X121539653Y-102858345D01*
X121581089Y-102825804D01*
X121581525Y-102825395D01*
X121632071Y-102783925D01*
X121675236Y-102756199D01*
X121702793Y-102728047D01*
X121722260Y-102684469D01*
X121730234Y-102640017D01*
X121723313Y-102609247D01*
X121710950Y-102603403D01*
X121692336Y-102585339D01*
X121675795Y-102540873D01*
X121673558Y-102530899D01*
X121658669Y-102479586D01*
X121641421Y-102448816D01*
X121639097Y-102447078D01*
X121627938Y-102421648D01*
X121620769Y-102368734D01*
X121619325Y-102327351D01*
X121612659Y-102250756D01*
X121595093Y-102192451D01*
X121586584Y-102178854D01*
X121575524Y-102144600D01*
X121566468Y-102075940D01*
X121559415Y-101979728D01*
X121554366Y-101862818D01*
X121551320Y-101732063D01*
X121550279Y-101594318D01*
X121551240Y-101456435D01*
X121554205Y-101325268D01*
X121559174Y-101207671D01*
X121566147Y-101110498D01*
X121575123Y-101040602D01*
X121586102Y-101004837D01*
X121586584Y-101004212D01*
X121606602Y-100959307D01*
X121618155Y-100893613D01*
X121619325Y-100866041D01*
X121623653Y-100805670D01*
X121634630Y-100764168D01*
X121641626Y-100755192D01*
X121659643Y-100726404D01*
X121664063Y-100697184D01*
X121674449Y-100646298D01*
X121697514Y-100592791D01*
X121720505Y-100530363D01*
X121730788Y-100459729D01*
X121730827Y-100455929D01*
X121739518Y-100396239D01*
X121761260Y-100355119D01*
X121764277Y-100352509D01*
X121792869Y-100312412D01*
X121797727Y-100289248D01*
X121808624Y-100250775D01*
X121820028Y-100238932D01*
X121837482Y-100210379D01*
X121842328Y-100177237D01*
X121856021Y-100125134D01*
X121875778Y-100097329D01*
X121903536Y-100057046D01*
X121909229Y-100033492D01*
X121920580Y-99997027D01*
X121949220Y-99943313D01*
X121964979Y-99918850D01*
X121998573Y-99863060D01*
X122018431Y-99817497D01*
X122020730Y-99805035D01*
X122038779Y-99770209D01*
X122054180Y-99761115D01*
X122080173Y-99733477D01*
X122087631Y-99699812D01*
X122094331Y-99662056D01*
X122106419Y-99650395D01*
X122127221Y-99633687D01*
X122156821Y-99591812D01*
X122167745Y-99572956D01*
X122196959Y-99522429D01*
X122218590Y-99489700D01*
X122222610Y-99485192D01*
X122240869Y-99462547D01*
X122272143Y-99417878D01*
X122285754Y-99397428D01*
X122320964Y-99350269D01*
X122349704Y-99322828D01*
X122357053Y-99319989D01*
X122376090Y-99303645D01*
X122377534Y-99294131D01*
X122391792Y-99266320D01*
X122428874Y-99219987D01*
X122472310Y-99173790D01*
X122565419Y-99079447D01*
X122644784Y-98996066D01*
X122706011Y-98928483D01*
X122744707Y-98881530D01*
X122756639Y-98860921D01*
X122773637Y-98845375D01*
X122778083Y-98845029D01*
X122804411Y-98831716D01*
X122851187Y-98797119D01*
X122898471Y-98757265D01*
X122968412Y-98696711D01*
X123052809Y-98625723D01*
X123125299Y-98566249D01*
X123191197Y-98512727D01*
X123246380Y-98467338D01*
X123280006Y-98439007D01*
X123282072Y-98437184D01*
X123316154Y-98414930D01*
X123329505Y-98411371D01*
X123356669Y-98398529D01*
X123399652Y-98366910D01*
X123408176Y-98359745D01*
X123456738Y-98325360D01*
X123497299Y-98308473D01*
X123501616Y-98308119D01*
X123542840Y-98292504D01*
X123552765Y-98282101D01*
X123582787Y-98256586D01*
X123635839Y-98224792D01*
X123654224Y-98215454D01*
X123705794Y-98186981D01*
X123735220Y-98164113D01*
X123737850Y-98158870D01*
X123756449Y-98145625D01*
X123779720Y-98142915D01*
X123828992Y-98127917D01*
X123849352Y-98111940D01*
X123883404Y-98085886D01*
X123900339Y-98080964D01*
X123938603Y-98072767D01*
X123992549Y-98052802D01*
X124046603Y-98028008D01*
X124085188Y-98005325D01*
X124094654Y-97994388D01*
X124113707Y-97981695D01*
X124148598Y-97977712D01*
X124197872Y-97969045D01*
X124256213Y-97947827D01*
X124307994Y-97921230D01*
X124337585Y-97896427D01*
X124339816Y-97889948D01*
X124358916Y-97877957D01*
X124391446Y-97874460D01*
X124450871Y-97861965D01*
X124486222Y-97844141D01*
X124541873Y-97824243D01*
X124634634Y-97814190D01*
X124678720Y-97813166D01*
X124756055Y-97810289D01*
X124814187Y-97803392D01*
X124840151Y-97794199D01*
X124868437Y-97778479D01*
X124921760Y-97763939D01*
X124930668Y-97762288D01*
X124982230Y-97748421D01*
X125008218Y-97731821D01*
X125008965Y-97728971D01*
X125030744Y-97723270D01*
X125094005Y-97718414D01*
X125195641Y-97714495D01*
X125332540Y-97711603D01*
X125501594Y-97709827D01*
X125689123Y-97709257D01*
X125858160Y-97709815D01*
X126011880Y-97711396D01*
X126144877Y-97713858D01*
X126251745Y-97717061D01*
X126327079Y-97720863D01*
X126365472Y-97725123D01*
X126369281Y-97727001D01*
X126389494Y-97738892D01*
X126442574Y-97753226D01*
X126517180Y-97766963D01*
X126519808Y-97767361D01*
X126643906Y-97786595D01*
X126731442Y-97801948D01*
X126790030Y-97815217D01*
X126827285Y-97828197D01*
X126850821Y-97842687D01*
X126855163Y-97846485D01*
X126896274Y-97864871D01*
X126958682Y-97874179D01*
X126971123Y-97874460D01*
X127027885Y-97878092D01*
X127061479Y-97887102D01*
X127064306Y-97889948D01*
X127094689Y-97915896D01*
X127152013Y-97942760D01*
X127219282Y-97964367D01*
X127279497Y-97974545D01*
X127296327Y-97974207D01*
X127345927Y-97959341D01*
X127370460Y-97920211D01*
X127374370Y-97905436D01*
X127391638Y-97859340D01*
X127426573Y-97786143D01*
X127474442Y-97694456D01*
X127530510Y-97592890D01*
X127590043Y-97490056D01*
X127648306Y-97394567D01*
X127692516Y-97326751D01*
X127744693Y-97253754D01*
X127811725Y-97165243D01*
X127885913Y-97070831D01*
X127959557Y-96980132D01*
X128024958Y-96902759D01*
X128074416Y-96848327D01*
X128080794Y-96841940D01*
X128129764Y-96788698D01*
X128168761Y-96738688D01*
X128196104Y-96709352D01*
X128250200Y-96659294D01*
X128323856Y-96594577D01*
X128409879Y-96521266D01*
X128501074Y-96445423D01*
X128590248Y-96373114D01*
X128670206Y-96310402D01*
X128726960Y-96268165D01*
X128858835Y-96178937D01*
X129007319Y-96086485D01*
X129157644Y-95999536D01*
X129295045Y-95926816D01*
X129346367Y-95902144D01*
X129415940Y-95868835D01*
X129468264Y-95841544D01*
X129491542Y-95826544D01*
X129519341Y-95812170D01*
X129569593Y-95797292D01*
X129630349Y-95777980D01*
X129705093Y-95747424D01*
X129734367Y-95733703D01*
X129799619Y-95705325D01*
X129853850Y-95688010D01*
X129871195Y-95685517D01*
X129917975Y-95676255D01*
X129973800Y-95654669D01*
X130030567Y-95632669D01*
X130075384Y-95623693D01*
X130115737Y-95612762D01*
X130126876Y-95602915D01*
X130156589Y-95588840D01*
X130210410Y-95582320D01*
X130215941Y-95582265D01*
X130290224Y-95574727D01*
X130354002Y-95558213D01*
X130417109Y-95542893D01*
X130517216Y-95529389D01*
X130646748Y-95518009D01*
X130798135Y-95509063D01*
X130963803Y-95502858D01*
X131136180Y-95499706D01*
X131307695Y-95499913D01*
G37*
G36*
X158625518Y-95499913D02*
G01*
X158788597Y-95503790D01*
X158888640Y-95508551D01*
X159016958Y-95517165D01*
X159131103Y-95526738D01*
X159223047Y-95536445D01*
X159284760Y-95545460D01*
X159306770Y-95551498D01*
X159354134Y-95571208D01*
X159426578Y-95592731D01*
X159505166Y-95611226D01*
X159570960Y-95621850D01*
X159585524Y-95622782D01*
X159637073Y-95632957D01*
X159693999Y-95654669D01*
X159754495Y-95676868D01*
X159805147Y-95685517D01*
X159851440Y-95694201D01*
X159918893Y-95716461D01*
X159964275Y-95735007D01*
X160035550Y-95766418D01*
X160130915Y-95808277D01*
X160234105Y-95853451D01*
X160276832Y-95872118D01*
X160390988Y-95923976D01*
X160498115Y-95976306D01*
X160590646Y-96025049D01*
X160661011Y-96066147D01*
X160701641Y-96095541D01*
X160707970Y-96103314D01*
X160733491Y-96118961D01*
X160737153Y-96119176D01*
X160764744Y-96131132D01*
X160815220Y-96161950D01*
X160877203Y-96204049D01*
X160939316Y-96249848D01*
X160969633Y-96274054D01*
X161002672Y-96299196D01*
X161053821Y-96336000D01*
X161068541Y-96346330D01*
X161118719Y-96385459D01*
X161189808Y-96446192D01*
X161273671Y-96520990D01*
X161362170Y-96602313D01*
X161447165Y-96682623D01*
X161520519Y-96754382D01*
X161574095Y-96810049D01*
X161593116Y-96832274D01*
X161638345Y-96887917D01*
X161689937Y-96947711D01*
X161694983Y-96953335D01*
X161748538Y-97015904D01*
X161814867Y-97097951D01*
X161885687Y-97188718D01*
X161952712Y-97277444D01*
X162007659Y-97353369D01*
X162038493Y-97399501D01*
X162065417Y-97445345D01*
X162106869Y-97518490D01*
X162157440Y-97609292D01*
X162211722Y-97708108D01*
X162217976Y-97719582D01*
X162273193Y-97819849D01*
X162313754Y-97888979D01*
X162344526Y-97932970D01*
X162370375Y-97957818D01*
X162396168Y-97969520D01*
X162424313Y-97973858D01*
X162472979Y-97972784D01*
X162495519Y-97961473D01*
X162495708Y-97960011D01*
X162514945Y-97941876D01*
X162561345Y-97926347D01*
X162562609Y-97926086D01*
X162609426Y-97911102D01*
X162629497Y-97893842D01*
X162629510Y-97893470D01*
X162648942Y-97880281D01*
X162695965Y-97874473D01*
X162698545Y-97874460D01*
X162770486Y-97864809D01*
X162826771Y-97846117D01*
X162973146Y-97793488D01*
X163152990Y-97760661D01*
X163170918Y-97758637D01*
X163242417Y-97748296D01*
X163294091Y-97735927D01*
X163311611Y-97726996D01*
X163336429Y-97721932D01*
X163398941Y-97717743D01*
X163492250Y-97714425D01*
X163609458Y-97711973D01*
X163743669Y-97710383D01*
X163887986Y-97709652D01*
X164035512Y-97709774D01*
X164179350Y-97710745D01*
X164312603Y-97712561D01*
X164428374Y-97715218D01*
X164519766Y-97718711D01*
X164579882Y-97723036D01*
X164601679Y-97727803D01*
X164628535Y-97738929D01*
X164687422Y-97750629D01*
X164765892Y-97760463D01*
X164770335Y-97760883D01*
X164849491Y-97770550D01*
X164909722Y-97782213D01*
X164938577Y-97793430D01*
X164938991Y-97793962D01*
X164968849Y-97809144D01*
X165000229Y-97813166D01*
X165057339Y-97826116D01*
X165092376Y-97844141D01*
X165148084Y-97867492D01*
X165197122Y-97874460D01*
X165252477Y-97884133D01*
X165324667Y-97908762D01*
X165363433Y-97926086D01*
X165436408Y-97956130D01*
X165504641Y-97974744D01*
X165531865Y-97977712D01*
X165577385Y-97983862D01*
X165595445Y-97997969D01*
X165614366Y-98017543D01*
X165651195Y-98031183D01*
X165692942Y-98047127D01*
X165706946Y-98062552D01*
X165725970Y-98076618D01*
X165760311Y-98080964D01*
X165806558Y-98092498D01*
X165826512Y-98111940D01*
X165857147Y-98139422D01*
X165874986Y-98142915D01*
X165915585Y-98154271D01*
X165970307Y-98182299D01*
X165981612Y-98189431D01*
X166066389Y-98243541D01*
X166126020Y-98277660D01*
X166170418Y-98297328D01*
X166180827Y-98300801D01*
X166213750Y-98319516D01*
X166219852Y-98331177D01*
X166237999Y-98347279D01*
X166254002Y-98349419D01*
X166291212Y-98366126D01*
X166300989Y-98380395D01*
X166329662Y-98407849D01*
X166345954Y-98411371D01*
X166382112Y-98425493D01*
X166426501Y-98459810D01*
X166429751Y-98462997D01*
X166471089Y-98498136D01*
X166502468Y-98514475D01*
X166504352Y-98514623D01*
X166531447Y-98531124D01*
X166540120Y-98545598D01*
X166568447Y-98573047D01*
X166584467Y-98576574D01*
X166616665Y-98591529D01*
X166671970Y-98632962D01*
X166744804Y-98695724D01*
X166829589Y-98774667D01*
X166920748Y-98864644D01*
X167012702Y-98960504D01*
X167077510Y-99031671D01*
X167143532Y-99105569D01*
X167201176Y-99169287D01*
X167243291Y-99214970D01*
X167260706Y-99232976D01*
X167291390Y-99268988D01*
X167326753Y-99319195D01*
X167327742Y-99320740D01*
X167358577Y-99361904D01*
X167382359Y-99381642D01*
X167384274Y-99381940D01*
X167399095Y-99399042D01*
X167401766Y-99418289D01*
X167416109Y-99457980D01*
X167450817Y-99504107D01*
X167452721Y-99506053D01*
X167495453Y-99557563D01*
X167539996Y-99623458D01*
X167551861Y-99643718D01*
X167585736Y-99704350D01*
X167613885Y-99754732D01*
X167621086Y-99767620D01*
X167643642Y-99809859D01*
X167674173Y-99869167D01*
X167683622Y-99887875D01*
X167711278Y-99940441D01*
X167731833Y-99975112D01*
X167736270Y-99980802D01*
X167763057Y-100016417D01*
X167789025Y-100065317D01*
X167802844Y-100105637D01*
X167803171Y-100109892D01*
X167812923Y-100144265D01*
X167837049Y-100195900D01*
X167843822Y-100208262D01*
X167873612Y-100269541D01*
X167906049Y-100348862D01*
X167923949Y-100398972D01*
X167947917Y-100461794D01*
X167970235Y-100504835D01*
X167983648Y-100517712D01*
X167996841Y-100535966D01*
X168004191Y-100581225D01*
X168004663Y-100595151D01*
X168013904Y-100662278D01*
X168035298Y-100720781D01*
X168037323Y-100724216D01*
X168061060Y-100783704D01*
X168069984Y-100841737D01*
X168075907Y-100890670D01*
X168089136Y-100918110D01*
X168089724Y-100918478D01*
X168099482Y-100942623D01*
X168109594Y-100998079D01*
X168118442Y-101074893D01*
X168121635Y-101114569D01*
X168130062Y-101202605D01*
X168141426Y-101278496D01*
X168153748Y-101330079D01*
X168158435Y-101341065D01*
X168169709Y-101382479D01*
X168177270Y-101453674D01*
X168181143Y-101543274D01*
X168181354Y-101639907D01*
X168177927Y-101732195D01*
X168170888Y-101808766D01*
X168160262Y-101858243D01*
X168157285Y-101864643D01*
X168144263Y-101904948D01*
X168131907Y-101973523D01*
X168122420Y-102057362D01*
X168120651Y-102080718D01*
X168113184Y-102161072D01*
X168103450Y-102224407D01*
X168093184Y-102260357D01*
X168089890Y-102264494D01*
X168076214Y-102290946D01*
X168070774Y-102336893D01*
X168060205Y-102398837D01*
X168039978Y-102444089D01*
X168019810Y-102490879D01*
X168002549Y-102559450D01*
X167996138Y-102600512D01*
X167990325Y-102664492D01*
X167996459Y-102706139D01*
X168021402Y-102741840D01*
X168072014Y-102787978D01*
X168076123Y-102791528D01*
X168129868Y-102835300D01*
X168171540Y-102864477D01*
X168187929Y-102871858D01*
X168214463Y-102885642D01*
X168254074Y-102919252D01*
X168258373Y-102923484D01*
X168296611Y-102958345D01*
X168321357Y-102974896D01*
X168322728Y-102975110D01*
X168343838Y-102989119D01*
X168388292Y-103026709D01*
X168449049Y-103081225D01*
X168519071Y-103146013D01*
X168591317Y-103214418D01*
X168658749Y-103279784D01*
X168714327Y-103335459D01*
X168751012Y-103374786D01*
X168762082Y-103390456D01*
X168780181Y-103406713D01*
X168795532Y-103408769D01*
X168825097Y-103425299D01*
X168828983Y-103439745D01*
X168840227Y-103467236D01*
X168849780Y-103470720D01*
X168872772Y-103487682D01*
X168883850Y-103509444D01*
X168906932Y-103547124D01*
X168949800Y-103597293D01*
X168971801Y-103619372D01*
X169020116Y-103671641D01*
X169054631Y-103720185D01*
X169061885Y-103735527D01*
X169081902Y-103770782D01*
X169098089Y-103780476D01*
X169116547Y-103797223D01*
X169118886Y-103811452D01*
X169130130Y-103838944D01*
X169139684Y-103842428D01*
X169161607Y-103859631D01*
X169176140Y-103888891D01*
X169193726Y-103929401D01*
X169205518Y-103945680D01*
X169225486Y-103973075D01*
X169257738Y-104031426D01*
X169298325Y-104113222D01*
X169333161Y-104188322D01*
X169360260Y-104240495D01*
X169383440Y-104271929D01*
X169390781Y-104276086D01*
X169403752Y-104293954D01*
X169408790Y-104334090D01*
X169420468Y-104392708D01*
X169441531Y-104432180D01*
X169467898Y-104478477D01*
X169474981Y-104508403D01*
X169486121Y-104539069D01*
X169497991Y-104544541D01*
X169512059Y-104562840D01*
X169519783Y-104608458D01*
X169520291Y-104625668D01*
X169528467Y-104686238D01*
X169548645Y-104732104D01*
X169553741Y-104737770D01*
X169576679Y-104778870D01*
X169587130Y-104836798D01*
X169587192Y-104841279D01*
X169592112Y-104892631D01*
X169604164Y-104923099D01*
X169606227Y-104924705D01*
X169616719Y-104948993D01*
X169627970Y-105004088D01*
X169638006Y-105079576D01*
X169640653Y-105106486D01*
X169650203Y-105187765D01*
X169662045Y-105253412D01*
X169674039Y-105292308D01*
X169677368Y-105297119D01*
X169684236Y-105322819D01*
X169689769Y-105380924D01*
X169693952Y-105463860D01*
X169696768Y-105564053D01*
X169698203Y-105673929D01*
X169698241Y-105785916D01*
X169696867Y-105892440D01*
X169694065Y-105985927D01*
X169689820Y-106058803D01*
X169684116Y-106103495D01*
X169679030Y-106113972D01*
X169668437Y-106133009D01*
X169657073Y-106183812D01*
X169646849Y-106256923D01*
X169643585Y-106289424D01*
X169634174Y-106370478D01*
X169622747Y-106434694D01*
X169611292Y-106471758D01*
X169607497Y-106476496D01*
X169591973Y-106503914D01*
X169587192Y-106539999D01*
X169574298Y-106592796D01*
X169553741Y-106622857D01*
X169530109Y-106664623D01*
X169520291Y-106721462D01*
X169506268Y-106802768D01*
X169462929Y-106904963D01*
X169429656Y-106965521D01*
X169413048Y-107014636D01*
X169408790Y-107053286D01*
X169401536Y-107092233D01*
X169387500Y-107105192D01*
X169369805Y-107123244D01*
X169353750Y-107167666D01*
X169351568Y-107177468D01*
X169336967Y-107225116D01*
X169319938Y-107249074D01*
X169317107Y-107249745D01*
X169300705Y-107266962D01*
X169297288Y-107288836D01*
X169281767Y-107327312D01*
X169263838Y-107339814D01*
X169236292Y-107367826D01*
X169230388Y-107393649D01*
X169223458Y-107427678D01*
X169213662Y-107435794D01*
X169195808Y-107453128D01*
X169168935Y-107497084D01*
X169152914Y-107528721D01*
X169125224Y-107582295D01*
X169103572Y-107615789D01*
X169096697Y-107621452D01*
X169080040Y-107637963D01*
X169050687Y-107680231D01*
X169029685Y-107714379D01*
X168995460Y-107767196D01*
X168967751Y-107800861D01*
X168957675Y-107807306D01*
X168941075Y-107823262D01*
X168940484Y-107828857D01*
X168926494Y-107857069D01*
X168892088Y-107898552D01*
X168884734Y-107906085D01*
X168848084Y-107946580D01*
X168829540Y-107974689D01*
X168828983Y-107977460D01*
X168814405Y-107999534D01*
X168776778Y-108040079D01*
X168739782Y-108075761D01*
X168691259Y-108122109D01*
X168658862Y-108155765D01*
X168650581Y-108167099D01*
X168636364Y-108185432D01*
X168602126Y-108220012D01*
X168560488Y-108259004D01*
X168524070Y-108290574D01*
X168505740Y-108302915D01*
X168487478Y-108316423D01*
X168446576Y-108351969D01*
X168391602Y-108402088D01*
X168387214Y-108406167D01*
X168329689Y-108457333D01*
X168283278Y-108494267D01*
X168257567Y-108509373D01*
X168256934Y-108509419D01*
X168229201Y-108522281D01*
X168185903Y-108553941D01*
X168177446Y-108561045D01*
X168133476Y-108595164D01*
X168102669Y-108612664D01*
X168099622Y-108613245D01*
X168074257Y-108627115D01*
X168032277Y-108661099D01*
X168016882Y-108675196D01*
X167969305Y-108713805D01*
X167930103Y-108735111D01*
X167922105Y-108736574D01*
X167894897Y-108748919D01*
X167892372Y-108757224D01*
X167874426Y-108775789D01*
X167860514Y-108777875D01*
X167817586Y-108791149D01*
X167799189Y-108803738D01*
X167761462Y-108828784D01*
X167702514Y-108860330D01*
X167680519Y-108870851D01*
X167624908Y-108899052D01*
X167589367Y-108921746D01*
X167583885Y-108927590D01*
X167558318Y-108940808D01*
X167536440Y-108943078D01*
X167488877Y-108958006D01*
X167468667Y-108974054D01*
X167424637Y-109000561D01*
X167399035Y-109005029D01*
X167364289Y-109013022D01*
X167357165Y-109023040D01*
X167337467Y-109037214D01*
X167288234Y-109050786D01*
X167267964Y-109054260D01*
X167212197Y-109067027D01*
X167181092Y-109082902D01*
X167178763Y-109087875D01*
X167159840Y-109104058D01*
X167128588Y-109108938D01*
X167070283Y-109121940D01*
X167035124Y-109139914D01*
X166981882Y-109161684D01*
X166919364Y-109170232D01*
X166865877Y-109175338D01*
X166835302Y-109187709D01*
X166834672Y-109188542D01*
X166806385Y-109204262D01*
X166753062Y-109218803D01*
X166744155Y-109220453D01*
X166692592Y-109234320D01*
X166666605Y-109250921D01*
X166665857Y-109253770D01*
X166645159Y-109262703D01*
X166589431Y-109269471D01*
X166508227Y-109273116D01*
X166469615Y-109273484D01*
X166354794Y-109276728D01*
X166278365Y-109286219D01*
X166245498Y-109299297D01*
X166221125Y-109301486D01*
X166154110Y-109303607D01*
X166046412Y-109305660D01*
X165899990Y-109307642D01*
X165716803Y-109309553D01*
X165498809Y-109311391D01*
X165247967Y-109313155D01*
X164966236Y-109314842D01*
X164655574Y-109316453D01*
X164317941Y-109317985D01*
X163955295Y-109319437D01*
X163569594Y-109320808D01*
X163162799Y-109322095D01*
X162736867Y-109323299D01*
X162293757Y-109324418D01*
X161835428Y-109325449D01*
X161363838Y-109326392D01*
X160880947Y-109327245D01*
X160388713Y-109328007D01*
X159889096Y-109328677D01*
X159384052Y-109329253D01*
X158875543Y-109329733D01*
X158365525Y-109330117D01*
X157855959Y-109330402D01*
X157348802Y-109330588D01*
X156846014Y-109330674D01*
X156349553Y-109330656D01*
X155861378Y-109330536D01*
X155383448Y-109330310D01*
X154917722Y-109329977D01*
X154466158Y-109329537D01*
X154030715Y-109328987D01*
X153613351Y-109328327D01*
X153216026Y-109327555D01*
X152840699Y-109326669D01*
X152489328Y-109325668D01*
X152163871Y-109324551D01*
X151866289Y-109323316D01*
X151598538Y-109321963D01*
X151362579Y-109320489D01*
X151160370Y-109318892D01*
X150993869Y-109317173D01*
X150865036Y-109315329D01*
X150775828Y-109313359D01*
X150728206Y-109311262D01*
X150721169Y-109310368D01*
X150654055Y-109296787D01*
X150566475Y-109284702D01*
X150511128Y-109279415D01*
X150434384Y-109269333D01*
X150373397Y-109253634D01*
X150347858Y-109240499D01*
X150301271Y-109217232D01*
X150263737Y-109211533D01*
X150217150Y-109203699D01*
X150197113Y-109190883D01*
X150168099Y-109178098D01*
X150111938Y-109170850D01*
X150088558Y-109170232D01*
X150018115Y-109163223D01*
X149960710Y-109145801D01*
X149950497Y-109139914D01*
X149894918Y-109115173D01*
X149857034Y-109108938D01*
X149817848Y-109100988D01*
X149806858Y-109088567D01*
X149787364Y-109072180D01*
X149739392Y-109057313D01*
X149728807Y-109055293D01*
X149677392Y-109042941D01*
X149651496Y-109030024D01*
X149650756Y-109028010D01*
X149632193Y-109012517D01*
X149584876Y-108988298D01*
X149550616Y-108973519D01*
X149492627Y-108947052D01*
X149456370Y-108925003D01*
X149450265Y-108917265D01*
X149431023Y-108905488D01*
X149395896Y-108901777D01*
X149339326Y-108889414D01*
X149308288Y-108870802D01*
X149270625Y-108845413D01*
X149250944Y-108839826D01*
X149228018Y-108824979D01*
X149227051Y-108819176D01*
X149209105Y-108800611D01*
X149195194Y-108798525D01*
X149152122Y-108785457D01*
X149132926Y-108772712D01*
X149068536Y-108727146D01*
X148993887Y-108686049D01*
X148982239Y-108680800D01*
X148943796Y-108655880D01*
X148901631Y-108618981D01*
X148860640Y-108585420D01*
X148828768Y-108571371D01*
X148828664Y-108571371D01*
X148804628Y-108558149D01*
X148803346Y-108552112D01*
X148784906Y-108531272D01*
X148757552Y-108519394D01*
X148730412Y-108502351D01*
X148680263Y-108463244D01*
X148614323Y-108408438D01*
X148539807Y-108344297D01*
X148463931Y-108277187D01*
X148393912Y-108213474D01*
X148336966Y-108159521D01*
X148300309Y-108121695D01*
X148290440Y-108107370D01*
X148276766Y-108088831D01*
X148242627Y-108052036D01*
X148229115Y-108038351D01*
X148160519Y-107967428D01*
X148122342Y-107921744D01*
X148112038Y-107900232D01*
X148100954Y-107878446D01*
X148064870Y-107836174D01*
X148028412Y-107797739D01*
X148004544Y-107762859D01*
X148000537Y-107747856D01*
X147983936Y-107719383D01*
X147971458Y-107710242D01*
X147943939Y-107681887D01*
X147911795Y-107632022D01*
X147903961Y-107617167D01*
X147874619Y-107565742D01*
X147849026Y-107532283D01*
X147843838Y-107528184D01*
X147825615Y-107499376D01*
X147822135Y-107475680D01*
X147812723Y-107442789D01*
X147800259Y-107435598D01*
X147779122Y-107418076D01*
X147764391Y-107383972D01*
X147747174Y-107345314D01*
X147730516Y-107332346D01*
X147715292Y-107314740D01*
X147710633Y-107283249D01*
X147697314Y-107233868D01*
X147677183Y-107208444D01*
X147648558Y-107167671D01*
X147643733Y-107143964D01*
X147633852Y-107111806D01*
X147621432Y-107105192D01*
X147603096Y-107087962D01*
X147599132Y-107065366D01*
X147583968Y-107018020D01*
X147565682Y-106994565D01*
X147540280Y-106951297D01*
X147531522Y-106905325D01*
X147519340Y-106846611D01*
X147498072Y-106806977D01*
X147473105Y-106755727D01*
X147465331Y-106708607D01*
X147457940Y-106651806D01*
X147444249Y-106614464D01*
X147426647Y-106570337D01*
X147411314Y-106509521D01*
X147409788Y-106501167D01*
X147396201Y-106451455D01*
X147379238Y-106425035D01*
X147375119Y-106423728D01*
X147364904Y-106404775D01*
X147357365Y-106354671D01*
X147353910Y-106283549D01*
X147353829Y-106270195D01*
X147350587Y-106185797D01*
X147342073Y-106110285D01*
X147330104Y-106059590D01*
X147329673Y-106058528D01*
X147314460Y-105999221D01*
X147302837Y-105910169D01*
X147295188Y-105802822D01*
X147291901Y-105688630D01*
X147293361Y-105579043D01*
X147299954Y-105485510D01*
X147308564Y-105432509D01*
X147323506Y-105353465D01*
X147337255Y-105254280D01*
X147346893Y-105156081D01*
X147347063Y-105153728D01*
X147355252Y-105074848D01*
X147366482Y-105012765D01*
X147378649Y-104978318D01*
X147381684Y-104975238D01*
X147396707Y-104948556D01*
X147410038Y-104894938D01*
X147415507Y-104856068D01*
X147425253Y-104793734D01*
X147438145Y-104750289D01*
X147445912Y-104739071D01*
X147460078Y-104712367D01*
X147465331Y-104669434D01*
X147476153Y-104622025D01*
X147498781Y-104599025D01*
X147524081Y-104569148D01*
X147532231Y-104514214D01*
X147537346Y-104466179D01*
X147549937Y-104441981D01*
X147552760Y-104441289D01*
X147571348Y-104423487D01*
X147587692Y-104380543D01*
X147587982Y-104379338D01*
X147604164Y-104335985D01*
X147622802Y-104317399D01*
X147623204Y-104317387D01*
X147636943Y-104299269D01*
X147643613Y-104254893D01*
X147643733Y-104247320D01*
X147653549Y-104190918D01*
X147677183Y-104165366D01*
X147704729Y-104137354D01*
X147710633Y-104111531D01*
X147718778Y-104077609D01*
X147730333Y-104069582D01*
X147753183Y-104052817D01*
X147763486Y-104033444D01*
X147787502Y-103984996D01*
X147828766Y-103916006D01*
X147878825Y-103839688D01*
X147929226Y-103769255D01*
X147947566Y-103745716D01*
X147981234Y-103701023D01*
X147999469Y-103671150D01*
X148000537Y-103667291D01*
X148015284Y-103646060D01*
X148051290Y-103611096D01*
X148056288Y-103606756D01*
X148094304Y-103567796D01*
X148111894Y-103537280D01*
X148112038Y-103535466D01*
X148126316Y-103513208D01*
X148132836Y-103512021D01*
X148155223Y-103494918D01*
X148168488Y-103468682D01*
X148189979Y-103437829D01*
X148237701Y-103385282D01*
X148304977Y-103317225D01*
X148385128Y-103239841D01*
X148471477Y-103159313D01*
X148557347Y-103081826D01*
X148636060Y-103013562D01*
X148700939Y-102960704D01*
X148745307Y-102929437D01*
X148756544Y-102924131D01*
X148793732Y-102905602D01*
X148803346Y-102891117D01*
X148820499Y-102872554D01*
X148826711Y-102871858D01*
X148857475Y-102858345D01*
X148898912Y-102825804D01*
X148899347Y-102825395D01*
X148949893Y-102783925D01*
X148993058Y-102756199D01*
X149020616Y-102728047D01*
X149040083Y-102684469D01*
X149048057Y-102640017D01*
X149041136Y-102609247D01*
X149028772Y-102603403D01*
X149010159Y-102585339D01*
X148993617Y-102540873D01*
X148991381Y-102530899D01*
X148976492Y-102479586D01*
X148959243Y-102448816D01*
X148956920Y-102447078D01*
X148945761Y-102421648D01*
X148938592Y-102368734D01*
X148937148Y-102327351D01*
X148930482Y-102250756D01*
X148912916Y-102192451D01*
X148904407Y-102178854D01*
X148894220Y-102159781D01*
X148886299Y-102127413D01*
X148880385Y-102077135D01*
X148876222Y-102004336D01*
X148873553Y-101904401D01*
X148872121Y-101772717D01*
X148871667Y-101604671D01*
X148871666Y-101591533D01*
X148872061Y-101420791D01*
X148873417Y-101286731D01*
X148875992Y-101184741D01*
X148880043Y-101110206D01*
X148885826Y-101058514D01*
X148893600Y-101025050D01*
X148903621Y-101005203D01*
X148904407Y-101004212D01*
X148924425Y-100959307D01*
X148935978Y-100893613D01*
X148937148Y-100866041D01*
X148941476Y-100805670D01*
X148952453Y-100764168D01*
X148959448Y-100755192D01*
X148975944Y-100727078D01*
X148981748Y-100685644D01*
X148993693Y-100627244D01*
X149014490Y-100588773D01*
X149035819Y-100542542D01*
X149047335Y-100478640D01*
X149047940Y-100463452D01*
X149056716Y-100398702D01*
X149078444Y-100355736D01*
X149082100Y-100352509D01*
X149110692Y-100312412D01*
X149115550Y-100289248D01*
X149126447Y-100250775D01*
X149137850Y-100238932D01*
X149155304Y-100210379D01*
X149160151Y-100177237D01*
X149173844Y-100125134D01*
X149193601Y-100097329D01*
X149221358Y-100057046D01*
X149227051Y-100033492D01*
X149238402Y-99997027D01*
X149267042Y-99943313D01*
X149282802Y-99918850D01*
X149316306Y-99863872D01*
X149336187Y-99819983D01*
X149338553Y-99808212D01*
X149354304Y-99771649D01*
X149372003Y-99753647D01*
X149400628Y-99712875D01*
X149405453Y-99689167D01*
X149413793Y-99656988D01*
X149424242Y-99650395D01*
X149445043Y-99633687D01*
X149474644Y-99591812D01*
X149485568Y-99572956D01*
X149514782Y-99522429D01*
X149536413Y-99489700D01*
X149540432Y-99485192D01*
X149558691Y-99462547D01*
X149589966Y-99417878D01*
X149603577Y-99397428D01*
X149638787Y-99350269D01*
X149667526Y-99322828D01*
X149674875Y-99319989D01*
X149693863Y-99303618D01*
X149695357Y-99293838D01*
X149709627Y-99266853D01*
X149747285Y-99219816D01*
X149800600Y-99162265D01*
X149808338Y-99154448D01*
X149876643Y-99084738D01*
X149944014Y-99013951D01*
X149992315Y-98961343D01*
X150035139Y-98913616D01*
X150069677Y-98877468D01*
X150105877Y-98843753D01*
X150153687Y-98803329D01*
X150223055Y-98747051D01*
X150242424Y-98731452D01*
X150329177Y-98660478D01*
X150425038Y-98580368D01*
X150495743Y-98520078D01*
X150558263Y-98468379D01*
X150609774Y-98430058D01*
X150640672Y-98412169D01*
X150643346Y-98411663D01*
X150673302Y-98398525D01*
X150717831Y-98366590D01*
X150725999Y-98359745D01*
X150774561Y-98325360D01*
X150815122Y-98308473D01*
X150819439Y-98308119D01*
X150860662Y-98292504D01*
X150870588Y-98282101D01*
X150900609Y-98256586D01*
X150953661Y-98224792D01*
X150972047Y-98215454D01*
X151023617Y-98186981D01*
X151053042Y-98164113D01*
X151055673Y-98158870D01*
X151074272Y-98145625D01*
X151097543Y-98142915D01*
X151146815Y-98127917D01*
X151167174Y-98111940D01*
X151201227Y-98085886D01*
X151218162Y-98080964D01*
X151256426Y-98072767D01*
X151310372Y-98052802D01*
X151364425Y-98028008D01*
X151403011Y-98005325D01*
X151412477Y-97994388D01*
X151431684Y-97982122D01*
X151471698Y-97977712D01*
X151527724Y-97965285D01*
X151591216Y-97934557D01*
X151604012Y-97926086D01*
X151660535Y-97893049D01*
X151709751Y-97875384D01*
X151718931Y-97874460D01*
X151769653Y-97862332D01*
X151804045Y-97844141D01*
X151859696Y-97824243D01*
X151952456Y-97814190D01*
X151996543Y-97813166D01*
X152073878Y-97810289D01*
X152132010Y-97803392D01*
X152157974Y-97794199D01*
X152186260Y-97778479D01*
X152239583Y-97763939D01*
X152248491Y-97762288D01*
X152300053Y-97748421D01*
X152326040Y-97731821D01*
X152326788Y-97728971D01*
X152348566Y-97723270D01*
X152411828Y-97718414D01*
X152513463Y-97714495D01*
X152650363Y-97711603D01*
X152819417Y-97709827D01*
X153006946Y-97709257D01*
X153175983Y-97709815D01*
X153329702Y-97711396D01*
X153462699Y-97713858D01*
X153569568Y-97717061D01*
X153644901Y-97720863D01*
X153683295Y-97725123D01*
X153687104Y-97727001D01*
X153707317Y-97738892D01*
X153760396Y-97753226D01*
X153835003Y-97766963D01*
X153837631Y-97767361D01*
X153961729Y-97786595D01*
X154049265Y-97801948D01*
X154107853Y-97815217D01*
X154145108Y-97828197D01*
X154168644Y-97842687D01*
X154172986Y-97846485D01*
X154214096Y-97864871D01*
X154276505Y-97874179D01*
X154288946Y-97874460D01*
X154345708Y-97878092D01*
X154379302Y-97887102D01*
X154382129Y-97889948D01*
X154411741Y-97915377D01*
X154468072Y-97942891D01*
X154534262Y-97965783D01*
X154593454Y-97977348D01*
X154602797Y-97977712D01*
X154653120Y-97969264D01*
X154677941Y-97935907D01*
X154682497Y-97920923D01*
X154698512Y-97880566D01*
X154730802Y-97813345D01*
X154774591Y-97728810D01*
X154822299Y-97641502D01*
X154888848Y-97523385D01*
X154941068Y-97433056D01*
X154984826Y-97361478D01*
X155025989Y-97299616D01*
X155070427Y-97238433D01*
X155124005Y-97168894D01*
X155153784Y-97131045D01*
X155228324Y-97037198D01*
X155285656Y-96966758D01*
X155334397Y-96909461D01*
X155383164Y-96855041D01*
X155408812Y-96827250D01*
X155457583Y-96773631D01*
X155495279Y-96730179D01*
X155509163Y-96712603D01*
X155533015Y-96688331D01*
X155583266Y-96643339D01*
X155652474Y-96583805D01*
X155733196Y-96515912D01*
X155817990Y-96445840D01*
X155899413Y-96379769D01*
X155970023Y-96323881D01*
X156022378Y-96284355D01*
X156037235Y-96274054D01*
X156101457Y-96230855D01*
X156158138Y-96191452D01*
X156246428Y-96133266D01*
X156359554Y-96065277D01*
X156482439Y-95996104D01*
X156600003Y-95934367D01*
X156653039Y-95908529D01*
X156725350Y-95873580D01*
X156780773Y-95845000D01*
X156808328Y-95828476D01*
X156809141Y-95827691D01*
X156837012Y-95812823D01*
X156876042Y-95799925D01*
X156950648Y-95776538D01*
X157020588Y-95749291D01*
X157073883Y-95723435D01*
X157098553Y-95704218D01*
X157099044Y-95702193D01*
X157118381Y-95690304D01*
X157163396Y-95685517D01*
X157231218Y-95675570D01*
X157291623Y-95654669D01*
X157348390Y-95632669D01*
X157393207Y-95623693D01*
X157433560Y-95612762D01*
X157444698Y-95602915D01*
X157474411Y-95588840D01*
X157528233Y-95582320D01*
X157533764Y-95582265D01*
X157608046Y-95574727D01*
X157671824Y-95558213D01*
X157734932Y-95542893D01*
X157835038Y-95529389D01*
X157964571Y-95518009D01*
X158115957Y-95509063D01*
X158281625Y-95502858D01*
X158454003Y-95499706D01*
X158625518Y-95499913D01*
G37*
%TO.C,D5*%
X142566500Y-80518000D02*
X142566500Y-83058000D01*
X143546500Y-80552000D02*
X143546500Y-80708000D01*
X143546500Y-82868000D02*
X143546500Y-83024000D01*
X143546500Y-83023516D02*
G75*
G03*
X146778835Y-82866608I1560000J1235516D01*
G01*
X146778835Y-80709392D02*
G75*
G03*
X143546500Y-80552484I-1672335J-1078608D01*
G01*
%TO.C,D11*%
X140752500Y-90331000D02*
X140752500Y-90487000D01*
X140752500Y-92647000D02*
X140752500Y-92803000D01*
X139772500Y-90297000D02*
X139772500Y-92837000D01*
X143984835Y-90488392D02*
G75*
G03*
X140752500Y-90331484I-1672335J-1078608D01*
G01*
X140752500Y-92802516D02*
G75*
G03*
X143984835Y-92645608I1560000J1235516D01*
G01*
%TO.C,D4*%
X126710000Y-92490000D02*
X126710000Y-92646000D01*
X125730000Y-92456000D02*
X125730000Y-94996000D01*
X126710000Y-94806000D02*
X126710000Y-94962000D01*
X129942335Y-92647392D02*
G75*
G03*
X126710000Y-92490484I-1672335J-1078608D01*
G01*
X126710000Y-94961516D02*
G75*
G03*
X129942335Y-94804608I1560000J1235516D01*
G01*
%TO.C,D8*%
X146594500Y-92647000D02*
X146594500Y-92803000D01*
X145614500Y-90297000D02*
X145614500Y-92837000D01*
X146594500Y-90331000D02*
X146594500Y-90487000D01*
X146594500Y-92802516D02*
G75*
G03*
X149826835Y-92645608I1560000J1235516D01*
G01*
X149826835Y-90488392D02*
G75*
G03*
X146594500Y-90331484I-1672335J-1078608D01*
G01*
%TO.C,D7*%
X156246500Y-89472000D02*
X156246500Y-89628000D01*
X155266500Y-87122000D02*
X155266500Y-89662000D01*
X156246500Y-87156000D02*
X156246500Y-87312000D01*
X159478835Y-87313392D02*
G75*
G03*
X156246500Y-87156484I-1672335J-1078608D01*
G01*
X156246500Y-89627516D02*
G75*
G03*
X159478835Y-89470608I1560000J1235516D01*
G01*
%TO.C,D10*%
X149678500Y-93853000D02*
X149678500Y-96393000D01*
X150658500Y-96203000D02*
X150658500Y-96359000D01*
X150658500Y-93887000D02*
X150658500Y-94043000D01*
X150658500Y-96358516D02*
G75*
G03*
X153890835Y-96201608I1560000J1235516D01*
G01*
X153890835Y-94044392D02*
G75*
G03*
X150658500Y-93887484I-1672335J-1078608D01*
G01*
%TO.C,D9*%
X136180500Y-96330000D02*
X136180500Y-96486000D01*
X135200500Y-93980000D02*
X135200500Y-96520000D01*
X136180500Y-94014000D02*
X136180500Y-94170000D01*
X139412835Y-94171392D02*
G75*
G03*
X136180500Y-94014484I-1672335J-1078608D01*
G01*
X136180500Y-96485516D02*
G75*
G03*
X139412835Y-96328608I1560000J1235516D01*
G01*
%TO.C,D6*%
X129358500Y-86614000D02*
X129358500Y-89154000D01*
X130338500Y-86648000D02*
X130338500Y-86804000D01*
X130338500Y-88964000D02*
X130338500Y-89120000D01*
X130338500Y-89119516D02*
G75*
G03*
X133570835Y-88962608I1560000J1235516D01*
G01*
X133570835Y-86805392D02*
G75*
G03*
X130338500Y-86648484I-1672335J-1078608D01*
G01*
%TO.C,D2*%
X150658500Y-82076000D02*
X150658500Y-82232000D01*
X149678500Y-82042000D02*
X149678500Y-84582000D01*
X150658500Y-84392000D02*
X150658500Y-84548000D01*
X150658500Y-84547516D02*
G75*
G03*
X153890835Y-84390608I1560000J1235516D01*
G01*
X153890835Y-82233392D02*
G75*
G03*
X150658500Y-82076484I-1672335J-1078608D01*
G01*
%TD*%
%LPC*%
D12*
X142430500Y-117538500D02*
G75*
G03*
X146367500Y-117538500I1968500J0D01*
G01*
%TO.C,G\u002A\u002A\u002A*%
G36*
X145151954Y-77801633D02*
G01*
X145703631Y-77822009D01*
X146264324Y-77858119D01*
X146823521Y-77909364D01*
X147370708Y-77975145D01*
X147612753Y-78009709D01*
X148498738Y-78163798D01*
X149374545Y-78357913D01*
X150239428Y-78591571D01*
X151092638Y-78864294D01*
X151933430Y-79175599D01*
X152761056Y-79525008D01*
X153574768Y-79912038D01*
X154373819Y-80336210D01*
X155157463Y-80797043D01*
X155924952Y-81294057D01*
X156675539Y-81826771D01*
X157408477Y-82394704D01*
X158123018Y-82997376D01*
X158818416Y-83634306D01*
X159493923Y-84305014D01*
X160148792Y-85009020D01*
X160782277Y-85745842D01*
X161393629Y-86515000D01*
X161897538Y-87196957D01*
X162497029Y-88072033D01*
X163067505Y-88978137D01*
X163608615Y-89914479D01*
X164120009Y-90880264D01*
X164601338Y-91874699D01*
X165052250Y-92896992D01*
X165472397Y-93946350D01*
X165861427Y-95021980D01*
X166218991Y-96123089D01*
X166544739Y-97248884D01*
X166831922Y-98371829D01*
X166863677Y-98505900D01*
X166891383Y-98625851D01*
X166913784Y-98725988D01*
X166929622Y-98800619D01*
X166937640Y-98844048D01*
X166938135Y-98852805D01*
X166917129Y-98843830D01*
X166866588Y-98808806D01*
X166789565Y-98750090D01*
X166689110Y-98670039D01*
X166568276Y-98571008D01*
X166505272Y-98518545D01*
X166368909Y-98412174D01*
X166252800Y-98338576D01*
X166177402Y-98303687D01*
X166091321Y-98265112D01*
X166045879Y-98228601D01*
X166037393Y-98211137D01*
X165736000Y-97083684D01*
X165404966Y-95983152D01*
X165044556Y-94910018D01*
X164655035Y-93864756D01*
X164236668Y-92847843D01*
X163789720Y-91859755D01*
X163314456Y-90900966D01*
X162811140Y-89971953D01*
X162280038Y-89073190D01*
X161721415Y-88205155D01*
X161135536Y-87368322D01*
X160522665Y-86563168D01*
X159883068Y-85790167D01*
X159217009Y-85049795D01*
X158524753Y-84342529D01*
X158072191Y-83911279D01*
X157731090Y-83599562D01*
X157407742Y-83314078D01*
X157093400Y-83047663D01*
X156779321Y-82793156D01*
X156456757Y-82543397D01*
X156116964Y-82291222D01*
X155922935Y-82151310D01*
X155160479Y-81630757D01*
X154385250Y-81149554D01*
X153597522Y-80707799D01*
X152797568Y-80305589D01*
X151985664Y-79943023D01*
X151162082Y-79620197D01*
X150327097Y-79337210D01*
X149480983Y-79094160D01*
X148624014Y-78891144D01*
X147756464Y-78728260D01*
X146878606Y-78605606D01*
X145990715Y-78523279D01*
X145706596Y-78505582D01*
X145231410Y-78485374D01*
X144772352Y-78478587D01*
X144316237Y-78485498D01*
X143849880Y-78506388D01*
X143360095Y-78541536D01*
X143155407Y-78559581D01*
X142289955Y-78660236D01*
X141433114Y-78801224D01*
X140585618Y-78982090D01*
X139748205Y-79202379D01*
X138921612Y-79461635D01*
X138106574Y-79759401D01*
X137303829Y-80095224D01*
X136514113Y-80468645D01*
X135738163Y-80879211D01*
X134976715Y-81326466D01*
X134230506Y-81809953D01*
X133500272Y-82329217D01*
X132786750Y-82883803D01*
X132090677Y-83473254D01*
X131412790Y-84097115D01*
X130753824Y-84754931D01*
X130114516Y-85446245D01*
X129495604Y-86170603D01*
X128897823Y-86927547D01*
X128321910Y-87716624D01*
X128297984Y-87750787D01*
X127714654Y-88619712D01*
X127159729Y-89517381D01*
X126632959Y-90444339D01*
X126134098Y-91401127D01*
X125662895Y-92388289D01*
X125219104Y-93406369D01*
X124802475Y-94455908D01*
X124412761Y-95537451D01*
X124049713Y-96651540D01*
X123728123Y-97744743D01*
X123585640Y-98254763D01*
X123469698Y-98310961D01*
X123366825Y-98370255D01*
X123236874Y-98461395D01*
X123080622Y-98583790D01*
X122898845Y-98736854D01*
X122839576Y-98788556D01*
X122763520Y-98853055D01*
X122706004Y-98897115D01*
X122671414Y-98917635D01*
X122663673Y-98912863D01*
X122672267Y-98881228D01*
X122689273Y-98815613D01*
X122713061Y-98722417D01*
X122742002Y-98608039D01*
X122774467Y-98478877D01*
X122790291Y-98415636D01*
X122944944Y-97822171D01*
X123118044Y-97204149D01*
X123306060Y-96573108D01*
X123505458Y-95940587D01*
X123712710Y-95318124D01*
X123910065Y-94756550D01*
X124302124Y-93721348D01*
X124720609Y-92713286D01*
X125165034Y-91732918D01*
X125634910Y-90780798D01*
X126129751Y-89857476D01*
X126649069Y-88963508D01*
X127192377Y-88099444D01*
X127759186Y-87265839D01*
X128349011Y-86463245D01*
X128961364Y-85692215D01*
X129595756Y-84953302D01*
X130251701Y-84247059D01*
X130928711Y-83574039D01*
X131626300Y-82934793D01*
X132343978Y-82329877D01*
X133081260Y-81759842D01*
X133837657Y-81225241D01*
X134612683Y-80726626D01*
X135405849Y-80264552D01*
X136216669Y-79839571D01*
X137044655Y-79452235D01*
X137613716Y-79212056D01*
X138441421Y-78898392D01*
X139272842Y-78624958D01*
X140110647Y-78391180D01*
X140957503Y-78196482D01*
X141816077Y-78040290D01*
X142689036Y-77922030D01*
X143579047Y-77841125D01*
X144117697Y-77810482D01*
X144619805Y-77797591D01*
X145151954Y-77801633D01*
G37*
G36*
X145033897Y-85054270D02*
G01*
X145253243Y-85056138D01*
X145443983Y-85059913D01*
X145614189Y-85066146D01*
X145771932Y-85075392D01*
X145925284Y-85088205D01*
X146082317Y-85105137D01*
X146251102Y-85126742D01*
X146439711Y-85153573D01*
X146612940Y-85179576D01*
X147313399Y-85307181D01*
X148008737Y-85475635D01*
X148698396Y-85684569D01*
X149381815Y-85933612D01*
X150058436Y-86222393D01*
X150727699Y-86550543D01*
X151389044Y-86917691D01*
X152041913Y-87323466D01*
X152685745Y-87767499D01*
X153319981Y-88249419D01*
X153944062Y-88768856D01*
X154557428Y-89325439D01*
X155159521Y-89918798D01*
X155749780Y-90548564D01*
X156327646Y-91214365D01*
X156892560Y-91915831D01*
X157000041Y-92055277D01*
X157280101Y-92430174D01*
X157570514Y-92835773D01*
X157865962Y-93263963D01*
X158161127Y-93706636D01*
X158450691Y-94155678D01*
X158729338Y-94602981D01*
X158991749Y-95040434D01*
X159232607Y-95459925D01*
X159234525Y-95463352D01*
X159263509Y-95515146D01*
X158734348Y-95521560D01*
X158477019Y-95525999D01*
X158256702Y-95533269D01*
X158065691Y-95544425D01*
X157896281Y-95560520D01*
X157740765Y-95582608D01*
X157591440Y-95611742D01*
X157440600Y-95648976D01*
X157280539Y-95695364D01*
X157142191Y-95739278D01*
X156939689Y-95808421D01*
X156774739Y-95871966D01*
X156641065Y-95932731D01*
X156532393Y-95993533D01*
X156453336Y-96048629D01*
X156404307Y-96083763D01*
X156369252Y-96103811D01*
X156362699Y-96105603D01*
X156346266Y-96088689D01*
X156311139Y-96041738D01*
X156261304Y-95970436D01*
X156200746Y-95880467D01*
X156141286Y-95789657D01*
X155617398Y-95003707D01*
X155086831Y-94255308D01*
X154549895Y-93544761D01*
X154006902Y-92872370D01*
X153458164Y-92238437D01*
X152903991Y-91643265D01*
X152344696Y-91087155D01*
X151780589Y-90570410D01*
X151211982Y-90093332D01*
X150639186Y-89656225D01*
X150062513Y-89259389D01*
X149482274Y-88903129D01*
X148898780Y-88587745D01*
X148555681Y-88422147D01*
X148041023Y-88199359D01*
X147536815Y-88011677D01*
X147034593Y-87856655D01*
X146525891Y-87731845D01*
X146002244Y-87634800D01*
X145669783Y-87587930D01*
X145461230Y-87567215D01*
X145219976Y-87552308D01*
X144957643Y-87543276D01*
X144685856Y-87540186D01*
X144416239Y-87543105D01*
X144160415Y-87552100D01*
X143930009Y-87567240D01*
X143826772Y-87577266D01*
X143239778Y-87661011D01*
X142658573Y-87782127D01*
X142082191Y-87941052D01*
X141509665Y-88138223D01*
X140940028Y-88374078D01*
X140372314Y-88649053D01*
X139805555Y-88963585D01*
X139238785Y-89318112D01*
X138671038Y-89713071D01*
X138101346Y-90148898D01*
X138053028Y-90187660D01*
X137852375Y-90354494D01*
X137629956Y-90548828D01*
X137391294Y-90765319D01*
X137141910Y-90998622D01*
X136887325Y-91243393D01*
X136633060Y-91494288D01*
X136384638Y-91745962D01*
X136147579Y-91993073D01*
X135927406Y-92230274D01*
X135823740Y-92345326D01*
X135471633Y-92751481D01*
X135110132Y-93189226D01*
X134744853Y-93651117D01*
X134381412Y-94129707D01*
X134025425Y-94617552D01*
X133682507Y-95107206D01*
X133358275Y-95591224D01*
X133253150Y-95753401D01*
X133196237Y-95841782D01*
X133147808Y-95916598D01*
X133112304Y-95971020D01*
X133094163Y-95998219D01*
X133092907Y-95999913D01*
X133072089Y-95994312D01*
X133027564Y-95970672D01*
X133001407Y-95954704D01*
X132924508Y-95912319D01*
X132837829Y-95873202D01*
X132816376Y-95865037D01*
X132737364Y-95831333D01*
X132662848Y-95791313D01*
X132644684Y-95779532D01*
X132562324Y-95736177D01*
X132442459Y-95692224D01*
X132292280Y-95649293D01*
X132118977Y-95609010D01*
X131929739Y-95572995D01*
X131731755Y-95542871D01*
X131532215Y-95520262D01*
X131473644Y-95515229D01*
X131403406Y-95512484D01*
X131301546Y-95512206D01*
X131176492Y-95514062D01*
X131036674Y-95517719D01*
X130890519Y-95522844D01*
X130746455Y-95529105D01*
X130612909Y-95536169D01*
X130498311Y-95543703D01*
X130411088Y-95551373D01*
X130359667Y-95558847D01*
X130357848Y-95559297D01*
X130340277Y-95561134D01*
X130333495Y-95551937D01*
X130339445Y-95526964D01*
X130360071Y-95481476D01*
X130397316Y-95410733D01*
X130453123Y-95309994D01*
X130478756Y-95264363D01*
X130989432Y-94388956D01*
X131514022Y-93552603D01*
X132052887Y-92754868D01*
X132606392Y-91995314D01*
X133174899Y-91273503D01*
X133758770Y-90588999D01*
X134358371Y-89941366D01*
X134974062Y-89330166D01*
X135606208Y-88754962D01*
X136255171Y-88215318D01*
X136489495Y-88032347D01*
X137126253Y-87566713D01*
X137774047Y-87139064D01*
X138432003Y-86749786D01*
X139099246Y-86399264D01*
X139774903Y-86087885D01*
X140458099Y-85816033D01*
X141147960Y-85584095D01*
X141843613Y-85392457D01*
X142544182Y-85241504D01*
X142976376Y-85169148D01*
X143178635Y-85139796D01*
X143359285Y-85115770D01*
X143526303Y-85096560D01*
X143687664Y-85081653D01*
X143851344Y-85070540D01*
X144025319Y-85062710D01*
X144217565Y-85057651D01*
X144436058Y-85054852D01*
X144688773Y-85053804D01*
X144777874Y-85053754D01*
X145033897Y-85054270D01*
G37*
G36*
X145101284Y-95267507D02*
G01*
X145604059Y-95314704D01*
X146106951Y-95402979D01*
X146609665Y-95532288D01*
X147111907Y-95702588D01*
X147613382Y-95913835D01*
X148113795Y-96165984D01*
X148612853Y-96458991D01*
X149110259Y-96792813D01*
X149287213Y-96921743D01*
X149408611Y-97014388D01*
X149546326Y-97123491D01*
X149695859Y-97245147D01*
X149852709Y-97375448D01*
X150012379Y-97510487D01*
X150170368Y-97646358D01*
X150322177Y-97779154D01*
X150463308Y-97904968D01*
X150589261Y-98019892D01*
X150695537Y-98120021D01*
X150777637Y-98201448D01*
X150831061Y-98260264D01*
X150836348Y-98266927D01*
X150881459Y-98325396D01*
X150828433Y-98358488D01*
X150783762Y-98391456D01*
X150723864Y-98441977D01*
X150678857Y-98483054D01*
X150608701Y-98540940D01*
X150532215Y-98591366D01*
X150488637Y-98613465D01*
X150424599Y-98651240D01*
X150335789Y-98721192D01*
X150223791Y-98822007D01*
X150146312Y-98896580D01*
X150003775Y-99036940D01*
X149889210Y-99150818D01*
X149799524Y-99241561D01*
X149731624Y-99312519D01*
X149682420Y-99367039D01*
X149648818Y-99408471D01*
X149627726Y-99440162D01*
X149616053Y-99465461D01*
X149613626Y-99473400D01*
X149586066Y-99533024D01*
X149545447Y-99586191D01*
X149512021Y-99624348D01*
X149461507Y-99687744D01*
X149401281Y-99766921D01*
X149349966Y-99836790D01*
X149269433Y-99955137D01*
X149215126Y-100052376D01*
X149182297Y-100137311D01*
X149176826Y-100157916D01*
X149153621Y-100233393D01*
X149124958Y-100298955D01*
X149105357Y-100329645D01*
X149074168Y-100380109D01*
X149062235Y-100422875D01*
X149056315Y-100460300D01*
X149041224Y-100527417D01*
X149019411Y-100613902D01*
X148999358Y-100687979D01*
X148937671Y-100909262D01*
X148737935Y-100667261D01*
X148540772Y-100434141D01*
X148324480Y-100188526D01*
X148100421Y-99942915D01*
X147879956Y-99709805D01*
X147714330Y-99541239D01*
X147368411Y-99210314D01*
X147032845Y-98918206D01*
X146705892Y-98663839D01*
X146385809Y-98446135D01*
X146070855Y-98264020D01*
X145759287Y-98116415D01*
X145449363Y-98002244D01*
X145139342Y-97920432D01*
X145068799Y-97906260D01*
X144952424Y-97891419D01*
X144806099Y-97883399D01*
X144643991Y-97882025D01*
X144480264Y-97887123D01*
X144329085Y-97898517D01*
X144204619Y-97916033D01*
X144199732Y-97916990D01*
X143883245Y-97999025D01*
X143559970Y-98119863D01*
X143233083Y-98277910D01*
X142905760Y-98471573D01*
X142581174Y-98699259D01*
X142472852Y-98783463D01*
X142272762Y-98950163D01*
X142055005Y-99144447D01*
X141826555Y-99359308D01*
X141594385Y-99587740D01*
X141365471Y-99822738D01*
X141146786Y-100057293D01*
X140945304Y-100284400D01*
X140771581Y-100492593D01*
X140714301Y-100560009D01*
X140676861Y-100593564D01*
X140656151Y-100594971D01*
X140649059Y-100565944D01*
X140648975Y-100560120D01*
X140641158Y-100523714D01*
X140620144Y-100459549D01*
X140589590Y-100378254D01*
X140568774Y-100327045D01*
X140531162Y-100233579D01*
X140497706Y-100144175D01*
X140473484Y-100072669D01*
X140466600Y-100048653D01*
X140433285Y-99972313D01*
X140389436Y-99928616D01*
X140353833Y-99899786D01*
X140345901Y-99877677D01*
X140340702Y-99852256D01*
X140322409Y-99833212D01*
X140294383Y-99801243D01*
X140256145Y-99744656D01*
X140220223Y-99683263D01*
X140168575Y-99595131D01*
X140107238Y-99499587D01*
X140068481Y-99443769D01*
X140007881Y-99359685D01*
X139942298Y-99267647D01*
X139903960Y-99213270D01*
X139828031Y-99118239D01*
X139725542Y-99009307D01*
X139606423Y-98896568D01*
X139515815Y-98818609D01*
X139459664Y-98766442D01*
X139401915Y-98704255D01*
X139390947Y-98691138D01*
X139328042Y-98633460D01*
X139244836Y-98581949D01*
X139217511Y-98569341D01*
X139155645Y-98541395D01*
X139114719Y-98518955D01*
X139104834Y-98509726D01*
X139087957Y-98492409D01*
X139043649Y-98458840D01*
X138981400Y-98416194D01*
X138979598Y-98415010D01*
X138915727Y-98374801D01*
X138864538Y-98343015D01*
X138827816Y-98315752D01*
X138807348Y-98289115D01*
X138804921Y-98259207D01*
X138822320Y-98222131D01*
X138861332Y-98173989D01*
X138923744Y-98110883D01*
X139011341Y-98028917D01*
X139125910Y-97924192D01*
X139261514Y-97799933D01*
X139642387Y-97458426D01*
X140008103Y-97150662D01*
X140363504Y-96873317D01*
X140713437Y-96623065D01*
X141062745Y-96396583D01*
X141416272Y-96190546D01*
X141778863Y-96001628D01*
X142103600Y-95849439D01*
X142599484Y-95649241D01*
X143097252Y-95490385D01*
X143596611Y-95372828D01*
X144097266Y-95296525D01*
X144598922Y-95261433D01*
X145101284Y-95267507D01*
G37*
G36*
X136333317Y-116368408D02*
G01*
X136358728Y-116377593D01*
X136382010Y-116391643D01*
X136402380Y-116410242D01*
X136419056Y-116433081D01*
X136431254Y-116459846D01*
X136434166Y-116469498D01*
X136438251Y-116497411D01*
X136436289Y-116525855D01*
X136428606Y-116553424D01*
X136415534Y-116578710D01*
X136405582Y-116591807D01*
X136402164Y-116595267D01*
X136394199Y-116603054D01*
X136381971Y-116614900D01*
X136365761Y-116630533D01*
X136345851Y-116649685D01*
X136322524Y-116672088D01*
X136296062Y-116697469D01*
X136266748Y-116725562D01*
X136234863Y-116756096D01*
X136200691Y-116788803D01*
X136164512Y-116823411D01*
X136126610Y-116859653D01*
X136087267Y-116897258D01*
X136046764Y-116935958D01*
X136005386Y-116975481D01*
X135963412Y-117015560D01*
X135921126Y-117055926D01*
X135878811Y-117096307D01*
X135836748Y-117136436D01*
X135795220Y-117176043D01*
X135754509Y-117214857D01*
X135714897Y-117252610D01*
X135676666Y-117289032D01*
X135640099Y-117323855D01*
X135605479Y-117356808D01*
X135573086Y-117387621D01*
X135543204Y-117416027D01*
X135516115Y-117441754D01*
X135492101Y-117464535D01*
X135471445Y-117484099D01*
X135454428Y-117500177D01*
X135441334Y-117512499D01*
X135432444Y-117520796D01*
X135428784Y-117524144D01*
X135410437Y-117536929D01*
X135387887Y-117547086D01*
X135363299Y-117553962D01*
X135338839Y-117556901D01*
X135322727Y-117556238D01*
X135298866Y-117550569D01*
X135274731Y-117540019D01*
X135252898Y-117525732D01*
X135251421Y-117524539D01*
X135231194Y-117503879D01*
X135216111Y-117479930D01*
X135206289Y-117453685D01*
X135201846Y-117426139D01*
X135202897Y-117398286D01*
X135209558Y-117371119D01*
X135221948Y-117345635D01*
X135229246Y-117335208D01*
X135233220Y-117330899D01*
X135241738Y-117322296D01*
X135254517Y-117309672D01*
X135271276Y-117293290D01*
X135291732Y-117273422D01*
X135315604Y-117250335D01*
X135342608Y-117224298D01*
X135372465Y-117195579D01*
X135404890Y-117164446D01*
X135439603Y-117131168D01*
X135476320Y-117096013D01*
X135514762Y-117059251D01*
X135554645Y-117021148D01*
X135595686Y-116981974D01*
X135637605Y-116941997D01*
X135680119Y-116901485D01*
X135722946Y-116860707D01*
X135765804Y-116819930D01*
X135808411Y-116779425D01*
X135850486Y-116739459D01*
X135891745Y-116700300D01*
X135931907Y-116662215D01*
X135970691Y-116625476D01*
X136007812Y-116590349D01*
X136042993Y-116557104D01*
X136075947Y-116526007D01*
X136106394Y-116497328D01*
X136134052Y-116471336D01*
X136158640Y-116448298D01*
X136179874Y-116428483D01*
X136197473Y-116412159D01*
X136211155Y-116399595D01*
X136220638Y-116391060D01*
X136225640Y-116386820D01*
X136226037Y-116386537D01*
X136252137Y-116373151D01*
X136279238Y-116365874D01*
X136306559Y-116364398D01*
X136333317Y-116368408D01*
G37*
G36*
X134877480Y-115485411D02*
G01*
X134905236Y-115493143D01*
X134912435Y-115496281D01*
X134928610Y-115506105D01*
X134945369Y-115519899D01*
X134960728Y-115535747D01*
X134972705Y-115551732D01*
X134976112Y-115557753D01*
X134980985Y-115568712D01*
X134984357Y-115579976D01*
X134986752Y-115593756D01*
X134988466Y-115609661D01*
X134989749Y-115625306D01*
X134990036Y-115636579D01*
X134989057Y-115645737D01*
X134986543Y-115655036D01*
X134982226Y-115666730D01*
X134981405Y-115668836D01*
X134972438Y-115687948D01*
X134961690Y-115705028D01*
X134956679Y-115711307D01*
X134952924Y-115714825D01*
X134944268Y-115722452D01*
X134930917Y-115734011D01*
X134913078Y-115749331D01*
X134890959Y-115768236D01*
X134864767Y-115790552D01*
X134834709Y-115816104D01*
X134800992Y-115844717D01*
X134763825Y-115876220D01*
X134723413Y-115910435D01*
X134679966Y-115947189D01*
X134633688Y-115986309D01*
X134584788Y-116027619D01*
X134533474Y-116070944D01*
X134479951Y-116116112D01*
X134424429Y-116162947D01*
X134367114Y-116211275D01*
X134308213Y-116260923D01*
X134247932Y-116311714D01*
X134186481Y-116363476D01*
X134124066Y-116416033D01*
X134060894Y-116469213D01*
X133997172Y-116522838D01*
X133933109Y-116576738D01*
X133868911Y-116630736D01*
X133804785Y-116684658D01*
X133740939Y-116738329D01*
X133677579Y-116791576D01*
X133614913Y-116844224D01*
X133553150Y-116896100D01*
X133492495Y-116947028D01*
X133433155Y-116996834D01*
X133375339Y-117045344D01*
X133319253Y-117092383D01*
X133265105Y-117137778D01*
X133213102Y-117181354D01*
X133163451Y-117222936D01*
X133116360Y-117262351D01*
X133072037Y-117299423D01*
X133030686Y-117333980D01*
X132992517Y-117365845D01*
X132957737Y-117394845D01*
X132926553Y-117420806D01*
X132899173Y-117443553D01*
X132875802Y-117462912D01*
X132856649Y-117478709D01*
X132841921Y-117490768D01*
X132831825Y-117498917D01*
X132826569Y-117502981D01*
X132826079Y-117503312D01*
X132813916Y-117510357D01*
X132803500Y-117514893D01*
X132792099Y-117517840D01*
X132776981Y-117520116D01*
X132775595Y-117520289D01*
X132756763Y-117521958D01*
X132741488Y-117521601D01*
X132726954Y-117519150D01*
X132726718Y-117519095D01*
X132697889Y-117509110D01*
X132672855Y-117493872D01*
X132652107Y-117473914D01*
X132636133Y-117449769D01*
X132625420Y-117421972D01*
X132621812Y-117404404D01*
X132619988Y-117374187D01*
X132623897Y-117346927D01*
X132633761Y-117321841D01*
X132649795Y-117298143D01*
X132652119Y-117295385D01*
X132655273Y-117292526D01*
X132663321Y-117285549D01*
X132676059Y-117274628D01*
X132693279Y-117259934D01*
X132714776Y-117241643D01*
X132740345Y-117219928D01*
X132769778Y-117194962D01*
X132802870Y-117166920D01*
X132839415Y-117135975D01*
X132879208Y-117102300D01*
X132922040Y-117066070D01*
X132967709Y-117027458D01*
X133016005Y-116986639D01*
X133066725Y-116943784D01*
X133119662Y-116899068D01*
X133174609Y-116852666D01*
X133231361Y-116804750D01*
X133289714Y-116755494D01*
X133349457Y-116705072D01*
X133410389Y-116653657D01*
X133472301Y-116601424D01*
X133534988Y-116548546D01*
X133598244Y-116495196D01*
X133661864Y-116441549D01*
X133725639Y-116387777D01*
X133789366Y-116334055D01*
X133852838Y-116280557D01*
X133915849Y-116227456D01*
X133978193Y-116174926D01*
X134039663Y-116123139D01*
X134100054Y-116072271D01*
X134159161Y-116022495D01*
X134216776Y-115973984D01*
X134272694Y-115926912D01*
X134326709Y-115881454D01*
X134378615Y-115837782D01*
X134428206Y-115796069D01*
X134475276Y-115756491D01*
X134519619Y-115719220D01*
X134561029Y-115684431D01*
X134599299Y-115652296D01*
X134634225Y-115622990D01*
X134665599Y-115596686D01*
X134693217Y-115573559D01*
X134716871Y-115553781D01*
X134736356Y-115537526D01*
X134751466Y-115524968D01*
X134761995Y-115516281D01*
X134767737Y-115511638D01*
X134768083Y-115511371D01*
X134792583Y-115496620D01*
X134819851Y-115487285D01*
X134848584Y-115483503D01*
X134877480Y-115485411D01*
G37*
G36*
X131660489Y-115753556D02*
G01*
X131686671Y-115764067D01*
X131710937Y-115780879D01*
X131713977Y-115783542D01*
X131734333Y-115805988D01*
X131749124Y-115831375D01*
X131758096Y-115858857D01*
X131760996Y-115887590D01*
X131757572Y-115916727D01*
X131755863Y-115923393D01*
X131754007Y-115927923D01*
X131749404Y-115938211D01*
X131742179Y-115953990D01*
X131732455Y-115975003D01*
X131720357Y-116000986D01*
X131706006Y-116031677D01*
X131689528Y-116066814D01*
X131671044Y-116106136D01*
X131650679Y-116149381D01*
X131628556Y-116196285D01*
X131604799Y-116246589D01*
X131579531Y-116300031D01*
X131552875Y-116356346D01*
X131524955Y-116415276D01*
X131495896Y-116476556D01*
X131465817Y-116539925D01*
X131434847Y-116605123D01*
X131403106Y-116671886D01*
X131390936Y-116697467D01*
X131350123Y-116783221D01*
X131312080Y-116863101D01*
X131276728Y-116937265D01*
X131243993Y-117005869D01*
X131213798Y-117069070D01*
X131186069Y-117127025D01*
X131160729Y-117179890D01*
X131137703Y-117227822D01*
X131116915Y-117270977D01*
X131098289Y-117309513D01*
X131081749Y-117343585D01*
X131067220Y-117373352D01*
X131054627Y-117398968D01*
X131043894Y-117420592D01*
X131034943Y-117438379D01*
X131027701Y-117452485D01*
X131022090Y-117463069D01*
X131018036Y-117470286D01*
X131015463Y-117474294D01*
X131015415Y-117474356D01*
X130994505Y-117496395D01*
X130970076Y-117512952D01*
X130942813Y-117523722D01*
X130913398Y-117528398D01*
X130895217Y-117528168D01*
X130868266Y-117522941D01*
X130842284Y-117511818D01*
X130818474Y-117495568D01*
X130798034Y-117474956D01*
X130786624Y-117458759D01*
X130778375Y-117440454D01*
X130772625Y-117418268D01*
X130769749Y-117394641D01*
X130770129Y-117372015D01*
X130771607Y-117362086D01*
X130773513Y-117356832D01*
X130778292Y-117345620D01*
X130785922Y-117328496D01*
X130796383Y-117305507D01*
X130809652Y-117276698D01*
X130825707Y-117242117D01*
X130844527Y-117201809D01*
X130866090Y-117155823D01*
X130890372Y-117104203D01*
X130917354Y-117046997D01*
X130947013Y-116984251D01*
X130979328Y-116916011D01*
X131014276Y-116842325D01*
X131051834Y-116763238D01*
X131091983Y-116678797D01*
X131134699Y-116589049D01*
X131139242Y-116579509D01*
X131179483Y-116495033D01*
X131216961Y-116416406D01*
X131251761Y-116343450D01*
X131283970Y-116275986D01*
X131313676Y-116213836D01*
X131340962Y-116156822D01*
X131365917Y-116104766D01*
X131388626Y-116057490D01*
X131409176Y-116014816D01*
X131427653Y-115976564D01*
X131444143Y-115942558D01*
X131458732Y-115912619D01*
X131471507Y-115886568D01*
X131482554Y-115864228D01*
X131491958Y-115845420D01*
X131499808Y-115829966D01*
X131506188Y-115817689D01*
X131511185Y-115808409D01*
X131514886Y-115801949D01*
X131517375Y-115798129D01*
X131517753Y-115797646D01*
X131538739Y-115777135D01*
X131563391Y-115762175D01*
X131591550Y-115752851D01*
X131601171Y-115751089D01*
X131632090Y-115749259D01*
X131660489Y-115753556D01*
G37*
G36*
X132937339Y-115538179D02*
G01*
X132953499Y-115542169D01*
X132970387Y-115549504D01*
X132978317Y-115553718D01*
X133003621Y-115570944D01*
X133023255Y-115591628D01*
X133037343Y-115615958D01*
X133046005Y-115644121D01*
X133048573Y-115662095D01*
X133049119Y-115689468D01*
X133045061Y-115713450D01*
X133035981Y-115735837D01*
X133028524Y-115748383D01*
X133025247Y-115752222D01*
X133017508Y-115760623D01*
X133005505Y-115773383D01*
X132989435Y-115790295D01*
X132969499Y-115811156D01*
X132945891Y-115835759D01*
X132918812Y-115863901D01*
X132888459Y-115895376D01*
X132855029Y-115929981D01*
X132818723Y-115967509D01*
X132779737Y-116007757D01*
X132738270Y-116050520D01*
X132694518Y-116095591D01*
X132648683Y-116142769D01*
X132600958Y-116191846D01*
X132551546Y-116242618D01*
X132500642Y-116294881D01*
X132448445Y-116348430D01*
X132410673Y-116387156D01*
X132345302Y-116454145D01*
X132284426Y-116516503D01*
X132227896Y-116574379D01*
X132175563Y-116627924D01*
X132127279Y-116677289D01*
X132082893Y-116722624D01*
X132042259Y-116764080D01*
X132005225Y-116801809D01*
X131971644Y-116835959D01*
X131941366Y-116866683D01*
X131914242Y-116894131D01*
X131890124Y-116918452D01*
X131868862Y-116939799D01*
X131850308Y-116958322D01*
X131834311Y-116974171D01*
X131820725Y-116987497D01*
X131809398Y-116998451D01*
X131800183Y-117007183D01*
X131792931Y-117013844D01*
X131787491Y-117018585D01*
X131783717Y-117021556D01*
X131782607Y-117022304D01*
X131771516Y-117028836D01*
X131761973Y-117033196D01*
X131751641Y-117036147D01*
X131738178Y-117038450D01*
X131729495Y-117039603D01*
X131711866Y-117041455D01*
X131698505Y-117041793D01*
X131687184Y-117040585D01*
X131679605Y-117038890D01*
X131651820Y-117028480D01*
X131627674Y-117013223D01*
X131607529Y-116993919D01*
X131591750Y-116971365D01*
X131580697Y-116946362D01*
X131574737Y-116919708D01*
X131574228Y-116892201D01*
X131579538Y-116864643D01*
X131589528Y-116840567D01*
X131597560Y-116827395D01*
X131607374Y-116813824D01*
X131612275Y-116807934D01*
X131616632Y-116803276D01*
X131625349Y-116794171D01*
X131638184Y-116780864D01*
X131654899Y-116763598D01*
X131675254Y-116742618D01*
X131699011Y-116718170D01*
X131725932Y-116690497D01*
X131755776Y-116659843D01*
X131788305Y-116626455D01*
X131823280Y-116590574D01*
X131860460Y-116552448D01*
X131899610Y-116512319D01*
X131940488Y-116470432D01*
X131982855Y-116427031D01*
X132026474Y-116382362D01*
X132071104Y-116336669D01*
X132116507Y-116290196D01*
X132162445Y-116243187D01*
X132208676Y-116195887D01*
X132254963Y-116148542D01*
X132301067Y-116101393D01*
X132346749Y-116054688D01*
X132391770Y-116008670D01*
X132435890Y-115963583D01*
X132478870Y-115919672D01*
X132520473Y-115877181D01*
X132560459Y-115836355D01*
X132598588Y-115797439D01*
X132634622Y-115760676D01*
X132668322Y-115726312D01*
X132699448Y-115694592D01*
X132727762Y-115665757D01*
X132753024Y-115640056D01*
X132774997Y-115617730D01*
X132793440Y-115599024D01*
X132808115Y-115584185D01*
X132818782Y-115573454D01*
X132825204Y-115567078D01*
X132827054Y-115565328D01*
X132843232Y-115553847D01*
X132859762Y-115546020D01*
X132878843Y-115541013D01*
X132897754Y-115538442D01*
X132919545Y-115537087D01*
X132937339Y-115538179D01*
G37*
G36*
X133820582Y-115401884D02*
G01*
X133850282Y-115407732D01*
X133876884Y-115418884D01*
X133899961Y-115434634D01*
X133919083Y-115454275D01*
X133933820Y-115477104D01*
X133943744Y-115502412D01*
X133948426Y-115529496D01*
X133947437Y-115557650D01*
X133940348Y-115586169D01*
X133937323Y-115593862D01*
X133936601Y-115595680D01*
X133936044Y-115597253D01*
X133935530Y-115598723D01*
X133934932Y-115600235D01*
X133934129Y-115601933D01*
X133932995Y-115603961D01*
X133931406Y-115606463D01*
X133929237Y-115609583D01*
X133926365Y-115613465D01*
X133922666Y-115618254D01*
X133918014Y-115624092D01*
X133912287Y-115631124D01*
X133905360Y-115639496D01*
X133897107Y-115649349D01*
X133887407Y-115660828D01*
X133876132Y-115674078D01*
X133863162Y-115689242D01*
X133848370Y-115706465D01*
X133831633Y-115725889D01*
X133812825Y-115747660D01*
X133791823Y-115771923D01*
X133768505Y-115798819D01*
X133742743Y-115828494D01*
X133714414Y-115861091D01*
X133683396Y-115896755D01*
X133649562Y-115935630D01*
X133612789Y-115977860D01*
X133572953Y-116023588D01*
X133529928Y-116072958D01*
X133483592Y-116126116D01*
X133433821Y-116183204D01*
X133380488Y-116244367D01*
X133323472Y-116309749D01*
X133262647Y-116379494D01*
X133197889Y-116453747D01*
X133129074Y-116532649D01*
X133056077Y-116616347D01*
X133010059Y-116669113D01*
X132941348Y-116747896D01*
X132876878Y-116821811D01*
X132816507Y-116891014D01*
X132760098Y-116955664D01*
X132707512Y-117015919D01*
X132658607Y-117071934D01*
X132613245Y-117123870D01*
X132571287Y-117171882D01*
X132532593Y-117216129D01*
X132497025Y-117256769D01*
X132464441Y-117293958D01*
X132434704Y-117327855D01*
X132407673Y-117358616D01*
X132383209Y-117386401D01*
X132361173Y-117411365D01*
X132341425Y-117433668D01*
X132323826Y-117453467D01*
X132308237Y-117470919D01*
X132294518Y-117486182D01*
X132282530Y-117499413D01*
X132272132Y-117510771D01*
X132263187Y-117520412D01*
X132255555Y-117528495D01*
X132249095Y-117535178D01*
X132243669Y-117540616D01*
X132239137Y-117544969D01*
X132235360Y-117548394D01*
X132232200Y-117551048D01*
X132229514Y-117553090D01*
X132227166Y-117554676D01*
X132226497Y-117555092D01*
X132213773Y-117562470D01*
X132203298Y-117567167D01*
X132192286Y-117570128D01*
X132177948Y-117572298D01*
X132174502Y-117572713D01*
X132159883Y-117574075D01*
X132146483Y-117574704D01*
X132136664Y-117574506D01*
X132134892Y-117574292D01*
X132107538Y-117566552D01*
X132081858Y-117553009D01*
X132059083Y-117534509D01*
X132040444Y-117511898D01*
X132037515Y-117507279D01*
X132031546Y-117497112D01*
X132027512Y-117488824D01*
X132024866Y-117480477D01*
X132023061Y-117470136D01*
X132021547Y-117455866D01*
X132020892Y-117448531D01*
X132019578Y-117431579D01*
X132019215Y-117419341D01*
X132019935Y-117409915D01*
X132021871Y-117401399D01*
X132024775Y-117392911D01*
X132030344Y-117379814D01*
X132036892Y-117367001D01*
X132040618Y-117360858D01*
X132043423Y-117357427D01*
X132050458Y-117349148D01*
X132061572Y-117336196D01*
X132076612Y-117318748D01*
X132095426Y-117296979D01*
X132117859Y-117271063D01*
X132143762Y-117241178D01*
X132172981Y-117207497D01*
X132205363Y-117170197D01*
X132240756Y-117129452D01*
X132279007Y-117085439D01*
X132319964Y-117038332D01*
X132363475Y-116988307D01*
X132409387Y-116935539D01*
X132457546Y-116880205D01*
X132507802Y-116822479D01*
X132560002Y-116762536D01*
X132613992Y-116700552D01*
X132669620Y-116636703D01*
X132726735Y-116571164D01*
X132785182Y-116504110D01*
X132844811Y-116435717D01*
X132883739Y-116391074D01*
X132956369Y-116307786D01*
X133024744Y-116229369D01*
X133088998Y-116155676D01*
X133149269Y-116086558D01*
X133205686Y-116021867D01*
X133258386Y-115961457D01*
X133307504Y-115905177D01*
X133353172Y-115852883D01*
X133395525Y-115804425D01*
X133434696Y-115759654D01*
X133470821Y-115718425D01*
X133504033Y-115680587D01*
X133534466Y-115645995D01*
X133562253Y-115614499D01*
X133587531Y-115585954D01*
X133610432Y-115560208D01*
X133631090Y-115537117D01*
X133649640Y-115516530D01*
X133666216Y-115498301D01*
X133680952Y-115482282D01*
X133693981Y-115468325D01*
X133705438Y-115456283D01*
X133715457Y-115446006D01*
X133724173Y-115437348D01*
X133731718Y-115430160D01*
X133738228Y-115424295D01*
X133743836Y-115419605D01*
X133748677Y-115415941D01*
X133752885Y-115413157D01*
X133756593Y-115411104D01*
X133759935Y-115409634D01*
X133763047Y-115408600D01*
X133766062Y-115407853D01*
X133769113Y-115407246D01*
X133772336Y-115406632D01*
X133775863Y-115405860D01*
X133777618Y-115405415D01*
X133795205Y-115401833D01*
X133812067Y-115401268D01*
X133820582Y-115401884D01*
G37*
G36*
X136013721Y-115835546D02*
G01*
X136038844Y-115845546D01*
X136061714Y-115860345D01*
X136081544Y-115879614D01*
X136097546Y-115903022D01*
X136108934Y-115930239D01*
X136110490Y-115935734D01*
X136114299Y-115962778D01*
X136112269Y-115990746D01*
X136104762Y-116018119D01*
X136092143Y-116043380D01*
X136081172Y-116058179D01*
X136077744Y-116061805D01*
X136069799Y-116069996D01*
X136057507Y-116082576D01*
X136041042Y-116099370D01*
X136020576Y-116120205D01*
X135996282Y-116144905D01*
X135968330Y-116173297D01*
X135936893Y-116205206D01*
X135902143Y-116240457D01*
X135864253Y-116278875D01*
X135823396Y-116320288D01*
X135779741Y-116364519D01*
X135733464Y-116411394D01*
X135684734Y-116460740D01*
X135633724Y-116512382D01*
X135580606Y-116566144D01*
X135525554Y-116621853D01*
X135468738Y-116679333D01*
X135410331Y-116738413D01*
X135350505Y-116798914D01*
X135289432Y-116860665D01*
X135249008Y-116901532D01*
X135172311Y-116979054D01*
X135100169Y-117051953D01*
X135032456Y-117120354D01*
X134969047Y-117184383D01*
X134909817Y-117244165D01*
X134854641Y-117299825D01*
X134803394Y-117351489D01*
X134755950Y-117399281D01*
X134712184Y-117443328D01*
X134671971Y-117483753D01*
X134635186Y-117520684D01*
X134601704Y-117554245D01*
X134571400Y-117584560D01*
X134544147Y-117611757D01*
X134519822Y-117635959D01*
X134498300Y-117657292D01*
X134479453Y-117675881D01*
X134463159Y-117691853D01*
X134449291Y-117705332D01*
X134437724Y-117716443D01*
X134428333Y-117725311D01*
X134420995Y-117732062D01*
X134415581Y-117736822D01*
X134411969Y-117739715D01*
X134410865Y-117740460D01*
X134400039Y-117746625D01*
X134390545Y-117750734D01*
X134380062Y-117753502D01*
X134366265Y-117755646D01*
X134358565Y-117756573D01*
X134340351Y-117758230D01*
X134326466Y-117758318D01*
X134314748Y-117756787D01*
X134309409Y-117755506D01*
X134280368Y-117744391D01*
X134255201Y-117728057D01*
X134234395Y-117706993D01*
X134218438Y-117681689D01*
X134208167Y-117653997D01*
X134204018Y-117625774D01*
X134205882Y-117597199D01*
X134213480Y-117569696D01*
X134226532Y-117544690D01*
X134230844Y-117538694D01*
X134234051Y-117535195D01*
X134241776Y-117527132D01*
X134253850Y-117514680D01*
X134270101Y-117498010D01*
X134290359Y-117477296D01*
X134314451Y-117452714D01*
X134342208Y-117424436D01*
X134373458Y-117392636D01*
X134408030Y-117357486D01*
X134445754Y-117319162D01*
X134486457Y-117277836D01*
X134529969Y-117233683D01*
X134576119Y-117186876D01*
X134624736Y-117137587D01*
X134675650Y-117085992D01*
X134728688Y-117032264D01*
X134783680Y-116976575D01*
X134840455Y-116919101D01*
X134898841Y-116860015D01*
X134958669Y-116799489D01*
X135019766Y-116737698D01*
X135063344Y-116693637D01*
X135139130Y-116617027D01*
X135210370Y-116545028D01*
X135277198Y-116477505D01*
X135339750Y-116414325D01*
X135398160Y-116355353D01*
X135452563Y-116300452D01*
X135503094Y-116249489D01*
X135549887Y-116202330D01*
X135593078Y-116158838D01*
X135632800Y-116118879D01*
X135669189Y-116082318D01*
X135702380Y-116049021D01*
X135732509Y-116018852D01*
X135759708Y-115991677D01*
X135784112Y-115967360D01*
X135805858Y-115945767D01*
X135825080Y-115926763D01*
X135841911Y-115910213D01*
X135856490Y-115895984D01*
X135868947Y-115883937D01*
X135879419Y-115873941D01*
X135888041Y-115865859D01*
X135894947Y-115859557D01*
X135900274Y-115854900D01*
X135904153Y-115851754D01*
X135906441Y-115850150D01*
X135932704Y-115837648D01*
X135959864Y-115831268D01*
X135987131Y-115830677D01*
X136013721Y-115835546D01*
G37*
G36*
X135237872Y-115671810D02*
G01*
X135264419Y-115682937D01*
X135288440Y-115699812D01*
X135288934Y-115700250D01*
X135309749Y-115722879D01*
X135324647Y-115748244D01*
X135333489Y-115775747D01*
X135336131Y-115804792D01*
X135332430Y-115834780D01*
X135325996Y-115855997D01*
X135325048Y-115858219D01*
X135323667Y-115860889D01*
X135321727Y-115864164D01*
X135319093Y-115868202D01*
X135315638Y-115873160D01*
X135311232Y-115879194D01*
X135305742Y-115886462D01*
X135299041Y-115895121D01*
X135290998Y-115905329D01*
X135281482Y-115917241D01*
X135270365Y-115931015D01*
X135257513Y-115946809D01*
X135242800Y-115964779D01*
X135226094Y-115985082D01*
X135207265Y-116007876D01*
X135186184Y-116033317D01*
X135162719Y-116061564D01*
X135136742Y-116092772D01*
X135108121Y-116127098D01*
X135076727Y-116164700D01*
X135042429Y-116205736D01*
X135005098Y-116250361D01*
X134964603Y-116298733D01*
X134920815Y-116351011D01*
X134873603Y-116407349D01*
X134822837Y-116467905D01*
X134768388Y-116532837D01*
X134710123Y-116602301D01*
X134647915Y-116676455D01*
X134581633Y-116755455D01*
X134536821Y-116808862D01*
X134467978Y-116890904D01*
X134403287Y-116967993D01*
X134342611Y-117040286D01*
X134285822Y-117107940D01*
X134232784Y-117171110D01*
X134183364Y-117229953D01*
X134137430Y-117284625D01*
X134094849Y-117335282D01*
X134055488Y-117382080D01*
X134019214Y-117425177D01*
X133985894Y-117464728D01*
X133955395Y-117500888D01*
X133927584Y-117533815D01*
X133902329Y-117563666D01*
X133879495Y-117590596D01*
X133858951Y-117614760D01*
X133840563Y-117636317D01*
X133824199Y-117655421D01*
X133809725Y-117672229D01*
X133797009Y-117686897D01*
X133785918Y-117699582D01*
X133776317Y-117710441D01*
X133768077Y-117719628D01*
X133761062Y-117727301D01*
X133755140Y-117733615D01*
X133750177Y-117738727D01*
X133746042Y-117742794D01*
X133742602Y-117745971D01*
X133739722Y-117748414D01*
X133737270Y-117750281D01*
X133735114Y-117751728D01*
X133734224Y-117752270D01*
X133722177Y-117758991D01*
X133711720Y-117763400D01*
X133700249Y-117766335D01*
X133685155Y-117768633D01*
X133682151Y-117769007D01*
X133663692Y-117770733D01*
X133649434Y-117770667D01*
X133637146Y-117768774D01*
X133634852Y-117768206D01*
X133605955Y-117757630D01*
X133580711Y-117742336D01*
X133559628Y-117723002D01*
X133543217Y-117700308D01*
X133531988Y-117674932D01*
X133526453Y-117647554D01*
X133526528Y-117623979D01*
X133526798Y-117619981D01*
X133526878Y-117616429D01*
X133526896Y-117613164D01*
X133526981Y-117610026D01*
X133527259Y-117606856D01*
X133527859Y-117603496D01*
X133528909Y-117599784D01*
X133530536Y-117595564D01*
X133532869Y-117590675D01*
X133536035Y-117584959D01*
X133540162Y-117578256D01*
X133545378Y-117570406D01*
X133551811Y-117561252D01*
X133559588Y-117550631D01*
X133568839Y-117538388D01*
X133579690Y-117524362D01*
X133592269Y-117508393D01*
X133606706Y-117490324D01*
X133623125Y-117469994D01*
X133641657Y-117447243D01*
X133662428Y-117421914D01*
X133685568Y-117393848D01*
X133711203Y-117362883D01*
X133739461Y-117328862D01*
X133770471Y-117291625D01*
X133804359Y-117251014D01*
X133841255Y-117206868D01*
X133881286Y-117159029D01*
X133924580Y-117107337D01*
X133971263Y-117051635D01*
X134021466Y-116991760D01*
X134075315Y-116927556D01*
X134132939Y-116858862D01*
X134194464Y-116785520D01*
X134260020Y-116707371D01*
X134324479Y-116630518D01*
X134393854Y-116547804D01*
X134459079Y-116470049D01*
X134520283Y-116397099D01*
X134577597Y-116328803D01*
X134631148Y-116265007D01*
X134681070Y-116205558D01*
X134727489Y-116150304D01*
X134770535Y-116099093D01*
X134810340Y-116051770D01*
X134847031Y-116008184D01*
X134880740Y-115968182D01*
X134911595Y-115931610D01*
X134939727Y-115898317D01*
X134965264Y-115868148D01*
X134988338Y-115840952D01*
X135009075Y-115816577D01*
X135027609Y-115794867D01*
X135044066Y-115775672D01*
X135058578Y-115758838D01*
X135071275Y-115744213D01*
X135082284Y-115731644D01*
X135091738Y-115720977D01*
X135099763Y-115712061D01*
X135106492Y-115704742D01*
X135112053Y-115698868D01*
X135116576Y-115694285D01*
X135120191Y-115690842D01*
X135123026Y-115688384D01*
X135125213Y-115686761D01*
X135125746Y-115686423D01*
X135152734Y-115673737D01*
X135181062Y-115667128D01*
X135209764Y-115666513D01*
X135237872Y-115671810D01*
G37*
G36*
X156754648Y-115940998D02*
G01*
X156768676Y-115943212D01*
X156774884Y-115944297D01*
X156790940Y-115947283D01*
X156802397Y-115950030D01*
X156811250Y-115953287D01*
X156819495Y-115957799D01*
X156829128Y-115964317D01*
X156830037Y-115964959D01*
X156850484Y-115982788D01*
X156864153Y-115999746D01*
X156866125Y-116003245D01*
X156868984Y-116009248D01*
X156872802Y-116017948D01*
X156877654Y-116029536D01*
X156883612Y-116044205D01*
X156890750Y-116062149D01*
X156899140Y-116083558D01*
X156908856Y-116108624D01*
X156919970Y-116137541D01*
X156932557Y-116170500D01*
X156946689Y-116207695D01*
X156962439Y-116249318D01*
X156979881Y-116295561D01*
X156999089Y-116346615D01*
X157020134Y-116402675D01*
X157043089Y-116463931D01*
X157068030Y-116530577D01*
X157095029Y-116602804D01*
X157124157Y-116680806D01*
X157155489Y-116764774D01*
X157171601Y-116807975D01*
X157197674Y-116877924D01*
X157223153Y-116946351D01*
X157247939Y-117012984D01*
X157271931Y-117077553D01*
X157295030Y-117139787D01*
X157317136Y-117199413D01*
X157338149Y-117256162D01*
X157357968Y-117309761D01*
X157376494Y-117359940D01*
X157393627Y-117406426D01*
X157409267Y-117448950D01*
X157423313Y-117487239D01*
X157435667Y-117521023D01*
X157446226Y-117550029D01*
X157454892Y-117573988D01*
X157461566Y-117592628D01*
X157466144Y-117605677D01*
X157468531Y-117612864D01*
X157468853Y-117614056D01*
X157471360Y-117643726D01*
X157467410Y-117672023D01*
X157456940Y-117699221D01*
X157443560Y-117720734D01*
X157423507Y-117742687D01*
X157399534Y-117759458D01*
X157372309Y-117770698D01*
X157342503Y-117776060D01*
X157336370Y-117776394D01*
X157323267Y-117776758D01*
X157314079Y-117776482D01*
X157306144Y-117775161D01*
X157296800Y-117772381D01*
X157286015Y-117768656D01*
X157272937Y-117762961D01*
X157258904Y-117755200D01*
X157251963Y-117750617D01*
X157248333Y-117748062D01*
X157244969Y-117745708D01*
X157241779Y-117743329D01*
X157238669Y-117740693D01*
X157235549Y-117737575D01*
X157232326Y-117733744D01*
X157228907Y-117728972D01*
X157225201Y-117723030D01*
X157221115Y-117715691D01*
X157216557Y-117706725D01*
X157211434Y-117695903D01*
X157205654Y-117682998D01*
X157199126Y-117667781D01*
X157191756Y-117650022D01*
X157183453Y-117629493D01*
X157174125Y-117605967D01*
X157163678Y-117579215D01*
X157152021Y-117549006D01*
X157139062Y-117515113D01*
X157124707Y-117477308D01*
X157108866Y-117435362D01*
X157091446Y-117389047D01*
X157072355Y-117338132D01*
X157051500Y-117282392D01*
X157028788Y-117221595D01*
X157004129Y-117155514D01*
X156977429Y-117083921D01*
X156948597Y-117006587D01*
X156917539Y-116923283D01*
X156911052Y-116905885D01*
X156885018Y-116836023D01*
X156859580Y-116767688D01*
X156834837Y-116701147D01*
X156810892Y-116636677D01*
X156787842Y-116574544D01*
X156765789Y-116515022D01*
X156744831Y-116458384D01*
X156725069Y-116404897D01*
X156706604Y-116354835D01*
X156689535Y-116308471D01*
X156673960Y-116266073D01*
X156659982Y-116227914D01*
X156647701Y-116194266D01*
X156637214Y-116165399D01*
X156628624Y-116141585D01*
X156622028Y-116123094D01*
X156617529Y-116110200D01*
X156615226Y-116103174D01*
X156614944Y-116102080D01*
X156612989Y-116071804D01*
X156617218Y-116042994D01*
X156627192Y-116016350D01*
X156642469Y-115992569D01*
X156662612Y-115972348D01*
X156687180Y-115956387D01*
X156713053Y-115946141D01*
X156725608Y-115942627D01*
X156735279Y-115940641D01*
X156744238Y-115940120D01*
X156754648Y-115940998D01*
G37*
G36*
X153216920Y-115548416D02*
G01*
X153244383Y-115555155D01*
X153269936Y-115567250D01*
X153289678Y-115582043D01*
X153292904Y-115585974D01*
X153299762Y-115595135D01*
X153310087Y-115609289D01*
X153323714Y-115628200D01*
X153340479Y-115651631D01*
X153360217Y-115679348D01*
X153382762Y-115711114D01*
X153407950Y-115746693D01*
X153435616Y-115785849D01*
X153465595Y-115828346D01*
X153497722Y-115873948D01*
X153531833Y-115922420D01*
X153567763Y-115973524D01*
X153605345Y-116027026D01*
X153644417Y-116082690D01*
X153684812Y-116140278D01*
X153726367Y-116199557D01*
X153768916Y-116260288D01*
X153812294Y-116322237D01*
X153856337Y-116385167D01*
X153900879Y-116448842D01*
X153945757Y-116513027D01*
X153990803Y-116577484D01*
X154035856Y-116641980D01*
X154080748Y-116706278D01*
X154125315Y-116770140D01*
X154169393Y-116833332D01*
X154212817Y-116895618D01*
X154255420Y-116956762D01*
X154297040Y-117016526D01*
X154337511Y-117074677D01*
X154376668Y-117130977D01*
X154414346Y-117185191D01*
X154450381Y-117237083D01*
X154484606Y-117286415D01*
X154516859Y-117332954D01*
X154546974Y-117376464D01*
X154574785Y-117416706D01*
X154600129Y-117453446D01*
X154622839Y-117486448D01*
X154642752Y-117515476D01*
X154659703Y-117540295D01*
X154673525Y-117560666D01*
X154684056Y-117576355D01*
X154691130Y-117587127D01*
X154694581Y-117592745D01*
X154694874Y-117593356D01*
X154702019Y-117622158D01*
X154702848Y-117650984D01*
X154697653Y-117678985D01*
X154686725Y-117705304D01*
X154670356Y-117729087D01*
X154648838Y-117749481D01*
X154639191Y-117756282D01*
X154613020Y-117769398D01*
X154584973Y-117776599D01*
X154556174Y-117777857D01*
X154527753Y-117773145D01*
X154500837Y-117762435D01*
X154496151Y-117759816D01*
X154483300Y-117751134D01*
X154470468Y-117740657D01*
X154463494Y-117733872D01*
X154460346Y-117729799D01*
X154453578Y-117720517D01*
X154443355Y-117706265D01*
X154429839Y-117687275D01*
X154413197Y-117663785D01*
X154393591Y-117636030D01*
X154371188Y-117604246D01*
X154346150Y-117568667D01*
X154318642Y-117529529D01*
X154288829Y-117487069D01*
X154256875Y-117441523D01*
X154222945Y-117393123D01*
X154187201Y-117342108D01*
X154149811Y-117288712D01*
X154110937Y-117233172D01*
X154070744Y-117175720D01*
X154029397Y-117116596D01*
X153987059Y-117056033D01*
X153943895Y-116994267D01*
X153900069Y-116931534D01*
X153855747Y-116868069D01*
X153811092Y-116804109D01*
X153766268Y-116739886D01*
X153721440Y-116675640D01*
X153676772Y-116611604D01*
X153632430Y-116548014D01*
X153588577Y-116485106D01*
X153545377Y-116423115D01*
X153502995Y-116362276D01*
X153461594Y-116302826D01*
X153421341Y-116245000D01*
X153382399Y-116189033D01*
X153344932Y-116135161D01*
X153309105Y-116083620D01*
X153275083Y-116034645D01*
X153243028Y-115988472D01*
X153213107Y-115945336D01*
X153185482Y-115905472D01*
X153160320Y-115869118D01*
X153137783Y-115836507D01*
X153118037Y-115807875D01*
X153101246Y-115783458D01*
X153087574Y-115763493D01*
X153077185Y-115748214D01*
X153070245Y-115737855D01*
X153066916Y-115732655D01*
X153066651Y-115732146D01*
X153060016Y-115705700D01*
X153059034Y-115677667D01*
X153063496Y-115649633D01*
X153073194Y-115623189D01*
X153083165Y-115606219D01*
X153092380Y-115594333D01*
X153102565Y-115583055D01*
X153110370Y-115575805D01*
X153134271Y-115560728D01*
X153160743Y-115551164D01*
X153188666Y-115547072D01*
X153216920Y-115548416D01*
G37*
G36*
X155509380Y-115618566D02*
G01*
X155536501Y-115626182D01*
X155562355Y-115639756D01*
X155567187Y-115643125D01*
X155570894Y-115646724D01*
X155578151Y-115654718D01*
X155588998Y-115667158D01*
X155603477Y-115684091D01*
X155621629Y-115705570D01*
X155643495Y-115731643D01*
X155669116Y-115762360D01*
X155698533Y-115797770D01*
X155731789Y-115837924D01*
X155768923Y-115882870D01*
X155809977Y-115932660D01*
X155854992Y-115987342D01*
X155904010Y-116046966D01*
X155957072Y-116111583D01*
X156014218Y-116181241D01*
X156075491Y-116255990D01*
X156124404Y-116315701D01*
X156172170Y-116374037D01*
X156218941Y-116431179D01*
X156264533Y-116486902D01*
X156308759Y-116540978D01*
X156351438Y-116593184D01*
X156392383Y-116643292D01*
X156431413Y-116691075D01*
X156468340Y-116736310D01*
X156502981Y-116778768D01*
X156535152Y-116818225D01*
X156564669Y-116854455D01*
X156591348Y-116887231D01*
X156615004Y-116916327D01*
X156635454Y-116941517D01*
X156652511Y-116962576D01*
X156665992Y-116979278D01*
X156675714Y-116991395D01*
X156681492Y-116998704D01*
X156682893Y-117000552D01*
X156697509Y-117023792D01*
X156706603Y-117045911D01*
X156710642Y-117068705D01*
X156710101Y-117093969D01*
X156709277Y-117101093D01*
X156706812Y-117117488D01*
X156704024Y-117129601D01*
X156700201Y-117139805D01*
X156694627Y-117150473D01*
X156694187Y-117151240D01*
X156676765Y-117176041D01*
X156656020Y-117195301D01*
X156631258Y-117209550D01*
X156606029Y-117218248D01*
X156585963Y-117221131D01*
X156562948Y-117220680D01*
X156539616Y-117217198D01*
X156518605Y-117210987D01*
X156510304Y-117207224D01*
X156498878Y-117200142D01*
X156486510Y-117190868D01*
X156480291Y-117185478D01*
X156476870Y-117181682D01*
X156469452Y-117172987D01*
X156458253Y-117159657D01*
X156443489Y-117141957D01*
X156425379Y-117120152D01*
X156404141Y-117094508D01*
X156379989Y-117065289D01*
X156353142Y-117032761D01*
X156323818Y-116997187D01*
X156292233Y-116958835D01*
X156258604Y-116917968D01*
X156223148Y-116874851D01*
X156186084Y-116829751D01*
X156147626Y-116782932D01*
X156107994Y-116734657D01*
X156067404Y-116685194D01*
X156026073Y-116634807D01*
X155984219Y-116583760D01*
X155942058Y-116532320D01*
X155899808Y-116480751D01*
X155857686Y-116429317D01*
X155815909Y-116378285D01*
X155774694Y-116327919D01*
X155734259Y-116278485D01*
X155694820Y-116230245D01*
X155656595Y-116183469D01*
X155619800Y-116138417D01*
X155584655Y-116095358D01*
X155551373Y-116054556D01*
X155520174Y-116016274D01*
X155491274Y-115980779D01*
X155464892Y-115948336D01*
X155441243Y-115919210D01*
X155420545Y-115893664D01*
X155403015Y-115871967D01*
X155388870Y-115854380D01*
X155378327Y-115841171D01*
X155371605Y-115832603D01*
X155369036Y-115829139D01*
X155357164Y-115805113D01*
X155349966Y-115778245D01*
X155347677Y-115750403D01*
X155350528Y-115723458D01*
X155354265Y-115710002D01*
X155366856Y-115683267D01*
X155384028Y-115660652D01*
X155404947Y-115642420D01*
X155428778Y-115628833D01*
X155454682Y-115620153D01*
X155481829Y-115616644D01*
X155509380Y-115618566D01*
G37*
G36*
X152074086Y-116150805D02*
G01*
X152101010Y-116161109D01*
X152119343Y-116172464D01*
X152122804Y-116175880D01*
X152130406Y-116184016D01*
X152141894Y-116196582D01*
X152157013Y-116213287D01*
X152175506Y-116233841D01*
X152197118Y-116257956D01*
X152221590Y-116285340D01*
X152248669Y-116315705D01*
X152278096Y-116348759D01*
X152309617Y-116384212D01*
X152342976Y-116421776D01*
X152377916Y-116461160D01*
X152414180Y-116502074D01*
X152451514Y-116544227D01*
X152489660Y-116587332D01*
X152528363Y-116631096D01*
X152567366Y-116675230D01*
X152606412Y-116719444D01*
X152645248Y-116763448D01*
X152683614Y-116806953D01*
X152721258Y-116849668D01*
X152757920Y-116891304D01*
X152793346Y-116931569D01*
X152827278Y-116970175D01*
X152859463Y-117006832D01*
X152889642Y-117041249D01*
X152917560Y-117073137D01*
X152942961Y-117102204D01*
X152965588Y-117128163D01*
X152985187Y-117150722D01*
X153001499Y-117169592D01*
X153014269Y-117184482D01*
X153023241Y-117195104D01*
X153028159Y-117201165D01*
X153028613Y-117201776D01*
X153041679Y-117225206D01*
X153050053Y-117251672D01*
X153053394Y-117279303D01*
X153051360Y-117306231D01*
X153049335Y-117315068D01*
X153038535Y-117342802D01*
X153022828Y-117366822D01*
X153003018Y-117386739D01*
X152979906Y-117402165D01*
X152954295Y-117412711D01*
X152926990Y-117417990D01*
X152898792Y-117417611D01*
X152870506Y-117411187D01*
X152859538Y-117406922D01*
X152847368Y-117400484D01*
X152834343Y-117391955D01*
X152828304Y-117387318D01*
X152825083Y-117383987D01*
X152817712Y-117375943D01*
X152806449Y-117363480D01*
X152791550Y-117346888D01*
X152773273Y-117326458D01*
X152751877Y-117302479D01*
X152727616Y-117275245D01*
X152700750Y-117245043D01*
X152671535Y-117212168D01*
X152640228Y-117176909D01*
X152607087Y-117139557D01*
X152572370Y-117100402D01*
X152536334Y-117059736D01*
X152499235Y-117017850D01*
X152461332Y-116975035D01*
X152422881Y-116931581D01*
X152384140Y-116887780D01*
X152345366Y-116843922D01*
X152306816Y-116800299D01*
X152268749Y-116757200D01*
X152231421Y-116714919D01*
X152195089Y-116673743D01*
X152160010Y-116633965D01*
X152126443Y-116595878D01*
X152094644Y-116559769D01*
X152064871Y-116525931D01*
X152037381Y-116494655D01*
X152012431Y-116466231D01*
X151990279Y-116440951D01*
X151971182Y-116419104D01*
X151955397Y-116400984D01*
X151943181Y-116386880D01*
X151935957Y-116378453D01*
X151917826Y-116352426D01*
X151906024Y-116324565D01*
X151900641Y-116295200D01*
X151901770Y-116264660D01*
X151902706Y-116258879D01*
X151910825Y-116230102D01*
X151924175Y-116205345D01*
X151943056Y-116184158D01*
X151962073Y-116169651D01*
X151988856Y-116155896D01*
X152017075Y-116148181D01*
X152045797Y-116146489D01*
X152074086Y-116150805D01*
G37*
G36*
X153565834Y-115395575D02*
G01*
X153579711Y-115397945D01*
X153597331Y-115401483D01*
X153610408Y-115405150D01*
X153621044Y-115409639D01*
X153629284Y-115414338D01*
X153632794Y-115417415D01*
X153640816Y-115425030D01*
X153653157Y-115436991D01*
X153669629Y-115453108D01*
X153690039Y-115473190D01*
X153714200Y-115497046D01*
X153741920Y-115524487D01*
X153773009Y-115555322D01*
X153807277Y-115589358D01*
X153844535Y-115626408D01*
X153884590Y-115666279D01*
X153927253Y-115708781D01*
X153972335Y-115753724D01*
X154019643Y-115800918D01*
X154068991Y-115850171D01*
X154120185Y-115901293D01*
X154173037Y-115954093D01*
X154227356Y-116008381D01*
X154282951Y-116063967D01*
X154339633Y-116120659D01*
X154397212Y-116178267D01*
X154455496Y-116236602D01*
X154514296Y-116295470D01*
X154573423Y-116354684D01*
X154632684Y-116414052D01*
X154691891Y-116473382D01*
X154750854Y-116532486D01*
X154809380Y-116591173D01*
X154867282Y-116649249D01*
X154924369Y-116706529D01*
X154980448Y-116762818D01*
X155035332Y-116817927D01*
X155088830Y-116871666D01*
X155140753Y-116923843D01*
X155190907Y-116974269D01*
X155239107Y-117022752D01*
X155285157Y-117069103D01*
X155328871Y-117113130D01*
X155370058Y-117154644D01*
X155408527Y-117193452D01*
X155444088Y-117229366D01*
X155476550Y-117262195D01*
X155505725Y-117291747D01*
X155531422Y-117317831D01*
X155553449Y-117340259D01*
X155571617Y-117358839D01*
X155585736Y-117373381D01*
X155595616Y-117383693D01*
X155601067Y-117389586D01*
X155601945Y-117390639D01*
X155616741Y-117415579D01*
X155625507Y-117442498D01*
X155628258Y-117470561D01*
X155625006Y-117498933D01*
X155615768Y-117526779D01*
X155600555Y-117553262D01*
X155599212Y-117555117D01*
X155579215Y-117577055D01*
X155555789Y-117593395D01*
X155529426Y-117603936D01*
X155500615Y-117608475D01*
X155473162Y-117607283D01*
X155455355Y-117604189D01*
X155439796Y-117600119D01*
X155430818Y-117596668D01*
X155419836Y-117590359D01*
X155407633Y-117581923D01*
X155401580Y-117577139D01*
X155397815Y-117573590D01*
X155389554Y-117565520D01*
X155376988Y-117553120D01*
X155360307Y-117536582D01*
X155339704Y-117516096D01*
X155315367Y-117491855D01*
X155287490Y-117464050D01*
X155256261Y-117432873D01*
X155221871Y-117398514D01*
X155184513Y-117361167D01*
X155144377Y-117321020D01*
X155101652Y-117278267D01*
X155056530Y-117233101D01*
X155009204Y-117185710D01*
X154959860Y-117136287D01*
X154908694Y-117085024D01*
X154855893Y-117032112D01*
X154801649Y-116977743D01*
X154746154Y-116922107D01*
X154689599Y-116865398D01*
X154632172Y-116807805D01*
X154574066Y-116749520D01*
X154515472Y-116690737D01*
X154456579Y-116631644D01*
X154397580Y-116572435D01*
X154338664Y-116513301D01*
X154280024Y-116454432D01*
X154221849Y-116396022D01*
X154164329Y-116338259D01*
X154107658Y-116281339D01*
X154052024Y-116225450D01*
X153997619Y-116170785D01*
X153944634Y-116117535D01*
X153893259Y-116065892D01*
X153843686Y-116016047D01*
X153796105Y-115968192D01*
X153750705Y-115922517D01*
X153707681Y-115879216D01*
X153667221Y-115838479D01*
X153629516Y-115800497D01*
X153594757Y-115765463D01*
X153563135Y-115733567D01*
X153534842Y-115705002D01*
X153510067Y-115679959D01*
X153489002Y-115658628D01*
X153471836Y-115641202D01*
X153458762Y-115627874D01*
X153449971Y-115618833D01*
X153445651Y-115614270D01*
X153445298Y-115613857D01*
X153431984Y-115591873D01*
X153423161Y-115566464D01*
X153419089Y-115539361D01*
X153420025Y-115512289D01*
X153426230Y-115486978D01*
X153426242Y-115486945D01*
X153440079Y-115458970D01*
X153458810Y-115435423D01*
X153482056Y-115416646D01*
X153509444Y-115402985D01*
X153522989Y-115398604D01*
X153534727Y-115395632D01*
X153544277Y-115394154D01*
X153553894Y-115394144D01*
X153565834Y-115395575D01*
G37*
G36*
X152440448Y-115646391D02*
G01*
X152467763Y-115656144D01*
X152488893Y-115668814D01*
X152492616Y-115672559D01*
X152500555Y-115681419D01*
X152512682Y-115695367D01*
X152528975Y-115714374D01*
X152549408Y-115738408D01*
X152573958Y-115767442D01*
X152602599Y-115801447D01*
X152635308Y-115840393D01*
X152672058Y-115884251D01*
X152712828Y-115932991D01*
X152757591Y-115986584D01*
X152806323Y-116045001D01*
X152859000Y-116108213D01*
X152915597Y-116176190D01*
X152976091Y-116248904D01*
X153040455Y-116326325D01*
X153108667Y-116408423D01*
X153180701Y-116495170D01*
X153248329Y-116576650D01*
X153304482Y-116644324D01*
X153359597Y-116710758D01*
X153413518Y-116775766D01*
X153466089Y-116839157D01*
X153517156Y-116900744D01*
X153566562Y-116960340D01*
X153614150Y-117017756D01*
X153659767Y-117072803D01*
X153703254Y-117125295D01*
X153744459Y-117175042D01*
X153783223Y-117221858D01*
X153819393Y-117265552D01*
X153852811Y-117305939D01*
X153883323Y-117342829D01*
X153910772Y-117376034D01*
X153935002Y-117405366D01*
X153955859Y-117430636D01*
X153973185Y-117451660D01*
X153986827Y-117468244D01*
X153996628Y-117480205D01*
X154002431Y-117487352D01*
X154004015Y-117489367D01*
X154017001Y-117512570D01*
X154025334Y-117539058D01*
X154028527Y-117566907D01*
X154027824Y-117582980D01*
X154021658Y-117612243D01*
X154010198Y-117638277D01*
X153994180Y-117660698D01*
X153974337Y-117679128D01*
X153951404Y-117693186D01*
X153926113Y-117702490D01*
X153899199Y-117706660D01*
X153871396Y-117705316D01*
X153843438Y-117698076D01*
X153823518Y-117688942D01*
X153811048Y-117681187D01*
X153799289Y-117672395D01*
X153792066Y-117665760D01*
X153788161Y-117661270D01*
X153780232Y-117651916D01*
X153768467Y-117637925D01*
X153753052Y-117619522D01*
X153734176Y-117596934D01*
X153712025Y-117570386D01*
X153686788Y-117540106D01*
X153658652Y-117506318D01*
X153627803Y-117469249D01*
X153594430Y-117429124D01*
X153558719Y-117386170D01*
X153520859Y-117340613D01*
X153481035Y-117292679D01*
X153439437Y-117242594D01*
X153396252Y-117190584D01*
X153351666Y-117136875D01*
X153305867Y-117081693D01*
X153259044Y-117025264D01*
X153211382Y-116967815D01*
X153163069Y-116909571D01*
X153114293Y-116850757D01*
X153065241Y-116791602D01*
X153016101Y-116732329D01*
X152967059Y-116673167D01*
X152918305Y-116614339D01*
X152870024Y-116556073D01*
X152822404Y-116498594D01*
X152775632Y-116442130D01*
X152729897Y-116386904D01*
X152685385Y-116333145D01*
X152642284Y-116281076D01*
X152600781Y-116230926D01*
X152561063Y-116182920D01*
X152523319Y-116137284D01*
X152487734Y-116094243D01*
X152454498Y-116054024D01*
X152423797Y-116016854D01*
X152395818Y-115982957D01*
X152370750Y-115952561D01*
X152348778Y-115925890D01*
X152330092Y-115903171D01*
X152314878Y-115884632D01*
X152303323Y-115870496D01*
X152295615Y-115860991D01*
X152291942Y-115856341D01*
X152291705Y-115856011D01*
X152278169Y-115829837D01*
X152270715Y-115802274D01*
X152269167Y-115774222D01*
X152273344Y-115746577D01*
X152283070Y-115720239D01*
X152298164Y-115696104D01*
X152318449Y-115675073D01*
X152329340Y-115666780D01*
X152355338Y-115652748D01*
X152383208Y-115644680D01*
X152411920Y-115642566D01*
X152440448Y-115646391D01*
G37*
G36*
X154624752Y-115405636D02*
G01*
X154645607Y-115411046D01*
X154661082Y-115417231D01*
X154674820Y-115424623D01*
X154687723Y-115434037D01*
X154700696Y-115446286D01*
X154714645Y-115462189D01*
X154730470Y-115482560D01*
X154741336Y-115497396D01*
X154746091Y-115503956D01*
X154754626Y-115515697D01*
X154766790Y-115532411D01*
X154782434Y-115553893D01*
X154801408Y-115579938D01*
X154823561Y-115610340D01*
X154848746Y-115644894D01*
X154876809Y-115683393D01*
X154907603Y-115725632D01*
X154940977Y-115771405D01*
X154976780Y-115820507D01*
X155014864Y-115872732D01*
X155055077Y-115927874D01*
X155097271Y-115985727D01*
X155141296Y-116046087D01*
X155186999Y-116108747D01*
X155234234Y-116173501D01*
X155282849Y-116240145D01*
X155332694Y-116308472D01*
X155383618Y-116378276D01*
X155435474Y-116449352D01*
X155473519Y-116501497D01*
X155525786Y-116573138D01*
X155577151Y-116643553D01*
X155627468Y-116712542D01*
X155676592Y-116779904D01*
X155724376Y-116845438D01*
X155770676Y-116908945D01*
X155815344Y-116970226D01*
X155858235Y-117029078D01*
X155899204Y-117085303D01*
X155938105Y-117138701D01*
X155974792Y-117189071D01*
X156009119Y-117236212D01*
X156040941Y-117279925D01*
X156070111Y-117320011D01*
X156096485Y-117356267D01*
X156119915Y-117388496D01*
X156140258Y-117416494D01*
X156157365Y-117440065D01*
X156171093Y-117459007D01*
X156181295Y-117473119D01*
X156187825Y-117482203D01*
X156190270Y-117485658D01*
X156205022Y-117509268D01*
X156214955Y-117530799D01*
X156220683Y-117552030D01*
X156222824Y-117574740D01*
X156222875Y-117579814D01*
X156219613Y-117607856D01*
X156210380Y-117634298D01*
X156195829Y-117658321D01*
X156176611Y-117679101D01*
X156153378Y-117695815D01*
X156126782Y-117707642D01*
X156120041Y-117709642D01*
X156092560Y-117713854D01*
X156064267Y-117712399D01*
X156037066Y-117705512D01*
X156019162Y-117697283D01*
X156006876Y-117689632D01*
X155995287Y-117681263D01*
X155988274Y-117675259D01*
X155985541Y-117671817D01*
X155979022Y-117663173D01*
X155968853Y-117649513D01*
X155955170Y-117631028D01*
X155938112Y-117607902D01*
X155917815Y-117580324D01*
X155894417Y-117548480D01*
X155868053Y-117512558D01*
X155838862Y-117472745D01*
X155806980Y-117429230D01*
X155772545Y-117382199D01*
X155735694Y-117331840D01*
X155696564Y-117278338D01*
X155655292Y-117221883D01*
X155612015Y-117162662D01*
X155566870Y-117100862D01*
X155519993Y-117036669D01*
X155471524Y-116970272D01*
X155421598Y-116901858D01*
X155370352Y-116831614D01*
X155317925Y-116759728D01*
X155264451Y-116686386D01*
X155228645Y-116637264D01*
X155160380Y-116543592D01*
X155095965Y-116455175D01*
X155035308Y-116371892D01*
X154978323Y-116293620D01*
X154924920Y-116220234D01*
X154875010Y-116151614D01*
X154828505Y-116087635D01*
X154785315Y-116028173D01*
X154745351Y-115973107D01*
X154708526Y-115922314D01*
X154674750Y-115875669D01*
X154643934Y-115833052D01*
X154615988Y-115794336D01*
X154590826Y-115759401D01*
X154568357Y-115728123D01*
X154548492Y-115700379D01*
X154531143Y-115676045D01*
X154516221Y-115654999D01*
X154503638Y-115637120D01*
X154493303Y-115622281D01*
X154485128Y-115610361D01*
X154479025Y-115601237D01*
X154474905Y-115594785D01*
X154472678Y-115590883D01*
X154472340Y-115590124D01*
X154465503Y-115563519D01*
X154464095Y-115535248D01*
X154468166Y-115507592D01*
X154470293Y-115500274D01*
X154482194Y-115473731D01*
X154498930Y-115450792D01*
X154519631Y-115431901D01*
X154543431Y-115417499D01*
X154569464Y-115408026D01*
X154596860Y-115403925D01*
X154624752Y-115405636D01*
G37*
%TO.C,G4*%
G36*
X129007798Y-113135299D02*
G01*
X129074668Y-113145992D01*
X129140346Y-113162817D01*
X129204272Y-113185603D01*
X129265888Y-113214177D01*
X129324635Y-113248368D01*
X129379956Y-113288003D01*
X129382711Y-113290196D01*
X129414978Y-113318132D01*
X129447593Y-113350260D01*
X129478804Y-113384683D01*
X129506857Y-113419505D01*
X129522837Y-113441852D01*
X129531217Y-113453936D01*
X129536887Y-113461077D01*
X129540614Y-113464021D01*
X129543161Y-113463516D01*
X129544019Y-113462519D01*
X129547401Y-113457710D01*
X129553643Y-113448839D01*
X129561766Y-113437294D01*
X129568446Y-113427800D01*
X129608947Y-113375976D01*
X129654366Y-113328403D01*
X129704290Y-113285328D01*
X129758306Y-113247002D01*
X129816001Y-113213671D01*
X129876961Y-113185586D01*
X129940773Y-113162993D01*
X130007023Y-113146141D01*
X130049378Y-113138651D01*
X130110233Y-113132435D01*
X130172105Y-113131402D01*
X130234126Y-113135378D01*
X130295426Y-113144190D01*
X130355135Y-113157662D01*
X130412386Y-113175621D01*
X130466309Y-113197893D01*
X130516034Y-113224303D01*
X130534378Y-113235870D01*
X130553918Y-113249052D01*
X130569633Y-113260364D01*
X130583428Y-113271344D01*
X130597209Y-113283528D01*
X130612882Y-113298453D01*
X130617193Y-113302670D01*
X130654537Y-113343699D01*
X130686459Y-113388249D01*
X130713121Y-113436609D01*
X130734685Y-113489066D01*
X130749034Y-113536724D01*
X130755620Y-113564226D01*
X130760515Y-113589414D01*
X130763925Y-113614112D01*
X130766054Y-113640142D01*
X130767104Y-113669328D01*
X130767295Y-113700000D01*
X130764448Y-113766906D01*
X130756303Y-113833921D01*
X130742748Y-113901363D01*
X130723675Y-113969547D01*
X130698973Y-114038792D01*
X130668532Y-114109415D01*
X130632241Y-114181734D01*
X130589991Y-114256064D01*
X130554320Y-114313333D01*
X130519472Y-114363167D01*
X130478381Y-114414417D01*
X130431273Y-114466894D01*
X130378374Y-114520410D01*
X130319913Y-114574777D01*
X130256115Y-114629806D01*
X130187208Y-114685308D01*
X130113419Y-114741096D01*
X130034974Y-114796981D01*
X129952101Y-114852774D01*
X129865026Y-114908289D01*
X129773977Y-114963335D01*
X129764378Y-114968973D01*
X129742721Y-114981568D01*
X129719266Y-114995048D01*
X129694715Y-115009024D01*
X129669767Y-115023110D01*
X129645122Y-115036917D01*
X129621482Y-115050056D01*
X129599547Y-115062141D01*
X129580016Y-115072783D01*
X129563590Y-115081595D01*
X129550970Y-115088187D01*
X129542856Y-115092174D01*
X129540050Y-115093226D01*
X129536602Y-115091657D01*
X129528130Y-115087300D01*
X129515448Y-115080588D01*
X129499367Y-115071954D01*
X129480701Y-115061831D01*
X129464378Y-115052910D01*
X129356534Y-114992273D01*
X129253910Y-114931504D01*
X129156641Y-114870704D01*
X129064859Y-114809975D01*
X128978699Y-114749419D01*
X128898295Y-114689135D01*
X128823779Y-114629227D01*
X128755287Y-114569796D01*
X128692951Y-114510942D01*
X128636906Y-114452768D01*
X128587285Y-114395375D01*
X128571946Y-114376114D01*
X128551795Y-114349274D01*
X128531686Y-114320428D01*
X128510777Y-114288318D01*
X128488228Y-114251683D01*
X128482234Y-114241666D01*
X128441744Y-114169163D01*
X128406698Y-114096932D01*
X128377131Y-114025232D01*
X128353079Y-113954322D01*
X128334575Y-113884461D01*
X128321655Y-113815907D01*
X128314353Y-113748919D01*
X128312705Y-113683756D01*
X128316744Y-113620677D01*
X128326506Y-113559940D01*
X128342025Y-113501805D01*
X128363336Y-113446530D01*
X128372792Y-113426666D01*
X128400496Y-113378820D01*
X128433569Y-113334706D01*
X128471756Y-113294472D01*
X128514805Y-113258267D01*
X128562459Y-113226242D01*
X128614466Y-113198544D01*
X128670572Y-113175324D01*
X128730522Y-113156731D01*
X128794063Y-113142913D01*
X128860941Y-113134020D01*
X128872711Y-113133002D01*
X128940292Y-113130912D01*
X129007798Y-113135299D01*
G37*
%TO.C,G\u002A\u002A\u002A*%
G36*
X127061198Y-110944657D02*
G01*
X127108011Y-110952142D01*
X127153988Y-110963920D01*
X127198739Y-110979871D01*
X127241873Y-110999875D01*
X127282999Y-111023810D01*
X127321726Y-111051556D01*
X127323655Y-111053091D01*
X127346243Y-111072648D01*
X127369075Y-111095139D01*
X127390924Y-111119237D01*
X127410562Y-111143614D01*
X127421749Y-111159258D01*
X127427615Y-111167717D01*
X127431585Y-111172716D01*
X127434194Y-111174777D01*
X127435977Y-111174423D01*
X127436577Y-111173725D01*
X127438946Y-111170359D01*
X127443315Y-111164148D01*
X127449001Y-111156067D01*
X127453678Y-111149421D01*
X127482030Y-111113141D01*
X127513826Y-111079838D01*
X127548775Y-111049684D01*
X127586589Y-111022853D01*
X127626977Y-110999521D01*
X127669652Y-110979859D01*
X127714323Y-110964043D01*
X127760702Y-110952247D01*
X127790352Y-110947003D01*
X127832954Y-110942651D01*
X127876267Y-110941928D01*
X127919684Y-110944712D01*
X127962597Y-110950880D01*
X128004396Y-110960312D01*
X128044474Y-110972884D01*
X128082223Y-110988475D01*
X128117033Y-111006963D01*
X128129874Y-111015061D01*
X128143553Y-111024288D01*
X128154554Y-111032208D01*
X128164212Y-111039894D01*
X128173859Y-111048423D01*
X128184831Y-111058872D01*
X128187849Y-111061824D01*
X128213991Y-111090546D01*
X128236338Y-111121733D01*
X128255003Y-111155587D01*
X128270099Y-111192309D01*
X128280144Y-111225672D01*
X128284754Y-111244925D01*
X128288181Y-111262558D01*
X128290568Y-111279847D01*
X128292058Y-111298069D01*
X128292793Y-111318501D01*
X128292927Y-111339973D01*
X128290934Y-111386810D01*
X128285232Y-111433724D01*
X128275743Y-111480936D01*
X128262391Y-111528668D01*
X128245099Y-111577143D01*
X128223788Y-111626583D01*
X128198383Y-111677209D01*
X128168806Y-111729244D01*
X128143835Y-111769334D01*
X128119440Y-111804221D01*
X128090674Y-111840098D01*
X128057696Y-111876834D01*
X128020665Y-111914298D01*
X127979739Y-111952357D01*
X127935078Y-111990880D01*
X127886840Y-112029734D01*
X127835184Y-112068788D01*
X127780269Y-112107910D01*
X127722254Y-112146968D01*
X127661298Y-112185830D01*
X127597559Y-112224365D01*
X127590839Y-112228312D01*
X127575678Y-112237129D01*
X127559259Y-112246566D01*
X127542071Y-112256350D01*
X127524607Y-112266211D01*
X127507355Y-112275876D01*
X127490806Y-112285074D01*
X127475450Y-112293534D01*
X127461777Y-112300984D01*
X127450279Y-112307153D01*
X127441444Y-112311768D01*
X127435764Y-112314559D01*
X127433799Y-112315295D01*
X127431385Y-112314197D01*
X127425455Y-112311146D01*
X127416576Y-112306448D01*
X127405319Y-112300404D01*
X127392252Y-112293317D01*
X127380825Y-112287072D01*
X127305329Y-112244624D01*
X127233488Y-112202082D01*
X127165395Y-112159520D01*
X127101144Y-112117007D01*
X127040828Y-112074614D01*
X126984541Y-112032413D01*
X126932377Y-111990475D01*
X126884429Y-111948870D01*
X126840791Y-111907670D01*
X126801557Y-111866945D01*
X126766820Y-111826767D01*
X126756082Y-111813284D01*
X126741976Y-111794494D01*
X126727898Y-111774301D01*
X126713261Y-111751822D01*
X126697475Y-111726176D01*
X126693279Y-111719164D01*
X126664934Y-111668409D01*
X126640400Y-111617844D01*
X126619703Y-111567651D01*
X126602865Y-111518010D01*
X126589911Y-111469104D01*
X126580867Y-111421113D01*
X126575755Y-111374218D01*
X126574601Y-111328601D01*
X126577429Y-111284443D01*
X126584262Y-111241925D01*
X126595127Y-111201228D01*
X126610046Y-111162533D01*
X126616665Y-111148627D01*
X126636059Y-111115132D01*
X126659212Y-111084250D01*
X126685945Y-111056084D01*
X126716080Y-111030740D01*
X126749441Y-111008320D01*
X126785848Y-110988931D01*
X126825125Y-110972676D01*
X126867093Y-110959659D01*
X126911574Y-110949986D01*
X126958391Y-110943761D01*
X126966631Y-110943048D01*
X127013941Y-110941585D01*
X127061198Y-110944657D01*
G37*
%TD*%
D13*
%TO.C,D1*%
X160346500Y-93472000D03*
D14*
X162886500Y-93472000D03*
%TD*%
D13*
%TO.C,D3*%
X136216500Y-83058000D03*
D14*
X138756500Y-83058000D03*
%TD*%
D13*
%TO.C,D5*%
X143836500Y-81788000D03*
D14*
X146376500Y-81788000D03*
%TD*%
D13*
%TO.C,D11*%
X141042500Y-91567000D03*
D14*
X143582500Y-91567000D03*
%TD*%
D13*
%TO.C,D4*%
X127000000Y-93726000D03*
D14*
X129540000Y-93726000D03*
%TD*%
D13*
%TO.C,D8*%
X146884500Y-91567000D03*
D14*
X149424500Y-91567000D03*
%TD*%
D13*
%TO.C,D7*%
X156536500Y-88392000D03*
D14*
X159076500Y-88392000D03*
%TD*%
D13*
%TO.C,D10*%
X150948500Y-95123000D03*
D14*
X153488500Y-95123000D03*
%TD*%
D13*
%TO.C,D9*%
X136470500Y-95250000D03*
D14*
X139010500Y-95250000D03*
%TD*%
D13*
%TO.C,D6*%
X130628500Y-87884000D03*
D14*
X133168500Y-87884000D03*
%TD*%
D13*
%TO.C,D2*%
X150948500Y-83312000D03*
D14*
X153488500Y-83312000D03*
%TD*%
D15*
%TO.C,R4*%
X120509700Y-96247244D03*
D16*
X124803502Y-87039157D03*
%TD*%
D15*
%TO.C,R1*%
X138003409Y-76454000D03*
D17*
X129204591Y-81534000D03*
%TD*%
D15*
%TO.C,R3*%
X169278901Y-96467639D03*
D18*
X165803976Y-86920362D03*
%TD*%
D19*
%TO.C,SW1*%
X160686571Y-118837782D03*
X165957429Y-112556218D03*
D20*
X164607575Y-114164911D03*
D21*
X163322000Y-115697000D03*
X162036425Y-117229089D03*
%TD*%
D22*
%TO.C,BT1*%
X133604000Y-112395000D03*
X154686000Y-112395000D03*
%TD*%
D15*
%TO.C,R2*%
X159290044Y-80378901D03*
D23*
X150081957Y-76085099D03*
%TD*%
M02*
