%TF.GenerationSoftware,KiCad,Pcbnew,(6.0.4)*%
%TF.CreationDate,2024-01-19T15:56:56-08:00*%
%TF.ProjectId,Alpenglow_RadiantRainbow_PCB,416c7065-6e67-46c6-9f77-5f5261646961,rev?*%
%TF.SameCoordinates,Original*%
%TF.FileFunction,Legend,Top*%
%TF.FilePolarity,Positive*%
%FSLAX46Y46*%
G04 Gerber Fmt 4.6, Leading zero omitted, Abs format (unit mm)*
G04 Created by KiCad (PCBNEW (6.0.4)) date 2024-01-19 15:56:56*
%MOMM*%
%LPD*%
G01*
G04 APERTURE LIST*
G04 Aperture macros list*
%AMHorizOval*
0 Thick line with rounded ends*
0 $1 width*
0 $2 $3 position (X,Y) of the first rounded end (center of the circle)*
0 $4 $5 position (X,Y) of the second rounded end (center of the circle)*
0 Add line between two ends*
20,1,$1,$2,$3,$4,$5,0*
0 Add two circle primitives to create the rounded ends*
1,1,$1,$2,$3*
1,1,$1,$4,$5*%
G04 Aperture macros list end*
%ADD10C,0.150000*%
%ADD11C,0.120000*%
%ADD12C,0.635000*%
%ADD13R,1.800000X1.800000*%
%ADD14C,1.800000*%
%ADD15C,1.117600*%
%ADD16C,1.600000*%
%ADD17HorizOval,1.600000X0.000000X0.000000X0.000000X0.000000X0*%
%ADD18HorizOval,1.600000X0.000000X0.000000X0.000000X0.000000X0*%
%ADD19HorizOval,1.600000X0.000000X0.000000X0.000000X0.000000X0*%
%ADD20C,2.000000*%
%ADD21O,2.500000X4.000000*%
%ADD22HorizOval,1.600000X0.000000X0.000000X0.000000X0.000000X0*%
G04 APERTURE END LIST*
D10*
X132410200Y-85015390D02*
X132410200Y-85491580D01*
X132076866Y-84491580D02*
X132410200Y-85015390D01*
X132743533Y-84491580D01*
X150499723Y-80944980D02*
X150166390Y-80468790D01*
X149928295Y-80944980D02*
X149928295Y-79944980D01*
X150309247Y-79944980D01*
X150404485Y-79992600D01*
X150452104Y-80040219D01*
X150499723Y-80135457D01*
X150499723Y-80278314D01*
X150452104Y-80373552D01*
X150404485Y-80421171D01*
X150309247Y-80468790D01*
X149928295Y-80468790D01*
X156083000Y-85701190D02*
X156083000Y-86177380D01*
X155749666Y-85177380D02*
X156083000Y-85701190D01*
X156416333Y-85177380D01*
X137904504Y-91676600D02*
X137809266Y-91628980D01*
X137666409Y-91628980D01*
X137523552Y-91676600D01*
X137428314Y-91771838D01*
X137380695Y-91867076D01*
X137333076Y-92057552D01*
X137333076Y-92200409D01*
X137380695Y-92390885D01*
X137428314Y-92486123D01*
X137523552Y-92581361D01*
X137666409Y-92628980D01*
X137761647Y-92628980D01*
X137904504Y-92581361D01*
X137952123Y-92533742D01*
X137952123Y-92200409D01*
X137761647Y-92200409D01*
X143733828Y-88828571D02*
X143876685Y-88876190D01*
X143924304Y-88923809D01*
X143971923Y-89019047D01*
X143971923Y-89161904D01*
X143924304Y-89257142D01*
X143876685Y-89304761D01*
X143781447Y-89352380D01*
X143400495Y-89352380D01*
X143400495Y-88352380D01*
X143733828Y-88352380D01*
X143829066Y-88400000D01*
X143876685Y-88447619D01*
X143924304Y-88542857D01*
X143924304Y-88638095D01*
X143876685Y-88733333D01*
X143829066Y-88780952D01*
X143733828Y-88828571D01*
X143400495Y-88828571D01*
X161904323Y-90977980D02*
X161570990Y-90501790D01*
X161332895Y-90977980D02*
X161332895Y-89977980D01*
X161713847Y-89977980D01*
X161809085Y-90025600D01*
X161856704Y-90073219D01*
X161904323Y-90168457D01*
X161904323Y-90311314D01*
X161856704Y-90406552D01*
X161809085Y-90454171D01*
X161713847Y-90501790D01*
X161332895Y-90501790D01*
X151963428Y-92155971D02*
X152106285Y-92203590D01*
X152153904Y-92251209D01*
X152201523Y-92346447D01*
X152201523Y-92489304D01*
X152153904Y-92584542D01*
X152106285Y-92632161D01*
X152011047Y-92679780D01*
X151630095Y-92679780D01*
X151630095Y-91679780D01*
X151963428Y-91679780D01*
X152058666Y-91727400D01*
X152106285Y-91775019D01*
X152153904Y-91870257D01*
X152153904Y-91965495D01*
X152106285Y-92060733D01*
X152058666Y-92108352D01*
X151963428Y-92155971D01*
X151630095Y-92155971D01*
X147048504Y-88400000D02*
X146953266Y-88352380D01*
X146810409Y-88352380D01*
X146667552Y-88400000D01*
X146572314Y-88495238D01*
X146524695Y-88590476D01*
X146477076Y-88780952D01*
X146477076Y-88923809D01*
X146524695Y-89114285D01*
X146572314Y-89209523D01*
X146667552Y-89304761D01*
X146810409Y-89352380D01*
X146905647Y-89352380D01*
X147048504Y-89304761D01*
X147096123Y-89257142D01*
X147096123Y-88923809D01*
X146905647Y-88923809D01*
X143510000Y-79325790D02*
X143510000Y-79801980D01*
X143176666Y-78801980D02*
X143510000Y-79325790D01*
X143843333Y-78801980D01*
X139577723Y-80868780D02*
X139244390Y-80392590D01*
X139006295Y-80868780D02*
X139006295Y-79868780D01*
X139387247Y-79868780D01*
X139482485Y-79916400D01*
X139530104Y-79964019D01*
X139577723Y-80059257D01*
X139577723Y-80202114D01*
X139530104Y-80297352D01*
X139482485Y-80344971D01*
X139387247Y-80392590D01*
X139006295Y-80392590D01*
X128554123Y-91130380D02*
X128220790Y-90654190D01*
X127982695Y-91130380D02*
X127982695Y-90130380D01*
X128363647Y-90130380D01*
X128458885Y-90178000D01*
X128506504Y-90225619D01*
X128554123Y-90320857D01*
X128554123Y-90463714D01*
X128506504Y-90558952D01*
X128458885Y-90606571D01*
X128363647Y-90654190D01*
X127982695Y-90654190D01*
D11*
%TO.C,D1*%
X160056500Y-92236000D02*
X160056500Y-92392000D01*
X160056500Y-94552000D02*
X160056500Y-94708000D01*
X159076500Y-92202000D02*
X159076500Y-94742000D01*
X163288835Y-92393392D02*
G75*
G03*
X160056500Y-92236484I-1672335J-1078608D01*
G01*
X160056500Y-94707516D02*
G75*
G03*
X163288835Y-94550608I1560000J1235516D01*
G01*
%TO.C,D3*%
X134946500Y-81788000D02*
X134946500Y-84328000D01*
X135926500Y-84138000D02*
X135926500Y-84294000D01*
X135926500Y-81822000D02*
X135926500Y-81978000D01*
X139158835Y-81979392D02*
G75*
G03*
X135926500Y-81822484I-1672335J-1078608D01*
G01*
X135926500Y-84293516D02*
G75*
G03*
X139158835Y-84136608I1560000J1235516D01*
G01*
%TO.C,G\u002A\u002A\u002A*%
G36*
X131307695Y-95499913D02*
G01*
X131470774Y-95503790D01*
X131570818Y-95508551D01*
X131699136Y-95517165D01*
X131813281Y-95526738D01*
X131905225Y-95536445D01*
X131966938Y-95545460D01*
X131988948Y-95551498D01*
X132039999Y-95572745D01*
X132116323Y-95594697D01*
X132198962Y-95612722D01*
X132268962Y-95622189D01*
X132280164Y-95622654D01*
X132342619Y-95635354D01*
X132380515Y-95653885D01*
X132437894Y-95678530D01*
X132479233Y-95684860D01*
X132501858Y-95686307D01*
X132528329Y-95691593D01*
X132564296Y-95702942D01*
X132615404Y-95722577D01*
X132687300Y-95752722D01*
X132785631Y-95795599D01*
X132916045Y-95853431D01*
X132981309Y-95882521D01*
X133218178Y-95996823D01*
X133427129Y-96115311D01*
X133601204Y-96233922D01*
X133651810Y-96274054D01*
X133684849Y-96299196D01*
X133735998Y-96336000D01*
X133750718Y-96346330D01*
X133801004Y-96385537D01*
X133872149Y-96446318D01*
X133956026Y-96521139D01*
X134044506Y-96602468D01*
X134129460Y-96682773D01*
X134202759Y-96754520D01*
X134256274Y-96810177D01*
X134275294Y-96832439D01*
X134316569Y-96882907D01*
X134352776Y-96922680D01*
X134380600Y-96953697D01*
X134424778Y-97006665D01*
X134479133Y-97073751D01*
X134537484Y-97147121D01*
X134593653Y-97218940D01*
X134641461Y-97281376D01*
X134674730Y-97326595D01*
X134687279Y-97346761D01*
X134687280Y-97346785D01*
X134698115Y-97368268D01*
X134726795Y-97415433D01*
X134767579Y-97478907D01*
X134776481Y-97492428D01*
X134819106Y-97558995D01*
X134850644Y-97612206D01*
X134865288Y-97642173D01*
X134865682Y-97644365D01*
X134875461Y-97669335D01*
X134901496Y-97720971D01*
X134938833Y-97789609D01*
X134952805Y-97814367D01*
X134998109Y-97890808D01*
X135032138Y-97937495D01*
X135062425Y-97962126D01*
X135096502Y-97972397D01*
X135108906Y-97973858D01*
X135156547Y-97972669D01*
X135177811Y-97960950D01*
X135177885Y-97960011D01*
X135197122Y-97941876D01*
X135243523Y-97926347D01*
X135244786Y-97926086D01*
X135291603Y-97911102D01*
X135311674Y-97893842D01*
X135311687Y-97893470D01*
X135331120Y-97880281D01*
X135378143Y-97874473D01*
X135380722Y-97874460D01*
X135452663Y-97864809D01*
X135508949Y-97846117D01*
X135655323Y-97793488D01*
X135835167Y-97760661D01*
X135853095Y-97758637D01*
X135924594Y-97748296D01*
X135976268Y-97735927D01*
X135993788Y-97726996D01*
X136018607Y-97721932D01*
X136081119Y-97717743D01*
X136174427Y-97714425D01*
X136291636Y-97711973D01*
X136425847Y-97710383D01*
X136570164Y-97709652D01*
X136717689Y-97709774D01*
X136861527Y-97710745D01*
X136994780Y-97712561D01*
X137110551Y-97715218D01*
X137201943Y-97718711D01*
X137262060Y-97723036D01*
X137283856Y-97727803D01*
X137310712Y-97738929D01*
X137369600Y-97750629D01*
X137448069Y-97760463D01*
X137452512Y-97760883D01*
X137531668Y-97770550D01*
X137591899Y-97782213D01*
X137620754Y-97793430D01*
X137621168Y-97793962D01*
X137650632Y-97808139D01*
X137689574Y-97812509D01*
X137746588Y-97824449D01*
X137779052Y-97843484D01*
X137822529Y-97863910D01*
X137886322Y-97874175D01*
X137898252Y-97874460D01*
X137955014Y-97878092D01*
X137988608Y-97887102D01*
X137991435Y-97889948D01*
X138021090Y-97915420D01*
X138077494Y-97942936D01*
X138143803Y-97965808D01*
X138203173Y-97977351D01*
X138212528Y-97977712D01*
X138258716Y-97983730D01*
X138277622Y-97997969D01*
X138296544Y-98017543D01*
X138333373Y-98031183D01*
X138375119Y-98047127D01*
X138389123Y-98062552D01*
X138408147Y-98076618D01*
X138442488Y-98080964D01*
X138488735Y-98092498D01*
X138508689Y-98111940D01*
X138539324Y-98139422D01*
X138557163Y-98142915D01*
X138597762Y-98154271D01*
X138652484Y-98182299D01*
X138663789Y-98189431D01*
X138754449Y-98246375D01*
X138836663Y-98291247D01*
X138898502Y-98321126D01*
X138950609Y-98351065D01*
X138982337Y-98379671D01*
X138984514Y-98383648D01*
X139014123Y-98408979D01*
X139028132Y-98411371D01*
X139064289Y-98425493D01*
X139108679Y-98459810D01*
X139111929Y-98462997D01*
X139153266Y-98498136D01*
X139184646Y-98514475D01*
X139186529Y-98514623D01*
X139213624Y-98531124D01*
X139222297Y-98545598D01*
X139250941Y-98573052D01*
X139267211Y-98576574D01*
X139295816Y-98590845D01*
X139347461Y-98629537D01*
X139415233Y-98686471D01*
X139492220Y-98755464D01*
X139571509Y-98830336D01*
X139646188Y-98904907D01*
X139704839Y-98967888D01*
X139831045Y-99107726D01*
X139924347Y-99206411D01*
X139963627Y-99253281D01*
X140004344Y-99310992D01*
X140006776Y-99314826D01*
X140037714Y-99358300D01*
X140060918Y-99380994D01*
X140064034Y-99381940D01*
X140080036Y-99399387D01*
X140093101Y-99433566D01*
X140111008Y-99472242D01*
X140128969Y-99485192D01*
X140148378Y-99501924D01*
X140150844Y-99516167D01*
X140161727Y-99543664D01*
X140170963Y-99547143D01*
X140192379Y-99564283D01*
X140214428Y-99603932D01*
X140241419Y-99661101D01*
X140276507Y-99725706D01*
X140280798Y-99732997D01*
X140319577Y-99801259D01*
X140359478Y-99875959D01*
X140365559Y-99887875D01*
X140393348Y-99940417D01*
X140413987Y-99975091D01*
X140418447Y-99980802D01*
X140445234Y-100016417D01*
X140471202Y-100065317D01*
X140485021Y-100105637D01*
X140485348Y-100109892D01*
X140495041Y-100144309D01*
X140519014Y-100196004D01*
X140525680Y-100208262D01*
X140558383Y-100275472D01*
X140589731Y-100353423D01*
X140596543Y-100373159D01*
X140621273Y-100436532D01*
X140647541Y-100486543D01*
X140656563Y-100498688D01*
X140677558Y-100541923D01*
X140686050Y-100598135D01*
X140694259Y-100660741D01*
X140712255Y-100710086D01*
X140738899Y-100770885D01*
X140761957Y-100857586D01*
X140782571Y-100975456D01*
X140800429Y-101116574D01*
X140811997Y-101203562D01*
X140825028Y-101275252D01*
X140837502Y-101321491D01*
X140843366Y-101332371D01*
X140852614Y-101361185D01*
X140859138Y-101421144D01*
X140862977Y-101502172D01*
X140864169Y-101594193D01*
X140862751Y-101687131D01*
X140858762Y-101770909D01*
X140852240Y-101835452D01*
X140843223Y-101870682D01*
X140841323Y-101873147D01*
X140829365Y-101902406D01*
X140817388Y-101962016D01*
X140807389Y-102041071D01*
X140804506Y-102074163D01*
X140796314Y-102156107D01*
X140786156Y-102221158D01*
X140775768Y-102259189D01*
X140771885Y-102264598D01*
X140758341Y-102290969D01*
X140752951Y-102336893D01*
X140742383Y-102398837D01*
X140722156Y-102444089D01*
X140701987Y-102490879D01*
X140684726Y-102559450D01*
X140678315Y-102600512D01*
X140672502Y-102664492D01*
X140678636Y-102706139D01*
X140703579Y-102741840D01*
X140754191Y-102787978D01*
X140758300Y-102791528D01*
X140813408Y-102835469D01*
X140858088Y-102864647D01*
X140877068Y-102871858D01*
X140907441Y-102886946D01*
X140944481Y-102923248D01*
X140944673Y-102923484D01*
X140978423Y-102959604D01*
X141001748Y-102975100D01*
X141002066Y-102975110D01*
X141023850Y-102989109D01*
X141068969Y-103026673D01*
X141130347Y-103081158D01*
X141200911Y-103145917D01*
X141273584Y-103214306D01*
X141341291Y-103279678D01*
X141396957Y-103335389D01*
X141433506Y-103374791D01*
X141444259Y-103390456D01*
X141462359Y-103406713D01*
X141477710Y-103408769D01*
X141507275Y-103425299D01*
X141511160Y-103439745D01*
X141522404Y-103467236D01*
X141531958Y-103470720D01*
X141554949Y-103487682D01*
X141566028Y-103509444D01*
X141589109Y-103547124D01*
X141631977Y-103597293D01*
X141653978Y-103619372D01*
X141702293Y-103671641D01*
X141736809Y-103720185D01*
X141744062Y-103735527D01*
X141764079Y-103770782D01*
X141780266Y-103780476D01*
X141798725Y-103797223D01*
X141801064Y-103811452D01*
X141812308Y-103838944D01*
X141821861Y-103842428D01*
X141843784Y-103859631D01*
X141858317Y-103888891D01*
X141875904Y-103929401D01*
X141887695Y-103945680D01*
X141907663Y-103973075D01*
X141939916Y-104031426D01*
X141980502Y-104113222D01*
X142015338Y-104188322D01*
X142042437Y-104240495D01*
X142065617Y-104271929D01*
X142072958Y-104276086D01*
X142085725Y-104294013D01*
X142090967Y-104336562D01*
X142101988Y-104391536D01*
X142124417Y-104428014D01*
X142152480Y-104473567D01*
X142157868Y-104501766D01*
X142166917Y-104536115D01*
X142180168Y-104544541D01*
X142194236Y-104562840D01*
X142201960Y-104608458D01*
X142202468Y-104625668D01*
X142210645Y-104686238D01*
X142230823Y-104732104D01*
X142235919Y-104737770D01*
X142259262Y-104779258D01*
X142269358Y-104836594D01*
X142269369Y-104838367D01*
X142275260Y-104891743D01*
X142289554Y-104926581D01*
X142290694Y-104927736D01*
X142302312Y-104956365D01*
X142314426Y-105015103D01*
X142324894Y-105092832D01*
X142327410Y-105118369D01*
X142336636Y-105198204D01*
X142347711Y-105260997D01*
X142358662Y-105296333D01*
X142361835Y-105300150D01*
X142368111Y-105323118D01*
X142373106Y-105379044D01*
X142376818Y-105460337D01*
X142379249Y-105559406D01*
X142380396Y-105668660D01*
X142380261Y-105780507D01*
X142378842Y-105887357D01*
X142376139Y-105981619D01*
X142372152Y-106055700D01*
X142366880Y-106102011D01*
X142361875Y-106113972D01*
X142351565Y-106132985D01*
X142340737Y-106183595D01*
X142331280Y-106256159D01*
X142328809Y-106282950D01*
X142319639Y-106364004D01*
X142307748Y-106429594D01*
X142295324Y-106468409D01*
X142292053Y-106472934D01*
X142274979Y-106508013D01*
X142269369Y-106550040D01*
X142261938Y-106593663D01*
X142246543Y-106613186D01*
X142229336Y-106636248D01*
X142214452Y-106685090D01*
X142211315Y-106702671D01*
X142194413Y-106782427D01*
X142165256Y-106860885D01*
X142122355Y-106946825D01*
X142099361Y-107005690D01*
X142090967Y-107055239D01*
X142083455Y-107093245D01*
X142069677Y-107105192D01*
X142051982Y-107123244D01*
X142035927Y-107167666D01*
X142033745Y-107177468D01*
X142019145Y-107225116D01*
X142002115Y-107249074D01*
X141999284Y-107249745D01*
X141983175Y-107267060D01*
X141979466Y-107291045D01*
X141970303Y-107324604D01*
X141957590Y-107332346D01*
X141936453Y-107349868D01*
X141921722Y-107383972D01*
X141906420Y-107422652D01*
X141893422Y-107435794D01*
X141876988Y-107453097D01*
X141851020Y-107496984D01*
X141835091Y-107528721D01*
X141807401Y-107582295D01*
X141785749Y-107615789D01*
X141778875Y-107621452D01*
X141762218Y-107637963D01*
X141732865Y-107680231D01*
X141711863Y-107714379D01*
X141677637Y-107767196D01*
X141649928Y-107800861D01*
X141639852Y-107807306D01*
X141623253Y-107823262D01*
X141622662Y-107828857D01*
X141608671Y-107857069D01*
X141574266Y-107898552D01*
X141566911Y-107906085D01*
X141530230Y-107946864D01*
X141511705Y-107975574D01*
X141511160Y-107978446D01*
X141496296Y-108002517D01*
X141460044Y-108038942D01*
X141455410Y-108042977D01*
X141417393Y-108081937D01*
X141399803Y-108112453D01*
X141399659Y-108114267D01*
X141381646Y-108135049D01*
X141366208Y-108137712D01*
X141336519Y-108148020D01*
X141332758Y-108156774D01*
X141317878Y-108182195D01*
X141281854Y-108221702D01*
X141237608Y-108263036D01*
X141198061Y-108293939D01*
X141178709Y-108302915D01*
X141157150Y-108319106D01*
X141132056Y-108354541D01*
X141104202Y-108392060D01*
X141082622Y-108406167D01*
X141055502Y-108419972D01*
X141015593Y-108453625D01*
X141011357Y-108457793D01*
X140970926Y-108492852D01*
X140941485Y-108509254D01*
X140939718Y-108509419D01*
X140911562Y-108522296D01*
X140868031Y-108553987D01*
X140859623Y-108561045D01*
X140815654Y-108595164D01*
X140784847Y-108612664D01*
X140781800Y-108613245D01*
X140756435Y-108627115D01*
X140714455Y-108661099D01*
X140699059Y-108675196D01*
X140651482Y-108713805D01*
X140612280Y-108735111D01*
X140604283Y-108736574D01*
X140577055Y-108747608D01*
X140574549Y-108754986D01*
X140555650Y-108773165D01*
X140518798Y-108786355D01*
X140477032Y-108802937D01*
X140463048Y-108819569D01*
X140444979Y-108837543D01*
X140429597Y-108839826D01*
X140399907Y-108850106D01*
X140396147Y-108858836D01*
X140376923Y-108876048D01*
X140330547Y-108891184D01*
X140329246Y-108891452D01*
X140282429Y-108906436D01*
X140262358Y-108923696D01*
X140262345Y-108924068D01*
X140243776Y-108939841D01*
X140220475Y-108943078D01*
X140171204Y-108958076D01*
X140150844Y-108974054D01*
X140106814Y-109000561D01*
X140081213Y-109005029D01*
X140046466Y-109013022D01*
X140039343Y-109023040D01*
X140019645Y-109037214D01*
X139970411Y-109050786D01*
X139950142Y-109054260D01*
X139894374Y-109067027D01*
X139863270Y-109082902D01*
X139860941Y-109087875D01*
X139842018Y-109104058D01*
X139810765Y-109108938D01*
X139752460Y-109121940D01*
X139717302Y-109139914D01*
X139664321Y-109161515D01*
X139600225Y-109170232D01*
X139550344Y-109175000D01*
X139526729Y-109186640D01*
X139526437Y-109188244D01*
X139506739Y-109202417D01*
X139457505Y-109215990D01*
X139437236Y-109219463D01*
X139381468Y-109232230D01*
X139350364Y-109248106D01*
X139348035Y-109253078D01*
X139327104Y-109262766D01*
X139269700Y-109269771D01*
X139183907Y-109273252D01*
X139151792Y-109273484D01*
X139036971Y-109276728D01*
X138960542Y-109286219D01*
X138927675Y-109299297D01*
X138903302Y-109301486D01*
X138836287Y-109303607D01*
X138728590Y-109305660D01*
X138582168Y-109307642D01*
X138398980Y-109309553D01*
X138180986Y-109311391D01*
X137930144Y-109313155D01*
X137648413Y-109314842D01*
X137337751Y-109316453D01*
X137000118Y-109317985D01*
X136637472Y-109319437D01*
X136251772Y-109320808D01*
X135844976Y-109322095D01*
X135419044Y-109323299D01*
X134975934Y-109324418D01*
X134517605Y-109325449D01*
X134046015Y-109326392D01*
X133563125Y-109327245D01*
X133070891Y-109328007D01*
X132571273Y-109328677D01*
X132066230Y-109329253D01*
X131557720Y-109329733D01*
X131047703Y-109330117D01*
X130538136Y-109330402D01*
X130030980Y-109330588D01*
X129528192Y-109330674D01*
X129031731Y-109330656D01*
X128543556Y-109330536D01*
X128065626Y-109330310D01*
X127599899Y-109329977D01*
X127148335Y-109329537D01*
X126712892Y-109328987D01*
X126295529Y-109328327D01*
X125898204Y-109327555D01*
X125522876Y-109326669D01*
X125171505Y-109325668D01*
X124846049Y-109324551D01*
X124548466Y-109323316D01*
X124280716Y-109321963D01*
X124044756Y-109320489D01*
X123842547Y-109318892D01*
X123676046Y-109317173D01*
X123547213Y-109315329D01*
X123458006Y-109313359D01*
X123410384Y-109311262D01*
X123403346Y-109310368D01*
X123336232Y-109296787D01*
X123248653Y-109284702D01*
X123193306Y-109279415D01*
X123116561Y-109269333D01*
X123055574Y-109253634D01*
X123030036Y-109240499D01*
X122983448Y-109217232D01*
X122945914Y-109211533D01*
X122899328Y-109203699D01*
X122879290Y-109190883D01*
X122850276Y-109178098D01*
X122794115Y-109170850D01*
X122770735Y-109170232D01*
X122700292Y-109163223D01*
X122642887Y-109145801D01*
X122632674Y-109139914D01*
X122577095Y-109115173D01*
X122539211Y-109108938D01*
X122500026Y-109100988D01*
X122489036Y-109088567D01*
X122469541Y-109072180D01*
X122421569Y-109057313D01*
X122410985Y-109055293D01*
X122359570Y-109042941D01*
X122333673Y-109030024D01*
X122332934Y-109028010D01*
X122314370Y-109012517D01*
X122267053Y-108988298D01*
X122232794Y-108973519D01*
X122174804Y-108947052D01*
X122138548Y-108925003D01*
X122132443Y-108917265D01*
X122113201Y-108905488D01*
X122078074Y-108901777D01*
X122021504Y-108889414D01*
X121990465Y-108870802D01*
X121952802Y-108845413D01*
X121933122Y-108839826D01*
X121910195Y-108824979D01*
X121909229Y-108819176D01*
X121891283Y-108800611D01*
X121877371Y-108798525D01*
X121834300Y-108785457D01*
X121815104Y-108772712D01*
X121750713Y-108727146D01*
X121676064Y-108686049D01*
X121664417Y-108680800D01*
X121625974Y-108655880D01*
X121583809Y-108618981D01*
X121542818Y-108585420D01*
X121510945Y-108571371D01*
X121510842Y-108571371D01*
X121486806Y-108558149D01*
X121485524Y-108552112D01*
X121467083Y-108531272D01*
X121439730Y-108519394D01*
X121412589Y-108502351D01*
X121362441Y-108463244D01*
X121296500Y-108408438D01*
X121221984Y-108344297D01*
X121146109Y-108277187D01*
X121076090Y-108213474D01*
X121019144Y-108159521D01*
X120982487Y-108121695D01*
X120972618Y-108107370D01*
X120958943Y-108088831D01*
X120924805Y-108052036D01*
X120911292Y-108038351D01*
X120842696Y-107967428D01*
X120804519Y-107921744D01*
X120794216Y-107900232D01*
X120783132Y-107878446D01*
X120747047Y-107836174D01*
X120710590Y-107797739D01*
X120686973Y-107767153D01*
X120682714Y-107755777D01*
X120670362Y-107732531D01*
X120639500Y-107690472D01*
X120626964Y-107674914D01*
X120591495Y-107624498D01*
X120572319Y-107582927D01*
X120571213Y-107575249D01*
X120553165Y-107540471D01*
X120537762Y-107531383D01*
X120510216Y-107503371D01*
X120504312Y-107477547D01*
X120495276Y-107443638D01*
X120482437Y-107435598D01*
X120461299Y-107418076D01*
X120446569Y-107383972D01*
X120429351Y-107345314D01*
X120412694Y-107332346D01*
X120397469Y-107314740D01*
X120392811Y-107283249D01*
X120379491Y-107233868D01*
X120359360Y-107208444D01*
X120330735Y-107167671D01*
X120325910Y-107143964D01*
X120316029Y-107111806D01*
X120303610Y-107105192D01*
X120285273Y-107087962D01*
X120281309Y-107065366D01*
X120266145Y-107018020D01*
X120247859Y-106994565D01*
X120222457Y-106951297D01*
X120213699Y-106905325D01*
X120201517Y-106846611D01*
X120180249Y-106806977D01*
X120156739Y-106757673D01*
X120147508Y-106699781D01*
X120141264Y-106649752D01*
X120126144Y-106620502D01*
X120125208Y-106619907D01*
X120108201Y-106591559D01*
X120102907Y-106554696D01*
X120093430Y-106498551D01*
X120070641Y-106437195D01*
X120070631Y-106437174D01*
X120052514Y-106382672D01*
X120037069Y-106304621D01*
X120028319Y-106227549D01*
X120020725Y-106136393D01*
X120009664Y-106025337D01*
X119997264Y-105915454D01*
X119994625Y-105893989D01*
X119982163Y-105712842D01*
X119991792Y-105526713D01*
X119994560Y-105501631D01*
X120006593Y-105391086D01*
X120018042Y-105274214D01*
X120026956Y-105171298D01*
X120029032Y-105143504D01*
X120037198Y-105067198D01*
X120048766Y-105007889D01*
X120061437Y-104976864D01*
X120063305Y-104975339D01*
X120078648Y-104948594D01*
X120092181Y-104894928D01*
X120097684Y-104856068D01*
X120107430Y-104793734D01*
X120120322Y-104750289D01*
X120128090Y-104739071D01*
X120143374Y-104711891D01*
X120147508Y-104680079D01*
X120161168Y-104631043D01*
X120180958Y-104606493D01*
X120204118Y-104569156D01*
X120214380Y-104513957D01*
X120214409Y-104511037D01*
X120219740Y-104464273D01*
X120232788Y-104441671D01*
X120234937Y-104441289D01*
X120253525Y-104423487D01*
X120269870Y-104380543D01*
X120270159Y-104379338D01*
X120286341Y-104335985D01*
X120304980Y-104317399D01*
X120305382Y-104317387D01*
X120320029Y-104299495D01*
X120325910Y-104257964D01*
X120336909Y-104205558D01*
X120359360Y-104172834D01*
X120387985Y-104132062D01*
X120392811Y-104108354D01*
X120402692Y-104076196D01*
X120415111Y-104069582D01*
X120435292Y-104053021D01*
X120437411Y-104040816D01*
X120455399Y-104008936D01*
X120470862Y-104000163D01*
X120500534Y-103972159D01*
X120504312Y-103955926D01*
X120515898Y-103918475D01*
X120543561Y-103866536D01*
X120576656Y-103818687D01*
X120592998Y-103801127D01*
X120616544Y-103772367D01*
X120647956Y-103725915D01*
X120674495Y-103680707D01*
X120676043Y-103677679D01*
X120702954Y-103642080D01*
X120742802Y-103603035D01*
X120779044Y-103565076D01*
X120794215Y-103535562D01*
X120794216Y-103535466D01*
X120808493Y-103513208D01*
X120815013Y-103512021D01*
X120837562Y-103494955D01*
X120850226Y-103469961D01*
X120871596Y-103439361D01*
X120919160Y-103387013D01*
X120986265Y-103319086D01*
X121066260Y-103241750D01*
X121152491Y-103161176D01*
X121238308Y-103083534D01*
X121317057Y-103014995D01*
X121382087Y-102961727D01*
X121426745Y-102929903D01*
X121438679Y-102924144D01*
X121475888Y-102905614D01*
X121485524Y-102891117D01*
X121502677Y-102872554D01*
X121508889Y-102871858D01*
X121539653Y-102858345D01*
X121581089Y-102825804D01*
X121581525Y-102825395D01*
X121632071Y-102783925D01*
X121675236Y-102756199D01*
X121702793Y-102728047D01*
X121722260Y-102684469D01*
X121730234Y-102640017D01*
X121723313Y-102609247D01*
X121710950Y-102603403D01*
X121692336Y-102585339D01*
X121675795Y-102540873D01*
X121673558Y-102530899D01*
X121658669Y-102479586D01*
X121641421Y-102448816D01*
X121639097Y-102447078D01*
X121627938Y-102421648D01*
X121620769Y-102368734D01*
X121619325Y-102327351D01*
X121612659Y-102250756D01*
X121595093Y-102192451D01*
X121586584Y-102178854D01*
X121575524Y-102144600D01*
X121566468Y-102075940D01*
X121559415Y-101979728D01*
X121554366Y-101862818D01*
X121551320Y-101732063D01*
X121550279Y-101594318D01*
X121551240Y-101456435D01*
X121554205Y-101325268D01*
X121559174Y-101207671D01*
X121566147Y-101110498D01*
X121575123Y-101040602D01*
X121586102Y-101004837D01*
X121586584Y-101004212D01*
X121606602Y-100959307D01*
X121618155Y-100893613D01*
X121619325Y-100866041D01*
X121623653Y-100805670D01*
X121634630Y-100764168D01*
X121641626Y-100755192D01*
X121659643Y-100726404D01*
X121664063Y-100697184D01*
X121674449Y-100646298D01*
X121697514Y-100592791D01*
X121720505Y-100530363D01*
X121730788Y-100459729D01*
X121730827Y-100455929D01*
X121739518Y-100396239D01*
X121761260Y-100355119D01*
X121764277Y-100352509D01*
X121792869Y-100312412D01*
X121797727Y-100289248D01*
X121808624Y-100250775D01*
X121820028Y-100238932D01*
X121837482Y-100210379D01*
X121842328Y-100177237D01*
X121856021Y-100125134D01*
X121875778Y-100097329D01*
X121903536Y-100057046D01*
X121909229Y-100033492D01*
X121920580Y-99997027D01*
X121949220Y-99943313D01*
X121964979Y-99918850D01*
X121998573Y-99863060D01*
X122018431Y-99817497D01*
X122020730Y-99805035D01*
X122038779Y-99770209D01*
X122054180Y-99761115D01*
X122080173Y-99733477D01*
X122087631Y-99699812D01*
X122094331Y-99662056D01*
X122106419Y-99650395D01*
X122127221Y-99633687D01*
X122156821Y-99591812D01*
X122167745Y-99572956D01*
X122196959Y-99522429D01*
X122218590Y-99489700D01*
X122222610Y-99485192D01*
X122240869Y-99462547D01*
X122272143Y-99417878D01*
X122285754Y-99397428D01*
X122320964Y-99350269D01*
X122349704Y-99322828D01*
X122357053Y-99319989D01*
X122376090Y-99303645D01*
X122377534Y-99294131D01*
X122391792Y-99266320D01*
X122428874Y-99219987D01*
X122472310Y-99173790D01*
X122565419Y-99079447D01*
X122644784Y-98996066D01*
X122706011Y-98928483D01*
X122744707Y-98881530D01*
X122756639Y-98860921D01*
X122773637Y-98845375D01*
X122778083Y-98845029D01*
X122804411Y-98831716D01*
X122851187Y-98797119D01*
X122898471Y-98757265D01*
X122968412Y-98696711D01*
X123052809Y-98625723D01*
X123125299Y-98566249D01*
X123191197Y-98512727D01*
X123246380Y-98467338D01*
X123280006Y-98439007D01*
X123282072Y-98437184D01*
X123316154Y-98414930D01*
X123329505Y-98411371D01*
X123356669Y-98398529D01*
X123399652Y-98366910D01*
X123408176Y-98359745D01*
X123456738Y-98325360D01*
X123497299Y-98308473D01*
X123501616Y-98308119D01*
X123542840Y-98292504D01*
X123552765Y-98282101D01*
X123582787Y-98256586D01*
X123635839Y-98224792D01*
X123654224Y-98215454D01*
X123705794Y-98186981D01*
X123735220Y-98164113D01*
X123737850Y-98158870D01*
X123756449Y-98145625D01*
X123779720Y-98142915D01*
X123828992Y-98127917D01*
X123849352Y-98111940D01*
X123883404Y-98085886D01*
X123900339Y-98080964D01*
X123938603Y-98072767D01*
X123992549Y-98052802D01*
X124046603Y-98028008D01*
X124085188Y-98005325D01*
X124094654Y-97994388D01*
X124113707Y-97981695D01*
X124148598Y-97977712D01*
X124197872Y-97969045D01*
X124256213Y-97947827D01*
X124307994Y-97921230D01*
X124337585Y-97896427D01*
X124339816Y-97889948D01*
X124358916Y-97877957D01*
X124391446Y-97874460D01*
X124450871Y-97861965D01*
X124486222Y-97844141D01*
X124541873Y-97824243D01*
X124634634Y-97814190D01*
X124678720Y-97813166D01*
X124756055Y-97810289D01*
X124814187Y-97803392D01*
X124840151Y-97794199D01*
X124868437Y-97778479D01*
X124921760Y-97763939D01*
X124930668Y-97762288D01*
X124982230Y-97748421D01*
X125008218Y-97731821D01*
X125008965Y-97728971D01*
X125030744Y-97723270D01*
X125094005Y-97718414D01*
X125195641Y-97714495D01*
X125332540Y-97711603D01*
X125501594Y-97709827D01*
X125689123Y-97709257D01*
X125858160Y-97709815D01*
X126011880Y-97711396D01*
X126144877Y-97713858D01*
X126251745Y-97717061D01*
X126327079Y-97720863D01*
X126365472Y-97725123D01*
X126369281Y-97727001D01*
X126389494Y-97738892D01*
X126442574Y-97753226D01*
X126517180Y-97766963D01*
X126519808Y-97767361D01*
X126643906Y-97786595D01*
X126731442Y-97801948D01*
X126790030Y-97815217D01*
X126827285Y-97828197D01*
X126850821Y-97842687D01*
X126855163Y-97846485D01*
X126896274Y-97864871D01*
X126958682Y-97874179D01*
X126971123Y-97874460D01*
X127027885Y-97878092D01*
X127061479Y-97887102D01*
X127064306Y-97889948D01*
X127094689Y-97915896D01*
X127152013Y-97942760D01*
X127219282Y-97964367D01*
X127279497Y-97974545D01*
X127296327Y-97974207D01*
X127345927Y-97959341D01*
X127370460Y-97920211D01*
X127374370Y-97905436D01*
X127391638Y-97859340D01*
X127426573Y-97786143D01*
X127474442Y-97694456D01*
X127530510Y-97592890D01*
X127590043Y-97490056D01*
X127648306Y-97394567D01*
X127692516Y-97326751D01*
X127744693Y-97253754D01*
X127811725Y-97165243D01*
X127885913Y-97070831D01*
X127959557Y-96980132D01*
X128024958Y-96902759D01*
X128074416Y-96848327D01*
X128080794Y-96841940D01*
X128129764Y-96788698D01*
X128168761Y-96738688D01*
X128196104Y-96709352D01*
X128250200Y-96659294D01*
X128323856Y-96594577D01*
X128409879Y-96521266D01*
X128501074Y-96445423D01*
X128590248Y-96373114D01*
X128670206Y-96310402D01*
X128726960Y-96268165D01*
X128858835Y-96178937D01*
X129007319Y-96086485D01*
X129157644Y-95999536D01*
X129295045Y-95926816D01*
X129346367Y-95902144D01*
X129415940Y-95868835D01*
X129468264Y-95841544D01*
X129491542Y-95826544D01*
X129519341Y-95812170D01*
X129569593Y-95797292D01*
X129630349Y-95777980D01*
X129705093Y-95747424D01*
X129734367Y-95733703D01*
X129799619Y-95705325D01*
X129853850Y-95688010D01*
X129871195Y-95685517D01*
X129917975Y-95676255D01*
X129973800Y-95654669D01*
X130030567Y-95632669D01*
X130075384Y-95623693D01*
X130115737Y-95612762D01*
X130126876Y-95602915D01*
X130156589Y-95588840D01*
X130210410Y-95582320D01*
X130215941Y-95582265D01*
X130290224Y-95574727D01*
X130354002Y-95558213D01*
X130417109Y-95542893D01*
X130517216Y-95529389D01*
X130646748Y-95518009D01*
X130798135Y-95509063D01*
X130963803Y-95502858D01*
X131136180Y-95499706D01*
X131307695Y-95499913D01*
G37*
G36*
X158625518Y-95499913D02*
G01*
X158788597Y-95503790D01*
X158888640Y-95508551D01*
X159016958Y-95517165D01*
X159131103Y-95526738D01*
X159223047Y-95536445D01*
X159284760Y-95545460D01*
X159306770Y-95551498D01*
X159354134Y-95571208D01*
X159426578Y-95592731D01*
X159505166Y-95611226D01*
X159570960Y-95621850D01*
X159585524Y-95622782D01*
X159637073Y-95632957D01*
X159693999Y-95654669D01*
X159754495Y-95676868D01*
X159805147Y-95685517D01*
X159851440Y-95694201D01*
X159918893Y-95716461D01*
X159964275Y-95735007D01*
X160035550Y-95766418D01*
X160130915Y-95808277D01*
X160234105Y-95853451D01*
X160276832Y-95872118D01*
X160390988Y-95923976D01*
X160498115Y-95976306D01*
X160590646Y-96025049D01*
X160661011Y-96066147D01*
X160701641Y-96095541D01*
X160707970Y-96103314D01*
X160733491Y-96118961D01*
X160737153Y-96119176D01*
X160764744Y-96131132D01*
X160815220Y-96161950D01*
X160877203Y-96204049D01*
X160939316Y-96249848D01*
X160969633Y-96274054D01*
X161002672Y-96299196D01*
X161053821Y-96336000D01*
X161068541Y-96346330D01*
X161118719Y-96385459D01*
X161189808Y-96446192D01*
X161273671Y-96520990D01*
X161362170Y-96602313D01*
X161447165Y-96682623D01*
X161520519Y-96754382D01*
X161574095Y-96810049D01*
X161593116Y-96832274D01*
X161638345Y-96887917D01*
X161689937Y-96947711D01*
X161694983Y-96953335D01*
X161748538Y-97015904D01*
X161814867Y-97097951D01*
X161885687Y-97188718D01*
X161952712Y-97277444D01*
X162007659Y-97353369D01*
X162038493Y-97399501D01*
X162065417Y-97445345D01*
X162106869Y-97518490D01*
X162157440Y-97609292D01*
X162211722Y-97708108D01*
X162217976Y-97719582D01*
X162273193Y-97819849D01*
X162313754Y-97888979D01*
X162344526Y-97932970D01*
X162370375Y-97957818D01*
X162396168Y-97969520D01*
X162424313Y-97973858D01*
X162472979Y-97972784D01*
X162495519Y-97961473D01*
X162495708Y-97960011D01*
X162514945Y-97941876D01*
X162561345Y-97926347D01*
X162562609Y-97926086D01*
X162609426Y-97911102D01*
X162629497Y-97893842D01*
X162629510Y-97893470D01*
X162648942Y-97880281D01*
X162695965Y-97874473D01*
X162698545Y-97874460D01*
X162770486Y-97864809D01*
X162826771Y-97846117D01*
X162973146Y-97793488D01*
X163152990Y-97760661D01*
X163170918Y-97758637D01*
X163242417Y-97748296D01*
X163294091Y-97735927D01*
X163311611Y-97726996D01*
X163336429Y-97721932D01*
X163398941Y-97717743D01*
X163492250Y-97714425D01*
X163609458Y-97711973D01*
X163743669Y-97710383D01*
X163887986Y-97709652D01*
X164035512Y-97709774D01*
X164179350Y-97710745D01*
X164312603Y-97712561D01*
X164428374Y-97715218D01*
X164519766Y-97718711D01*
X164579882Y-97723036D01*
X164601679Y-97727803D01*
X164628535Y-97738929D01*
X164687422Y-97750629D01*
X164765892Y-97760463D01*
X164770335Y-97760883D01*
X164849491Y-97770550D01*
X164909722Y-97782213D01*
X164938577Y-97793430D01*
X164938991Y-97793962D01*
X164968849Y-97809144D01*
X165000229Y-97813166D01*
X165057339Y-97826116D01*
X165092376Y-97844141D01*
X165148084Y-97867492D01*
X165197122Y-97874460D01*
X165252477Y-97884133D01*
X165324667Y-97908762D01*
X165363433Y-97926086D01*
X165436408Y-97956130D01*
X165504641Y-97974744D01*
X165531865Y-97977712D01*
X165577385Y-97983862D01*
X165595445Y-97997969D01*
X165614366Y-98017543D01*
X165651195Y-98031183D01*
X165692942Y-98047127D01*
X165706946Y-98062552D01*
X165725970Y-98076618D01*
X165760311Y-98080964D01*
X165806558Y-98092498D01*
X165826512Y-98111940D01*
X165857147Y-98139422D01*
X165874986Y-98142915D01*
X165915585Y-98154271D01*
X165970307Y-98182299D01*
X165981612Y-98189431D01*
X166066389Y-98243541D01*
X166126020Y-98277660D01*
X166170418Y-98297328D01*
X166180827Y-98300801D01*
X166213750Y-98319516D01*
X166219852Y-98331177D01*
X166237999Y-98347279D01*
X166254002Y-98349419D01*
X166291212Y-98366126D01*
X166300989Y-98380395D01*
X166329662Y-98407849D01*
X166345954Y-98411371D01*
X166382112Y-98425493D01*
X166426501Y-98459810D01*
X166429751Y-98462997D01*
X166471089Y-98498136D01*
X166502468Y-98514475D01*
X166504352Y-98514623D01*
X166531447Y-98531124D01*
X166540120Y-98545598D01*
X166568447Y-98573047D01*
X166584467Y-98576574D01*
X166616665Y-98591529D01*
X166671970Y-98632962D01*
X166744804Y-98695724D01*
X166829589Y-98774667D01*
X166920748Y-98864644D01*
X167012702Y-98960504D01*
X167077510Y-99031671D01*
X167143532Y-99105569D01*
X167201176Y-99169287D01*
X167243291Y-99214970D01*
X167260706Y-99232976D01*
X167291390Y-99268988D01*
X167326753Y-99319195D01*
X167327742Y-99320740D01*
X167358577Y-99361904D01*
X167382359Y-99381642D01*
X167384274Y-99381940D01*
X167399095Y-99399042D01*
X167401766Y-99418289D01*
X167416109Y-99457980D01*
X167450817Y-99504107D01*
X167452721Y-99506053D01*
X167495453Y-99557563D01*
X167539996Y-99623458D01*
X167551861Y-99643718D01*
X167585736Y-99704350D01*
X167613885Y-99754732D01*
X167621086Y-99767620D01*
X167643642Y-99809859D01*
X167674173Y-99869167D01*
X167683622Y-99887875D01*
X167711278Y-99940441D01*
X167731833Y-99975112D01*
X167736270Y-99980802D01*
X167763057Y-100016417D01*
X167789025Y-100065317D01*
X167802844Y-100105637D01*
X167803171Y-100109892D01*
X167812923Y-100144265D01*
X167837049Y-100195900D01*
X167843822Y-100208262D01*
X167873612Y-100269541D01*
X167906049Y-100348862D01*
X167923949Y-100398972D01*
X167947917Y-100461794D01*
X167970235Y-100504835D01*
X167983648Y-100517712D01*
X167996841Y-100535966D01*
X168004191Y-100581225D01*
X168004663Y-100595151D01*
X168013904Y-100662278D01*
X168035298Y-100720781D01*
X168037323Y-100724216D01*
X168061060Y-100783704D01*
X168069984Y-100841737D01*
X168075907Y-100890670D01*
X168089136Y-100918110D01*
X168089724Y-100918478D01*
X168099482Y-100942623D01*
X168109594Y-100998079D01*
X168118442Y-101074893D01*
X168121635Y-101114569D01*
X168130062Y-101202605D01*
X168141426Y-101278496D01*
X168153748Y-101330079D01*
X168158435Y-101341065D01*
X168169709Y-101382479D01*
X168177270Y-101453674D01*
X168181143Y-101543274D01*
X168181354Y-101639907D01*
X168177927Y-101732195D01*
X168170888Y-101808766D01*
X168160262Y-101858243D01*
X168157285Y-101864643D01*
X168144263Y-101904948D01*
X168131907Y-101973523D01*
X168122420Y-102057362D01*
X168120651Y-102080718D01*
X168113184Y-102161072D01*
X168103450Y-102224407D01*
X168093184Y-102260357D01*
X168089890Y-102264494D01*
X168076214Y-102290946D01*
X168070774Y-102336893D01*
X168060205Y-102398837D01*
X168039978Y-102444089D01*
X168019810Y-102490879D01*
X168002549Y-102559450D01*
X167996138Y-102600512D01*
X167990325Y-102664492D01*
X167996459Y-102706139D01*
X168021402Y-102741840D01*
X168072014Y-102787978D01*
X168076123Y-102791528D01*
X168129868Y-102835300D01*
X168171540Y-102864477D01*
X168187929Y-102871858D01*
X168214463Y-102885642D01*
X168254074Y-102919252D01*
X168258373Y-102923484D01*
X168296611Y-102958345D01*
X168321357Y-102974896D01*
X168322728Y-102975110D01*
X168343838Y-102989119D01*
X168388292Y-103026709D01*
X168449049Y-103081225D01*
X168519071Y-103146013D01*
X168591317Y-103214418D01*
X168658749Y-103279784D01*
X168714327Y-103335459D01*
X168751012Y-103374786D01*
X168762082Y-103390456D01*
X168780181Y-103406713D01*
X168795532Y-103408769D01*
X168825097Y-103425299D01*
X168828983Y-103439745D01*
X168840227Y-103467236D01*
X168849780Y-103470720D01*
X168872772Y-103487682D01*
X168883850Y-103509444D01*
X168906932Y-103547124D01*
X168949800Y-103597293D01*
X168971801Y-103619372D01*
X169020116Y-103671641D01*
X169054631Y-103720185D01*
X169061885Y-103735527D01*
X169081902Y-103770782D01*
X169098089Y-103780476D01*
X169116547Y-103797223D01*
X169118886Y-103811452D01*
X169130130Y-103838944D01*
X169139684Y-103842428D01*
X169161607Y-103859631D01*
X169176140Y-103888891D01*
X169193726Y-103929401D01*
X169205518Y-103945680D01*
X169225486Y-103973075D01*
X169257738Y-104031426D01*
X169298325Y-104113222D01*
X169333161Y-104188322D01*
X169360260Y-104240495D01*
X169383440Y-104271929D01*
X169390781Y-104276086D01*
X169403752Y-104293954D01*
X169408790Y-104334090D01*
X169420468Y-104392708D01*
X169441531Y-104432180D01*
X169467898Y-104478477D01*
X169474981Y-104508403D01*
X169486121Y-104539069D01*
X169497991Y-104544541D01*
X169512059Y-104562840D01*
X169519783Y-104608458D01*
X169520291Y-104625668D01*
X169528467Y-104686238D01*
X169548645Y-104732104D01*
X169553741Y-104737770D01*
X169576679Y-104778870D01*
X169587130Y-104836798D01*
X169587192Y-104841279D01*
X169592112Y-104892631D01*
X169604164Y-104923099D01*
X169606227Y-104924705D01*
X169616719Y-104948993D01*
X169627970Y-105004088D01*
X169638006Y-105079576D01*
X169640653Y-105106486D01*
X169650203Y-105187765D01*
X169662045Y-105253412D01*
X169674039Y-105292308D01*
X169677368Y-105297119D01*
X169684236Y-105322819D01*
X169689769Y-105380924D01*
X169693952Y-105463860D01*
X169696768Y-105564053D01*
X169698203Y-105673929D01*
X169698241Y-105785916D01*
X169696867Y-105892440D01*
X169694065Y-105985927D01*
X169689820Y-106058803D01*
X169684116Y-106103495D01*
X169679030Y-106113972D01*
X169668437Y-106133009D01*
X169657073Y-106183812D01*
X169646849Y-106256923D01*
X169643585Y-106289424D01*
X169634174Y-106370478D01*
X169622747Y-106434694D01*
X169611292Y-106471758D01*
X169607497Y-106476496D01*
X169591973Y-106503914D01*
X169587192Y-106539999D01*
X169574298Y-106592796D01*
X169553741Y-106622857D01*
X169530109Y-106664623D01*
X169520291Y-106721462D01*
X169506268Y-106802768D01*
X169462929Y-106904963D01*
X169429656Y-106965521D01*
X169413048Y-107014636D01*
X169408790Y-107053286D01*
X169401536Y-107092233D01*
X169387500Y-107105192D01*
X169369805Y-107123244D01*
X169353750Y-107167666D01*
X169351568Y-107177468D01*
X169336967Y-107225116D01*
X169319938Y-107249074D01*
X169317107Y-107249745D01*
X169300705Y-107266962D01*
X169297288Y-107288836D01*
X169281767Y-107327312D01*
X169263838Y-107339814D01*
X169236292Y-107367826D01*
X169230388Y-107393649D01*
X169223458Y-107427678D01*
X169213662Y-107435794D01*
X169195808Y-107453128D01*
X169168935Y-107497084D01*
X169152914Y-107528721D01*
X169125224Y-107582295D01*
X169103572Y-107615789D01*
X169096697Y-107621452D01*
X169080040Y-107637963D01*
X169050687Y-107680231D01*
X169029685Y-107714379D01*
X168995460Y-107767196D01*
X168967751Y-107800861D01*
X168957675Y-107807306D01*
X168941075Y-107823262D01*
X168940484Y-107828857D01*
X168926494Y-107857069D01*
X168892088Y-107898552D01*
X168884734Y-107906085D01*
X168848084Y-107946580D01*
X168829540Y-107974689D01*
X168828983Y-107977460D01*
X168814405Y-107999534D01*
X168776778Y-108040079D01*
X168739782Y-108075761D01*
X168691259Y-108122109D01*
X168658862Y-108155765D01*
X168650581Y-108167099D01*
X168636364Y-108185432D01*
X168602126Y-108220012D01*
X168560488Y-108259004D01*
X168524070Y-108290574D01*
X168505740Y-108302915D01*
X168487478Y-108316423D01*
X168446576Y-108351969D01*
X168391602Y-108402088D01*
X168387214Y-108406167D01*
X168329689Y-108457333D01*
X168283278Y-108494267D01*
X168257567Y-108509373D01*
X168256934Y-108509419D01*
X168229201Y-108522281D01*
X168185903Y-108553941D01*
X168177446Y-108561045D01*
X168133476Y-108595164D01*
X168102669Y-108612664D01*
X168099622Y-108613245D01*
X168074257Y-108627115D01*
X168032277Y-108661099D01*
X168016882Y-108675196D01*
X167969305Y-108713805D01*
X167930103Y-108735111D01*
X167922105Y-108736574D01*
X167894897Y-108748919D01*
X167892372Y-108757224D01*
X167874426Y-108775789D01*
X167860514Y-108777875D01*
X167817586Y-108791149D01*
X167799189Y-108803738D01*
X167761462Y-108828784D01*
X167702514Y-108860330D01*
X167680519Y-108870851D01*
X167624908Y-108899052D01*
X167589367Y-108921746D01*
X167583885Y-108927590D01*
X167558318Y-108940808D01*
X167536440Y-108943078D01*
X167488877Y-108958006D01*
X167468667Y-108974054D01*
X167424637Y-109000561D01*
X167399035Y-109005029D01*
X167364289Y-109013022D01*
X167357165Y-109023040D01*
X167337467Y-109037214D01*
X167288234Y-109050786D01*
X167267964Y-109054260D01*
X167212197Y-109067027D01*
X167181092Y-109082902D01*
X167178763Y-109087875D01*
X167159840Y-109104058D01*
X167128588Y-109108938D01*
X167070283Y-109121940D01*
X167035124Y-109139914D01*
X166981882Y-109161684D01*
X166919364Y-109170232D01*
X166865877Y-109175338D01*
X166835302Y-109187709D01*
X166834672Y-109188542D01*
X166806385Y-109204262D01*
X166753062Y-109218803D01*
X166744155Y-109220453D01*
X166692592Y-109234320D01*
X166666605Y-109250921D01*
X166665857Y-109253770D01*
X166645159Y-109262703D01*
X166589431Y-109269471D01*
X166508227Y-109273116D01*
X166469615Y-109273484D01*
X166354794Y-109276728D01*
X166278365Y-109286219D01*
X166245498Y-109299297D01*
X166221125Y-109301486D01*
X166154110Y-109303607D01*
X166046412Y-109305660D01*
X165899990Y-109307642D01*
X165716803Y-109309553D01*
X165498809Y-109311391D01*
X165247967Y-109313155D01*
X164966236Y-109314842D01*
X164655574Y-109316453D01*
X164317941Y-109317985D01*
X163955295Y-109319437D01*
X163569594Y-109320808D01*
X163162799Y-109322095D01*
X162736867Y-109323299D01*
X162293757Y-109324418D01*
X161835428Y-109325449D01*
X161363838Y-109326392D01*
X160880947Y-109327245D01*
X160388713Y-109328007D01*
X159889096Y-109328677D01*
X159384052Y-109329253D01*
X158875543Y-109329733D01*
X158365525Y-109330117D01*
X157855959Y-109330402D01*
X157348802Y-109330588D01*
X156846014Y-109330674D01*
X156349553Y-109330656D01*
X155861378Y-109330536D01*
X155383448Y-109330310D01*
X154917722Y-109329977D01*
X154466158Y-109329537D01*
X154030715Y-109328987D01*
X153613351Y-109328327D01*
X153216026Y-109327555D01*
X152840699Y-109326669D01*
X152489328Y-109325668D01*
X152163871Y-109324551D01*
X151866289Y-109323316D01*
X151598538Y-109321963D01*
X151362579Y-109320489D01*
X151160370Y-109318892D01*
X150993869Y-109317173D01*
X150865036Y-109315329D01*
X150775828Y-109313359D01*
X150728206Y-109311262D01*
X150721169Y-109310368D01*
X150654055Y-109296787D01*
X150566475Y-109284702D01*
X150511128Y-109279415D01*
X150434384Y-109269333D01*
X150373397Y-109253634D01*
X150347858Y-109240499D01*
X150301271Y-109217232D01*
X150263737Y-109211533D01*
X150217150Y-109203699D01*
X150197113Y-109190883D01*
X150168099Y-109178098D01*
X150111938Y-109170850D01*
X150088558Y-109170232D01*
X150018115Y-109163223D01*
X149960710Y-109145801D01*
X149950497Y-109139914D01*
X149894918Y-109115173D01*
X149857034Y-109108938D01*
X149817848Y-109100988D01*
X149806858Y-109088567D01*
X149787364Y-109072180D01*
X149739392Y-109057313D01*
X149728807Y-109055293D01*
X149677392Y-109042941D01*
X149651496Y-109030024D01*
X149650756Y-109028010D01*
X149632193Y-109012517D01*
X149584876Y-108988298D01*
X149550616Y-108973519D01*
X149492627Y-108947052D01*
X149456370Y-108925003D01*
X149450265Y-108917265D01*
X149431023Y-108905488D01*
X149395896Y-108901777D01*
X149339326Y-108889414D01*
X149308288Y-108870802D01*
X149270625Y-108845413D01*
X149250944Y-108839826D01*
X149228018Y-108824979D01*
X149227051Y-108819176D01*
X149209105Y-108800611D01*
X149195194Y-108798525D01*
X149152122Y-108785457D01*
X149132926Y-108772712D01*
X149068536Y-108727146D01*
X148993887Y-108686049D01*
X148982239Y-108680800D01*
X148943796Y-108655880D01*
X148901631Y-108618981D01*
X148860640Y-108585420D01*
X148828768Y-108571371D01*
X148828664Y-108571371D01*
X148804628Y-108558149D01*
X148803346Y-108552112D01*
X148784906Y-108531272D01*
X148757552Y-108519394D01*
X148730412Y-108502351D01*
X148680263Y-108463244D01*
X148614323Y-108408438D01*
X148539807Y-108344297D01*
X148463931Y-108277187D01*
X148393912Y-108213474D01*
X148336966Y-108159521D01*
X148300309Y-108121695D01*
X148290440Y-108107370D01*
X148276766Y-108088831D01*
X148242627Y-108052036D01*
X148229115Y-108038351D01*
X148160519Y-107967428D01*
X148122342Y-107921744D01*
X148112038Y-107900232D01*
X148100954Y-107878446D01*
X148064870Y-107836174D01*
X148028412Y-107797739D01*
X148004544Y-107762859D01*
X148000537Y-107747856D01*
X147983936Y-107719383D01*
X147971458Y-107710242D01*
X147943939Y-107681887D01*
X147911795Y-107632022D01*
X147903961Y-107617167D01*
X147874619Y-107565742D01*
X147849026Y-107532283D01*
X147843838Y-107528184D01*
X147825615Y-107499376D01*
X147822135Y-107475680D01*
X147812723Y-107442789D01*
X147800259Y-107435598D01*
X147779122Y-107418076D01*
X147764391Y-107383972D01*
X147747174Y-107345314D01*
X147730516Y-107332346D01*
X147715292Y-107314740D01*
X147710633Y-107283249D01*
X147697314Y-107233868D01*
X147677183Y-107208444D01*
X147648558Y-107167671D01*
X147643733Y-107143964D01*
X147633852Y-107111806D01*
X147621432Y-107105192D01*
X147603096Y-107087962D01*
X147599132Y-107065366D01*
X147583968Y-107018020D01*
X147565682Y-106994565D01*
X147540280Y-106951297D01*
X147531522Y-106905325D01*
X147519340Y-106846611D01*
X147498072Y-106806977D01*
X147473105Y-106755727D01*
X147465331Y-106708607D01*
X147457940Y-106651806D01*
X147444249Y-106614464D01*
X147426647Y-106570337D01*
X147411314Y-106509521D01*
X147409788Y-106501167D01*
X147396201Y-106451455D01*
X147379238Y-106425035D01*
X147375119Y-106423728D01*
X147364904Y-106404775D01*
X147357365Y-106354671D01*
X147353910Y-106283549D01*
X147353829Y-106270195D01*
X147350587Y-106185797D01*
X147342073Y-106110285D01*
X147330104Y-106059590D01*
X147329673Y-106058528D01*
X147314460Y-105999221D01*
X147302837Y-105910169D01*
X147295188Y-105802822D01*
X147291901Y-105688630D01*
X147293361Y-105579043D01*
X147299954Y-105485510D01*
X147308564Y-105432509D01*
X147323506Y-105353465D01*
X147337255Y-105254280D01*
X147346893Y-105156081D01*
X147347063Y-105153728D01*
X147355252Y-105074848D01*
X147366482Y-105012765D01*
X147378649Y-104978318D01*
X147381684Y-104975238D01*
X147396707Y-104948556D01*
X147410038Y-104894938D01*
X147415507Y-104856068D01*
X147425253Y-104793734D01*
X147438145Y-104750289D01*
X147445912Y-104739071D01*
X147460078Y-104712367D01*
X147465331Y-104669434D01*
X147476153Y-104622025D01*
X147498781Y-104599025D01*
X147524081Y-104569148D01*
X147532231Y-104514214D01*
X147537346Y-104466179D01*
X147549937Y-104441981D01*
X147552760Y-104441289D01*
X147571348Y-104423487D01*
X147587692Y-104380543D01*
X147587982Y-104379338D01*
X147604164Y-104335985D01*
X147622802Y-104317399D01*
X147623204Y-104317387D01*
X147636943Y-104299269D01*
X147643613Y-104254893D01*
X147643733Y-104247320D01*
X147653549Y-104190918D01*
X147677183Y-104165366D01*
X147704729Y-104137354D01*
X147710633Y-104111531D01*
X147718778Y-104077609D01*
X147730333Y-104069582D01*
X147753183Y-104052817D01*
X147763486Y-104033444D01*
X147787502Y-103984996D01*
X147828766Y-103916006D01*
X147878825Y-103839688D01*
X147929226Y-103769255D01*
X147947566Y-103745716D01*
X147981234Y-103701023D01*
X147999469Y-103671150D01*
X148000537Y-103667291D01*
X148015284Y-103646060D01*
X148051290Y-103611096D01*
X148056288Y-103606756D01*
X148094304Y-103567796D01*
X148111894Y-103537280D01*
X148112038Y-103535466D01*
X148126316Y-103513208D01*
X148132836Y-103512021D01*
X148155223Y-103494918D01*
X148168488Y-103468682D01*
X148189979Y-103437829D01*
X148237701Y-103385282D01*
X148304977Y-103317225D01*
X148385128Y-103239841D01*
X148471477Y-103159313D01*
X148557347Y-103081826D01*
X148636060Y-103013562D01*
X148700939Y-102960704D01*
X148745307Y-102929437D01*
X148756544Y-102924131D01*
X148793732Y-102905602D01*
X148803346Y-102891117D01*
X148820499Y-102872554D01*
X148826711Y-102871858D01*
X148857475Y-102858345D01*
X148898912Y-102825804D01*
X148899347Y-102825395D01*
X148949893Y-102783925D01*
X148993058Y-102756199D01*
X149020616Y-102728047D01*
X149040083Y-102684469D01*
X149048057Y-102640017D01*
X149041136Y-102609247D01*
X149028772Y-102603403D01*
X149010159Y-102585339D01*
X148993617Y-102540873D01*
X148991381Y-102530899D01*
X148976492Y-102479586D01*
X148959243Y-102448816D01*
X148956920Y-102447078D01*
X148945761Y-102421648D01*
X148938592Y-102368734D01*
X148937148Y-102327351D01*
X148930482Y-102250756D01*
X148912916Y-102192451D01*
X148904407Y-102178854D01*
X148894220Y-102159781D01*
X148886299Y-102127413D01*
X148880385Y-102077135D01*
X148876222Y-102004336D01*
X148873553Y-101904401D01*
X148872121Y-101772717D01*
X148871667Y-101604671D01*
X148871666Y-101591533D01*
X148872061Y-101420791D01*
X148873417Y-101286731D01*
X148875992Y-101184741D01*
X148880043Y-101110206D01*
X148885826Y-101058514D01*
X148893600Y-101025050D01*
X148903621Y-101005203D01*
X148904407Y-101004212D01*
X148924425Y-100959307D01*
X148935978Y-100893613D01*
X148937148Y-100866041D01*
X148941476Y-100805670D01*
X148952453Y-100764168D01*
X148959448Y-100755192D01*
X148975944Y-100727078D01*
X148981748Y-100685644D01*
X148993693Y-100627244D01*
X149014490Y-100588773D01*
X149035819Y-100542542D01*
X149047335Y-100478640D01*
X149047940Y-100463452D01*
X149056716Y-100398702D01*
X149078444Y-100355736D01*
X149082100Y-100352509D01*
X149110692Y-100312412D01*
X149115550Y-100289248D01*
X149126447Y-100250775D01*
X149137850Y-100238932D01*
X149155304Y-100210379D01*
X149160151Y-100177237D01*
X149173844Y-100125134D01*
X149193601Y-100097329D01*
X149221358Y-100057046D01*
X149227051Y-100033492D01*
X149238402Y-99997027D01*
X149267042Y-99943313D01*
X149282802Y-99918850D01*
X149316306Y-99863872D01*
X149336187Y-99819983D01*
X149338553Y-99808212D01*
X149354304Y-99771649D01*
X149372003Y-99753647D01*
X149400628Y-99712875D01*
X149405453Y-99689167D01*
X149413793Y-99656988D01*
X149424242Y-99650395D01*
X149445043Y-99633687D01*
X149474644Y-99591812D01*
X149485568Y-99572956D01*
X149514782Y-99522429D01*
X149536413Y-99489700D01*
X149540432Y-99485192D01*
X149558691Y-99462547D01*
X149589966Y-99417878D01*
X149603577Y-99397428D01*
X149638787Y-99350269D01*
X149667526Y-99322828D01*
X149674875Y-99319989D01*
X149693863Y-99303618D01*
X149695357Y-99293838D01*
X149709627Y-99266853D01*
X149747285Y-99219816D01*
X149800600Y-99162265D01*
X149808338Y-99154448D01*
X149876643Y-99084738D01*
X149944014Y-99013951D01*
X149992315Y-98961343D01*
X150035139Y-98913616D01*
X150069677Y-98877468D01*
X150105877Y-98843753D01*
X150153687Y-98803329D01*
X150223055Y-98747051D01*
X150242424Y-98731452D01*
X150329177Y-98660478D01*
X150425038Y-98580368D01*
X150495743Y-98520078D01*
X150558263Y-98468379D01*
X150609774Y-98430058D01*
X150640672Y-98412169D01*
X150643346Y-98411663D01*
X150673302Y-98398525D01*
X150717831Y-98366590D01*
X150725999Y-98359745D01*
X150774561Y-98325360D01*
X150815122Y-98308473D01*
X150819439Y-98308119D01*
X150860662Y-98292504D01*
X150870588Y-98282101D01*
X150900609Y-98256586D01*
X150953661Y-98224792D01*
X150972047Y-98215454D01*
X151023617Y-98186981D01*
X151053042Y-98164113D01*
X151055673Y-98158870D01*
X151074272Y-98145625D01*
X151097543Y-98142915D01*
X151146815Y-98127917D01*
X151167174Y-98111940D01*
X151201227Y-98085886D01*
X151218162Y-98080964D01*
X151256426Y-98072767D01*
X151310372Y-98052802D01*
X151364425Y-98028008D01*
X151403011Y-98005325D01*
X151412477Y-97994388D01*
X151431684Y-97982122D01*
X151471698Y-97977712D01*
X151527724Y-97965285D01*
X151591216Y-97934557D01*
X151604012Y-97926086D01*
X151660535Y-97893049D01*
X151709751Y-97875384D01*
X151718931Y-97874460D01*
X151769653Y-97862332D01*
X151804045Y-97844141D01*
X151859696Y-97824243D01*
X151952456Y-97814190D01*
X151996543Y-97813166D01*
X152073878Y-97810289D01*
X152132010Y-97803392D01*
X152157974Y-97794199D01*
X152186260Y-97778479D01*
X152239583Y-97763939D01*
X152248491Y-97762288D01*
X152300053Y-97748421D01*
X152326040Y-97731821D01*
X152326788Y-97728971D01*
X152348566Y-97723270D01*
X152411828Y-97718414D01*
X152513463Y-97714495D01*
X152650363Y-97711603D01*
X152819417Y-97709827D01*
X153006946Y-97709257D01*
X153175983Y-97709815D01*
X153329702Y-97711396D01*
X153462699Y-97713858D01*
X153569568Y-97717061D01*
X153644901Y-97720863D01*
X153683295Y-97725123D01*
X153687104Y-97727001D01*
X153707317Y-97738892D01*
X153760396Y-97753226D01*
X153835003Y-97766963D01*
X153837631Y-97767361D01*
X153961729Y-97786595D01*
X154049265Y-97801948D01*
X154107853Y-97815217D01*
X154145108Y-97828197D01*
X154168644Y-97842687D01*
X154172986Y-97846485D01*
X154214096Y-97864871D01*
X154276505Y-97874179D01*
X154288946Y-97874460D01*
X154345708Y-97878092D01*
X154379302Y-97887102D01*
X154382129Y-97889948D01*
X154411741Y-97915377D01*
X154468072Y-97942891D01*
X154534262Y-97965783D01*
X154593454Y-97977348D01*
X154602797Y-97977712D01*
X154653120Y-97969264D01*
X154677941Y-97935907D01*
X154682497Y-97920923D01*
X154698512Y-97880566D01*
X154730802Y-97813345D01*
X154774591Y-97728810D01*
X154822299Y-97641502D01*
X154888848Y-97523385D01*
X154941068Y-97433056D01*
X154984826Y-97361478D01*
X155025989Y-97299616D01*
X155070427Y-97238433D01*
X155124005Y-97168894D01*
X155153784Y-97131045D01*
X155228324Y-97037198D01*
X155285656Y-96966758D01*
X155334397Y-96909461D01*
X155383164Y-96855041D01*
X155408812Y-96827250D01*
X155457583Y-96773631D01*
X155495279Y-96730179D01*
X155509163Y-96712603D01*
X155533015Y-96688331D01*
X155583266Y-96643339D01*
X155652474Y-96583805D01*
X155733196Y-96515912D01*
X155817990Y-96445840D01*
X155899413Y-96379769D01*
X155970023Y-96323881D01*
X156022378Y-96284355D01*
X156037235Y-96274054D01*
X156101457Y-96230855D01*
X156158138Y-96191452D01*
X156246428Y-96133266D01*
X156359554Y-96065277D01*
X156482439Y-95996104D01*
X156600003Y-95934367D01*
X156653039Y-95908529D01*
X156725350Y-95873580D01*
X156780773Y-95845000D01*
X156808328Y-95828476D01*
X156809141Y-95827691D01*
X156837012Y-95812823D01*
X156876042Y-95799925D01*
X156950648Y-95776538D01*
X157020588Y-95749291D01*
X157073883Y-95723435D01*
X157098553Y-95704218D01*
X157099044Y-95702193D01*
X157118381Y-95690304D01*
X157163396Y-95685517D01*
X157231218Y-95675570D01*
X157291623Y-95654669D01*
X157348390Y-95632669D01*
X157393207Y-95623693D01*
X157433560Y-95612762D01*
X157444698Y-95602915D01*
X157474411Y-95588840D01*
X157528233Y-95582320D01*
X157533764Y-95582265D01*
X157608046Y-95574727D01*
X157671824Y-95558213D01*
X157734932Y-95542893D01*
X157835038Y-95529389D01*
X157964571Y-95518009D01*
X158115957Y-95509063D01*
X158281625Y-95502858D01*
X158454003Y-95499706D01*
X158625518Y-95499913D01*
G37*
%TO.C,D5*%
X142566500Y-80518000D02*
X142566500Y-83058000D01*
X143546500Y-80552000D02*
X143546500Y-80708000D01*
X143546500Y-82868000D02*
X143546500Y-83024000D01*
X143546500Y-83023516D02*
G75*
G03*
X146778835Y-82866608I1560000J1235516D01*
G01*
X146778835Y-80709392D02*
G75*
G03*
X143546500Y-80552484I-1672335J-1078608D01*
G01*
%TO.C,D11*%
X140752500Y-90331000D02*
X140752500Y-90487000D01*
X140752500Y-92647000D02*
X140752500Y-92803000D01*
X139772500Y-90297000D02*
X139772500Y-92837000D01*
X143984835Y-90488392D02*
G75*
G03*
X140752500Y-90331484I-1672335J-1078608D01*
G01*
X140752500Y-92802516D02*
G75*
G03*
X143984835Y-92645608I1560000J1235516D01*
G01*
%TO.C,D4*%
X126710000Y-92490000D02*
X126710000Y-92646000D01*
X125730000Y-92456000D02*
X125730000Y-94996000D01*
X126710000Y-94806000D02*
X126710000Y-94962000D01*
X129942335Y-92647392D02*
G75*
G03*
X126710000Y-92490484I-1672335J-1078608D01*
G01*
X126710000Y-94961516D02*
G75*
G03*
X129942335Y-94804608I1560000J1235516D01*
G01*
%TO.C,D8*%
X146594500Y-92647000D02*
X146594500Y-92803000D01*
X145614500Y-90297000D02*
X145614500Y-92837000D01*
X146594500Y-90331000D02*
X146594500Y-90487000D01*
X146594500Y-92802516D02*
G75*
G03*
X149826835Y-92645608I1560000J1235516D01*
G01*
X149826835Y-90488392D02*
G75*
G03*
X146594500Y-90331484I-1672335J-1078608D01*
G01*
%TO.C,D7*%
X156246500Y-89472000D02*
X156246500Y-89628000D01*
X155266500Y-87122000D02*
X155266500Y-89662000D01*
X156246500Y-87156000D02*
X156246500Y-87312000D01*
X159478835Y-87313392D02*
G75*
G03*
X156246500Y-87156484I-1672335J-1078608D01*
G01*
X156246500Y-89627516D02*
G75*
G03*
X159478835Y-89470608I1560000J1235516D01*
G01*
%TO.C,D10*%
X149678500Y-93853000D02*
X149678500Y-96393000D01*
X150658500Y-96203000D02*
X150658500Y-96359000D01*
X150658500Y-93887000D02*
X150658500Y-94043000D01*
X150658500Y-96358516D02*
G75*
G03*
X153890835Y-96201608I1560000J1235516D01*
G01*
X153890835Y-94044392D02*
G75*
G03*
X150658500Y-93887484I-1672335J-1078608D01*
G01*
%TO.C,D9*%
X136180500Y-96330000D02*
X136180500Y-96486000D01*
X135200500Y-93980000D02*
X135200500Y-96520000D01*
X136180500Y-94014000D02*
X136180500Y-94170000D01*
X139412835Y-94171392D02*
G75*
G03*
X136180500Y-94014484I-1672335J-1078608D01*
G01*
X136180500Y-96485516D02*
G75*
G03*
X139412835Y-96328608I1560000J1235516D01*
G01*
%TO.C,D6*%
X129358500Y-86614000D02*
X129358500Y-89154000D01*
X130338500Y-86648000D02*
X130338500Y-86804000D01*
X130338500Y-88964000D02*
X130338500Y-89120000D01*
X130338500Y-89119516D02*
G75*
G03*
X133570835Y-88962608I1560000J1235516D01*
G01*
X133570835Y-86805392D02*
G75*
G03*
X130338500Y-86648484I-1672335J-1078608D01*
G01*
%TO.C,D2*%
X150658500Y-82076000D02*
X150658500Y-82232000D01*
X149678500Y-82042000D02*
X149678500Y-84582000D01*
X150658500Y-84392000D02*
X150658500Y-84548000D01*
X150658500Y-84547516D02*
G75*
G03*
X153890835Y-84390608I1560000J1235516D01*
G01*
X153890835Y-82233392D02*
G75*
G03*
X150658500Y-82076484I-1672335J-1078608D01*
G01*
%TD*%
%LPC*%
D10*
G36*
X131826000Y-113792000D02*
G01*
X130556000Y-112522000D01*
X131826000Y-111252000D01*
X131826000Y-113792000D01*
G37*
X131826000Y-113792000D02*
X130556000Y-112522000D01*
X131826000Y-111252000D01*
X131826000Y-113792000D01*
G36*
X136652000Y-112522000D02*
G01*
X135382000Y-113792000D01*
X135382000Y-111252000D01*
X136652000Y-112522000D01*
G37*
X136652000Y-112522000D02*
X135382000Y-113792000D01*
X135382000Y-111252000D01*
X136652000Y-112522000D01*
D12*
X142430500Y-117538500D02*
G75*
G03*
X146367500Y-117538500I1968500J0D01*
G01*
D10*
G36*
X152908000Y-113792000D02*
G01*
X151638000Y-112522000D01*
X152908000Y-111252000D01*
X152908000Y-113792000D01*
G37*
X152908000Y-113792000D02*
X151638000Y-112522000D01*
X152908000Y-111252000D01*
X152908000Y-113792000D01*
G36*
X157734000Y-112522000D02*
G01*
X156464000Y-113792000D01*
X156464000Y-111252000D01*
X157734000Y-112522000D01*
G37*
X157734000Y-112522000D02*
X156464000Y-113792000D01*
X156464000Y-111252000D01*
X157734000Y-112522000D01*
%TO.C,G\u002A\u002A\u002A*%
G36*
X145151954Y-77801633D02*
G01*
X145703631Y-77822009D01*
X146264324Y-77858119D01*
X146823521Y-77909364D01*
X147370708Y-77975145D01*
X147612753Y-78009709D01*
X148498738Y-78163798D01*
X149374545Y-78357913D01*
X150239428Y-78591571D01*
X151092638Y-78864294D01*
X151933430Y-79175599D01*
X152761056Y-79525008D01*
X153574768Y-79912038D01*
X154373819Y-80336210D01*
X155157463Y-80797043D01*
X155924952Y-81294057D01*
X156675539Y-81826771D01*
X157408477Y-82394704D01*
X158123018Y-82997376D01*
X158818416Y-83634306D01*
X159493923Y-84305014D01*
X160148792Y-85009020D01*
X160782277Y-85745842D01*
X161393629Y-86515000D01*
X161897538Y-87196957D01*
X162497029Y-88072033D01*
X163067505Y-88978137D01*
X163608615Y-89914479D01*
X164120009Y-90880264D01*
X164601338Y-91874699D01*
X165052250Y-92896992D01*
X165472397Y-93946350D01*
X165861427Y-95021980D01*
X166218991Y-96123089D01*
X166544739Y-97248884D01*
X166831922Y-98371829D01*
X166863677Y-98505900D01*
X166891383Y-98625851D01*
X166913784Y-98725988D01*
X166929622Y-98800619D01*
X166937640Y-98844048D01*
X166938135Y-98852805D01*
X166917129Y-98843830D01*
X166866588Y-98808806D01*
X166789565Y-98750090D01*
X166689110Y-98670039D01*
X166568276Y-98571008D01*
X166505272Y-98518545D01*
X166368909Y-98412174D01*
X166252800Y-98338576D01*
X166177402Y-98303687D01*
X166091321Y-98265112D01*
X166045879Y-98228601D01*
X166037393Y-98211137D01*
X165736000Y-97083684D01*
X165404966Y-95983152D01*
X165044556Y-94910018D01*
X164655035Y-93864756D01*
X164236668Y-92847843D01*
X163789720Y-91859755D01*
X163314456Y-90900966D01*
X162811140Y-89971953D01*
X162280038Y-89073190D01*
X161721415Y-88205155D01*
X161135536Y-87368322D01*
X160522665Y-86563168D01*
X159883068Y-85790167D01*
X159217009Y-85049795D01*
X158524753Y-84342529D01*
X158072191Y-83911279D01*
X157731090Y-83599562D01*
X157407742Y-83314078D01*
X157093400Y-83047663D01*
X156779321Y-82793156D01*
X156456757Y-82543397D01*
X156116964Y-82291222D01*
X155922935Y-82151310D01*
X155160479Y-81630757D01*
X154385250Y-81149554D01*
X153597522Y-80707799D01*
X152797568Y-80305589D01*
X151985664Y-79943023D01*
X151162082Y-79620197D01*
X150327097Y-79337210D01*
X149480983Y-79094160D01*
X148624014Y-78891144D01*
X147756464Y-78728260D01*
X146878606Y-78605606D01*
X145990715Y-78523279D01*
X145706596Y-78505582D01*
X145231410Y-78485374D01*
X144772352Y-78478587D01*
X144316237Y-78485498D01*
X143849880Y-78506388D01*
X143360095Y-78541536D01*
X143155407Y-78559581D01*
X142289955Y-78660236D01*
X141433114Y-78801224D01*
X140585618Y-78982090D01*
X139748205Y-79202379D01*
X138921612Y-79461635D01*
X138106574Y-79759401D01*
X137303829Y-80095224D01*
X136514113Y-80468645D01*
X135738163Y-80879211D01*
X134976715Y-81326466D01*
X134230506Y-81809953D01*
X133500272Y-82329217D01*
X132786750Y-82883803D01*
X132090677Y-83473254D01*
X131412790Y-84097115D01*
X130753824Y-84754931D01*
X130114516Y-85446245D01*
X129495604Y-86170603D01*
X128897823Y-86927547D01*
X128321910Y-87716624D01*
X128297984Y-87750787D01*
X127714654Y-88619712D01*
X127159729Y-89517381D01*
X126632959Y-90444339D01*
X126134098Y-91401127D01*
X125662895Y-92388289D01*
X125219104Y-93406369D01*
X124802475Y-94455908D01*
X124412761Y-95537451D01*
X124049713Y-96651540D01*
X123728123Y-97744743D01*
X123585640Y-98254763D01*
X123469698Y-98310961D01*
X123366825Y-98370255D01*
X123236874Y-98461395D01*
X123080622Y-98583790D01*
X122898845Y-98736854D01*
X122839576Y-98788556D01*
X122763520Y-98853055D01*
X122706004Y-98897115D01*
X122671414Y-98917635D01*
X122663673Y-98912863D01*
X122672267Y-98881228D01*
X122689273Y-98815613D01*
X122713061Y-98722417D01*
X122742002Y-98608039D01*
X122774467Y-98478877D01*
X122790291Y-98415636D01*
X122944944Y-97822171D01*
X123118044Y-97204149D01*
X123306060Y-96573108D01*
X123505458Y-95940587D01*
X123712710Y-95318124D01*
X123910065Y-94756550D01*
X124302124Y-93721348D01*
X124720609Y-92713286D01*
X125165034Y-91732918D01*
X125634910Y-90780798D01*
X126129751Y-89857476D01*
X126649069Y-88963508D01*
X127192377Y-88099444D01*
X127759186Y-87265839D01*
X128349011Y-86463245D01*
X128961364Y-85692215D01*
X129595756Y-84953302D01*
X130251701Y-84247059D01*
X130928711Y-83574039D01*
X131626300Y-82934793D01*
X132343978Y-82329877D01*
X133081260Y-81759842D01*
X133837657Y-81225241D01*
X134612683Y-80726626D01*
X135405849Y-80264552D01*
X136216669Y-79839571D01*
X137044655Y-79452235D01*
X137613716Y-79212056D01*
X138441421Y-78898392D01*
X139272842Y-78624958D01*
X140110647Y-78391180D01*
X140957503Y-78196482D01*
X141816077Y-78040290D01*
X142689036Y-77922030D01*
X143579047Y-77841125D01*
X144117697Y-77810482D01*
X144619805Y-77797591D01*
X145151954Y-77801633D01*
G37*
G36*
X145033897Y-85054270D02*
G01*
X145253243Y-85056138D01*
X145443983Y-85059913D01*
X145614189Y-85066146D01*
X145771932Y-85075392D01*
X145925284Y-85088205D01*
X146082317Y-85105137D01*
X146251102Y-85126742D01*
X146439711Y-85153573D01*
X146612940Y-85179576D01*
X147313399Y-85307181D01*
X148008737Y-85475635D01*
X148698396Y-85684569D01*
X149381815Y-85933612D01*
X150058436Y-86222393D01*
X150727699Y-86550543D01*
X151389044Y-86917691D01*
X152041913Y-87323466D01*
X152685745Y-87767499D01*
X153319981Y-88249419D01*
X153944062Y-88768856D01*
X154557428Y-89325439D01*
X155159521Y-89918798D01*
X155749780Y-90548564D01*
X156327646Y-91214365D01*
X156892560Y-91915831D01*
X157000041Y-92055277D01*
X157280101Y-92430174D01*
X157570514Y-92835773D01*
X157865962Y-93263963D01*
X158161127Y-93706636D01*
X158450691Y-94155678D01*
X158729338Y-94602981D01*
X158991749Y-95040434D01*
X159232607Y-95459925D01*
X159234525Y-95463352D01*
X159263509Y-95515146D01*
X158734348Y-95521560D01*
X158477019Y-95525999D01*
X158256702Y-95533269D01*
X158065691Y-95544425D01*
X157896281Y-95560520D01*
X157740765Y-95582608D01*
X157591440Y-95611742D01*
X157440600Y-95648976D01*
X157280539Y-95695364D01*
X157142191Y-95739278D01*
X156939689Y-95808421D01*
X156774739Y-95871966D01*
X156641065Y-95932731D01*
X156532393Y-95993533D01*
X156453336Y-96048629D01*
X156404307Y-96083763D01*
X156369252Y-96103811D01*
X156362699Y-96105603D01*
X156346266Y-96088689D01*
X156311139Y-96041738D01*
X156261304Y-95970436D01*
X156200746Y-95880467D01*
X156141286Y-95789657D01*
X155617398Y-95003707D01*
X155086831Y-94255308D01*
X154549895Y-93544761D01*
X154006902Y-92872370D01*
X153458164Y-92238437D01*
X152903991Y-91643265D01*
X152344696Y-91087155D01*
X151780589Y-90570410D01*
X151211982Y-90093332D01*
X150639186Y-89656225D01*
X150062513Y-89259389D01*
X149482274Y-88903129D01*
X148898780Y-88587745D01*
X148555681Y-88422147D01*
X148041023Y-88199359D01*
X147536815Y-88011677D01*
X147034593Y-87856655D01*
X146525891Y-87731845D01*
X146002244Y-87634800D01*
X145669783Y-87587930D01*
X145461230Y-87567215D01*
X145219976Y-87552308D01*
X144957643Y-87543276D01*
X144685856Y-87540186D01*
X144416239Y-87543105D01*
X144160415Y-87552100D01*
X143930009Y-87567240D01*
X143826772Y-87577266D01*
X143239778Y-87661011D01*
X142658573Y-87782127D01*
X142082191Y-87941052D01*
X141509665Y-88138223D01*
X140940028Y-88374078D01*
X140372314Y-88649053D01*
X139805555Y-88963585D01*
X139238785Y-89318112D01*
X138671038Y-89713071D01*
X138101346Y-90148898D01*
X138053028Y-90187660D01*
X137852375Y-90354494D01*
X137629956Y-90548828D01*
X137391294Y-90765319D01*
X137141910Y-90998622D01*
X136887325Y-91243393D01*
X136633060Y-91494288D01*
X136384638Y-91745962D01*
X136147579Y-91993073D01*
X135927406Y-92230274D01*
X135823740Y-92345326D01*
X135471633Y-92751481D01*
X135110132Y-93189226D01*
X134744853Y-93651117D01*
X134381412Y-94129707D01*
X134025425Y-94617552D01*
X133682507Y-95107206D01*
X133358275Y-95591224D01*
X133253150Y-95753401D01*
X133196237Y-95841782D01*
X133147808Y-95916598D01*
X133112304Y-95971020D01*
X133094163Y-95998219D01*
X133092907Y-95999913D01*
X133072089Y-95994312D01*
X133027564Y-95970672D01*
X133001407Y-95954704D01*
X132924508Y-95912319D01*
X132837829Y-95873202D01*
X132816376Y-95865037D01*
X132737364Y-95831333D01*
X132662848Y-95791313D01*
X132644684Y-95779532D01*
X132562324Y-95736177D01*
X132442459Y-95692224D01*
X132292280Y-95649293D01*
X132118977Y-95609010D01*
X131929739Y-95572995D01*
X131731755Y-95542871D01*
X131532215Y-95520262D01*
X131473644Y-95515229D01*
X131403406Y-95512484D01*
X131301546Y-95512206D01*
X131176492Y-95514062D01*
X131036674Y-95517719D01*
X130890519Y-95522844D01*
X130746455Y-95529105D01*
X130612909Y-95536169D01*
X130498311Y-95543703D01*
X130411088Y-95551373D01*
X130359667Y-95558847D01*
X130357848Y-95559297D01*
X130340277Y-95561134D01*
X130333495Y-95551937D01*
X130339445Y-95526964D01*
X130360071Y-95481476D01*
X130397316Y-95410733D01*
X130453123Y-95309994D01*
X130478756Y-95264363D01*
X130989432Y-94388956D01*
X131514022Y-93552603D01*
X132052887Y-92754868D01*
X132606392Y-91995314D01*
X133174899Y-91273503D01*
X133758770Y-90588999D01*
X134358371Y-89941366D01*
X134974062Y-89330166D01*
X135606208Y-88754962D01*
X136255171Y-88215318D01*
X136489495Y-88032347D01*
X137126253Y-87566713D01*
X137774047Y-87139064D01*
X138432003Y-86749786D01*
X139099246Y-86399264D01*
X139774903Y-86087885D01*
X140458099Y-85816033D01*
X141147960Y-85584095D01*
X141843613Y-85392457D01*
X142544182Y-85241504D01*
X142976376Y-85169148D01*
X143178635Y-85139796D01*
X143359285Y-85115770D01*
X143526303Y-85096560D01*
X143687664Y-85081653D01*
X143851344Y-85070540D01*
X144025319Y-85062710D01*
X144217565Y-85057651D01*
X144436058Y-85054852D01*
X144688773Y-85053804D01*
X144777874Y-85053754D01*
X145033897Y-85054270D01*
G37*
G36*
X145101284Y-95267507D02*
G01*
X145604059Y-95314704D01*
X146106951Y-95402979D01*
X146609665Y-95532288D01*
X147111907Y-95702588D01*
X147613382Y-95913835D01*
X148113795Y-96165984D01*
X148612853Y-96458991D01*
X149110259Y-96792813D01*
X149287213Y-96921743D01*
X149408611Y-97014388D01*
X149546326Y-97123491D01*
X149695859Y-97245147D01*
X149852709Y-97375448D01*
X150012379Y-97510487D01*
X150170368Y-97646358D01*
X150322177Y-97779154D01*
X150463308Y-97904968D01*
X150589261Y-98019892D01*
X150695537Y-98120021D01*
X150777637Y-98201448D01*
X150831061Y-98260264D01*
X150836348Y-98266927D01*
X150881459Y-98325396D01*
X150828433Y-98358488D01*
X150783762Y-98391456D01*
X150723864Y-98441977D01*
X150678857Y-98483054D01*
X150608701Y-98540940D01*
X150532215Y-98591366D01*
X150488637Y-98613465D01*
X150424599Y-98651240D01*
X150335789Y-98721192D01*
X150223791Y-98822007D01*
X150146312Y-98896580D01*
X150003775Y-99036940D01*
X149889210Y-99150818D01*
X149799524Y-99241561D01*
X149731624Y-99312519D01*
X149682420Y-99367039D01*
X149648818Y-99408471D01*
X149627726Y-99440162D01*
X149616053Y-99465461D01*
X149613626Y-99473400D01*
X149586066Y-99533024D01*
X149545447Y-99586191D01*
X149512021Y-99624348D01*
X149461507Y-99687744D01*
X149401281Y-99766921D01*
X149349966Y-99836790D01*
X149269433Y-99955137D01*
X149215126Y-100052376D01*
X149182297Y-100137311D01*
X149176826Y-100157916D01*
X149153621Y-100233393D01*
X149124958Y-100298955D01*
X149105357Y-100329645D01*
X149074168Y-100380109D01*
X149062235Y-100422875D01*
X149056315Y-100460300D01*
X149041224Y-100527417D01*
X149019411Y-100613902D01*
X148999358Y-100687979D01*
X148937671Y-100909262D01*
X148737935Y-100667261D01*
X148540772Y-100434141D01*
X148324480Y-100188526D01*
X148100421Y-99942915D01*
X147879956Y-99709805D01*
X147714330Y-99541239D01*
X147368411Y-99210314D01*
X147032845Y-98918206D01*
X146705892Y-98663839D01*
X146385809Y-98446135D01*
X146070855Y-98264020D01*
X145759287Y-98116415D01*
X145449363Y-98002244D01*
X145139342Y-97920432D01*
X145068799Y-97906260D01*
X144952424Y-97891419D01*
X144806099Y-97883399D01*
X144643991Y-97882025D01*
X144480264Y-97887123D01*
X144329085Y-97898517D01*
X144204619Y-97916033D01*
X144199732Y-97916990D01*
X143883245Y-97999025D01*
X143559970Y-98119863D01*
X143233083Y-98277910D01*
X142905760Y-98471573D01*
X142581174Y-98699259D01*
X142472852Y-98783463D01*
X142272762Y-98950163D01*
X142055005Y-99144447D01*
X141826555Y-99359308D01*
X141594385Y-99587740D01*
X141365471Y-99822738D01*
X141146786Y-100057293D01*
X140945304Y-100284400D01*
X140771581Y-100492593D01*
X140714301Y-100560009D01*
X140676861Y-100593564D01*
X140656151Y-100594971D01*
X140649059Y-100565944D01*
X140648975Y-100560120D01*
X140641158Y-100523714D01*
X140620144Y-100459549D01*
X140589590Y-100378254D01*
X140568774Y-100327045D01*
X140531162Y-100233579D01*
X140497706Y-100144175D01*
X140473484Y-100072669D01*
X140466600Y-100048653D01*
X140433285Y-99972313D01*
X140389436Y-99928616D01*
X140353833Y-99899786D01*
X140345901Y-99877677D01*
X140340702Y-99852256D01*
X140322409Y-99833212D01*
X140294383Y-99801243D01*
X140256145Y-99744656D01*
X140220223Y-99683263D01*
X140168575Y-99595131D01*
X140107238Y-99499587D01*
X140068481Y-99443769D01*
X140007881Y-99359685D01*
X139942298Y-99267647D01*
X139903960Y-99213270D01*
X139828031Y-99118239D01*
X139725542Y-99009307D01*
X139606423Y-98896568D01*
X139515815Y-98818609D01*
X139459664Y-98766442D01*
X139401915Y-98704255D01*
X139390947Y-98691138D01*
X139328042Y-98633460D01*
X139244836Y-98581949D01*
X139217511Y-98569341D01*
X139155645Y-98541395D01*
X139114719Y-98518955D01*
X139104834Y-98509726D01*
X139087957Y-98492409D01*
X139043649Y-98458840D01*
X138981400Y-98416194D01*
X138979598Y-98415010D01*
X138915727Y-98374801D01*
X138864538Y-98343015D01*
X138827816Y-98315752D01*
X138807348Y-98289115D01*
X138804921Y-98259207D01*
X138822320Y-98222131D01*
X138861332Y-98173989D01*
X138923744Y-98110883D01*
X139011341Y-98028917D01*
X139125910Y-97924192D01*
X139261514Y-97799933D01*
X139642387Y-97458426D01*
X140008103Y-97150662D01*
X140363504Y-96873317D01*
X140713437Y-96623065D01*
X141062745Y-96396583D01*
X141416272Y-96190546D01*
X141778863Y-96001628D01*
X142103600Y-95849439D01*
X142599484Y-95649241D01*
X143097252Y-95490385D01*
X143596611Y-95372828D01*
X144097266Y-95296525D01*
X144598922Y-95261433D01*
X145101284Y-95267507D01*
G37*
%TO.C,G4*%
G36*
X128922708Y-115482230D02*
G01*
X128989578Y-115492923D01*
X129055256Y-115509748D01*
X129119182Y-115532534D01*
X129180798Y-115561108D01*
X129239545Y-115595299D01*
X129294866Y-115634934D01*
X129297621Y-115637127D01*
X129329888Y-115665063D01*
X129362503Y-115697191D01*
X129393714Y-115731614D01*
X129421767Y-115766436D01*
X129437747Y-115788783D01*
X129446127Y-115800867D01*
X129451797Y-115808008D01*
X129455524Y-115810952D01*
X129458071Y-115810447D01*
X129458929Y-115809450D01*
X129462311Y-115804641D01*
X129468553Y-115795770D01*
X129476676Y-115784225D01*
X129483356Y-115774731D01*
X129523857Y-115722907D01*
X129569276Y-115675334D01*
X129619200Y-115632259D01*
X129673216Y-115593933D01*
X129730911Y-115560602D01*
X129791871Y-115532517D01*
X129855683Y-115509924D01*
X129921933Y-115493072D01*
X129964288Y-115485582D01*
X130025143Y-115479366D01*
X130087015Y-115478333D01*
X130149036Y-115482309D01*
X130210336Y-115491121D01*
X130270045Y-115504593D01*
X130327296Y-115522552D01*
X130381219Y-115544824D01*
X130430944Y-115571234D01*
X130449288Y-115582801D01*
X130468828Y-115595983D01*
X130484543Y-115607295D01*
X130498338Y-115618275D01*
X130512119Y-115630459D01*
X130527792Y-115645384D01*
X130532103Y-115649601D01*
X130569447Y-115690630D01*
X130601369Y-115735180D01*
X130628031Y-115783540D01*
X130649595Y-115835997D01*
X130663944Y-115883655D01*
X130670530Y-115911157D01*
X130675425Y-115936345D01*
X130678835Y-115961043D01*
X130680964Y-115987073D01*
X130682014Y-116016259D01*
X130682205Y-116046931D01*
X130679358Y-116113837D01*
X130671213Y-116180852D01*
X130657658Y-116248294D01*
X130638585Y-116316478D01*
X130613883Y-116385723D01*
X130583442Y-116456346D01*
X130547151Y-116528665D01*
X130504901Y-116602995D01*
X130469230Y-116660264D01*
X130434382Y-116710098D01*
X130393291Y-116761348D01*
X130346183Y-116813825D01*
X130293284Y-116867341D01*
X130234823Y-116921708D01*
X130171025Y-116976737D01*
X130102118Y-117032239D01*
X130028329Y-117088027D01*
X129949884Y-117143912D01*
X129867011Y-117199705D01*
X129779936Y-117255220D01*
X129688887Y-117310266D01*
X129679288Y-117315904D01*
X129657631Y-117328499D01*
X129634176Y-117341979D01*
X129609625Y-117355955D01*
X129584677Y-117370041D01*
X129560032Y-117383848D01*
X129536392Y-117396987D01*
X129514457Y-117409072D01*
X129494926Y-117419714D01*
X129478500Y-117428526D01*
X129465880Y-117435118D01*
X129457766Y-117439105D01*
X129454960Y-117440157D01*
X129451512Y-117438588D01*
X129443040Y-117434231D01*
X129430358Y-117427519D01*
X129414277Y-117418885D01*
X129395611Y-117408762D01*
X129379288Y-117399841D01*
X129271444Y-117339204D01*
X129168820Y-117278435D01*
X129071551Y-117217635D01*
X128979769Y-117156906D01*
X128893609Y-117096350D01*
X128813205Y-117036066D01*
X128738689Y-116976158D01*
X128670197Y-116916727D01*
X128607861Y-116857873D01*
X128551816Y-116799699D01*
X128502195Y-116742306D01*
X128486856Y-116723045D01*
X128466705Y-116696205D01*
X128446596Y-116667359D01*
X128425687Y-116635249D01*
X128403138Y-116598614D01*
X128397144Y-116588597D01*
X128356654Y-116516094D01*
X128321608Y-116443863D01*
X128292041Y-116372163D01*
X128267989Y-116301253D01*
X128249485Y-116231392D01*
X128236565Y-116162838D01*
X128229263Y-116095850D01*
X128227615Y-116030687D01*
X128231654Y-115967608D01*
X128241416Y-115906871D01*
X128256935Y-115848736D01*
X128278246Y-115793461D01*
X128287702Y-115773597D01*
X128315406Y-115725751D01*
X128348479Y-115681637D01*
X128386666Y-115641403D01*
X128429715Y-115605198D01*
X128477369Y-115573173D01*
X128529376Y-115545475D01*
X128585482Y-115522255D01*
X128645432Y-115503662D01*
X128708973Y-115489844D01*
X128775851Y-115480951D01*
X128787621Y-115479933D01*
X128855202Y-115477843D01*
X128922708Y-115482230D01*
G37*
%TO.C,G\u002A\u002A\u002A*%
G36*
X137857317Y-116622408D02*
G01*
X137882728Y-116631593D01*
X137906010Y-116645643D01*
X137926380Y-116664242D01*
X137943056Y-116687081D01*
X137955254Y-116713846D01*
X137958166Y-116723498D01*
X137962251Y-116751411D01*
X137960289Y-116779855D01*
X137952606Y-116807424D01*
X137939534Y-116832710D01*
X137929582Y-116845807D01*
X137926164Y-116849267D01*
X137918199Y-116857054D01*
X137905971Y-116868900D01*
X137889761Y-116884533D01*
X137869851Y-116903685D01*
X137846524Y-116926088D01*
X137820062Y-116951469D01*
X137790748Y-116979562D01*
X137758863Y-117010096D01*
X137724691Y-117042803D01*
X137688512Y-117077411D01*
X137650610Y-117113653D01*
X137611267Y-117151258D01*
X137570764Y-117189958D01*
X137529386Y-117229481D01*
X137487412Y-117269560D01*
X137445126Y-117309926D01*
X137402811Y-117350307D01*
X137360748Y-117390436D01*
X137319220Y-117430043D01*
X137278509Y-117468857D01*
X137238897Y-117506610D01*
X137200666Y-117543032D01*
X137164099Y-117577855D01*
X137129479Y-117610808D01*
X137097086Y-117641621D01*
X137067204Y-117670027D01*
X137040115Y-117695754D01*
X137016101Y-117718535D01*
X136995445Y-117738099D01*
X136978428Y-117754177D01*
X136965334Y-117766499D01*
X136956444Y-117774796D01*
X136952784Y-117778144D01*
X136934437Y-117790929D01*
X136911887Y-117801086D01*
X136887299Y-117807962D01*
X136862839Y-117810901D01*
X136846727Y-117810238D01*
X136822866Y-117804569D01*
X136798731Y-117794019D01*
X136776898Y-117779732D01*
X136775421Y-117778539D01*
X136755194Y-117757879D01*
X136740111Y-117733930D01*
X136730289Y-117707685D01*
X136725846Y-117680139D01*
X136726897Y-117652286D01*
X136733558Y-117625119D01*
X136745948Y-117599635D01*
X136753246Y-117589208D01*
X136757220Y-117584899D01*
X136765738Y-117576296D01*
X136778517Y-117563672D01*
X136795276Y-117547290D01*
X136815732Y-117527422D01*
X136839604Y-117504335D01*
X136866608Y-117478298D01*
X136896465Y-117449579D01*
X136928890Y-117418446D01*
X136963603Y-117385168D01*
X137000320Y-117350013D01*
X137038762Y-117313251D01*
X137078645Y-117275148D01*
X137119686Y-117235974D01*
X137161605Y-117195997D01*
X137204119Y-117155485D01*
X137246946Y-117114707D01*
X137289804Y-117073930D01*
X137332411Y-117033425D01*
X137374486Y-116993459D01*
X137415745Y-116954300D01*
X137455907Y-116916215D01*
X137494691Y-116879476D01*
X137531812Y-116844349D01*
X137566993Y-116811104D01*
X137599947Y-116780007D01*
X137630394Y-116751328D01*
X137658052Y-116725336D01*
X137682640Y-116702298D01*
X137703874Y-116682483D01*
X137721473Y-116666159D01*
X137735155Y-116653595D01*
X137744638Y-116645060D01*
X137749640Y-116640820D01*
X137750037Y-116640537D01*
X137776137Y-116627151D01*
X137803238Y-116619874D01*
X137830559Y-116618398D01*
X137857317Y-116622408D01*
G37*
G36*
X136401480Y-115739411D02*
G01*
X136429236Y-115747143D01*
X136436435Y-115750281D01*
X136452610Y-115760105D01*
X136469369Y-115773899D01*
X136484728Y-115789747D01*
X136496705Y-115805732D01*
X136500112Y-115811753D01*
X136504985Y-115822712D01*
X136508357Y-115833976D01*
X136510752Y-115847756D01*
X136512466Y-115863661D01*
X136513749Y-115879306D01*
X136514036Y-115890579D01*
X136513057Y-115899737D01*
X136510543Y-115909036D01*
X136506226Y-115920730D01*
X136505405Y-115922836D01*
X136496438Y-115941948D01*
X136485690Y-115959028D01*
X136480679Y-115965307D01*
X136476924Y-115968825D01*
X136468268Y-115976452D01*
X136454917Y-115988011D01*
X136437078Y-116003331D01*
X136414959Y-116022236D01*
X136388767Y-116044552D01*
X136358709Y-116070104D01*
X136324992Y-116098717D01*
X136287825Y-116130220D01*
X136247413Y-116164435D01*
X136203966Y-116201189D01*
X136157688Y-116240309D01*
X136108788Y-116281619D01*
X136057474Y-116324944D01*
X136003951Y-116370112D01*
X135948429Y-116416947D01*
X135891114Y-116465275D01*
X135832213Y-116514923D01*
X135771932Y-116565714D01*
X135710481Y-116617476D01*
X135648066Y-116670033D01*
X135584894Y-116723213D01*
X135521172Y-116776838D01*
X135457109Y-116830738D01*
X135392911Y-116884736D01*
X135328785Y-116938658D01*
X135264939Y-116992329D01*
X135201579Y-117045576D01*
X135138913Y-117098224D01*
X135077150Y-117150100D01*
X135016495Y-117201028D01*
X134957155Y-117250834D01*
X134899339Y-117299344D01*
X134843253Y-117346383D01*
X134789105Y-117391778D01*
X134737102Y-117435354D01*
X134687451Y-117476936D01*
X134640360Y-117516351D01*
X134596037Y-117553423D01*
X134554686Y-117587980D01*
X134516517Y-117619845D01*
X134481737Y-117648845D01*
X134450553Y-117674806D01*
X134423173Y-117697553D01*
X134399802Y-117716912D01*
X134380649Y-117732709D01*
X134365921Y-117744768D01*
X134355825Y-117752917D01*
X134350569Y-117756981D01*
X134350079Y-117757312D01*
X134337916Y-117764357D01*
X134327500Y-117768893D01*
X134316099Y-117771840D01*
X134300981Y-117774116D01*
X134299595Y-117774289D01*
X134280763Y-117775958D01*
X134265488Y-117775601D01*
X134250954Y-117773150D01*
X134250718Y-117773095D01*
X134221889Y-117763110D01*
X134196855Y-117747872D01*
X134176107Y-117727914D01*
X134160133Y-117703769D01*
X134149420Y-117675972D01*
X134145812Y-117658404D01*
X134143988Y-117628187D01*
X134147897Y-117600927D01*
X134157761Y-117575841D01*
X134173795Y-117552143D01*
X134176119Y-117549385D01*
X134179273Y-117546526D01*
X134187321Y-117539549D01*
X134200059Y-117528628D01*
X134217279Y-117513934D01*
X134238776Y-117495643D01*
X134264345Y-117473928D01*
X134293778Y-117448962D01*
X134326870Y-117420920D01*
X134363415Y-117389975D01*
X134403208Y-117356300D01*
X134446040Y-117320070D01*
X134491709Y-117281458D01*
X134540005Y-117240639D01*
X134590725Y-117197784D01*
X134643662Y-117153068D01*
X134698609Y-117106666D01*
X134755361Y-117058750D01*
X134813714Y-117009494D01*
X134873457Y-116959072D01*
X134934389Y-116907657D01*
X134996301Y-116855424D01*
X135058988Y-116802546D01*
X135122244Y-116749196D01*
X135185864Y-116695549D01*
X135249639Y-116641777D01*
X135313366Y-116588055D01*
X135376838Y-116534557D01*
X135439849Y-116481456D01*
X135502193Y-116428926D01*
X135563663Y-116377139D01*
X135624054Y-116326271D01*
X135683161Y-116276495D01*
X135740776Y-116227984D01*
X135796694Y-116180912D01*
X135850709Y-116135454D01*
X135902615Y-116091782D01*
X135952206Y-116050069D01*
X135999276Y-116010491D01*
X136043619Y-115973220D01*
X136085029Y-115938431D01*
X136123299Y-115906296D01*
X136158225Y-115876990D01*
X136189599Y-115850686D01*
X136217217Y-115827559D01*
X136240871Y-115807781D01*
X136260356Y-115791526D01*
X136275466Y-115778968D01*
X136285995Y-115770281D01*
X136291737Y-115765638D01*
X136292083Y-115765371D01*
X136316583Y-115750620D01*
X136343851Y-115741285D01*
X136372584Y-115737503D01*
X136401480Y-115739411D01*
G37*
G36*
X133184489Y-116007556D02*
G01*
X133210671Y-116018067D01*
X133234937Y-116034879D01*
X133237977Y-116037542D01*
X133258333Y-116059988D01*
X133273124Y-116085375D01*
X133282096Y-116112857D01*
X133284996Y-116141590D01*
X133281572Y-116170727D01*
X133279863Y-116177393D01*
X133278007Y-116181923D01*
X133273404Y-116192211D01*
X133266179Y-116207990D01*
X133256455Y-116229003D01*
X133244357Y-116254986D01*
X133230006Y-116285677D01*
X133213528Y-116320814D01*
X133195044Y-116360136D01*
X133174679Y-116403381D01*
X133152556Y-116450285D01*
X133128799Y-116500589D01*
X133103531Y-116554031D01*
X133076875Y-116610346D01*
X133048955Y-116669276D01*
X133019896Y-116730556D01*
X132989817Y-116793925D01*
X132958847Y-116859123D01*
X132927106Y-116925886D01*
X132914936Y-116951467D01*
X132874123Y-117037221D01*
X132836080Y-117117101D01*
X132800728Y-117191265D01*
X132767993Y-117259869D01*
X132737798Y-117323070D01*
X132710069Y-117381025D01*
X132684729Y-117433890D01*
X132661703Y-117481822D01*
X132640915Y-117524977D01*
X132622289Y-117563513D01*
X132605749Y-117597585D01*
X132591220Y-117627352D01*
X132578627Y-117652968D01*
X132567894Y-117674592D01*
X132558943Y-117692379D01*
X132551701Y-117706485D01*
X132546090Y-117717069D01*
X132542036Y-117724286D01*
X132539463Y-117728294D01*
X132539415Y-117728356D01*
X132518505Y-117750395D01*
X132494076Y-117766952D01*
X132466813Y-117777722D01*
X132437398Y-117782398D01*
X132419217Y-117782168D01*
X132392266Y-117776941D01*
X132366284Y-117765818D01*
X132342474Y-117749568D01*
X132322034Y-117728956D01*
X132310624Y-117712759D01*
X132302375Y-117694454D01*
X132296625Y-117672268D01*
X132293749Y-117648641D01*
X132294129Y-117626015D01*
X132295607Y-117616086D01*
X132297513Y-117610832D01*
X132302292Y-117599620D01*
X132309922Y-117582496D01*
X132320383Y-117559507D01*
X132333652Y-117530698D01*
X132349707Y-117496117D01*
X132368527Y-117455809D01*
X132390090Y-117409823D01*
X132414372Y-117358203D01*
X132441354Y-117300997D01*
X132471013Y-117238251D01*
X132503328Y-117170011D01*
X132538276Y-117096325D01*
X132575834Y-117017238D01*
X132615983Y-116932797D01*
X132658699Y-116843049D01*
X132663242Y-116833509D01*
X132703483Y-116749033D01*
X132740961Y-116670406D01*
X132775761Y-116597450D01*
X132807970Y-116529986D01*
X132837676Y-116467836D01*
X132864962Y-116410822D01*
X132889917Y-116358766D01*
X132912626Y-116311490D01*
X132933176Y-116268816D01*
X132951653Y-116230564D01*
X132968143Y-116196558D01*
X132982732Y-116166619D01*
X132995507Y-116140568D01*
X133006554Y-116118228D01*
X133015958Y-116099420D01*
X133023808Y-116083966D01*
X133030188Y-116071689D01*
X133035185Y-116062409D01*
X133038886Y-116055949D01*
X133041375Y-116052129D01*
X133041753Y-116051646D01*
X133062739Y-116031135D01*
X133087391Y-116016175D01*
X133115550Y-116006851D01*
X133125171Y-116005089D01*
X133156090Y-116003259D01*
X133184489Y-116007556D01*
G37*
G36*
X134461339Y-115792179D02*
G01*
X134477499Y-115796169D01*
X134494387Y-115803504D01*
X134502317Y-115807718D01*
X134527621Y-115824944D01*
X134547255Y-115845628D01*
X134561343Y-115869958D01*
X134570005Y-115898121D01*
X134572573Y-115916095D01*
X134573119Y-115943468D01*
X134569061Y-115967450D01*
X134559981Y-115989837D01*
X134552524Y-116002383D01*
X134549247Y-116006222D01*
X134541508Y-116014623D01*
X134529505Y-116027383D01*
X134513435Y-116044295D01*
X134493499Y-116065156D01*
X134469891Y-116089759D01*
X134442812Y-116117901D01*
X134412459Y-116149376D01*
X134379029Y-116183981D01*
X134342723Y-116221509D01*
X134303737Y-116261757D01*
X134262270Y-116304520D01*
X134218518Y-116349591D01*
X134172683Y-116396769D01*
X134124958Y-116445846D01*
X134075546Y-116496618D01*
X134024642Y-116548881D01*
X133972445Y-116602430D01*
X133934673Y-116641156D01*
X133869302Y-116708145D01*
X133808426Y-116770503D01*
X133751896Y-116828379D01*
X133699563Y-116881924D01*
X133651279Y-116931289D01*
X133606893Y-116976624D01*
X133566259Y-117018080D01*
X133529225Y-117055809D01*
X133495644Y-117089959D01*
X133465366Y-117120683D01*
X133438242Y-117148131D01*
X133414124Y-117172452D01*
X133392862Y-117193799D01*
X133374308Y-117212322D01*
X133358311Y-117228171D01*
X133344725Y-117241497D01*
X133333398Y-117252451D01*
X133324183Y-117261183D01*
X133316931Y-117267844D01*
X133311491Y-117272585D01*
X133307717Y-117275556D01*
X133306607Y-117276304D01*
X133295516Y-117282836D01*
X133285973Y-117287196D01*
X133275641Y-117290147D01*
X133262178Y-117292450D01*
X133253495Y-117293603D01*
X133235866Y-117295455D01*
X133222505Y-117295793D01*
X133211184Y-117294585D01*
X133203605Y-117292890D01*
X133175820Y-117282480D01*
X133151674Y-117267223D01*
X133131529Y-117247919D01*
X133115750Y-117225365D01*
X133104697Y-117200362D01*
X133098737Y-117173708D01*
X133098228Y-117146201D01*
X133103538Y-117118643D01*
X133113528Y-117094567D01*
X133121560Y-117081395D01*
X133131374Y-117067824D01*
X133136275Y-117061934D01*
X133140632Y-117057276D01*
X133149349Y-117048171D01*
X133162184Y-117034864D01*
X133178899Y-117017598D01*
X133199254Y-116996618D01*
X133223011Y-116972170D01*
X133249932Y-116944497D01*
X133279776Y-116913843D01*
X133312305Y-116880455D01*
X133347280Y-116844574D01*
X133384460Y-116806448D01*
X133423610Y-116766319D01*
X133464488Y-116724432D01*
X133506855Y-116681031D01*
X133550474Y-116636362D01*
X133595104Y-116590669D01*
X133640507Y-116544196D01*
X133686445Y-116497187D01*
X133732676Y-116449887D01*
X133778963Y-116402542D01*
X133825067Y-116355393D01*
X133870749Y-116308688D01*
X133915770Y-116262670D01*
X133959890Y-116217583D01*
X134002870Y-116173672D01*
X134044473Y-116131181D01*
X134084459Y-116090355D01*
X134122588Y-116051439D01*
X134158622Y-116014676D01*
X134192322Y-115980312D01*
X134223448Y-115948592D01*
X134251762Y-115919757D01*
X134277024Y-115894056D01*
X134298997Y-115871730D01*
X134317440Y-115853024D01*
X134332115Y-115838185D01*
X134342782Y-115827454D01*
X134349204Y-115821078D01*
X134351054Y-115819328D01*
X134367232Y-115807847D01*
X134383762Y-115800020D01*
X134402843Y-115795013D01*
X134421754Y-115792442D01*
X134443545Y-115791087D01*
X134461339Y-115792179D01*
G37*
G36*
X135344582Y-115655884D02*
G01*
X135374282Y-115661732D01*
X135400884Y-115672884D01*
X135423961Y-115688634D01*
X135443083Y-115708275D01*
X135457820Y-115731104D01*
X135467744Y-115756412D01*
X135472426Y-115783496D01*
X135471437Y-115811650D01*
X135464348Y-115840169D01*
X135461323Y-115847862D01*
X135460601Y-115849680D01*
X135460044Y-115851253D01*
X135459530Y-115852723D01*
X135458932Y-115854235D01*
X135458129Y-115855933D01*
X135456995Y-115857961D01*
X135455406Y-115860463D01*
X135453237Y-115863583D01*
X135450365Y-115867465D01*
X135446666Y-115872254D01*
X135442014Y-115878092D01*
X135436287Y-115885124D01*
X135429360Y-115893496D01*
X135421107Y-115903349D01*
X135411407Y-115914828D01*
X135400132Y-115928078D01*
X135387162Y-115943242D01*
X135372370Y-115960465D01*
X135355633Y-115979889D01*
X135336825Y-116001660D01*
X135315823Y-116025923D01*
X135292505Y-116052819D01*
X135266743Y-116082494D01*
X135238414Y-116115091D01*
X135207396Y-116150755D01*
X135173562Y-116189630D01*
X135136789Y-116231860D01*
X135096953Y-116277588D01*
X135053928Y-116326958D01*
X135007592Y-116380116D01*
X134957821Y-116437204D01*
X134904488Y-116498367D01*
X134847472Y-116563749D01*
X134786647Y-116633494D01*
X134721889Y-116707747D01*
X134653074Y-116786649D01*
X134580077Y-116870347D01*
X134534059Y-116923113D01*
X134465348Y-117001896D01*
X134400878Y-117075811D01*
X134340507Y-117145014D01*
X134284098Y-117209664D01*
X134231512Y-117269919D01*
X134182607Y-117325934D01*
X134137245Y-117377870D01*
X134095287Y-117425882D01*
X134056593Y-117470129D01*
X134021025Y-117510769D01*
X133988441Y-117547958D01*
X133958704Y-117581855D01*
X133931673Y-117612616D01*
X133907209Y-117640401D01*
X133885173Y-117665365D01*
X133865425Y-117687668D01*
X133847826Y-117707467D01*
X133832237Y-117724919D01*
X133818518Y-117740182D01*
X133806530Y-117753413D01*
X133796132Y-117764771D01*
X133787187Y-117774412D01*
X133779555Y-117782495D01*
X133773095Y-117789178D01*
X133767669Y-117794616D01*
X133763137Y-117798969D01*
X133759360Y-117802394D01*
X133756200Y-117805048D01*
X133753514Y-117807090D01*
X133751166Y-117808676D01*
X133750497Y-117809092D01*
X133737773Y-117816470D01*
X133727298Y-117821167D01*
X133716286Y-117824128D01*
X133701948Y-117826298D01*
X133698502Y-117826713D01*
X133683883Y-117828075D01*
X133670483Y-117828704D01*
X133660664Y-117828506D01*
X133658892Y-117828292D01*
X133631538Y-117820552D01*
X133605858Y-117807009D01*
X133583083Y-117788509D01*
X133564444Y-117765898D01*
X133561515Y-117761279D01*
X133555546Y-117751112D01*
X133551512Y-117742824D01*
X133548866Y-117734477D01*
X133547061Y-117724136D01*
X133545547Y-117709866D01*
X133544892Y-117702531D01*
X133543578Y-117685579D01*
X133543215Y-117673341D01*
X133543935Y-117663915D01*
X133545871Y-117655399D01*
X133548775Y-117646911D01*
X133554344Y-117633814D01*
X133560892Y-117621001D01*
X133564618Y-117614858D01*
X133567423Y-117611427D01*
X133574458Y-117603148D01*
X133585572Y-117590196D01*
X133600612Y-117572748D01*
X133619426Y-117550979D01*
X133641859Y-117525063D01*
X133667762Y-117495178D01*
X133696981Y-117461497D01*
X133729363Y-117424197D01*
X133764756Y-117383452D01*
X133803007Y-117339439D01*
X133843964Y-117292332D01*
X133887475Y-117242307D01*
X133933387Y-117189539D01*
X133981546Y-117134205D01*
X134031802Y-117076479D01*
X134084002Y-117016536D01*
X134137992Y-116954552D01*
X134193620Y-116890703D01*
X134250735Y-116825164D01*
X134309182Y-116758110D01*
X134368811Y-116689717D01*
X134407739Y-116645074D01*
X134480369Y-116561786D01*
X134548744Y-116483369D01*
X134612998Y-116409676D01*
X134673269Y-116340558D01*
X134729686Y-116275867D01*
X134782386Y-116215457D01*
X134831504Y-116159177D01*
X134877172Y-116106883D01*
X134919525Y-116058425D01*
X134958696Y-116013654D01*
X134994821Y-115972425D01*
X135028033Y-115934587D01*
X135058466Y-115899995D01*
X135086253Y-115868499D01*
X135111531Y-115839954D01*
X135134432Y-115814208D01*
X135155090Y-115791117D01*
X135173640Y-115770530D01*
X135190216Y-115752301D01*
X135204952Y-115736282D01*
X135217981Y-115722325D01*
X135229438Y-115710283D01*
X135239457Y-115700006D01*
X135248173Y-115691348D01*
X135255718Y-115684160D01*
X135262228Y-115678295D01*
X135267836Y-115673605D01*
X135272677Y-115669941D01*
X135276885Y-115667157D01*
X135280593Y-115665104D01*
X135283935Y-115663634D01*
X135287047Y-115662600D01*
X135290062Y-115661853D01*
X135293113Y-115661246D01*
X135296336Y-115660632D01*
X135299863Y-115659860D01*
X135301618Y-115659415D01*
X135319205Y-115655833D01*
X135336067Y-115655268D01*
X135344582Y-115655884D01*
G37*
G36*
X137537721Y-116089546D02*
G01*
X137562844Y-116099546D01*
X137585714Y-116114345D01*
X137605544Y-116133614D01*
X137621546Y-116157022D01*
X137632934Y-116184239D01*
X137634490Y-116189734D01*
X137638299Y-116216778D01*
X137636269Y-116244746D01*
X137628762Y-116272119D01*
X137616143Y-116297380D01*
X137605172Y-116312179D01*
X137601744Y-116315805D01*
X137593799Y-116323996D01*
X137581507Y-116336576D01*
X137565042Y-116353370D01*
X137544576Y-116374205D01*
X137520282Y-116398905D01*
X137492330Y-116427297D01*
X137460893Y-116459206D01*
X137426143Y-116494457D01*
X137388253Y-116532875D01*
X137347396Y-116574288D01*
X137303741Y-116618519D01*
X137257464Y-116665394D01*
X137208734Y-116714740D01*
X137157724Y-116766382D01*
X137104606Y-116820144D01*
X137049554Y-116875853D01*
X136992738Y-116933333D01*
X136934331Y-116992413D01*
X136874505Y-117052914D01*
X136813432Y-117114665D01*
X136773008Y-117155532D01*
X136696311Y-117233054D01*
X136624169Y-117305953D01*
X136556456Y-117374354D01*
X136493047Y-117438383D01*
X136433817Y-117498165D01*
X136378641Y-117553825D01*
X136327394Y-117605489D01*
X136279950Y-117653281D01*
X136236184Y-117697328D01*
X136195971Y-117737753D01*
X136159186Y-117774684D01*
X136125704Y-117808245D01*
X136095400Y-117838560D01*
X136068147Y-117865757D01*
X136043822Y-117889959D01*
X136022300Y-117911292D01*
X136003453Y-117929881D01*
X135987159Y-117945853D01*
X135973291Y-117959332D01*
X135961724Y-117970443D01*
X135952333Y-117979311D01*
X135944995Y-117986062D01*
X135939581Y-117990822D01*
X135935969Y-117993715D01*
X135934865Y-117994460D01*
X135924039Y-118000625D01*
X135914545Y-118004734D01*
X135904062Y-118007502D01*
X135890265Y-118009646D01*
X135882565Y-118010573D01*
X135864351Y-118012230D01*
X135850466Y-118012318D01*
X135838748Y-118010787D01*
X135833409Y-118009506D01*
X135804368Y-117998391D01*
X135779201Y-117982057D01*
X135758395Y-117960993D01*
X135742438Y-117935689D01*
X135732167Y-117907997D01*
X135728018Y-117879774D01*
X135729882Y-117851199D01*
X135737480Y-117823696D01*
X135750532Y-117798690D01*
X135754844Y-117792694D01*
X135758051Y-117789195D01*
X135765776Y-117781132D01*
X135777850Y-117768680D01*
X135794101Y-117752010D01*
X135814359Y-117731296D01*
X135838451Y-117706714D01*
X135866208Y-117678436D01*
X135897458Y-117646636D01*
X135932030Y-117611486D01*
X135969754Y-117573162D01*
X136010457Y-117531836D01*
X136053969Y-117487683D01*
X136100119Y-117440876D01*
X136148736Y-117391587D01*
X136199650Y-117339992D01*
X136252688Y-117286264D01*
X136307680Y-117230575D01*
X136364455Y-117173101D01*
X136422841Y-117114015D01*
X136482669Y-117053489D01*
X136543766Y-116991698D01*
X136587344Y-116947637D01*
X136663130Y-116871027D01*
X136734370Y-116799028D01*
X136801198Y-116731505D01*
X136863750Y-116668325D01*
X136922160Y-116609353D01*
X136976563Y-116554452D01*
X137027094Y-116503489D01*
X137073887Y-116456330D01*
X137117078Y-116412838D01*
X137156800Y-116372879D01*
X137193189Y-116336318D01*
X137226380Y-116303021D01*
X137256509Y-116272852D01*
X137283708Y-116245677D01*
X137308112Y-116221360D01*
X137329858Y-116199767D01*
X137349080Y-116180763D01*
X137365911Y-116164213D01*
X137380490Y-116149984D01*
X137392947Y-116137937D01*
X137403419Y-116127941D01*
X137412041Y-116119859D01*
X137418947Y-116113557D01*
X137424274Y-116108900D01*
X137428153Y-116105754D01*
X137430441Y-116104150D01*
X137456704Y-116091648D01*
X137483864Y-116085268D01*
X137511131Y-116084677D01*
X137537721Y-116089546D01*
G37*
G36*
X136761872Y-115925810D02*
G01*
X136788419Y-115936937D01*
X136812440Y-115953812D01*
X136812934Y-115954250D01*
X136833749Y-115976879D01*
X136848647Y-116002244D01*
X136857489Y-116029747D01*
X136860131Y-116058792D01*
X136856430Y-116088780D01*
X136849996Y-116109997D01*
X136849048Y-116112219D01*
X136847667Y-116114889D01*
X136845727Y-116118164D01*
X136843093Y-116122202D01*
X136839638Y-116127160D01*
X136835232Y-116133194D01*
X136829742Y-116140462D01*
X136823041Y-116149121D01*
X136814998Y-116159329D01*
X136805482Y-116171241D01*
X136794365Y-116185015D01*
X136781513Y-116200809D01*
X136766800Y-116218779D01*
X136750094Y-116239082D01*
X136731265Y-116261876D01*
X136710184Y-116287317D01*
X136686719Y-116315564D01*
X136660742Y-116346772D01*
X136632121Y-116381098D01*
X136600727Y-116418700D01*
X136566429Y-116459736D01*
X136529098Y-116504361D01*
X136488603Y-116552733D01*
X136444815Y-116605011D01*
X136397603Y-116661349D01*
X136346837Y-116721905D01*
X136292388Y-116786837D01*
X136234123Y-116856301D01*
X136171915Y-116930455D01*
X136105633Y-117009455D01*
X136060821Y-117062862D01*
X135991978Y-117144904D01*
X135927287Y-117221993D01*
X135866611Y-117294286D01*
X135809822Y-117361940D01*
X135756784Y-117425110D01*
X135707364Y-117483953D01*
X135661430Y-117538625D01*
X135618849Y-117589282D01*
X135579488Y-117636080D01*
X135543214Y-117679177D01*
X135509894Y-117718728D01*
X135479395Y-117754888D01*
X135451584Y-117787815D01*
X135426329Y-117817666D01*
X135403495Y-117844596D01*
X135382951Y-117868760D01*
X135364563Y-117890317D01*
X135348199Y-117909421D01*
X135333725Y-117926229D01*
X135321009Y-117940897D01*
X135309918Y-117953582D01*
X135300317Y-117964441D01*
X135292077Y-117973628D01*
X135285062Y-117981301D01*
X135279140Y-117987615D01*
X135274177Y-117992727D01*
X135270042Y-117996794D01*
X135266602Y-117999971D01*
X135263722Y-118002414D01*
X135261270Y-118004281D01*
X135259114Y-118005728D01*
X135258224Y-118006270D01*
X135246177Y-118012991D01*
X135235720Y-118017400D01*
X135224249Y-118020335D01*
X135209155Y-118022633D01*
X135206151Y-118023007D01*
X135187692Y-118024733D01*
X135173434Y-118024667D01*
X135161146Y-118022774D01*
X135158852Y-118022206D01*
X135129955Y-118011630D01*
X135104711Y-117996336D01*
X135083628Y-117977002D01*
X135067217Y-117954308D01*
X135055988Y-117928932D01*
X135050453Y-117901554D01*
X135050528Y-117877979D01*
X135050798Y-117873981D01*
X135050878Y-117870429D01*
X135050896Y-117867164D01*
X135050981Y-117864026D01*
X135051259Y-117860856D01*
X135051859Y-117857496D01*
X135052909Y-117853784D01*
X135054536Y-117849564D01*
X135056869Y-117844675D01*
X135060035Y-117838959D01*
X135064162Y-117832256D01*
X135069378Y-117824406D01*
X135075811Y-117815252D01*
X135083588Y-117804631D01*
X135092839Y-117792388D01*
X135103690Y-117778362D01*
X135116269Y-117762393D01*
X135130706Y-117744324D01*
X135147125Y-117723994D01*
X135165657Y-117701243D01*
X135186428Y-117675914D01*
X135209568Y-117647848D01*
X135235203Y-117616883D01*
X135263461Y-117582862D01*
X135294471Y-117545625D01*
X135328359Y-117505014D01*
X135365255Y-117460868D01*
X135405286Y-117413029D01*
X135448580Y-117361337D01*
X135495263Y-117305635D01*
X135545466Y-117245760D01*
X135599315Y-117181556D01*
X135656939Y-117112862D01*
X135718464Y-117039520D01*
X135784020Y-116961371D01*
X135848479Y-116884518D01*
X135917854Y-116801804D01*
X135983079Y-116724049D01*
X136044283Y-116651099D01*
X136101597Y-116582803D01*
X136155148Y-116519007D01*
X136205070Y-116459558D01*
X136251489Y-116404304D01*
X136294535Y-116353093D01*
X136334340Y-116305770D01*
X136371031Y-116262184D01*
X136404740Y-116222182D01*
X136435595Y-116185610D01*
X136463727Y-116152317D01*
X136489264Y-116122148D01*
X136512338Y-116094952D01*
X136533075Y-116070577D01*
X136551609Y-116048867D01*
X136568066Y-116029672D01*
X136582578Y-116012838D01*
X136595275Y-115998213D01*
X136606284Y-115985644D01*
X136615738Y-115974977D01*
X136623763Y-115966061D01*
X136630492Y-115958742D01*
X136636053Y-115952868D01*
X136640576Y-115948285D01*
X136644191Y-115944842D01*
X136647026Y-115942384D01*
X136649213Y-115940761D01*
X136649746Y-115940423D01*
X136676734Y-115927737D01*
X136705062Y-115921128D01*
X136733764Y-115920513D01*
X136761872Y-115925810D01*
G37*
G36*
X155230648Y-116194998D02*
G01*
X155244676Y-116197212D01*
X155250884Y-116198297D01*
X155266940Y-116201283D01*
X155278397Y-116204030D01*
X155287250Y-116207287D01*
X155295495Y-116211799D01*
X155305128Y-116218317D01*
X155306037Y-116218959D01*
X155326484Y-116236788D01*
X155340153Y-116253746D01*
X155342125Y-116257245D01*
X155344984Y-116263248D01*
X155348802Y-116271948D01*
X155353654Y-116283536D01*
X155359612Y-116298205D01*
X155366750Y-116316149D01*
X155375140Y-116337558D01*
X155384856Y-116362624D01*
X155395970Y-116391541D01*
X155408557Y-116424500D01*
X155422689Y-116461695D01*
X155438439Y-116503318D01*
X155455881Y-116549561D01*
X155475089Y-116600615D01*
X155496134Y-116656675D01*
X155519089Y-116717931D01*
X155544030Y-116784577D01*
X155571029Y-116856804D01*
X155600157Y-116934806D01*
X155631489Y-117018774D01*
X155647601Y-117061975D01*
X155673674Y-117131924D01*
X155699153Y-117200351D01*
X155723939Y-117266984D01*
X155747931Y-117331553D01*
X155771030Y-117393787D01*
X155793136Y-117453413D01*
X155814149Y-117510162D01*
X155833968Y-117563761D01*
X155852494Y-117613940D01*
X155869627Y-117660426D01*
X155885267Y-117702950D01*
X155899313Y-117741239D01*
X155911667Y-117775023D01*
X155922226Y-117804029D01*
X155930892Y-117827988D01*
X155937566Y-117846628D01*
X155942144Y-117859677D01*
X155944531Y-117866864D01*
X155944853Y-117868056D01*
X155947360Y-117897726D01*
X155943410Y-117926023D01*
X155932940Y-117953221D01*
X155919560Y-117974734D01*
X155899507Y-117996687D01*
X155875534Y-118013458D01*
X155848309Y-118024698D01*
X155818503Y-118030060D01*
X155812370Y-118030394D01*
X155799267Y-118030758D01*
X155790079Y-118030482D01*
X155782144Y-118029161D01*
X155772800Y-118026381D01*
X155762015Y-118022656D01*
X155748937Y-118016961D01*
X155734904Y-118009200D01*
X155727963Y-118004617D01*
X155724333Y-118002062D01*
X155720969Y-117999708D01*
X155717779Y-117997329D01*
X155714669Y-117994693D01*
X155711549Y-117991575D01*
X155708326Y-117987744D01*
X155704907Y-117982972D01*
X155701201Y-117977030D01*
X155697115Y-117969691D01*
X155692557Y-117960725D01*
X155687434Y-117949903D01*
X155681654Y-117936998D01*
X155675126Y-117921781D01*
X155667756Y-117904022D01*
X155659453Y-117883493D01*
X155650125Y-117859967D01*
X155639678Y-117833215D01*
X155628021Y-117803006D01*
X155615062Y-117769113D01*
X155600707Y-117731308D01*
X155584866Y-117689362D01*
X155567446Y-117643047D01*
X155548355Y-117592132D01*
X155527500Y-117536392D01*
X155504788Y-117475595D01*
X155480129Y-117409514D01*
X155453429Y-117337921D01*
X155424597Y-117260587D01*
X155393539Y-117177283D01*
X155387052Y-117159885D01*
X155361018Y-117090023D01*
X155335580Y-117021688D01*
X155310837Y-116955147D01*
X155286892Y-116890677D01*
X155263842Y-116828544D01*
X155241789Y-116769022D01*
X155220831Y-116712384D01*
X155201069Y-116658897D01*
X155182604Y-116608835D01*
X155165535Y-116562471D01*
X155149960Y-116520073D01*
X155135982Y-116481914D01*
X155123701Y-116448266D01*
X155113214Y-116419399D01*
X155104624Y-116395585D01*
X155098028Y-116377094D01*
X155093529Y-116364200D01*
X155091226Y-116357174D01*
X155090944Y-116356080D01*
X155088989Y-116325804D01*
X155093218Y-116296994D01*
X155103192Y-116270350D01*
X155118469Y-116246569D01*
X155138612Y-116226348D01*
X155163180Y-116210387D01*
X155189053Y-116200141D01*
X155201608Y-116196627D01*
X155211279Y-116194641D01*
X155220238Y-116194120D01*
X155230648Y-116194998D01*
G37*
G36*
X151692920Y-115802416D02*
G01*
X151720383Y-115809155D01*
X151745936Y-115821250D01*
X151765678Y-115836043D01*
X151768904Y-115839974D01*
X151775762Y-115849135D01*
X151786087Y-115863289D01*
X151799714Y-115882200D01*
X151816479Y-115905631D01*
X151836217Y-115933348D01*
X151858762Y-115965114D01*
X151883950Y-116000693D01*
X151911616Y-116039849D01*
X151941595Y-116082346D01*
X151973722Y-116127948D01*
X152007833Y-116176420D01*
X152043763Y-116227524D01*
X152081345Y-116281026D01*
X152120417Y-116336690D01*
X152160812Y-116394278D01*
X152202367Y-116453557D01*
X152244916Y-116514288D01*
X152288294Y-116576237D01*
X152332337Y-116639167D01*
X152376879Y-116702842D01*
X152421757Y-116767027D01*
X152466803Y-116831484D01*
X152511856Y-116895980D01*
X152556748Y-116960278D01*
X152601315Y-117024140D01*
X152645393Y-117087332D01*
X152688817Y-117149618D01*
X152731420Y-117210762D01*
X152773040Y-117270526D01*
X152813511Y-117328677D01*
X152852668Y-117384977D01*
X152890346Y-117439191D01*
X152926381Y-117491083D01*
X152960606Y-117540415D01*
X152992859Y-117586954D01*
X153022974Y-117630464D01*
X153050785Y-117670706D01*
X153076129Y-117707446D01*
X153098839Y-117740448D01*
X153118752Y-117769476D01*
X153135703Y-117794295D01*
X153149525Y-117814666D01*
X153160056Y-117830355D01*
X153167130Y-117841127D01*
X153170581Y-117846745D01*
X153170874Y-117847356D01*
X153178019Y-117876158D01*
X153178848Y-117904984D01*
X153173653Y-117932985D01*
X153162725Y-117959304D01*
X153146356Y-117983087D01*
X153124838Y-118003481D01*
X153115191Y-118010282D01*
X153089020Y-118023398D01*
X153060973Y-118030599D01*
X153032174Y-118031857D01*
X153003753Y-118027145D01*
X152976837Y-118016435D01*
X152972151Y-118013816D01*
X152959300Y-118005134D01*
X152946468Y-117994657D01*
X152939494Y-117987872D01*
X152936346Y-117983799D01*
X152929578Y-117974517D01*
X152919355Y-117960265D01*
X152905839Y-117941275D01*
X152889197Y-117917785D01*
X152869591Y-117890030D01*
X152847188Y-117858246D01*
X152822150Y-117822667D01*
X152794642Y-117783529D01*
X152764829Y-117741069D01*
X152732875Y-117695523D01*
X152698945Y-117647123D01*
X152663201Y-117596108D01*
X152625811Y-117542712D01*
X152586937Y-117487172D01*
X152546744Y-117429720D01*
X152505397Y-117370596D01*
X152463059Y-117310033D01*
X152419895Y-117248267D01*
X152376069Y-117185534D01*
X152331747Y-117122069D01*
X152287092Y-117058109D01*
X152242268Y-116993886D01*
X152197440Y-116929640D01*
X152152772Y-116865604D01*
X152108430Y-116802014D01*
X152064577Y-116739106D01*
X152021377Y-116677115D01*
X151978995Y-116616276D01*
X151937594Y-116556826D01*
X151897341Y-116499000D01*
X151858399Y-116443033D01*
X151820932Y-116389161D01*
X151785105Y-116337620D01*
X151751083Y-116288645D01*
X151719028Y-116242472D01*
X151689107Y-116199336D01*
X151661482Y-116159472D01*
X151636320Y-116123118D01*
X151613783Y-116090507D01*
X151594037Y-116061875D01*
X151577246Y-116037458D01*
X151563574Y-116017493D01*
X151553185Y-116002214D01*
X151546245Y-115991855D01*
X151542916Y-115986655D01*
X151542651Y-115986146D01*
X151536016Y-115959700D01*
X151535034Y-115931667D01*
X151539496Y-115903633D01*
X151549194Y-115877189D01*
X151559165Y-115860219D01*
X151568380Y-115848333D01*
X151578565Y-115837055D01*
X151586370Y-115829805D01*
X151610271Y-115814728D01*
X151636743Y-115805164D01*
X151664666Y-115801072D01*
X151692920Y-115802416D01*
G37*
G36*
X153985380Y-115872566D02*
G01*
X154012501Y-115880182D01*
X154038355Y-115893756D01*
X154043187Y-115897125D01*
X154046894Y-115900724D01*
X154054151Y-115908718D01*
X154064998Y-115921158D01*
X154079477Y-115938091D01*
X154097629Y-115959570D01*
X154119495Y-115985643D01*
X154145116Y-116016360D01*
X154174533Y-116051770D01*
X154207789Y-116091924D01*
X154244923Y-116136870D01*
X154285977Y-116186660D01*
X154330992Y-116241342D01*
X154380010Y-116300966D01*
X154433072Y-116365583D01*
X154490218Y-116435241D01*
X154551491Y-116509990D01*
X154600404Y-116569701D01*
X154648170Y-116628037D01*
X154694941Y-116685179D01*
X154740533Y-116740902D01*
X154784759Y-116794978D01*
X154827438Y-116847184D01*
X154868383Y-116897292D01*
X154907413Y-116945075D01*
X154944340Y-116990310D01*
X154978981Y-117032768D01*
X155011152Y-117072225D01*
X155040669Y-117108455D01*
X155067348Y-117141231D01*
X155091004Y-117170327D01*
X155111454Y-117195517D01*
X155128511Y-117216576D01*
X155141992Y-117233278D01*
X155151714Y-117245395D01*
X155157492Y-117252704D01*
X155158893Y-117254552D01*
X155173509Y-117277792D01*
X155182603Y-117299911D01*
X155186642Y-117322705D01*
X155186101Y-117347969D01*
X155185277Y-117355093D01*
X155182812Y-117371488D01*
X155180024Y-117383601D01*
X155176201Y-117393805D01*
X155170627Y-117404473D01*
X155170187Y-117405240D01*
X155152765Y-117430041D01*
X155132020Y-117449301D01*
X155107258Y-117463550D01*
X155082029Y-117472248D01*
X155061963Y-117475131D01*
X155038948Y-117474680D01*
X155015616Y-117471198D01*
X154994605Y-117464987D01*
X154986304Y-117461224D01*
X154974878Y-117454142D01*
X154962510Y-117444868D01*
X154956291Y-117439478D01*
X154952870Y-117435682D01*
X154945452Y-117426987D01*
X154934253Y-117413657D01*
X154919489Y-117395957D01*
X154901379Y-117374152D01*
X154880141Y-117348508D01*
X154855989Y-117319289D01*
X154829142Y-117286761D01*
X154799818Y-117251187D01*
X154768233Y-117212835D01*
X154734604Y-117171968D01*
X154699148Y-117128851D01*
X154662084Y-117083751D01*
X154623626Y-117036932D01*
X154583994Y-116988657D01*
X154543404Y-116939194D01*
X154502073Y-116888807D01*
X154460219Y-116837760D01*
X154418058Y-116786320D01*
X154375808Y-116734751D01*
X154333686Y-116683317D01*
X154291909Y-116632285D01*
X154250694Y-116581919D01*
X154210259Y-116532485D01*
X154170820Y-116484245D01*
X154132595Y-116437469D01*
X154095800Y-116392417D01*
X154060655Y-116349358D01*
X154027373Y-116308556D01*
X153996174Y-116270274D01*
X153967274Y-116234779D01*
X153940892Y-116202336D01*
X153917243Y-116173210D01*
X153896545Y-116147664D01*
X153879015Y-116125967D01*
X153864870Y-116108380D01*
X153854327Y-116095171D01*
X153847605Y-116086603D01*
X153845036Y-116083139D01*
X153833164Y-116059113D01*
X153825966Y-116032245D01*
X153823677Y-116004403D01*
X153826528Y-115977458D01*
X153830265Y-115964002D01*
X153842856Y-115937267D01*
X153860028Y-115914652D01*
X153880947Y-115896420D01*
X153904778Y-115882833D01*
X153930682Y-115874153D01*
X153957829Y-115870644D01*
X153985380Y-115872566D01*
G37*
G36*
X150550086Y-116404805D02*
G01*
X150577010Y-116415109D01*
X150595343Y-116426464D01*
X150598804Y-116429880D01*
X150606406Y-116438016D01*
X150617894Y-116450582D01*
X150633013Y-116467287D01*
X150651506Y-116487841D01*
X150673118Y-116511956D01*
X150697590Y-116539340D01*
X150724669Y-116569705D01*
X150754096Y-116602759D01*
X150785617Y-116638212D01*
X150818976Y-116675776D01*
X150853916Y-116715160D01*
X150890180Y-116756074D01*
X150927514Y-116798227D01*
X150965660Y-116841332D01*
X151004363Y-116885096D01*
X151043366Y-116929230D01*
X151082412Y-116973444D01*
X151121248Y-117017448D01*
X151159614Y-117060953D01*
X151197258Y-117103668D01*
X151233920Y-117145304D01*
X151269346Y-117185569D01*
X151303278Y-117224175D01*
X151335463Y-117260832D01*
X151365642Y-117295249D01*
X151393560Y-117327137D01*
X151418961Y-117356204D01*
X151441588Y-117382163D01*
X151461187Y-117404722D01*
X151477499Y-117423592D01*
X151490269Y-117438482D01*
X151499241Y-117449104D01*
X151504159Y-117455165D01*
X151504613Y-117455776D01*
X151517679Y-117479206D01*
X151526053Y-117505672D01*
X151529394Y-117533303D01*
X151527360Y-117560231D01*
X151525335Y-117569068D01*
X151514535Y-117596802D01*
X151498828Y-117620822D01*
X151479018Y-117640739D01*
X151455906Y-117656165D01*
X151430295Y-117666711D01*
X151402990Y-117671990D01*
X151374792Y-117671611D01*
X151346506Y-117665187D01*
X151335538Y-117660922D01*
X151323368Y-117654484D01*
X151310343Y-117645955D01*
X151304304Y-117641318D01*
X151301083Y-117637987D01*
X151293712Y-117629943D01*
X151282449Y-117617480D01*
X151267550Y-117600888D01*
X151249273Y-117580458D01*
X151227877Y-117556479D01*
X151203616Y-117529245D01*
X151176750Y-117499043D01*
X151147535Y-117466168D01*
X151116228Y-117430909D01*
X151083087Y-117393557D01*
X151048370Y-117354402D01*
X151012334Y-117313736D01*
X150975235Y-117271850D01*
X150937332Y-117229035D01*
X150898881Y-117185581D01*
X150860140Y-117141780D01*
X150821366Y-117097922D01*
X150782816Y-117054299D01*
X150744749Y-117011200D01*
X150707421Y-116968919D01*
X150671089Y-116927743D01*
X150636010Y-116887965D01*
X150602443Y-116849878D01*
X150570644Y-116813769D01*
X150540871Y-116779931D01*
X150513381Y-116748655D01*
X150488431Y-116720231D01*
X150466279Y-116694951D01*
X150447182Y-116673104D01*
X150431397Y-116654984D01*
X150419181Y-116640880D01*
X150411957Y-116632453D01*
X150393826Y-116606426D01*
X150382024Y-116578565D01*
X150376641Y-116549200D01*
X150377770Y-116518660D01*
X150378706Y-116512879D01*
X150386825Y-116484102D01*
X150400175Y-116459345D01*
X150419056Y-116438158D01*
X150438073Y-116423651D01*
X150464856Y-116409896D01*
X150493075Y-116402181D01*
X150521797Y-116400489D01*
X150550086Y-116404805D01*
G37*
G36*
X152041834Y-115649575D02*
G01*
X152055711Y-115651945D01*
X152073331Y-115655483D01*
X152086408Y-115659150D01*
X152097044Y-115663639D01*
X152105284Y-115668338D01*
X152108794Y-115671415D01*
X152116816Y-115679030D01*
X152129157Y-115690991D01*
X152145629Y-115707108D01*
X152166039Y-115727190D01*
X152190200Y-115751046D01*
X152217920Y-115778487D01*
X152249009Y-115809322D01*
X152283277Y-115843358D01*
X152320535Y-115880408D01*
X152360590Y-115920279D01*
X152403253Y-115962781D01*
X152448335Y-116007724D01*
X152495643Y-116054918D01*
X152544991Y-116104171D01*
X152596185Y-116155293D01*
X152649037Y-116208093D01*
X152703356Y-116262381D01*
X152758951Y-116317967D01*
X152815633Y-116374659D01*
X152873212Y-116432267D01*
X152931496Y-116490602D01*
X152990296Y-116549470D01*
X153049423Y-116608684D01*
X153108684Y-116668052D01*
X153167891Y-116727382D01*
X153226854Y-116786486D01*
X153285380Y-116845173D01*
X153343282Y-116903249D01*
X153400369Y-116960529D01*
X153456448Y-117016818D01*
X153511332Y-117071927D01*
X153564830Y-117125666D01*
X153616753Y-117177843D01*
X153666907Y-117228269D01*
X153715107Y-117276752D01*
X153761157Y-117323103D01*
X153804871Y-117367130D01*
X153846058Y-117408644D01*
X153884527Y-117447452D01*
X153920088Y-117483366D01*
X153952550Y-117516195D01*
X153981725Y-117545747D01*
X154007422Y-117571831D01*
X154029449Y-117594259D01*
X154047617Y-117612839D01*
X154061736Y-117627381D01*
X154071616Y-117637693D01*
X154077067Y-117643586D01*
X154077945Y-117644639D01*
X154092741Y-117669579D01*
X154101507Y-117696498D01*
X154104258Y-117724561D01*
X154101006Y-117752933D01*
X154091768Y-117780779D01*
X154076555Y-117807262D01*
X154075212Y-117809117D01*
X154055215Y-117831055D01*
X154031789Y-117847395D01*
X154005426Y-117857936D01*
X153976615Y-117862475D01*
X153949162Y-117861283D01*
X153931355Y-117858189D01*
X153915796Y-117854119D01*
X153906818Y-117850668D01*
X153895836Y-117844359D01*
X153883633Y-117835923D01*
X153877580Y-117831139D01*
X153873815Y-117827590D01*
X153865554Y-117819520D01*
X153852988Y-117807120D01*
X153836307Y-117790582D01*
X153815704Y-117770096D01*
X153791367Y-117745855D01*
X153763490Y-117718050D01*
X153732261Y-117686873D01*
X153697871Y-117652514D01*
X153660513Y-117615167D01*
X153620377Y-117575020D01*
X153577652Y-117532267D01*
X153532530Y-117487101D01*
X153485204Y-117439710D01*
X153435860Y-117390287D01*
X153384694Y-117339024D01*
X153331893Y-117286112D01*
X153277649Y-117231743D01*
X153222154Y-117176107D01*
X153165599Y-117119398D01*
X153108172Y-117061805D01*
X153050066Y-117003520D01*
X152991472Y-116944737D01*
X152932579Y-116885644D01*
X152873580Y-116826435D01*
X152814664Y-116767301D01*
X152756024Y-116708432D01*
X152697849Y-116650022D01*
X152640329Y-116592259D01*
X152583658Y-116535339D01*
X152528024Y-116479450D01*
X152473619Y-116424785D01*
X152420634Y-116371535D01*
X152369259Y-116319892D01*
X152319686Y-116270047D01*
X152272105Y-116222192D01*
X152226705Y-116176517D01*
X152183681Y-116133216D01*
X152143221Y-116092479D01*
X152105516Y-116054497D01*
X152070757Y-116019463D01*
X152039135Y-115987567D01*
X152010842Y-115959002D01*
X151986067Y-115933959D01*
X151965002Y-115912628D01*
X151947836Y-115895202D01*
X151934762Y-115881874D01*
X151925971Y-115872833D01*
X151921651Y-115868270D01*
X151921298Y-115867857D01*
X151907984Y-115845873D01*
X151899161Y-115820464D01*
X151895089Y-115793361D01*
X151896025Y-115766289D01*
X151902230Y-115740978D01*
X151902242Y-115740945D01*
X151916079Y-115712970D01*
X151934810Y-115689423D01*
X151958056Y-115670646D01*
X151985444Y-115656985D01*
X151998989Y-115652604D01*
X152010727Y-115649632D01*
X152020277Y-115648154D01*
X152029894Y-115648144D01*
X152041834Y-115649575D01*
G37*
G36*
X150916448Y-115900391D02*
G01*
X150943763Y-115910144D01*
X150964893Y-115922814D01*
X150968616Y-115926559D01*
X150976555Y-115935419D01*
X150988682Y-115949367D01*
X151004975Y-115968374D01*
X151025408Y-115992408D01*
X151049958Y-116021442D01*
X151078599Y-116055447D01*
X151111308Y-116094393D01*
X151148058Y-116138251D01*
X151188828Y-116186991D01*
X151233591Y-116240584D01*
X151282323Y-116299001D01*
X151335000Y-116362213D01*
X151391597Y-116430190D01*
X151452091Y-116502904D01*
X151516455Y-116580325D01*
X151584667Y-116662423D01*
X151656701Y-116749170D01*
X151724329Y-116830650D01*
X151780482Y-116898324D01*
X151835597Y-116964758D01*
X151889518Y-117029766D01*
X151942089Y-117093157D01*
X151993156Y-117154744D01*
X152042562Y-117214340D01*
X152090150Y-117271756D01*
X152135767Y-117326803D01*
X152179254Y-117379295D01*
X152220459Y-117429042D01*
X152259223Y-117475858D01*
X152295393Y-117519552D01*
X152328811Y-117559939D01*
X152359323Y-117596829D01*
X152386772Y-117630034D01*
X152411002Y-117659366D01*
X152431859Y-117684636D01*
X152449185Y-117705660D01*
X152462827Y-117722244D01*
X152472628Y-117734205D01*
X152478431Y-117741352D01*
X152480015Y-117743367D01*
X152493001Y-117766570D01*
X152501334Y-117793058D01*
X152504527Y-117820907D01*
X152503824Y-117836980D01*
X152497658Y-117866243D01*
X152486198Y-117892277D01*
X152470180Y-117914698D01*
X152450337Y-117933128D01*
X152427404Y-117947186D01*
X152402113Y-117956490D01*
X152375199Y-117960660D01*
X152347396Y-117959316D01*
X152319438Y-117952076D01*
X152299518Y-117942942D01*
X152287048Y-117935187D01*
X152275289Y-117926395D01*
X152268066Y-117919760D01*
X152264161Y-117915270D01*
X152256232Y-117905916D01*
X152244467Y-117891925D01*
X152229052Y-117873522D01*
X152210176Y-117850934D01*
X152188025Y-117824386D01*
X152162788Y-117794106D01*
X152134652Y-117760318D01*
X152103803Y-117723249D01*
X152070430Y-117683124D01*
X152034719Y-117640170D01*
X151996859Y-117594613D01*
X151957035Y-117546679D01*
X151915437Y-117496594D01*
X151872252Y-117444584D01*
X151827666Y-117390875D01*
X151781867Y-117335693D01*
X151735044Y-117279264D01*
X151687382Y-117221815D01*
X151639069Y-117163571D01*
X151590293Y-117104757D01*
X151541241Y-117045602D01*
X151492101Y-116986329D01*
X151443059Y-116927167D01*
X151394305Y-116868339D01*
X151346024Y-116810073D01*
X151298404Y-116752594D01*
X151251632Y-116696130D01*
X151205897Y-116640904D01*
X151161385Y-116587145D01*
X151118284Y-116535076D01*
X151076781Y-116484926D01*
X151037063Y-116436920D01*
X150999319Y-116391284D01*
X150963734Y-116348243D01*
X150930498Y-116308024D01*
X150899797Y-116270854D01*
X150871818Y-116236957D01*
X150846750Y-116206561D01*
X150824778Y-116179890D01*
X150806092Y-116157171D01*
X150790878Y-116138632D01*
X150779323Y-116124496D01*
X150771615Y-116114991D01*
X150767942Y-116110341D01*
X150767705Y-116110011D01*
X150754169Y-116083837D01*
X150746715Y-116056274D01*
X150745167Y-116028222D01*
X150749344Y-116000577D01*
X150759070Y-115974239D01*
X150774164Y-115950104D01*
X150794449Y-115929073D01*
X150805340Y-115920780D01*
X150831338Y-115906748D01*
X150859208Y-115898680D01*
X150887920Y-115896566D01*
X150916448Y-115900391D01*
G37*
G36*
X153100752Y-115659636D02*
G01*
X153121607Y-115665046D01*
X153137082Y-115671231D01*
X153150820Y-115678623D01*
X153163723Y-115688037D01*
X153176696Y-115700286D01*
X153190645Y-115716189D01*
X153206470Y-115736560D01*
X153217336Y-115751396D01*
X153222091Y-115757956D01*
X153230626Y-115769697D01*
X153242790Y-115786411D01*
X153258434Y-115807893D01*
X153277408Y-115833938D01*
X153299561Y-115864340D01*
X153324746Y-115898894D01*
X153352809Y-115937393D01*
X153383603Y-115979632D01*
X153416977Y-116025405D01*
X153452780Y-116074507D01*
X153490864Y-116126732D01*
X153531077Y-116181874D01*
X153573271Y-116239727D01*
X153617296Y-116300087D01*
X153662999Y-116362747D01*
X153710234Y-116427501D01*
X153758849Y-116494145D01*
X153808694Y-116562472D01*
X153859618Y-116632276D01*
X153911474Y-116703352D01*
X153949519Y-116755497D01*
X154001786Y-116827138D01*
X154053151Y-116897553D01*
X154103468Y-116966542D01*
X154152592Y-117033904D01*
X154200376Y-117099438D01*
X154246676Y-117162945D01*
X154291344Y-117224226D01*
X154334235Y-117283078D01*
X154375204Y-117339303D01*
X154414105Y-117392701D01*
X154450792Y-117443071D01*
X154485119Y-117490212D01*
X154516941Y-117533925D01*
X154546111Y-117574011D01*
X154572485Y-117610267D01*
X154595915Y-117642496D01*
X154616258Y-117670494D01*
X154633365Y-117694065D01*
X154647093Y-117713007D01*
X154657295Y-117727119D01*
X154663825Y-117736203D01*
X154666270Y-117739658D01*
X154681022Y-117763268D01*
X154690955Y-117784799D01*
X154696683Y-117806030D01*
X154698824Y-117828740D01*
X154698875Y-117833814D01*
X154695613Y-117861856D01*
X154686380Y-117888298D01*
X154671829Y-117912321D01*
X154652611Y-117933101D01*
X154629378Y-117949815D01*
X154602782Y-117961642D01*
X154596041Y-117963642D01*
X154568560Y-117967854D01*
X154540267Y-117966399D01*
X154513066Y-117959512D01*
X154495162Y-117951283D01*
X154482876Y-117943632D01*
X154471287Y-117935263D01*
X154464274Y-117929259D01*
X154461541Y-117925817D01*
X154455022Y-117917173D01*
X154444853Y-117903513D01*
X154431170Y-117885028D01*
X154414112Y-117861902D01*
X154393815Y-117834324D01*
X154370417Y-117802480D01*
X154344053Y-117766558D01*
X154314862Y-117726745D01*
X154282980Y-117683230D01*
X154248545Y-117636199D01*
X154211694Y-117585840D01*
X154172564Y-117532338D01*
X154131292Y-117475883D01*
X154088015Y-117416662D01*
X154042870Y-117354862D01*
X153995993Y-117290669D01*
X153947524Y-117224272D01*
X153897598Y-117155858D01*
X153846352Y-117085614D01*
X153793925Y-117013728D01*
X153740451Y-116940386D01*
X153704645Y-116891264D01*
X153636380Y-116797592D01*
X153571965Y-116709175D01*
X153511308Y-116625892D01*
X153454323Y-116547620D01*
X153400920Y-116474234D01*
X153351010Y-116405614D01*
X153304505Y-116341635D01*
X153261315Y-116282173D01*
X153221351Y-116227107D01*
X153184526Y-116176314D01*
X153150750Y-116129669D01*
X153119934Y-116087052D01*
X153091988Y-116048336D01*
X153066826Y-116013401D01*
X153044357Y-115982123D01*
X153024492Y-115954379D01*
X153007143Y-115930045D01*
X152992221Y-115908999D01*
X152979638Y-115891120D01*
X152969303Y-115876281D01*
X152961128Y-115864361D01*
X152955025Y-115855237D01*
X152950905Y-115848785D01*
X152948678Y-115844883D01*
X152948340Y-115844124D01*
X152941503Y-115817519D01*
X152940095Y-115789248D01*
X152944166Y-115761592D01*
X152946293Y-115754274D01*
X152958194Y-115727731D01*
X152974930Y-115704792D01*
X152995631Y-115685901D01*
X153019431Y-115671499D01*
X153045464Y-115662026D01*
X153072860Y-115657925D01*
X153100752Y-115659636D01*
G37*
%TO.C,G4*%
G36*
X126890708Y-113196230D02*
G01*
X126957578Y-113206923D01*
X127023256Y-113223748D01*
X127087182Y-113246534D01*
X127148798Y-113275108D01*
X127207545Y-113309299D01*
X127262866Y-113348934D01*
X127265621Y-113351127D01*
X127297888Y-113379063D01*
X127330503Y-113411191D01*
X127361714Y-113445614D01*
X127389767Y-113480436D01*
X127405747Y-113502783D01*
X127414127Y-113514867D01*
X127419797Y-113522008D01*
X127423524Y-113524952D01*
X127426071Y-113524447D01*
X127426929Y-113523450D01*
X127430311Y-113518641D01*
X127436553Y-113509770D01*
X127444676Y-113498225D01*
X127451356Y-113488731D01*
X127491857Y-113436907D01*
X127537276Y-113389334D01*
X127587200Y-113346259D01*
X127641216Y-113307933D01*
X127698911Y-113274602D01*
X127759871Y-113246517D01*
X127823683Y-113223924D01*
X127889933Y-113207072D01*
X127932288Y-113199582D01*
X127993143Y-113193366D01*
X128055015Y-113192333D01*
X128117036Y-113196309D01*
X128178336Y-113205121D01*
X128238045Y-113218593D01*
X128295296Y-113236552D01*
X128349219Y-113258824D01*
X128398944Y-113285234D01*
X128417288Y-113296801D01*
X128436828Y-113309983D01*
X128452543Y-113321295D01*
X128466338Y-113332275D01*
X128480119Y-113344459D01*
X128495792Y-113359384D01*
X128500103Y-113363601D01*
X128537447Y-113404630D01*
X128569369Y-113449180D01*
X128596031Y-113497540D01*
X128617595Y-113549997D01*
X128631944Y-113597655D01*
X128638530Y-113625157D01*
X128643425Y-113650345D01*
X128646835Y-113675043D01*
X128648964Y-113701073D01*
X128650014Y-113730259D01*
X128650205Y-113760931D01*
X128647358Y-113827837D01*
X128639213Y-113894852D01*
X128625658Y-113962294D01*
X128606585Y-114030478D01*
X128581883Y-114099723D01*
X128551442Y-114170346D01*
X128515151Y-114242665D01*
X128472901Y-114316995D01*
X128437230Y-114374264D01*
X128402382Y-114424098D01*
X128361291Y-114475348D01*
X128314183Y-114527825D01*
X128261284Y-114581341D01*
X128202823Y-114635708D01*
X128139025Y-114690737D01*
X128070118Y-114746239D01*
X127996329Y-114802027D01*
X127917884Y-114857912D01*
X127835011Y-114913705D01*
X127747936Y-114969220D01*
X127656887Y-115024266D01*
X127647288Y-115029904D01*
X127625631Y-115042499D01*
X127602176Y-115055979D01*
X127577625Y-115069955D01*
X127552677Y-115084041D01*
X127528032Y-115097848D01*
X127504392Y-115110987D01*
X127482457Y-115123072D01*
X127462926Y-115133714D01*
X127446500Y-115142526D01*
X127433880Y-115149118D01*
X127425766Y-115153105D01*
X127422960Y-115154157D01*
X127419512Y-115152588D01*
X127411040Y-115148231D01*
X127398358Y-115141519D01*
X127382277Y-115132885D01*
X127363611Y-115122762D01*
X127347288Y-115113841D01*
X127239444Y-115053204D01*
X127136820Y-114992435D01*
X127039551Y-114931635D01*
X126947769Y-114870906D01*
X126861609Y-114810350D01*
X126781205Y-114750066D01*
X126706689Y-114690158D01*
X126638197Y-114630727D01*
X126575861Y-114571873D01*
X126519816Y-114513699D01*
X126470195Y-114456306D01*
X126454856Y-114437045D01*
X126434705Y-114410205D01*
X126414596Y-114381359D01*
X126393687Y-114349249D01*
X126371138Y-114312614D01*
X126365144Y-114302597D01*
X126324654Y-114230094D01*
X126289608Y-114157863D01*
X126260041Y-114086163D01*
X126235989Y-114015253D01*
X126217485Y-113945392D01*
X126204565Y-113876838D01*
X126197263Y-113809850D01*
X126195615Y-113744687D01*
X126199654Y-113681608D01*
X126209416Y-113620871D01*
X126224935Y-113562736D01*
X126246246Y-113507461D01*
X126255702Y-113487597D01*
X126283406Y-113439751D01*
X126316479Y-113395637D01*
X126354666Y-113355403D01*
X126397715Y-113319198D01*
X126445369Y-113287173D01*
X126497376Y-113259475D01*
X126553482Y-113236255D01*
X126613432Y-113217662D01*
X126676973Y-113203844D01*
X126743851Y-113194951D01*
X126755621Y-113193933D01*
X126823202Y-113191843D01*
X126890708Y-113196230D01*
G37*
G36*
X124985708Y-110910234D02*
G01*
X125052578Y-110920927D01*
X125118256Y-110937752D01*
X125182182Y-110960538D01*
X125243798Y-110989112D01*
X125302545Y-111023303D01*
X125357866Y-111062938D01*
X125360621Y-111065131D01*
X125392888Y-111093067D01*
X125425503Y-111125195D01*
X125456714Y-111159618D01*
X125484767Y-111194440D01*
X125500747Y-111216787D01*
X125509127Y-111228871D01*
X125514797Y-111236012D01*
X125518524Y-111238956D01*
X125521071Y-111238451D01*
X125521929Y-111237454D01*
X125525311Y-111232645D01*
X125531553Y-111223774D01*
X125539676Y-111212229D01*
X125546356Y-111202735D01*
X125586857Y-111150911D01*
X125632276Y-111103338D01*
X125682200Y-111060263D01*
X125736216Y-111021937D01*
X125793911Y-110988606D01*
X125854871Y-110960521D01*
X125918683Y-110937928D01*
X125984933Y-110921076D01*
X126027288Y-110913586D01*
X126088143Y-110907370D01*
X126150015Y-110906337D01*
X126212036Y-110910313D01*
X126273336Y-110919125D01*
X126333045Y-110932597D01*
X126390296Y-110950556D01*
X126444219Y-110972828D01*
X126493944Y-110999238D01*
X126512288Y-111010805D01*
X126531828Y-111023987D01*
X126547543Y-111035299D01*
X126561338Y-111046279D01*
X126575119Y-111058463D01*
X126590792Y-111073388D01*
X126595103Y-111077605D01*
X126632447Y-111118634D01*
X126664369Y-111163184D01*
X126691031Y-111211544D01*
X126712595Y-111264001D01*
X126726944Y-111311659D01*
X126733530Y-111339161D01*
X126738425Y-111364349D01*
X126741835Y-111389047D01*
X126743964Y-111415077D01*
X126745014Y-111444263D01*
X126745205Y-111474935D01*
X126742358Y-111541841D01*
X126734213Y-111608856D01*
X126720658Y-111676298D01*
X126701585Y-111744482D01*
X126676883Y-111813727D01*
X126646442Y-111884350D01*
X126610151Y-111956669D01*
X126567901Y-112030999D01*
X126532230Y-112088268D01*
X126497382Y-112138102D01*
X126456291Y-112189352D01*
X126409183Y-112241829D01*
X126356284Y-112295345D01*
X126297823Y-112349712D01*
X126234025Y-112404741D01*
X126165118Y-112460243D01*
X126091329Y-112516031D01*
X126012884Y-112571916D01*
X125930011Y-112627709D01*
X125842936Y-112683224D01*
X125751887Y-112738270D01*
X125742288Y-112743908D01*
X125720631Y-112756503D01*
X125697176Y-112769983D01*
X125672625Y-112783959D01*
X125647677Y-112798045D01*
X125623032Y-112811852D01*
X125599392Y-112824991D01*
X125577457Y-112837076D01*
X125557926Y-112847718D01*
X125541500Y-112856530D01*
X125528880Y-112863122D01*
X125520766Y-112867109D01*
X125517960Y-112868161D01*
X125514512Y-112866592D01*
X125506040Y-112862235D01*
X125493358Y-112855523D01*
X125477277Y-112846889D01*
X125458611Y-112836766D01*
X125442288Y-112827845D01*
X125334444Y-112767208D01*
X125231820Y-112706439D01*
X125134551Y-112645639D01*
X125042769Y-112584910D01*
X124956609Y-112524354D01*
X124876205Y-112464070D01*
X124801689Y-112404162D01*
X124733197Y-112344731D01*
X124670861Y-112285877D01*
X124614816Y-112227703D01*
X124565195Y-112170310D01*
X124549856Y-112151049D01*
X124529705Y-112124209D01*
X124509596Y-112095363D01*
X124488687Y-112063253D01*
X124466138Y-112026618D01*
X124460144Y-112016601D01*
X124419654Y-111944098D01*
X124384608Y-111871867D01*
X124355041Y-111800167D01*
X124330989Y-111729257D01*
X124312485Y-111659396D01*
X124299565Y-111590842D01*
X124292263Y-111523854D01*
X124290615Y-111458691D01*
X124294654Y-111395612D01*
X124304416Y-111334875D01*
X124319935Y-111276740D01*
X124341246Y-111221465D01*
X124350702Y-111201601D01*
X124378406Y-111153755D01*
X124411479Y-111109641D01*
X124449666Y-111069407D01*
X124492715Y-111033202D01*
X124540369Y-111001177D01*
X124592376Y-110973479D01*
X124648482Y-110950259D01*
X124708432Y-110931666D01*
X124771973Y-110917848D01*
X124838851Y-110908955D01*
X124850621Y-110907937D01*
X124918202Y-110905847D01*
X124985708Y-110910234D01*
G37*
%TD*%
D13*
%TO.C,D1*%
X160346500Y-93472000D03*
D14*
X162886500Y-93472000D03*
%TD*%
D15*
%TO.C,REF\u002A\u002A*%
X144974800Y-75394000D03*
%TD*%
D13*
%TO.C,D3*%
X136216500Y-83058000D03*
D14*
X138756500Y-83058000D03*
%TD*%
D13*
%TO.C,D5*%
X143836500Y-81788000D03*
D14*
X146376500Y-81788000D03*
%TD*%
D13*
%TO.C,D11*%
X141042500Y-91567000D03*
D14*
X143582500Y-91567000D03*
%TD*%
D13*
%TO.C,D4*%
X127000000Y-93726000D03*
D14*
X129540000Y-93726000D03*
%TD*%
D13*
%TO.C,D8*%
X146884500Y-91567000D03*
D14*
X149424500Y-91567000D03*
%TD*%
D13*
%TO.C,D7*%
X156536500Y-88392000D03*
D14*
X159076500Y-88392000D03*
%TD*%
D13*
%TO.C,D10*%
X150948500Y-95123000D03*
D14*
X153488500Y-95123000D03*
%TD*%
D13*
%TO.C,D9*%
X136470500Y-95250000D03*
D14*
X139010500Y-95250000D03*
%TD*%
D13*
%TO.C,D6*%
X130628500Y-87884000D03*
D14*
X133168500Y-87884000D03*
%TD*%
D13*
%TO.C,D2*%
X150948500Y-83312000D03*
D14*
X153488500Y-83312000D03*
%TD*%
D16*
%TO.C,R4*%
X120742778Y-96334811D03*
D17*
X124875222Y-87053189D03*
%TD*%
D16*
%TO.C,R1*%
X138003409Y-76454000D03*
D18*
X129204591Y-81534000D03*
%TD*%
D16*
%TO.C,R3*%
X169278901Y-96467639D03*
D19*
X165803976Y-86920362D03*
%TD*%
D20*
%TO.C,SW1*%
X162303158Y-111398438D03*
X160374795Y-113696572D03*
X158446432Y-115994705D03*
%TD*%
D21*
%TO.C,BT1*%
X133604000Y-112395000D03*
X154686000Y-112395000D03*
%TD*%
D16*
%TO.C,R2*%
X159290044Y-80378901D03*
D22*
X150081957Y-76085099D03*
%TD*%
M02*
