%TF.GenerationSoftware,KiCad,Pcbnew,(6.0.4)*%
%TF.CreationDate,2024-01-19T15:56:56-08:00*%
%TF.ProjectId,Alpenglow_RadiantRainbow_PCB,416c7065-6e67-46c6-9f77-5f5261646961,rev?*%
%TF.SameCoordinates,Original*%
%TF.FileFunction,Soldermask,Bot*%
%TF.FilePolarity,Negative*%
%FSLAX46Y46*%
G04 Gerber Fmt 4.6, Leading zero omitted, Abs format (unit mm)*
G04 Created by KiCad (PCBNEW (6.0.4)) date 2024-01-19 15:56:56*
%MOMM*%
%LPD*%
G01*
G04 APERTURE LIST*
G04 Aperture macros list*
%AMHorizOval*
0 Thick line with rounded ends*
0 $1 width*
0 $2 $3 position (X,Y) of the first rounded end (center of the circle)*
0 $4 $5 position (X,Y) of the second rounded end (center of the circle)*
0 Add line between two ends*
20,1,$1,$2,$3,$4,$5,0*
0 Add two circle primitives to create the rounded ends*
1,1,$1,$2,$3*
1,1,$1,$4,$5*%
G04 Aperture macros list end*
%ADD10R,1.800000X1.800000*%
%ADD11C,1.800000*%
%ADD12C,1.117600*%
%ADD13C,1.600000*%
%ADD14HorizOval,1.600000X0.000000X0.000000X0.000000X0.000000X0*%
%ADD15HorizOval,1.600000X0.000000X0.000000X0.000000X0.000000X0*%
%ADD16HorizOval,1.600000X0.000000X0.000000X0.000000X0.000000X0*%
%ADD17C,2.000000*%
%ADD18O,2.500000X4.000000*%
%ADD19C,17.272000*%
%ADD20HorizOval,1.600000X0.000000X0.000000X0.000000X0.000000X0*%
G04 APERTURE END LIST*
D10*
%TO.C,D1*%
X160346500Y-93472000D03*
D11*
X162886500Y-93472000D03*
%TD*%
D12*
%TO.C,REF\u002A\u002A*%
X144974800Y-75394000D03*
%TD*%
D10*
%TO.C,D3*%
X136216500Y-83058000D03*
D11*
X138756500Y-83058000D03*
%TD*%
D10*
%TO.C,D5*%
X143836500Y-81788000D03*
D11*
X146376500Y-81788000D03*
%TD*%
D10*
%TO.C,D11*%
X141042500Y-91567000D03*
D11*
X143582500Y-91567000D03*
%TD*%
D10*
%TO.C,D4*%
X127000000Y-93726000D03*
D11*
X129540000Y-93726000D03*
%TD*%
D10*
%TO.C,D8*%
X146884500Y-91567000D03*
D11*
X149424500Y-91567000D03*
%TD*%
D10*
%TO.C,D7*%
X156536500Y-88392000D03*
D11*
X159076500Y-88392000D03*
%TD*%
D10*
%TO.C,D10*%
X150948500Y-95123000D03*
D11*
X153488500Y-95123000D03*
%TD*%
D10*
%TO.C,D9*%
X136470500Y-95250000D03*
D11*
X139010500Y-95250000D03*
%TD*%
D10*
%TO.C,D6*%
X130628500Y-87884000D03*
D11*
X133168500Y-87884000D03*
%TD*%
D10*
%TO.C,D2*%
X150948500Y-83312000D03*
D11*
X153488500Y-83312000D03*
%TD*%
D13*
%TO.C,R4*%
X120742778Y-96334811D03*
D14*
X124875222Y-87053189D03*
%TD*%
D13*
%TO.C,R1*%
X138003409Y-76454000D03*
D15*
X129204591Y-81534000D03*
%TD*%
D13*
%TO.C,R3*%
X169278901Y-96467639D03*
D16*
X165803976Y-86920362D03*
%TD*%
D17*
%TO.C,SW1*%
X162303158Y-111398438D03*
X160374795Y-113696572D03*
X158446432Y-115994705D03*
%TD*%
D18*
%TO.C,BT1*%
X133604000Y-112395000D03*
X154686000Y-112395000D03*
D19*
X144145000Y-112395000D03*
%TD*%
D13*
%TO.C,R2*%
X159290044Y-80378901D03*
D20*
X150081957Y-76085099D03*
%TD*%
M02*
