%TF.GenerationSoftware,KiCad,Pcbnew,(6.0.4)*%
%TF.CreationDate,2022-06-06T16:58:20-07:00*%
%TF.ProjectId,Alpenglow_RadiantRainbow_PCB,416c7065-6e67-46c6-9f77-5f5261646961,rev?*%
%TF.SameCoordinates,Original*%
%TF.FileFunction,Copper,L1,Top*%
%TF.FilePolarity,Positive*%
%FSLAX46Y46*%
G04 Gerber Fmt 4.6, Leading zero omitted, Abs format (unit mm)*
G04 Created by KiCad (PCBNEW (6.0.4)) date 2022-06-06 16:58:20*
%MOMM*%
%LPD*%
G01*
G04 APERTURE LIST*
G04 Aperture macros list*
%AMHorizOval*
0 Thick line with rounded ends*
0 $1 width*
0 $2 $3 position (X,Y) of the first rounded end (center of the circle)*
0 $4 $5 position (X,Y) of the second rounded end (center of the circle)*
0 Add line between two ends*
20,1,$1,$2,$3,$4,$5,0*
0 Add two circle primitives to create the rounded ends*
1,1,$1,$2,$3*
1,1,$1,$4,$5*%
%AMRotRect*
0 Rectangle, with rotation*
0 The origin of the aperture is its center*
0 $1 length*
0 $2 width*
0 $3 Rotation angle, in degrees counterclockwise*
0 Add horizontal line*
21,1,$1,$2,0,0,$3*%
G04 Aperture macros list end*
%TA.AperFunction,ComponentPad*%
%ADD10R,1.800000X1.800000*%
%TD*%
%TA.AperFunction,ComponentPad*%
%ADD11C,1.800000*%
%TD*%
%TA.AperFunction,ComponentPad*%
%ADD12C,1.600000*%
%TD*%
%TA.AperFunction,ComponentPad*%
%ADD13HorizOval,1.600000X0.000000X0.000000X0.000000X0.000000X0*%
%TD*%
%TA.AperFunction,ComponentPad*%
%ADD14HorizOval,1.600000X0.000000X0.000000X0.000000X0.000000X0*%
%TD*%
%TA.AperFunction,ComponentPad*%
%ADD15HorizOval,1.600000X0.000000X0.000000X0.000000X0.000000X0*%
%TD*%
%TA.AperFunction,ComponentPad*%
%ADD16HorizOval,1.900000X-0.612836X0.514230X0.612836X-0.514230X0*%
%TD*%
%TA.AperFunction,ComponentPad*%
%ADD17RotRect,1.300000X2.500000X230.000000*%
%TD*%
%TA.AperFunction,ComponentPad*%
%ADD18HorizOval,1.300000X-0.459627X0.385673X0.459627X-0.385673X0*%
%TD*%
%TA.AperFunction,ComponentPad*%
%ADD19O,2.500000X4.000000*%
%TD*%
%TA.AperFunction,ComponentPad*%
%ADD20HorizOval,1.600000X0.000000X0.000000X0.000000X0.000000X0*%
%TD*%
%TA.AperFunction,ViaPad*%
%ADD21C,1.397000*%
%TD*%
%TA.AperFunction,Conductor*%
%ADD22C,0.508000*%
%TD*%
G04 APERTURE END LIST*
D10*
%TO.P,D1,1,K*%
%TO.N,GND*%
X160346500Y-93472000D03*
D11*
%TO.P,D1,2,A*%
%TO.N,Net-(D1-Pad2)*%
X162886500Y-93472000D03*
%TD*%
D10*
%TO.P,D3,1,K*%
%TO.N,GND*%
X136216500Y-83058000D03*
D11*
%TO.P,D3,2,A*%
%TO.N,Net-(D1-Pad2)*%
X138756500Y-83058000D03*
%TD*%
D10*
%TO.P,D5,1,K*%
%TO.N,GND*%
X143836500Y-81788000D03*
D11*
%TO.P,D5,2,A*%
%TO.N,Net-(D5-Pad2)*%
X146376500Y-81788000D03*
%TD*%
D10*
%TO.P,D11,1,K*%
%TO.N,GND*%
X141042500Y-91567000D03*
D11*
%TO.P,D11,2,A*%
%TO.N,Net-(D10-Pad2)*%
X143582500Y-91567000D03*
%TD*%
D10*
%TO.P,D4,1,K*%
%TO.N,GND*%
X127000000Y-93726000D03*
D11*
%TO.P,D4,2,A*%
%TO.N,Net-(D1-Pad2)*%
X129540000Y-93726000D03*
%TD*%
D10*
%TO.P,D8,1,K*%
%TO.N,GND*%
X146884500Y-91567000D03*
D11*
%TO.P,D8,2,A*%
%TO.N,Net-(D8-Pad2)*%
X149424500Y-91567000D03*
%TD*%
D10*
%TO.P,D7,1,K*%
%TO.N,GND*%
X156536500Y-88392000D03*
D11*
%TO.P,D7,2,A*%
%TO.N,Net-(D5-Pad2)*%
X159076500Y-88392000D03*
%TD*%
D10*
%TO.P,D10,1,K*%
%TO.N,GND*%
X150948500Y-95123000D03*
D11*
%TO.P,D10,2,A*%
%TO.N,Net-(D10-Pad2)*%
X153488500Y-95123000D03*
%TD*%
D10*
%TO.P,D9,1,K*%
%TO.N,GND*%
X136470500Y-95250000D03*
D11*
%TO.P,D9,2,A*%
%TO.N,Net-(D8-Pad2)*%
X139010500Y-95250000D03*
%TD*%
D10*
%TO.P,D6,1,K*%
%TO.N,GND*%
X130628500Y-87884000D03*
D11*
%TO.P,D6,2,A*%
%TO.N,Net-(D5-Pad2)*%
X133168500Y-87884000D03*
%TD*%
D10*
%TO.P,D2,1,K*%
%TO.N,GND*%
X150948500Y-83312000D03*
D11*
%TO.P,D2,2,A*%
%TO.N,Net-(D1-Pad2)*%
X153488500Y-83312000D03*
%TD*%
D12*
%TO.P,R4,1*%
%TO.N,/LED+*%
X120509700Y-96247244D03*
D13*
%TO.P,R4,2*%
%TO.N,Net-(D10-Pad2)*%
X124803502Y-87039157D03*
%TD*%
D12*
%TO.P,R1,1*%
%TO.N,/LED+*%
X138003409Y-76454000D03*
D14*
%TO.P,R1,2*%
%TO.N,Net-(D1-Pad2)*%
X129204591Y-81534000D03*
%TD*%
D12*
%TO.P,R3,1*%
%TO.N,/LED+*%
X169278901Y-96467639D03*
D15*
%TO.P,R3,2*%
%TO.N,Net-(D8-Pad2)*%
X165803976Y-86920362D03*
%TD*%
D16*
%TO.P,SW1,*%
%TO.N,GND*%
X160686571Y-118837782D03*
X165957429Y-112556218D03*
D17*
%TO.P,SW1,1,A*%
%TO.N,/LED+*%
X164607575Y-114164911D03*
D18*
%TO.P,SW1,2,B*%
%TO.N,VCC*%
X163322000Y-115697000D03*
%TO.P,SW1,3,C*%
%TO.N,unconnected-(SW1-Pad3)*%
X162036425Y-117229089D03*
%TD*%
D19*
%TO.P,BT1,1,+*%
%TO.N,VCC*%
X133604000Y-112395000D03*
X154686000Y-112395000D03*
%TD*%
D12*
%TO.P,R2,1*%
%TO.N,/LED+*%
X159290044Y-80378901D03*
D20*
%TO.P,R2,2*%
%TO.N,Net-(D5-Pad2)*%
X150081957Y-76085099D03*
%TD*%
D21*
%TO.N,*%
X144983200Y-75387200D03*
%TD*%
D22*
%TO.N,/LED+*%
X169278901Y-96467639D02*
X169278901Y-93459901D01*
X159290044Y-80378901D02*
X155943901Y-80378901D01*
X138613009Y-77063600D02*
X138003409Y-76454000D01*
X148764513Y-77063600D02*
X138613009Y-77063600D01*
X163449000Y-86106000D02*
X163449000Y-84537857D01*
X163449000Y-84537857D02*
X159290044Y-80378901D01*
X169278901Y-93459901D02*
X164526631Y-88707631D01*
X153416000Y-77851000D02*
X151767375Y-77851000D01*
X155943901Y-80378901D02*
X153416000Y-77851000D01*
X148830475Y-76997638D02*
X148764513Y-77063600D01*
X163449012Y-86106000D02*
G75*
G03*
X164526632Y-88707630I3679288J0D01*
G01*
X148830479Y-76997631D02*
G75*
G03*
X151767375Y-77851000I2941721J4643631D01*
G01*
%TD*%
%TA.AperFunction,Conductor*%
%TO.N,GND*%
G36*
X145285680Y-74022372D02*
G01*
X145781352Y-74030159D01*
X145786187Y-74030327D01*
X146523424Y-74070254D01*
X146798833Y-74085169D01*
X146803643Y-74085523D01*
X147813379Y-74179194D01*
X147818181Y-74179733D01*
X148823606Y-74312100D01*
X148828344Y-74312816D01*
X149328173Y-74398252D01*
X149827979Y-74483686D01*
X149832731Y-74484593D01*
X150299950Y-74583051D01*
X150825025Y-74693702D01*
X150829689Y-74694778D01*
X151813283Y-74941840D01*
X151817926Y-74943102D01*
X152791240Y-75227720D01*
X152795837Y-75229160D01*
X153587211Y-75493950D01*
X153757539Y-75550941D01*
X153762092Y-75552562D01*
X153833323Y-75579478D01*
X154710723Y-75911020D01*
X154715215Y-75912817D01*
X155027604Y-76044775D01*
X155649385Y-76307425D01*
X155653748Y-76309368D01*
X156572108Y-76739558D01*
X156576441Y-76741690D01*
X156911783Y-76914773D01*
X157477589Y-77206807D01*
X157481844Y-77209108D01*
X158364458Y-77708468D01*
X158368622Y-77710931D01*
X159205476Y-78227782D01*
X159231390Y-78243787D01*
X159235449Y-78246402D01*
X159383630Y-78345975D01*
X160077178Y-78812020D01*
X160081141Y-78814795D01*
X160900516Y-79412294D01*
X160904369Y-79415219D01*
X161700200Y-80043728D01*
X161703938Y-80046799D01*
X162475041Y-80705383D01*
X162478659Y-80708595D01*
X162552725Y-80776941D01*
X163219004Y-81391765D01*
X163223917Y-81396299D01*
X163227407Y-81399645D01*
X163250721Y-81422878D01*
X163945742Y-82115478D01*
X163949102Y-82118958D01*
X164639403Y-82861810D01*
X164642615Y-82865401D01*
X165303943Y-83634266D01*
X165306965Y-83637918D01*
X165924844Y-84414699D01*
X165938279Y-84431589D01*
X165941207Y-84435419D01*
X166353727Y-84996997D01*
X166541559Y-85252699D01*
X166544348Y-85256653D01*
X167112904Y-86096407D01*
X167115538Y-86100464D01*
X167651390Y-86961347D01*
X167653868Y-86965502D01*
X167870616Y-87345501D01*
X168135725Y-87810285D01*
X168156330Y-87846410D01*
X168158636Y-87850641D01*
X168604711Y-88707543D01*
X168626884Y-88750137D01*
X168629032Y-88754463D01*
X169004621Y-89549028D01*
X169062405Y-89671272D01*
X169064382Y-89675670D01*
X169255659Y-90124112D01*
X169462258Y-90608478D01*
X169464070Y-90612963D01*
X169825831Y-91560320D01*
X169827469Y-91564872D01*
X170152604Y-92525442D01*
X170154066Y-92530051D01*
X170431991Y-93468305D01*
X170442076Y-93502353D01*
X170443357Y-93507002D01*
X170691066Y-94478803D01*
X170693839Y-94489681D01*
X170694941Y-94494377D01*
X170773727Y-94861884D01*
X170907516Y-95485954D01*
X170908439Y-95490703D01*
X170970005Y-95843461D01*
X171082469Y-96487845D01*
X171082790Y-96489687D01*
X171083527Y-96494449D01*
X171219403Y-97499403D01*
X171219958Y-97504196D01*
X171227592Y-97583475D01*
X171317155Y-98513629D01*
X171317524Y-98518429D01*
X171336838Y-98853395D01*
X171375899Y-99530843D01*
X171376085Y-99535677D01*
X171395562Y-100550015D01*
X171395576Y-100553973D01*
X171387702Y-101198416D01*
X171387591Y-101202373D01*
X171343338Y-102215923D01*
X171343034Y-102220751D01*
X171259942Y-103231421D01*
X171259453Y-103236234D01*
X171137626Y-104242961D01*
X171136953Y-104247752D01*
X170976565Y-105249089D01*
X170975708Y-105253850D01*
X170777008Y-106248245D01*
X170775970Y-106252970D01*
X170539229Y-107239067D01*
X170538009Y-107243749D01*
X170263602Y-108219984D01*
X170262204Y-108224615D01*
X169950517Y-109189617D01*
X169948942Y-109194191D01*
X169603885Y-110137105D01*
X169600437Y-110146526D01*
X169598702Y-110150999D01*
X169233803Y-111040715D01*
X169213896Y-111089253D01*
X169211975Y-111093692D01*
X168791442Y-112016468D01*
X168789352Y-112020831D01*
X168333706Y-112926780D01*
X168331450Y-112931059D01*
X168265379Y-113050748D01*
X168214947Y-113100719D01*
X168145504Y-113115491D01*
X168079098Y-113090375D01*
X168036813Y-113033344D01*
X168029831Y-113003682D01*
X168006951Y-112796437D01*
X168004983Y-112786314D01*
X167942903Y-112565462D01*
X167939314Y-112555811D01*
X167841997Y-112348060D01*
X167836873Y-112339114D01*
X167706936Y-112150055D01*
X167700418Y-112142063D01*
X167569845Y-112006377D01*
X167564946Y-112001801D01*
X167103066Y-111614238D01*
X167088514Y-111607869D01*
X167086698Y-111608160D01*
X167080482Y-111612969D01*
X166315272Y-112524911D01*
X166069727Y-112817539D01*
X166010617Y-112856866D01*
X165939629Y-112857992D01*
X165892214Y-112833070D01*
X165815931Y-112769061D01*
X164095022Y-111325047D01*
X164082282Y-111319471D01*
X164071584Y-111329130D01*
X164039133Y-111382502D01*
X164034520Y-111391714D01*
X163948951Y-111604576D01*
X163945905Y-111614416D01*
X163896252Y-111838385D01*
X163894852Y-111848601D01*
X163882447Y-112077675D01*
X163882735Y-112087980D01*
X163907908Y-112315999D01*
X163909876Y-112326122D01*
X163964808Y-112521548D01*
X163963986Y-112592540D01*
X163922375Y-112653908D01*
X163888986Y-112680706D01*
X163021138Y-113714968D01*
X163018161Y-113720394D01*
X163018159Y-113720397D01*
X162990701Y-113770444D01*
X162984731Y-113781326D01*
X162973709Y-113881971D01*
X162977181Y-113893882D01*
X162977181Y-113893885D01*
X162998395Y-113966668D01*
X163002040Y-113979173D01*
X163049416Y-114038201D01*
X163054152Y-114042175D01*
X163054155Y-114042178D01*
X163297702Y-114246538D01*
X163337029Y-114305648D01*
X163338155Y-114376636D01*
X163300724Y-114436963D01*
X163236619Y-114467477D01*
X163169513Y-114459885D01*
X163113060Y-114437077D01*
X163106556Y-114435930D01*
X163106552Y-114435929D01*
X162932315Y-114405207D01*
X162932314Y-114405207D01*
X162925815Y-114404061D01*
X162919221Y-114404291D01*
X162919217Y-114404291D01*
X162742401Y-114410465D01*
X162742397Y-114410466D01*
X162735797Y-114410696D01*
X162551312Y-114456693D01*
X162513841Y-114474969D01*
X162386358Y-114537147D01*
X162386356Y-114537148D01*
X162380421Y-114540043D01*
X162230594Y-114657100D01*
X162108378Y-114802751D01*
X162019116Y-114970628D01*
X161966708Y-115153397D01*
X161953445Y-115343067D01*
X161954363Y-115349598D01*
X161954363Y-115349602D01*
X161978987Y-115524808D01*
X161978988Y-115524813D01*
X161979907Y-115531350D01*
X162044936Y-115710017D01*
X162129504Y-115845355D01*
X162148639Y-115913722D01*
X162127774Y-115981583D01*
X162073532Y-116027391D01*
X162003136Y-116036602D01*
X161975449Y-116028947D01*
X161833614Y-115971642D01*
X161833612Y-115971641D01*
X161827485Y-115969166D01*
X161820981Y-115968019D01*
X161820977Y-115968018D01*
X161646740Y-115937296D01*
X161646739Y-115937296D01*
X161640240Y-115936150D01*
X161633646Y-115936380D01*
X161633642Y-115936380D01*
X161456826Y-115942554D01*
X161456822Y-115942555D01*
X161450222Y-115942785D01*
X161265737Y-115988782D01*
X161241997Y-116000361D01*
X161100783Y-116069236D01*
X161100781Y-116069237D01*
X161094846Y-116072132D01*
X160945019Y-116189189D01*
X160822803Y-116334840D01*
X160733541Y-116502717D01*
X160731722Y-116509062D01*
X160731720Y-116509066D01*
X160709827Y-116585418D01*
X160681133Y-116685486D01*
X160680672Y-116692073D01*
X160680672Y-116692075D01*
X160671718Y-116820128D01*
X160647013Y-116886688D01*
X160590245Y-116929325D01*
X160519437Y-116934502D01*
X160510239Y-116932150D01*
X160377874Y-116892942D01*
X160367779Y-116890833D01*
X160140133Y-116862478D01*
X160129823Y-116862046D01*
X159900610Y-116871252D01*
X159890376Y-116872509D01*
X159665736Y-116919030D01*
X159655844Y-116921941D01*
X159441820Y-117004526D01*
X159432534Y-117009016D01*
X159234871Y-117125447D01*
X159226446Y-117131390D01*
X159151027Y-117194451D01*
X159143599Y-117205573D01*
X159151834Y-117218411D01*
X160655264Y-118479939D01*
X160947892Y-118725483D01*
X160987219Y-118784593D01*
X160988345Y-118855581D01*
X160963423Y-118902996D01*
X160839549Y-119050624D01*
X160717878Y-119195625D01*
X159955607Y-120104064D01*
X159949238Y-120118616D01*
X159949529Y-120120432D01*
X159954338Y-120126648D01*
X160406801Y-120506309D01*
X160410900Y-120509472D01*
X160550459Y-120608285D01*
X160559334Y-120613534D01*
X160765702Y-120713742D01*
X160775312Y-120717469D01*
X160995273Y-120782623D01*
X161005358Y-120784731D01*
X161233010Y-120813086D01*
X161243320Y-120813518D01*
X161472532Y-120804312D01*
X161482763Y-120803056D01*
X161683598Y-120761464D01*
X161754360Y-120767236D01*
X161810768Y-120810349D01*
X161834913Y-120877114D01*
X161819129Y-120946333D01*
X161788615Y-120982628D01*
X161197909Y-121462683D01*
X161194097Y-121465661D01*
X160383153Y-122074534D01*
X160379229Y-122077364D01*
X159545510Y-122654659D01*
X159541481Y-122657336D01*
X158686209Y-123202204D01*
X158682080Y-123204725D01*
X157806518Y-123716363D01*
X157802310Y-123718714D01*
X156907716Y-124196383D01*
X156903453Y-124198555D01*
X155991210Y-124641516D01*
X155986852Y-124643530D01*
X155058249Y-125051158D01*
X155053811Y-125053005D01*
X154525354Y-125261170D01*
X154110272Y-125424675D01*
X154105738Y-125426361D01*
X153148646Y-125761530D01*
X153144050Y-125763041D01*
X152174790Y-126061224D01*
X152170140Y-126062557D01*
X151620279Y-126208864D01*
X151190146Y-126323313D01*
X151185484Y-126324458D01*
X150196187Y-126547407D01*
X150191468Y-126548376D01*
X149194336Y-126733182D01*
X149189581Y-126733970D01*
X148900808Y-126776097D01*
X148186130Y-126880357D01*
X148181330Y-126880964D01*
X147677143Y-126934847D01*
X147172936Y-126988731D01*
X147168159Y-126989148D01*
X146560801Y-127030554D01*
X146156436Y-127058120D01*
X146151604Y-127058357D01*
X145644768Y-127073400D01*
X145137919Y-127088443D01*
X145133108Y-127088493D01*
X144432205Y-127082376D01*
X144119067Y-127079643D01*
X144114232Y-127079508D01*
X143710953Y-127060490D01*
X143101282Y-127031738D01*
X143096471Y-127031420D01*
X142086051Y-126944796D01*
X142081257Y-126944292D01*
X141074946Y-126818950D01*
X141070161Y-126818260D01*
X140069414Y-126654381D01*
X140064656Y-126653508D01*
X139070911Y-126451329D01*
X139066189Y-126450273D01*
X138080962Y-126210100D01*
X138076285Y-126208864D01*
X137189701Y-125956314D01*
X137101007Y-125931049D01*
X137096388Y-125929637D01*
X136132480Y-125614583D01*
X136127911Y-125612992D01*
X135176813Y-125261170D01*
X135172309Y-125259405D01*
X134235410Y-124871329D01*
X134230977Y-124869392D01*
X133735521Y-124641508D01*
X133309661Y-124445634D01*
X133305334Y-124443542D01*
X132400957Y-123984726D01*
X132396694Y-123982459D01*
X132263849Y-123908518D01*
X131510625Y-123489279D01*
X131506444Y-123486846D01*
X131226261Y-123316492D01*
X130639937Y-122960001D01*
X130635880Y-122957427D01*
X129790228Y-122397702D01*
X129786246Y-122394955D01*
X128962728Y-121803197D01*
X128958854Y-121800299D01*
X128158652Y-121177359D01*
X128154892Y-121174314D01*
X127983726Y-121030179D01*
X127379193Y-120521115D01*
X127375570Y-120517943D01*
X126625513Y-119835443D01*
X126621998Y-119832120D01*
X126570010Y-119781031D01*
X126086635Y-119306020D01*
X125898685Y-119121322D01*
X125895301Y-119117865D01*
X125414533Y-118607686D01*
X125199836Y-118379855D01*
X125196594Y-118376280D01*
X125181728Y-118359239D01*
X158611589Y-118359239D01*
X158611877Y-118369544D01*
X158637050Y-118597563D01*
X158639018Y-118607686D01*
X158701097Y-118828538D01*
X158704686Y-118838189D01*
X158802004Y-119045940D01*
X158807128Y-119054887D01*
X158937064Y-119243945D01*
X158943582Y-119251937D01*
X159074155Y-119387623D01*
X159079054Y-119392199D01*
X159540934Y-119779762D01*
X159555486Y-119786131D01*
X159557302Y-119785840D01*
X159563518Y-119781031D01*
X160317083Y-118882967D01*
X160323452Y-118868415D01*
X160323161Y-118866599D01*
X160318352Y-118860383D01*
X158824166Y-117606612D01*
X158811424Y-117601035D01*
X158800726Y-117610694D01*
X158768275Y-117664066D01*
X158763662Y-117673278D01*
X158678093Y-117886140D01*
X158675047Y-117895980D01*
X158625394Y-118119949D01*
X158623994Y-118130165D01*
X158611589Y-118359239D01*
X125181728Y-118359239D01*
X124980351Y-118128396D01*
X124529944Y-117612086D01*
X124526868Y-117608420D01*
X124101082Y-117080737D01*
X123890046Y-116819196D01*
X123887081Y-116815374D01*
X123281028Y-116002293D01*
X123278212Y-115998359D01*
X122703832Y-115162631D01*
X122701169Y-115158592D01*
X122323455Y-114561107D01*
X122159289Y-114301423D01*
X122156787Y-114297291D01*
X122100649Y-114200447D01*
X121880681Y-113820984D01*
X121648210Y-113419950D01*
X121645865Y-113415719D01*
X121534740Y-113205841D01*
X132099500Y-113205841D01*
X132099702Y-113208349D01*
X132099702Y-113208354D01*
X132109925Y-113335411D01*
X132114021Y-113386324D01*
X132115226Y-113391232D01*
X132115227Y-113391235D01*
X132170564Y-113616525D01*
X132171771Y-113621439D01*
X132173746Y-113626091D01*
X132173747Y-113626095D01*
X132227932Y-113753746D01*
X132266369Y-113844297D01*
X132395380Y-114049163D01*
X132398725Y-114052957D01*
X132528755Y-114200447D01*
X132555486Y-114230768D01*
X132742568Y-114384439D01*
X132829143Y-114434827D01*
X132871689Y-114459589D01*
X132951812Y-114506222D01*
X132956535Y-114508035D01*
X133173106Y-114591169D01*
X133173109Y-114591170D01*
X133177835Y-114592984D01*
X133414823Y-114642493D01*
X133419873Y-114642722D01*
X133419878Y-114642723D01*
X133530112Y-114647728D01*
X133656677Y-114653476D01*
X133661697Y-114652895D01*
X133661701Y-114652895D01*
X133769568Y-114640414D01*
X133897176Y-114625649D01*
X133902050Y-114624270D01*
X133902054Y-114624269D01*
X134125264Y-114561107D01*
X134125266Y-114561106D01*
X134130133Y-114559729D01*
X134172350Y-114540043D01*
X134311900Y-114474969D01*
X134349553Y-114457411D01*
X134353733Y-114454570D01*
X134353737Y-114454568D01*
X134545601Y-114324178D01*
X134545602Y-114324177D01*
X134549793Y-114321329D01*
X134553470Y-114317852D01*
X134553476Y-114317847D01*
X134722020Y-114158461D01*
X134725699Y-114154982D01*
X134872747Y-113962652D01*
X134987153Y-113749285D01*
X134998970Y-113714968D01*
X135064326Y-113525160D01*
X135065975Y-113520371D01*
X135084051Y-113415719D01*
X135106508Y-113285710D01*
X135106509Y-113285704D01*
X135107183Y-113281800D01*
X135108500Y-113252797D01*
X135108500Y-113205841D01*
X153181500Y-113205841D01*
X153181702Y-113208349D01*
X153181702Y-113208354D01*
X153191925Y-113335411D01*
X153196021Y-113386324D01*
X153197226Y-113391232D01*
X153197227Y-113391235D01*
X153252564Y-113616525D01*
X153253771Y-113621439D01*
X153255746Y-113626091D01*
X153255747Y-113626095D01*
X153309932Y-113753746D01*
X153348369Y-113844297D01*
X153477380Y-114049163D01*
X153480725Y-114052957D01*
X153610755Y-114200447D01*
X153637486Y-114230768D01*
X153824568Y-114384439D01*
X153911143Y-114434827D01*
X153953689Y-114459589D01*
X154033812Y-114506222D01*
X154038535Y-114508035D01*
X154255106Y-114591169D01*
X154255109Y-114591170D01*
X154259835Y-114592984D01*
X154496823Y-114642493D01*
X154501873Y-114642722D01*
X154501878Y-114642723D01*
X154612112Y-114647728D01*
X154738677Y-114653476D01*
X154743697Y-114652895D01*
X154743701Y-114652895D01*
X154851568Y-114640414D01*
X154979176Y-114625649D01*
X154984050Y-114624270D01*
X154984054Y-114624269D01*
X155207264Y-114561107D01*
X155207266Y-114561106D01*
X155212133Y-114559729D01*
X155254350Y-114540043D01*
X155393900Y-114474969D01*
X155431553Y-114457411D01*
X155435733Y-114454570D01*
X155435737Y-114454568D01*
X155627601Y-114324178D01*
X155627602Y-114324177D01*
X155631793Y-114321329D01*
X155635470Y-114317852D01*
X155635476Y-114317847D01*
X155804020Y-114158461D01*
X155807699Y-114154982D01*
X155954747Y-113962652D01*
X156069153Y-113749285D01*
X156080970Y-113714968D01*
X156146326Y-113525160D01*
X156147975Y-113520371D01*
X156166051Y-113415719D01*
X156188508Y-113285710D01*
X156188509Y-113285704D01*
X156189183Y-113281800D01*
X156190500Y-113252797D01*
X156190500Y-111584159D01*
X156186608Y-111535784D01*
X156176385Y-111408717D01*
X156176384Y-111408712D01*
X156175979Y-111403676D01*
X156142495Y-111267352D01*
X156119436Y-111173475D01*
X156118229Y-111168561D01*
X156065993Y-111045500D01*
X156025607Y-110950358D01*
X156025607Y-110950357D01*
X156023631Y-110945703D01*
X156009970Y-110924009D01*
X164414457Y-110924009D01*
X164422692Y-110936847D01*
X165912244Y-112186730D01*
X165926796Y-112193099D01*
X165928612Y-112192808D01*
X165934828Y-112187999D01*
X166688393Y-111289936D01*
X166694762Y-111275384D01*
X166694471Y-111273568D01*
X166689662Y-111267352D01*
X166237199Y-110887691D01*
X166233100Y-110884528D01*
X166093542Y-110785715D01*
X166084665Y-110780465D01*
X165878306Y-110680263D01*
X165868684Y-110676531D01*
X165648732Y-110611378D01*
X165638637Y-110609269D01*
X165410991Y-110580914D01*
X165400681Y-110580482D01*
X165171468Y-110589688D01*
X165161234Y-110590945D01*
X164936594Y-110637466D01*
X164926702Y-110640377D01*
X164712678Y-110722962D01*
X164703392Y-110727452D01*
X164505729Y-110843883D01*
X164497304Y-110849826D01*
X164421885Y-110912887D01*
X164414457Y-110924009D01*
X156009970Y-110924009D01*
X155894620Y-110740837D01*
X155734514Y-110559232D01*
X155547432Y-110405561D01*
X155338188Y-110283778D01*
X155204362Y-110232407D01*
X155116894Y-110198831D01*
X155116891Y-110198830D01*
X155112165Y-110197016D01*
X154875177Y-110147507D01*
X154870127Y-110147278D01*
X154870122Y-110147277D01*
X154759888Y-110142272D01*
X154633323Y-110136524D01*
X154628303Y-110137105D01*
X154628299Y-110137105D01*
X154527381Y-110148782D01*
X154392824Y-110164351D01*
X154387950Y-110165730D01*
X154387946Y-110165731D01*
X154164736Y-110228893D01*
X154164734Y-110228894D01*
X154159867Y-110230271D01*
X153940447Y-110332589D01*
X153936267Y-110335430D01*
X153936263Y-110335432D01*
X153744399Y-110465822D01*
X153740207Y-110468671D01*
X153736530Y-110472148D01*
X153736524Y-110472153D01*
X153591530Y-110609269D01*
X153564301Y-110635018D01*
X153417253Y-110827348D01*
X153414863Y-110831806D01*
X153414862Y-110831807D01*
X153365424Y-110924009D01*
X153302847Y-111040715D01*
X153224025Y-111269629D01*
X153206729Y-111369763D01*
X153200001Y-111408717D01*
X153182817Y-111508200D01*
X153181500Y-111537203D01*
X153181500Y-113205841D01*
X135108500Y-113205841D01*
X135108500Y-111584159D01*
X135104608Y-111535784D01*
X135094385Y-111408717D01*
X135094384Y-111408712D01*
X135093979Y-111403676D01*
X135060495Y-111267352D01*
X135037436Y-111173475D01*
X135036229Y-111168561D01*
X134983993Y-111045500D01*
X134943607Y-110950358D01*
X134943607Y-110950357D01*
X134941631Y-110945703D01*
X134812620Y-110740837D01*
X134652514Y-110559232D01*
X134465432Y-110405561D01*
X134256188Y-110283778D01*
X134122362Y-110232407D01*
X134034894Y-110198831D01*
X134034891Y-110198830D01*
X134030165Y-110197016D01*
X133793177Y-110147507D01*
X133788127Y-110147278D01*
X133788122Y-110147277D01*
X133677888Y-110142272D01*
X133551323Y-110136524D01*
X133546303Y-110137105D01*
X133546299Y-110137105D01*
X133445381Y-110148782D01*
X133310824Y-110164351D01*
X133305950Y-110165730D01*
X133305946Y-110165731D01*
X133082736Y-110228893D01*
X133082734Y-110228894D01*
X133077867Y-110230271D01*
X132858447Y-110332589D01*
X132854267Y-110335430D01*
X132854263Y-110335432D01*
X132662399Y-110465822D01*
X132658207Y-110468671D01*
X132654530Y-110472148D01*
X132654524Y-110472153D01*
X132509530Y-110609269D01*
X132482301Y-110635018D01*
X132335253Y-110827348D01*
X132332863Y-110831806D01*
X132332862Y-110831807D01*
X132283424Y-110924009D01*
X132220847Y-111040715D01*
X132142025Y-111269629D01*
X132124729Y-111369763D01*
X132118001Y-111408717D01*
X132100817Y-111508200D01*
X132099500Y-111537203D01*
X132099500Y-113205841D01*
X121534740Y-113205841D01*
X121171357Y-112519529D01*
X121169175Y-112515211D01*
X120729397Y-111601420D01*
X120727386Y-111597028D01*
X120722886Y-111586678D01*
X120323015Y-110667036D01*
X120321176Y-110662575D01*
X120312522Y-110640377D01*
X119952811Y-109717767D01*
X119951142Y-109713232D01*
X119619311Y-108754960D01*
X119617822Y-108750376D01*
X119323022Y-107780073D01*
X119321705Y-107775419D01*
X119064369Y-106794515D01*
X119063232Y-106789812D01*
X118943700Y-106250639D01*
X118843750Y-105799792D01*
X118842796Y-105795065D01*
X118661470Y-104797292D01*
X118660697Y-104792517D01*
X118583165Y-104247752D01*
X118517812Y-103788556D01*
X118517224Y-103783768D01*
X118460393Y-103233829D01*
X118412978Y-102775001D01*
X118412576Y-102770204D01*
X118347138Y-101758270D01*
X118346918Y-101753437D01*
X118326584Y-100976913D01*
X118320372Y-100739667D01*
X118320338Y-100734855D01*
X118322573Y-100552000D01*
X118332728Y-99720818D01*
X118332879Y-99716005D01*
X118342137Y-99533266D01*
X118384186Y-98703190D01*
X118384523Y-98698381D01*
X118400582Y-98518453D01*
X118474668Y-97688335D01*
X118475190Y-97683527D01*
X118604047Y-96677637D01*
X118604754Y-96672851D01*
X118654194Y-96377410D01*
X118678452Y-96232450D01*
X119450201Y-96232450D01*
X119453586Y-96272754D01*
X119464578Y-96403649D01*
X119467506Y-96438522D01*
X119524507Y-96637310D01*
X119527325Y-96642792D01*
X119527326Y-96642796D01*
X119616214Y-96815753D01*
X119616217Y-96815757D01*
X119619034Y-96821239D01*
X119747486Y-96983305D01*
X119904971Y-97117335D01*
X120085489Y-97218224D01*
X120282166Y-97282128D01*
X120487509Y-97306614D01*
X120493644Y-97306142D01*
X120493646Y-97306142D01*
X120687556Y-97291221D01*
X120687560Y-97291220D01*
X120693698Y-97290748D01*
X120892878Y-97235136D01*
X120898382Y-97232356D01*
X120898384Y-97232355D01*
X121071962Y-97144675D01*
X121071964Y-97144674D01*
X121077463Y-97141896D01*
X121240422Y-97014578D01*
X121244448Y-97009914D01*
X121244451Y-97009911D01*
X121371519Y-96862701D01*
X121371520Y-96862699D01*
X121375548Y-96858033D01*
X121463965Y-96702392D01*
X121474650Y-96683584D01*
X121474652Y-96683580D01*
X121477695Y-96678223D01*
X121526669Y-96531000D01*
X121541025Y-96487845D01*
X121541026Y-96487842D01*
X121542970Y-96481997D01*
X121568889Y-96276830D01*
X121569302Y-96247244D01*
X121564147Y-96194669D01*
X135062501Y-96194669D01*
X135062871Y-96201490D01*
X135068395Y-96252352D01*
X135072021Y-96267604D01*
X135117176Y-96388054D01*
X135125714Y-96403649D01*
X135202215Y-96505724D01*
X135214776Y-96518285D01*
X135316851Y-96594786D01*
X135332446Y-96603324D01*
X135452894Y-96648478D01*
X135468149Y-96652105D01*
X135519014Y-96657631D01*
X135525828Y-96658000D01*
X136198385Y-96658000D01*
X136213624Y-96653525D01*
X136214829Y-96652135D01*
X136216500Y-96644452D01*
X136216500Y-96639884D01*
X136724500Y-96639884D01*
X136728975Y-96655123D01*
X136730365Y-96656328D01*
X136738048Y-96657999D01*
X137415169Y-96657999D01*
X137421990Y-96657629D01*
X137472852Y-96652105D01*
X137488104Y-96648479D01*
X137608554Y-96603324D01*
X137624149Y-96594786D01*
X137726224Y-96518285D01*
X137738785Y-96505724D01*
X137815286Y-96403649D01*
X137823824Y-96388054D01*
X137868978Y-96267606D01*
X137872605Y-96252351D01*
X137878131Y-96201486D01*
X137878500Y-96194672D01*
X137878500Y-96045365D01*
X137898502Y-95977244D01*
X137952158Y-95930751D01*
X138022432Y-95920647D01*
X138087012Y-95950141D01*
X138107395Y-95972642D01*
X138128850Y-96003000D01*
X138185734Y-96058414D01*
X138273818Y-96144221D01*
X138280837Y-96151059D01*
X138285633Y-96154264D01*
X138285636Y-96154266D01*
X138394452Y-96226974D01*
X138457260Y-96268941D01*
X138462563Y-96271219D01*
X138462566Y-96271221D01*
X138544408Y-96306383D01*
X138652211Y-96352699D01*
X138728250Y-96369905D01*
X138853525Y-96398252D01*
X138853530Y-96398253D01*
X138859162Y-96399527D01*
X138864933Y-96399754D01*
X138864935Y-96399754D01*
X138930411Y-96402326D01*
X139071181Y-96407857D01*
X139176174Y-96392634D01*
X139275453Y-96378239D01*
X139275458Y-96378238D01*
X139281167Y-96377410D01*
X139286631Y-96375555D01*
X139286636Y-96375554D01*
X139379740Y-96343949D01*
X139482089Y-96309207D01*
X139487132Y-96306383D01*
X139662170Y-96208357D01*
X139662174Y-96208354D01*
X139667217Y-96205530D01*
X139830352Y-96069852D01*
X139832168Y-96067669D01*
X149540501Y-96067669D01*
X149540871Y-96074490D01*
X149546395Y-96125352D01*
X149550021Y-96140604D01*
X149595176Y-96261054D01*
X149603714Y-96276649D01*
X149680215Y-96378724D01*
X149692776Y-96391285D01*
X149794851Y-96467786D01*
X149810446Y-96476324D01*
X149930894Y-96521478D01*
X149946149Y-96525105D01*
X149997014Y-96530631D01*
X150003828Y-96531000D01*
X150676385Y-96531000D01*
X150691624Y-96526525D01*
X150692829Y-96525135D01*
X150694500Y-96517452D01*
X150694500Y-96512884D01*
X151202500Y-96512884D01*
X151206975Y-96528123D01*
X151208365Y-96529328D01*
X151216048Y-96530999D01*
X151893169Y-96530999D01*
X151899990Y-96530629D01*
X151950852Y-96525105D01*
X151966104Y-96521479D01*
X152086554Y-96476324D01*
X152102149Y-96467786D01*
X152204224Y-96391285D01*
X152216785Y-96378724D01*
X152293286Y-96276649D01*
X152301824Y-96261054D01*
X152346978Y-96140606D01*
X152350605Y-96125351D01*
X152356131Y-96074486D01*
X152356500Y-96067672D01*
X152356500Y-95918365D01*
X152376502Y-95850244D01*
X152430158Y-95803751D01*
X152500432Y-95793647D01*
X152565012Y-95823141D01*
X152585395Y-95845642D01*
X152606850Y-95876000D01*
X152758837Y-96024059D01*
X152763633Y-96027264D01*
X152763636Y-96027266D01*
X152905686Y-96122180D01*
X152935260Y-96141941D01*
X152940563Y-96144219D01*
X152940566Y-96144221D01*
X153124904Y-96223419D01*
X153130211Y-96225699D01*
X153187195Y-96238593D01*
X153331525Y-96271252D01*
X153331530Y-96271253D01*
X153337162Y-96272527D01*
X153342933Y-96272754D01*
X153342935Y-96272754D01*
X153408411Y-96275326D01*
X153549181Y-96280857D01*
X153654174Y-96265633D01*
X153753453Y-96251239D01*
X153753458Y-96251238D01*
X153759167Y-96250410D01*
X153764631Y-96248555D01*
X153764636Y-96248554D01*
X153857740Y-96216949D01*
X153960089Y-96182207D01*
X153965132Y-96179383D01*
X154140170Y-96081357D01*
X154140174Y-96081354D01*
X154145217Y-96078530D01*
X154308352Y-95942852D01*
X154444030Y-95779717D01*
X154446854Y-95774674D01*
X154446857Y-95774670D01*
X154544883Y-95599632D01*
X154544884Y-95599630D01*
X154547707Y-95594589D01*
X154590946Y-95467210D01*
X154614054Y-95399136D01*
X154614055Y-95399131D01*
X154615910Y-95393667D01*
X154617477Y-95382865D01*
X154641142Y-95219649D01*
X154646357Y-95183681D01*
X154647946Y-95123000D01*
X154628531Y-94911708D01*
X154620677Y-94883857D01*
X154572504Y-94713051D01*
X154572503Y-94713049D01*
X154570936Y-94707492D01*
X154559528Y-94684357D01*
X154479645Y-94522372D01*
X154477090Y-94517191D01*
X154460065Y-94494391D01*
X154402027Y-94416669D01*
X158938501Y-94416669D01*
X158938871Y-94423490D01*
X158944395Y-94474352D01*
X158948021Y-94489604D01*
X158993176Y-94610054D01*
X159001714Y-94625649D01*
X159078215Y-94727724D01*
X159090776Y-94740285D01*
X159192851Y-94816786D01*
X159208446Y-94825324D01*
X159328894Y-94870478D01*
X159344149Y-94874105D01*
X159395014Y-94879631D01*
X159401828Y-94880000D01*
X160074385Y-94880000D01*
X160089624Y-94875525D01*
X160090829Y-94874135D01*
X160092500Y-94866452D01*
X160092500Y-94861884D01*
X160600500Y-94861884D01*
X160604975Y-94877123D01*
X160606365Y-94878328D01*
X160614048Y-94879999D01*
X161291169Y-94879999D01*
X161297990Y-94879629D01*
X161348852Y-94874105D01*
X161364104Y-94870479D01*
X161484554Y-94825324D01*
X161500149Y-94816786D01*
X161602224Y-94740285D01*
X161614785Y-94727724D01*
X161691286Y-94625649D01*
X161699824Y-94610054D01*
X161744978Y-94489606D01*
X161748605Y-94474351D01*
X161754131Y-94423486D01*
X161754500Y-94416672D01*
X161754500Y-94267365D01*
X161774502Y-94199244D01*
X161828158Y-94152751D01*
X161898432Y-94142647D01*
X161963012Y-94172141D01*
X161983395Y-94194642D01*
X162004850Y-94225000D01*
X162008984Y-94229027D01*
X162126251Y-94343263D01*
X162156837Y-94373059D01*
X162161633Y-94376264D01*
X162161636Y-94376266D01*
X162302313Y-94470263D01*
X162333260Y-94490941D01*
X162338563Y-94493219D01*
X162338566Y-94493221D01*
X162394358Y-94517191D01*
X162528211Y-94574699D01*
X162604250Y-94591905D01*
X162729525Y-94620252D01*
X162729530Y-94620253D01*
X162735162Y-94621527D01*
X162740933Y-94621754D01*
X162740935Y-94621754D01*
X162806411Y-94624326D01*
X162947181Y-94629857D01*
X163052174Y-94614633D01*
X163151453Y-94600239D01*
X163151458Y-94600238D01*
X163157167Y-94599410D01*
X163162631Y-94597555D01*
X163162636Y-94597554D01*
X163304072Y-94549543D01*
X163358089Y-94531207D01*
X163373865Y-94522372D01*
X163538170Y-94430357D01*
X163538174Y-94430354D01*
X163543217Y-94427530D01*
X163706352Y-94291852D01*
X163842030Y-94128717D01*
X163844854Y-94123674D01*
X163844857Y-94123670D01*
X163942883Y-93948632D01*
X163942884Y-93948630D01*
X163945707Y-93943589D01*
X163980449Y-93841240D01*
X164012054Y-93748136D01*
X164012055Y-93748131D01*
X164013910Y-93742667D01*
X164015477Y-93731865D01*
X164043824Y-93536355D01*
X164044357Y-93532681D01*
X164045946Y-93472000D01*
X164026531Y-93260708D01*
X164017071Y-93227163D01*
X163970504Y-93062051D01*
X163970503Y-93062049D01*
X163968936Y-93056492D01*
X163951172Y-93020469D01*
X163877645Y-92871372D01*
X163875090Y-92866191D01*
X163852012Y-92835285D01*
X163751589Y-92700803D01*
X163751588Y-92700802D01*
X163748136Y-92696179D01*
X163742302Y-92690786D01*
X163596566Y-92556069D01*
X163596563Y-92556067D01*
X163592326Y-92552150D01*
X163412877Y-92438926D01*
X163215800Y-92360300D01*
X163210143Y-92359175D01*
X163210137Y-92359173D01*
X163013363Y-92320033D01*
X163013359Y-92320033D01*
X163007695Y-92318906D01*
X163001920Y-92318830D01*
X163001916Y-92318830D01*
X162895304Y-92317434D01*
X162795531Y-92316128D01*
X162789834Y-92317107D01*
X162789833Y-92317107D01*
X162592110Y-92351082D01*
X162586413Y-92352061D01*
X162387346Y-92425501D01*
X162382385Y-92428453D01*
X162382384Y-92428453D01*
X162209963Y-92531032D01*
X162209960Y-92531034D01*
X162204995Y-92533988D01*
X162200655Y-92537794D01*
X162200651Y-92537797D01*
X162120530Y-92608062D01*
X162045468Y-92673890D01*
X162041893Y-92678425D01*
X162041892Y-92678426D01*
X161979449Y-92757634D01*
X161921567Y-92798747D01*
X161850647Y-92802041D01*
X161789205Y-92766469D01*
X161756748Y-92703326D01*
X161754499Y-92679628D01*
X161754499Y-92527331D01*
X161754129Y-92520510D01*
X161748605Y-92469648D01*
X161744979Y-92454396D01*
X161699824Y-92333946D01*
X161691286Y-92318351D01*
X161614785Y-92216276D01*
X161602224Y-92203715D01*
X161500149Y-92127214D01*
X161484554Y-92118676D01*
X161364106Y-92073522D01*
X161348851Y-92069895D01*
X161297986Y-92064369D01*
X161291172Y-92064000D01*
X160618615Y-92064000D01*
X160603376Y-92068475D01*
X160602171Y-92069865D01*
X160600500Y-92077548D01*
X160600500Y-94861884D01*
X160092500Y-94861884D01*
X160092500Y-93744115D01*
X160088025Y-93728876D01*
X160086635Y-93727671D01*
X160078952Y-93726000D01*
X158956616Y-93726000D01*
X158941377Y-93730475D01*
X158940172Y-93731865D01*
X158938501Y-93739548D01*
X158938501Y-94416669D01*
X154402027Y-94416669D01*
X154353589Y-94351803D01*
X154353588Y-94351802D01*
X154350136Y-94347179D01*
X154335954Y-94334069D01*
X154198566Y-94207069D01*
X154198563Y-94207067D01*
X154194326Y-94203150D01*
X154014877Y-94089926D01*
X153817800Y-94011300D01*
X153812143Y-94010175D01*
X153812137Y-94010173D01*
X153615363Y-93971033D01*
X153615359Y-93971033D01*
X153609695Y-93969906D01*
X153603920Y-93969830D01*
X153603916Y-93969830D01*
X153497304Y-93968434D01*
X153397531Y-93967128D01*
X153391834Y-93968107D01*
X153391833Y-93968107D01*
X153217197Y-93998115D01*
X153188413Y-94003061D01*
X152989346Y-94076501D01*
X152984385Y-94079453D01*
X152984384Y-94079453D01*
X152811963Y-94182032D01*
X152811960Y-94182034D01*
X152806995Y-94184988D01*
X152802655Y-94188794D01*
X152802651Y-94188797D01*
X152651809Y-94321083D01*
X152647468Y-94324890D01*
X152643893Y-94329425D01*
X152643892Y-94329426D01*
X152581449Y-94408634D01*
X152523567Y-94449747D01*
X152452647Y-94453041D01*
X152391205Y-94417469D01*
X152358748Y-94354326D01*
X152356499Y-94330628D01*
X152356499Y-94178331D01*
X152356129Y-94171510D01*
X152350605Y-94120648D01*
X152346979Y-94105396D01*
X152301824Y-93984946D01*
X152293286Y-93969351D01*
X152216785Y-93867276D01*
X152204224Y-93854715D01*
X152102149Y-93778214D01*
X152086554Y-93769676D01*
X151966106Y-93724522D01*
X151950851Y-93720895D01*
X151899986Y-93715369D01*
X151893172Y-93715000D01*
X151220615Y-93715000D01*
X151205376Y-93719475D01*
X151204171Y-93720865D01*
X151202500Y-93728548D01*
X151202500Y-96512884D01*
X150694500Y-96512884D01*
X150694500Y-95395115D01*
X150690025Y-95379876D01*
X150688635Y-95378671D01*
X150680952Y-95377000D01*
X149558616Y-95377000D01*
X149543377Y-95381475D01*
X149542172Y-95382865D01*
X149540501Y-95390548D01*
X149540501Y-96067669D01*
X139832168Y-96067669D01*
X139966030Y-95906717D01*
X139968854Y-95901674D01*
X139968857Y-95901670D01*
X140066883Y-95726632D01*
X140066884Y-95726630D01*
X140069707Y-95721589D01*
X140119943Y-95573596D01*
X140136054Y-95526136D01*
X140136055Y-95526131D01*
X140137910Y-95520667D01*
X140139453Y-95510031D01*
X140167824Y-95314355D01*
X140168357Y-95310681D01*
X140169946Y-95250000D01*
X140157622Y-95115884D01*
X140151060Y-95044462D01*
X140151059Y-95044459D01*
X140150531Y-95038708D01*
X140138003Y-94994285D01*
X140097560Y-94850885D01*
X149540500Y-94850885D01*
X149544975Y-94866124D01*
X149546365Y-94867329D01*
X149554048Y-94869000D01*
X150676385Y-94869000D01*
X150691624Y-94864525D01*
X150692829Y-94863135D01*
X150694500Y-94855452D01*
X150694500Y-93733116D01*
X150690025Y-93717877D01*
X150688635Y-93716672D01*
X150680952Y-93715001D01*
X150003831Y-93715001D01*
X149997010Y-93715371D01*
X149946148Y-93720895D01*
X149930896Y-93724521D01*
X149810446Y-93769676D01*
X149794851Y-93778214D01*
X149692776Y-93854715D01*
X149680215Y-93867276D01*
X149603714Y-93969351D01*
X149595176Y-93984946D01*
X149550022Y-94105394D01*
X149546395Y-94120649D01*
X149540869Y-94171514D01*
X149540500Y-94178328D01*
X149540500Y-94850885D01*
X140097560Y-94850885D01*
X140094504Y-94840051D01*
X140094503Y-94840049D01*
X140092936Y-94834492D01*
X140090080Y-94828699D01*
X140001645Y-94649372D01*
X139999090Y-94644191D01*
X139982336Y-94621754D01*
X139875589Y-94478803D01*
X139875588Y-94478802D01*
X139872136Y-94474179D01*
X139867900Y-94470263D01*
X139720566Y-94334069D01*
X139720563Y-94334067D01*
X139716326Y-94330150D01*
X139536877Y-94216926D01*
X139339800Y-94138300D01*
X139334143Y-94137175D01*
X139334137Y-94137173D01*
X139137363Y-94098033D01*
X139137359Y-94098033D01*
X139131695Y-94096906D01*
X139125920Y-94096830D01*
X139125916Y-94096830D01*
X139019304Y-94095434D01*
X138919531Y-94094128D01*
X138913834Y-94095107D01*
X138913833Y-94095107D01*
X138716110Y-94129082D01*
X138710413Y-94130061D01*
X138511346Y-94203501D01*
X138506385Y-94206453D01*
X138506384Y-94206453D01*
X138333963Y-94309032D01*
X138333960Y-94309034D01*
X138328995Y-94311988D01*
X138324655Y-94315794D01*
X138324651Y-94315797D01*
X138173809Y-94448083D01*
X138169468Y-94451890D01*
X138165893Y-94456425D01*
X138165892Y-94456426D01*
X138103449Y-94535634D01*
X138045567Y-94576747D01*
X137974647Y-94580041D01*
X137913205Y-94544469D01*
X137880748Y-94481326D01*
X137878499Y-94457628D01*
X137878499Y-94305331D01*
X137878129Y-94298510D01*
X137872605Y-94247648D01*
X137868979Y-94232396D01*
X137823824Y-94111946D01*
X137815286Y-94096351D01*
X137738785Y-93994276D01*
X137726224Y-93981715D01*
X137624149Y-93905214D01*
X137608554Y-93896676D01*
X137488106Y-93851522D01*
X137472851Y-93847895D01*
X137421986Y-93842369D01*
X137415172Y-93842000D01*
X136742615Y-93842000D01*
X136727376Y-93846475D01*
X136726171Y-93847865D01*
X136724500Y-93855548D01*
X136724500Y-96639884D01*
X136216500Y-96639884D01*
X136216500Y-95522115D01*
X136212025Y-95506876D01*
X136210635Y-95505671D01*
X136202952Y-95504000D01*
X135080616Y-95504000D01*
X135065377Y-95508475D01*
X135064172Y-95509865D01*
X135062501Y-95517548D01*
X135062501Y-96194669D01*
X121564147Y-96194669D01*
X121549122Y-96041433D01*
X121489351Y-95843461D01*
X121426780Y-95725782D01*
X121395159Y-95666311D01*
X121395157Y-95666308D01*
X121392265Y-95660869D01*
X121388374Y-95656099D01*
X121388372Y-95656095D01*
X121265458Y-95505387D01*
X121265455Y-95505384D01*
X121261563Y-95500612D01*
X121249585Y-95490703D01*
X121106971Y-95372722D01*
X121106966Y-95372719D01*
X121102222Y-95368794D01*
X121096803Y-95365864D01*
X121096800Y-95365862D01*
X120925732Y-95273366D01*
X120925727Y-95273364D01*
X120920312Y-95270436D01*
X120722763Y-95209284D01*
X120716638Y-95208640D01*
X120716637Y-95208640D01*
X120523226Y-95188312D01*
X120523224Y-95188312D01*
X120517097Y-95187668D01*
X120390929Y-95199150D01*
X120317291Y-95205851D01*
X120317290Y-95205851D01*
X120311150Y-95206410D01*
X120112766Y-95264798D01*
X120107301Y-95267655D01*
X119934961Y-95357752D01*
X119934957Y-95357755D01*
X119929501Y-95360607D01*
X119768335Y-95490187D01*
X119635408Y-95648604D01*
X119535782Y-95829822D01*
X119473253Y-96026940D01*
X119472567Y-96033057D01*
X119472566Y-96033061D01*
X119451214Y-96223419D01*
X119450201Y-96232450D01*
X118678452Y-96232450D01*
X118772126Y-95672677D01*
X118773014Y-95667933D01*
X118775899Y-95654005D01*
X118936534Y-94878328D01*
X118978658Y-94674920D01*
X118979624Y-94670669D01*
X125592001Y-94670669D01*
X125592371Y-94677490D01*
X125597895Y-94728352D01*
X125601521Y-94743604D01*
X125646676Y-94864054D01*
X125655214Y-94879649D01*
X125731715Y-94981724D01*
X125744276Y-94994285D01*
X125846351Y-95070786D01*
X125861946Y-95079324D01*
X125982394Y-95124478D01*
X125997649Y-95128105D01*
X126048514Y-95133631D01*
X126055328Y-95134000D01*
X126727885Y-95134000D01*
X126743124Y-95129525D01*
X126744329Y-95128135D01*
X126746000Y-95120452D01*
X126746000Y-95115884D01*
X127254000Y-95115884D01*
X127258475Y-95131123D01*
X127259865Y-95132328D01*
X127267548Y-95133999D01*
X127944669Y-95133999D01*
X127951490Y-95133629D01*
X128002352Y-95128105D01*
X128017604Y-95124479D01*
X128138054Y-95079324D01*
X128153649Y-95070786D01*
X128255724Y-94994285D01*
X128268285Y-94981724D01*
X128271162Y-94977885D01*
X135062500Y-94977885D01*
X135066975Y-94993124D01*
X135068365Y-94994329D01*
X135076048Y-94996000D01*
X136198385Y-94996000D01*
X136213624Y-94991525D01*
X136214829Y-94990135D01*
X136216500Y-94982452D01*
X136216500Y-93860116D01*
X136212025Y-93844877D01*
X136210635Y-93843672D01*
X136202952Y-93842001D01*
X135525831Y-93842001D01*
X135519010Y-93842371D01*
X135468148Y-93847895D01*
X135452896Y-93851521D01*
X135332446Y-93896676D01*
X135316851Y-93905214D01*
X135214776Y-93981715D01*
X135202215Y-93994276D01*
X135125714Y-94096351D01*
X135117176Y-94111946D01*
X135072022Y-94232394D01*
X135068395Y-94247649D01*
X135062869Y-94298514D01*
X135062500Y-94305328D01*
X135062500Y-94977885D01*
X128271162Y-94977885D01*
X128344786Y-94879649D01*
X128353324Y-94864054D01*
X128398478Y-94743606D01*
X128402105Y-94728351D01*
X128407631Y-94677486D01*
X128408000Y-94670672D01*
X128408000Y-94521365D01*
X128428002Y-94453244D01*
X128481658Y-94406751D01*
X128551932Y-94396647D01*
X128616512Y-94426141D01*
X128636895Y-94448642D01*
X128658350Y-94479000D01*
X128810337Y-94627059D01*
X128815133Y-94630264D01*
X128815136Y-94630266D01*
X128939033Y-94713051D01*
X128986760Y-94744941D01*
X128992063Y-94747219D01*
X128992066Y-94747221D01*
X129176404Y-94826419D01*
X129181711Y-94828699D01*
X129207313Y-94834492D01*
X129383025Y-94874252D01*
X129383030Y-94874253D01*
X129388662Y-94875527D01*
X129394433Y-94875754D01*
X129394435Y-94875754D01*
X129459911Y-94878326D01*
X129600681Y-94883857D01*
X129714671Y-94867329D01*
X129804953Y-94854239D01*
X129804958Y-94854238D01*
X129810667Y-94853410D01*
X129816131Y-94851555D01*
X129816136Y-94851554D01*
X129949453Y-94806299D01*
X130011589Y-94785207D01*
X130085873Y-94743606D01*
X130191670Y-94684357D01*
X130191674Y-94684354D01*
X130196717Y-94681530D01*
X130359852Y-94545852D01*
X130495530Y-94382717D01*
X130498354Y-94377674D01*
X130498357Y-94377670D01*
X130596383Y-94202632D01*
X130596384Y-94202630D01*
X130599207Y-94197589D01*
X130648721Y-94051723D01*
X130665554Y-94002136D01*
X130665555Y-94002131D01*
X130667410Y-93996667D01*
X130668977Y-93985865D01*
X130689419Y-93844877D01*
X130697857Y-93786681D01*
X130699446Y-93726000D01*
X130682020Y-93536355D01*
X130680560Y-93520462D01*
X130680559Y-93520459D01*
X130680031Y-93514708D01*
X130648519Y-93402973D01*
X130624004Y-93316051D01*
X130624003Y-93316049D01*
X130622436Y-93310492D01*
X130601485Y-93268006D01*
X130567891Y-93199885D01*
X158938500Y-93199885D01*
X158942975Y-93215124D01*
X158944365Y-93216329D01*
X158952048Y-93218000D01*
X160074385Y-93218000D01*
X160089624Y-93213525D01*
X160090829Y-93212135D01*
X160092500Y-93204452D01*
X160092500Y-92082116D01*
X160088025Y-92066877D01*
X160086635Y-92065672D01*
X160078952Y-92064001D01*
X159401831Y-92064001D01*
X159395010Y-92064371D01*
X159344148Y-92069895D01*
X159328896Y-92073521D01*
X159208446Y-92118676D01*
X159192851Y-92127214D01*
X159090776Y-92203715D01*
X159078215Y-92216276D01*
X159001714Y-92318351D01*
X158993176Y-92333946D01*
X158948022Y-92454394D01*
X158944395Y-92469649D01*
X158938869Y-92520514D01*
X158938500Y-92527328D01*
X158938500Y-93199885D01*
X130567891Y-93199885D01*
X130531145Y-93125372D01*
X130528590Y-93120191D01*
X130401636Y-92950179D01*
X130397400Y-92946263D01*
X130250066Y-92810069D01*
X130250063Y-92810067D01*
X130245826Y-92806150D01*
X130066377Y-92692926D01*
X129869300Y-92614300D01*
X129863643Y-92613175D01*
X129863637Y-92613173D01*
X129666863Y-92574033D01*
X129666859Y-92574033D01*
X129661195Y-92572906D01*
X129655420Y-92572830D01*
X129655416Y-92572830D01*
X129548804Y-92571434D01*
X129449031Y-92570128D01*
X129443334Y-92571107D01*
X129443333Y-92571107D01*
X129245610Y-92605082D01*
X129239913Y-92606061D01*
X129040846Y-92679501D01*
X129035885Y-92682453D01*
X129035884Y-92682453D01*
X128863463Y-92785032D01*
X128863460Y-92785034D01*
X128858495Y-92787988D01*
X128854155Y-92791794D01*
X128854151Y-92791797D01*
X128818886Y-92822724D01*
X128698968Y-92927890D01*
X128695393Y-92932425D01*
X128695392Y-92932426D01*
X128632949Y-93011634D01*
X128575067Y-93052747D01*
X128504147Y-93056041D01*
X128442705Y-93020469D01*
X128410248Y-92957326D01*
X128407999Y-92933628D01*
X128407999Y-92781331D01*
X128407629Y-92774510D01*
X128402105Y-92723648D01*
X128398479Y-92708396D01*
X128353324Y-92587946D01*
X128344786Y-92572351D01*
X128299307Y-92511669D01*
X139634501Y-92511669D01*
X139634871Y-92518490D01*
X139640395Y-92569352D01*
X139644021Y-92584604D01*
X139689176Y-92705054D01*
X139697714Y-92720649D01*
X139774215Y-92822724D01*
X139786776Y-92835285D01*
X139888851Y-92911786D01*
X139904446Y-92920324D01*
X140024894Y-92965478D01*
X140040149Y-92969105D01*
X140091014Y-92974631D01*
X140097828Y-92975000D01*
X140770385Y-92975000D01*
X140785624Y-92970525D01*
X140786829Y-92969135D01*
X140788500Y-92961452D01*
X140788500Y-92956884D01*
X141296500Y-92956884D01*
X141300975Y-92972123D01*
X141302365Y-92973328D01*
X141310048Y-92974999D01*
X141987169Y-92974999D01*
X141993990Y-92974629D01*
X142044852Y-92969105D01*
X142060104Y-92965479D01*
X142180554Y-92920324D01*
X142196149Y-92911786D01*
X142298224Y-92835285D01*
X142310785Y-92822724D01*
X142387286Y-92720649D01*
X142395824Y-92705054D01*
X142440978Y-92584606D01*
X142444605Y-92569351D01*
X142450131Y-92518486D01*
X142450500Y-92511672D01*
X142450500Y-92362365D01*
X142470502Y-92294244D01*
X142524158Y-92247751D01*
X142594432Y-92237647D01*
X142659012Y-92267141D01*
X142679395Y-92289642D01*
X142700850Y-92320000D01*
X142763688Y-92381214D01*
X142842219Y-92457715D01*
X142852837Y-92468059D01*
X142857633Y-92471264D01*
X142857636Y-92471266D01*
X142947083Y-92531032D01*
X143029260Y-92585941D01*
X143034563Y-92588219D01*
X143034566Y-92588221D01*
X143116408Y-92623383D01*
X143224211Y-92669699D01*
X143280576Y-92682453D01*
X143425525Y-92715252D01*
X143425530Y-92715253D01*
X143431162Y-92716527D01*
X143436933Y-92716754D01*
X143436935Y-92716754D01*
X143502411Y-92719326D01*
X143643181Y-92724857D01*
X143767413Y-92706844D01*
X143847453Y-92695239D01*
X143847458Y-92695238D01*
X143853167Y-92694410D01*
X143858631Y-92692555D01*
X143858636Y-92692554D01*
X143951740Y-92660949D01*
X144054089Y-92626207D01*
X144059132Y-92623383D01*
X144234170Y-92525357D01*
X144234174Y-92525354D01*
X144239217Y-92522530D01*
X144252276Y-92511669D01*
X145476501Y-92511669D01*
X145476871Y-92518490D01*
X145482395Y-92569352D01*
X145486021Y-92584604D01*
X145531176Y-92705054D01*
X145539714Y-92720649D01*
X145616215Y-92822724D01*
X145628776Y-92835285D01*
X145730851Y-92911786D01*
X145746446Y-92920324D01*
X145866894Y-92965478D01*
X145882149Y-92969105D01*
X145933014Y-92974631D01*
X145939828Y-92975000D01*
X146612385Y-92975000D01*
X146627624Y-92970525D01*
X146628829Y-92969135D01*
X146630500Y-92961452D01*
X146630500Y-92956884D01*
X147138500Y-92956884D01*
X147142975Y-92972123D01*
X147144365Y-92973328D01*
X147152048Y-92974999D01*
X147829169Y-92974999D01*
X147835990Y-92974629D01*
X147886852Y-92969105D01*
X147902104Y-92965479D01*
X148022554Y-92920324D01*
X148038149Y-92911786D01*
X148140224Y-92835285D01*
X148152785Y-92822724D01*
X148229286Y-92720649D01*
X148237824Y-92705054D01*
X148282978Y-92584606D01*
X148286605Y-92569351D01*
X148292131Y-92518486D01*
X148292500Y-92511672D01*
X148292500Y-92362365D01*
X148312502Y-92294244D01*
X148366158Y-92247751D01*
X148436432Y-92237647D01*
X148501012Y-92267141D01*
X148521395Y-92289642D01*
X148542850Y-92320000D01*
X148605688Y-92381214D01*
X148684219Y-92457715D01*
X148694837Y-92468059D01*
X148699633Y-92471264D01*
X148699636Y-92471266D01*
X148789083Y-92531032D01*
X148871260Y-92585941D01*
X148876563Y-92588219D01*
X148876566Y-92588221D01*
X148958408Y-92623383D01*
X149066211Y-92669699D01*
X149122576Y-92682453D01*
X149267525Y-92715252D01*
X149267530Y-92715253D01*
X149273162Y-92716527D01*
X149278933Y-92716754D01*
X149278935Y-92716754D01*
X149344411Y-92719326D01*
X149485181Y-92724857D01*
X149609413Y-92706844D01*
X149689453Y-92695239D01*
X149689458Y-92695238D01*
X149695167Y-92694410D01*
X149700631Y-92692555D01*
X149700636Y-92692554D01*
X149793740Y-92660949D01*
X149896089Y-92626207D01*
X149901132Y-92623383D01*
X150076170Y-92525357D01*
X150076174Y-92525354D01*
X150081217Y-92522530D01*
X150244352Y-92386852D01*
X150380030Y-92223717D01*
X150382854Y-92218674D01*
X150382857Y-92218670D01*
X150480883Y-92043632D01*
X150480884Y-92043630D01*
X150483707Y-92038589D01*
X150551910Y-91837667D01*
X150553477Y-91826865D01*
X150581824Y-91631355D01*
X150582357Y-91627681D01*
X150583946Y-91567000D01*
X150564531Y-91355708D01*
X150506936Y-91151492D01*
X150413090Y-90961191D01*
X150286136Y-90791179D01*
X150281900Y-90787263D01*
X150134566Y-90651069D01*
X150134563Y-90651067D01*
X150130326Y-90647150D01*
X149950877Y-90533926D01*
X149753800Y-90455300D01*
X149748143Y-90454175D01*
X149748137Y-90454173D01*
X149551363Y-90415033D01*
X149551359Y-90415033D01*
X149545695Y-90413906D01*
X149539920Y-90413830D01*
X149539916Y-90413830D01*
X149433304Y-90412434D01*
X149333531Y-90411128D01*
X149327834Y-90412107D01*
X149327833Y-90412107D01*
X149310805Y-90415033D01*
X149124413Y-90447061D01*
X148925346Y-90520501D01*
X148920385Y-90523453D01*
X148920384Y-90523453D01*
X148747963Y-90626032D01*
X148747960Y-90626034D01*
X148742995Y-90628988D01*
X148738655Y-90632794D01*
X148738651Y-90632797D01*
X148587809Y-90765083D01*
X148583468Y-90768890D01*
X148579893Y-90773425D01*
X148579892Y-90773426D01*
X148517449Y-90852634D01*
X148459567Y-90893747D01*
X148388647Y-90897041D01*
X148327205Y-90861469D01*
X148294748Y-90798326D01*
X148292499Y-90774628D01*
X148292499Y-90622331D01*
X148292129Y-90615510D01*
X148286605Y-90564648D01*
X148282979Y-90549396D01*
X148237824Y-90428946D01*
X148229286Y-90413351D01*
X148152785Y-90311276D01*
X148140224Y-90298715D01*
X148038149Y-90222214D01*
X148022554Y-90213676D01*
X147902106Y-90168522D01*
X147886851Y-90164895D01*
X147835986Y-90159369D01*
X147829172Y-90159000D01*
X147156615Y-90159000D01*
X147141376Y-90163475D01*
X147140171Y-90164865D01*
X147138500Y-90172548D01*
X147138500Y-92956884D01*
X146630500Y-92956884D01*
X146630500Y-91839115D01*
X146626025Y-91823876D01*
X146624635Y-91822671D01*
X146616952Y-91821000D01*
X145494616Y-91821000D01*
X145479377Y-91825475D01*
X145478172Y-91826865D01*
X145476501Y-91834548D01*
X145476501Y-92511669D01*
X144252276Y-92511669D01*
X144402352Y-92386852D01*
X144538030Y-92223717D01*
X144540854Y-92218674D01*
X144540857Y-92218670D01*
X144638883Y-92043632D01*
X144638884Y-92043630D01*
X144641707Y-92038589D01*
X144709910Y-91837667D01*
X144711477Y-91826865D01*
X144739824Y-91631355D01*
X144740357Y-91627681D01*
X144741946Y-91567000D01*
X144722531Y-91355708D01*
X144705377Y-91294885D01*
X145476500Y-91294885D01*
X145480975Y-91310124D01*
X145482365Y-91311329D01*
X145490048Y-91313000D01*
X146612385Y-91313000D01*
X146627624Y-91308525D01*
X146628829Y-91307135D01*
X146630500Y-91299452D01*
X146630500Y-90177116D01*
X146626025Y-90161877D01*
X146624635Y-90160672D01*
X146616952Y-90159001D01*
X145939831Y-90159001D01*
X145933010Y-90159371D01*
X145882148Y-90164895D01*
X145866896Y-90168521D01*
X145746446Y-90213676D01*
X145730851Y-90222214D01*
X145628776Y-90298715D01*
X145616215Y-90311276D01*
X145539714Y-90413351D01*
X145531176Y-90428946D01*
X145486022Y-90549394D01*
X145482395Y-90564649D01*
X145476869Y-90615514D01*
X145476500Y-90622328D01*
X145476500Y-91294885D01*
X144705377Y-91294885D01*
X144664936Y-91151492D01*
X144571090Y-90961191D01*
X144444136Y-90791179D01*
X144439900Y-90787263D01*
X144292566Y-90651069D01*
X144292563Y-90651067D01*
X144288326Y-90647150D01*
X144108877Y-90533926D01*
X143911800Y-90455300D01*
X143906143Y-90454175D01*
X143906137Y-90454173D01*
X143709363Y-90415033D01*
X143709359Y-90415033D01*
X143703695Y-90413906D01*
X143697920Y-90413830D01*
X143697916Y-90413830D01*
X143591304Y-90412434D01*
X143491531Y-90411128D01*
X143485834Y-90412107D01*
X143485833Y-90412107D01*
X143468805Y-90415033D01*
X143282413Y-90447061D01*
X143083346Y-90520501D01*
X143078385Y-90523453D01*
X143078384Y-90523453D01*
X142905963Y-90626032D01*
X142905960Y-90626034D01*
X142900995Y-90628988D01*
X142896655Y-90632794D01*
X142896651Y-90632797D01*
X142745809Y-90765083D01*
X142741468Y-90768890D01*
X142737893Y-90773425D01*
X142737892Y-90773426D01*
X142675449Y-90852634D01*
X142617567Y-90893747D01*
X142546647Y-90897041D01*
X142485205Y-90861469D01*
X142452748Y-90798326D01*
X142450499Y-90774628D01*
X142450499Y-90622331D01*
X142450129Y-90615510D01*
X142444605Y-90564648D01*
X142440979Y-90549396D01*
X142395824Y-90428946D01*
X142387286Y-90413351D01*
X142310785Y-90311276D01*
X142298224Y-90298715D01*
X142196149Y-90222214D01*
X142180554Y-90213676D01*
X142060106Y-90168522D01*
X142044851Y-90164895D01*
X141993986Y-90159369D01*
X141987172Y-90159000D01*
X141314615Y-90159000D01*
X141299376Y-90163475D01*
X141298171Y-90164865D01*
X141296500Y-90172548D01*
X141296500Y-92956884D01*
X140788500Y-92956884D01*
X140788500Y-91839115D01*
X140784025Y-91823876D01*
X140782635Y-91822671D01*
X140774952Y-91821000D01*
X139652616Y-91821000D01*
X139637377Y-91825475D01*
X139636172Y-91826865D01*
X139634501Y-91834548D01*
X139634501Y-92511669D01*
X128299307Y-92511669D01*
X128268285Y-92470276D01*
X128255724Y-92457715D01*
X128153649Y-92381214D01*
X128138054Y-92372676D01*
X128017606Y-92327522D01*
X128002351Y-92323895D01*
X127951486Y-92318369D01*
X127944672Y-92318000D01*
X127272115Y-92318000D01*
X127256876Y-92322475D01*
X127255671Y-92323865D01*
X127254000Y-92331548D01*
X127254000Y-95115884D01*
X126746000Y-95115884D01*
X126746000Y-93998115D01*
X126741525Y-93982876D01*
X126740135Y-93981671D01*
X126732452Y-93980000D01*
X125610116Y-93980000D01*
X125594877Y-93984475D01*
X125593672Y-93985865D01*
X125592001Y-93993548D01*
X125592001Y-94670669D01*
X118979624Y-94670669D01*
X118979730Y-94670202D01*
X119223339Y-93685820D01*
X119224591Y-93681147D01*
X119290187Y-93453885D01*
X125592000Y-93453885D01*
X125596475Y-93469124D01*
X125597865Y-93470329D01*
X125605548Y-93472000D01*
X126727885Y-93472000D01*
X126743124Y-93467525D01*
X126744329Y-93466135D01*
X126746000Y-93458452D01*
X126746000Y-92336116D01*
X126741525Y-92320877D01*
X126740135Y-92319672D01*
X126732452Y-92318001D01*
X126055331Y-92318001D01*
X126048510Y-92318371D01*
X125997648Y-92323895D01*
X125982396Y-92327521D01*
X125861946Y-92372676D01*
X125846351Y-92381214D01*
X125744276Y-92457715D01*
X125731715Y-92470276D01*
X125655214Y-92572351D01*
X125646676Y-92587946D01*
X125601522Y-92708394D01*
X125597895Y-92723649D01*
X125592369Y-92774514D01*
X125592000Y-92781328D01*
X125592000Y-93453885D01*
X119290187Y-93453885D01*
X119500849Y-92724028D01*
X119505810Y-92706842D01*
X119507239Y-92702223D01*
X119544942Y-92588221D01*
X119825663Y-91739397D01*
X119827265Y-91734849D01*
X119868721Y-91623972D01*
X119985613Y-91311329D01*
X119991761Y-91294885D01*
X139634500Y-91294885D01*
X139638975Y-91310124D01*
X139640365Y-91311329D01*
X139648048Y-91313000D01*
X140770385Y-91313000D01*
X140785624Y-91308525D01*
X140786829Y-91307135D01*
X140788500Y-91299452D01*
X140788500Y-90177116D01*
X140784025Y-90161877D01*
X140782635Y-90160672D01*
X140774952Y-90159001D01*
X140097831Y-90159001D01*
X140091010Y-90159371D01*
X140040148Y-90164895D01*
X140024896Y-90168521D01*
X139904446Y-90213676D01*
X139888851Y-90222214D01*
X139786776Y-90298715D01*
X139774215Y-90311276D01*
X139697714Y-90413351D01*
X139689176Y-90428946D01*
X139644022Y-90549394D01*
X139640395Y-90564649D01*
X139634869Y-90615514D01*
X139634500Y-90622328D01*
X139634500Y-91294885D01*
X119991761Y-91294885D01*
X120182405Y-90784986D01*
X120184186Y-90780488D01*
X120575526Y-89844961D01*
X120577478Y-89840535D01*
X120811364Y-89336669D01*
X155128501Y-89336669D01*
X155128871Y-89343490D01*
X155134395Y-89394352D01*
X155138021Y-89409604D01*
X155183176Y-89530054D01*
X155191714Y-89545649D01*
X155268215Y-89647724D01*
X155280776Y-89660285D01*
X155382851Y-89736786D01*
X155398446Y-89745324D01*
X155518894Y-89790478D01*
X155534149Y-89794105D01*
X155585014Y-89799631D01*
X155591828Y-89800000D01*
X156264385Y-89800000D01*
X156279624Y-89795525D01*
X156280829Y-89794135D01*
X156282500Y-89786452D01*
X156282500Y-89781884D01*
X156790500Y-89781884D01*
X156794975Y-89797123D01*
X156796365Y-89798328D01*
X156804048Y-89799999D01*
X157481169Y-89799999D01*
X157487990Y-89799629D01*
X157538852Y-89794105D01*
X157554104Y-89790479D01*
X157674554Y-89745324D01*
X157690149Y-89736786D01*
X157792224Y-89660285D01*
X157804785Y-89647724D01*
X157881286Y-89545649D01*
X157889824Y-89530054D01*
X157934978Y-89409606D01*
X157938605Y-89394351D01*
X157944131Y-89343486D01*
X157944500Y-89336672D01*
X157944500Y-89187365D01*
X157964502Y-89119244D01*
X158018158Y-89072751D01*
X158088432Y-89062647D01*
X158153012Y-89092141D01*
X158173395Y-89114642D01*
X158194850Y-89145000D01*
X158198984Y-89149027D01*
X158339699Y-89286105D01*
X158346837Y-89293059D01*
X158351633Y-89296264D01*
X158351636Y-89296266D01*
X158493686Y-89391180D01*
X158523260Y-89410941D01*
X158528563Y-89413219D01*
X158528566Y-89413221D01*
X158610408Y-89448383D01*
X158718211Y-89494699D01*
X158794250Y-89511905D01*
X158919525Y-89540252D01*
X158919530Y-89540253D01*
X158925162Y-89541527D01*
X158930933Y-89541754D01*
X158930935Y-89541754D01*
X158996411Y-89544326D01*
X159137181Y-89549857D01*
X159242174Y-89534633D01*
X159341453Y-89520239D01*
X159341458Y-89520238D01*
X159347167Y-89519410D01*
X159352631Y-89517555D01*
X159352636Y-89517554D01*
X159445740Y-89485949D01*
X159548089Y-89451207D01*
X159622373Y-89409606D01*
X159728170Y-89350357D01*
X159728174Y-89350354D01*
X159733217Y-89347530D01*
X159896352Y-89211852D01*
X160032030Y-89048717D01*
X160034854Y-89043674D01*
X160034857Y-89043670D01*
X160132883Y-88868632D01*
X160132884Y-88868630D01*
X160135707Y-88863589D01*
X160189930Y-88703852D01*
X160202054Y-88668136D01*
X160202055Y-88668131D01*
X160203910Y-88662667D01*
X160205477Y-88651865D01*
X160225689Y-88512462D01*
X160234357Y-88452681D01*
X160235946Y-88392000D01*
X160216531Y-88180708D01*
X160206141Y-88143865D01*
X160160504Y-87982051D01*
X160160503Y-87982049D01*
X160158936Y-87976492D01*
X160148819Y-87955975D01*
X160067645Y-87791372D01*
X160065090Y-87786191D01*
X159994374Y-87691490D01*
X159941589Y-87620803D01*
X159941588Y-87620802D01*
X159938136Y-87616179D01*
X159928927Y-87607666D01*
X159786566Y-87476069D01*
X159786563Y-87476067D01*
X159782326Y-87472150D01*
X159602877Y-87358926D01*
X159405800Y-87280300D01*
X159400143Y-87279175D01*
X159400137Y-87279173D01*
X159203363Y-87240033D01*
X159203359Y-87240033D01*
X159197695Y-87238906D01*
X159191920Y-87238830D01*
X159191916Y-87238830D01*
X159085304Y-87237434D01*
X158985531Y-87236128D01*
X158979834Y-87237107D01*
X158979833Y-87237107D01*
X158962805Y-87240033D01*
X158776413Y-87272061D01*
X158577346Y-87345501D01*
X158572385Y-87348453D01*
X158572384Y-87348453D01*
X158399963Y-87451032D01*
X158399960Y-87451034D01*
X158394995Y-87453988D01*
X158390655Y-87457794D01*
X158390651Y-87457797D01*
X158239809Y-87590083D01*
X158235468Y-87593890D01*
X158231893Y-87598425D01*
X158231892Y-87598426D01*
X158169449Y-87677634D01*
X158111567Y-87718747D01*
X158040647Y-87722041D01*
X157979205Y-87686469D01*
X157946748Y-87623326D01*
X157944499Y-87599628D01*
X157944499Y-87447331D01*
X157944129Y-87440510D01*
X157938605Y-87389648D01*
X157934979Y-87374396D01*
X157889824Y-87253946D01*
X157881286Y-87238351D01*
X157804785Y-87136276D01*
X157792224Y-87123715D01*
X157690149Y-87047214D01*
X157674554Y-87038676D01*
X157554106Y-86993522D01*
X157538851Y-86989895D01*
X157487986Y-86984369D01*
X157481172Y-86984000D01*
X156808615Y-86984000D01*
X156793376Y-86988475D01*
X156792171Y-86989865D01*
X156790500Y-86997548D01*
X156790500Y-89781884D01*
X156282500Y-89781884D01*
X156282500Y-88664115D01*
X156278025Y-88648876D01*
X156276635Y-88647671D01*
X156268952Y-88646000D01*
X155146616Y-88646000D01*
X155131377Y-88650475D01*
X155130172Y-88651865D01*
X155128501Y-88659548D01*
X155128501Y-89336669D01*
X120811364Y-89336669D01*
X121004442Y-88920718D01*
X121006563Y-88916369D01*
X121051441Y-88828669D01*
X129220501Y-88828669D01*
X129220871Y-88835490D01*
X129226395Y-88886352D01*
X129230021Y-88901604D01*
X129275176Y-89022054D01*
X129283714Y-89037649D01*
X129360215Y-89139724D01*
X129372776Y-89152285D01*
X129474851Y-89228786D01*
X129490446Y-89237324D01*
X129610894Y-89282478D01*
X129626149Y-89286105D01*
X129677014Y-89291631D01*
X129683828Y-89292000D01*
X130356385Y-89292000D01*
X130371624Y-89287525D01*
X130372829Y-89286135D01*
X130374500Y-89278452D01*
X130374500Y-89273884D01*
X130882500Y-89273884D01*
X130886975Y-89289123D01*
X130888365Y-89290328D01*
X130896048Y-89291999D01*
X131573169Y-89291999D01*
X131579990Y-89291629D01*
X131630852Y-89286105D01*
X131646104Y-89282479D01*
X131766554Y-89237324D01*
X131782149Y-89228786D01*
X131884224Y-89152285D01*
X131896785Y-89139724D01*
X131973286Y-89037649D01*
X131981824Y-89022054D01*
X132026978Y-88901606D01*
X132030605Y-88886351D01*
X132036131Y-88835486D01*
X132036500Y-88828672D01*
X132036500Y-88679365D01*
X132056502Y-88611244D01*
X132110158Y-88564751D01*
X132180432Y-88554647D01*
X132245012Y-88584141D01*
X132265395Y-88606642D01*
X132286850Y-88637000D01*
X132307332Y-88656953D01*
X132405194Y-88752285D01*
X132438837Y-88785059D01*
X132443633Y-88788264D01*
X132443636Y-88788266D01*
X132563913Y-88868632D01*
X132615260Y-88902941D01*
X132620563Y-88905219D01*
X132620566Y-88905221D01*
X132804904Y-88984419D01*
X132810211Y-88986699D01*
X132886250Y-89003905D01*
X133011525Y-89032252D01*
X133011530Y-89032253D01*
X133017162Y-89033527D01*
X133022933Y-89033754D01*
X133022935Y-89033754D01*
X133088411Y-89036326D01*
X133229181Y-89041857D01*
X133334174Y-89026634D01*
X133433453Y-89012239D01*
X133433458Y-89012238D01*
X133439167Y-89011410D01*
X133444631Y-89009555D01*
X133444636Y-89009554D01*
X133537740Y-88977949D01*
X133640089Y-88943207D01*
X133714373Y-88901606D01*
X133820170Y-88842357D01*
X133820174Y-88842354D01*
X133825217Y-88839530D01*
X133988352Y-88703852D01*
X134124030Y-88540717D01*
X134126854Y-88535674D01*
X134126857Y-88535670D01*
X134224883Y-88360632D01*
X134224884Y-88360630D01*
X134227707Y-88355589D01*
X134262449Y-88253240D01*
X134294054Y-88160136D01*
X134294055Y-88160131D01*
X134295910Y-88154667D01*
X134297364Y-88144643D01*
X134300954Y-88119885D01*
X155128500Y-88119885D01*
X155132975Y-88135124D01*
X155134365Y-88136329D01*
X155142048Y-88138000D01*
X156264385Y-88138000D01*
X156279624Y-88133525D01*
X156280829Y-88132135D01*
X156282500Y-88124452D01*
X156282500Y-87002116D01*
X156278025Y-86986877D01*
X156276635Y-86985672D01*
X156268952Y-86984001D01*
X155591831Y-86984001D01*
X155585010Y-86984371D01*
X155534148Y-86989895D01*
X155518896Y-86993521D01*
X155398446Y-87038676D01*
X155382851Y-87047214D01*
X155280776Y-87123715D01*
X155268215Y-87136276D01*
X155191714Y-87238351D01*
X155183176Y-87253946D01*
X155138022Y-87374394D01*
X155134395Y-87389649D01*
X155128869Y-87440514D01*
X155128500Y-87447328D01*
X155128500Y-88119885D01*
X134300954Y-88119885D01*
X134317302Y-88007131D01*
X134326357Y-87944681D01*
X134327946Y-87884000D01*
X134313064Y-87722041D01*
X134309060Y-87678462D01*
X134309059Y-87678459D01*
X134308531Y-87672708D01*
X134303939Y-87656423D01*
X134252504Y-87474051D01*
X134252503Y-87474049D01*
X134250936Y-87468492D01*
X134243784Y-87453988D01*
X134159645Y-87283372D01*
X134157090Y-87278191D01*
X134152546Y-87272105D01*
X134033589Y-87112803D01*
X134033588Y-87112802D01*
X134030136Y-87108179D01*
X134025900Y-87104263D01*
X133878566Y-86968069D01*
X133878563Y-86968067D01*
X133874326Y-86964150D01*
X133694877Y-86850926D01*
X133497800Y-86772300D01*
X133492143Y-86771175D01*
X133492137Y-86771173D01*
X133295363Y-86732033D01*
X133295359Y-86732033D01*
X133289695Y-86730906D01*
X133283920Y-86730830D01*
X133283916Y-86730830D01*
X133177304Y-86729434D01*
X133077531Y-86728128D01*
X133071834Y-86729107D01*
X133071833Y-86729107D01*
X133054805Y-86732033D01*
X132868413Y-86764061D01*
X132669346Y-86837501D01*
X132664385Y-86840453D01*
X132664384Y-86840453D01*
X132491963Y-86943032D01*
X132491960Y-86943034D01*
X132486995Y-86945988D01*
X132482655Y-86949794D01*
X132482651Y-86949797D01*
X132376760Y-87042662D01*
X132327468Y-87085890D01*
X132323893Y-87090425D01*
X132323892Y-87090426D01*
X132261449Y-87169634D01*
X132203567Y-87210747D01*
X132132647Y-87214041D01*
X132071205Y-87178469D01*
X132038748Y-87115326D01*
X132036499Y-87091628D01*
X132036499Y-86939331D01*
X132036129Y-86932510D01*
X132030605Y-86881648D01*
X132026979Y-86866396D01*
X131981824Y-86745946D01*
X131973286Y-86730351D01*
X131896785Y-86628276D01*
X131884224Y-86615715D01*
X131782149Y-86539214D01*
X131766554Y-86530676D01*
X131646106Y-86485522D01*
X131630851Y-86481895D01*
X131579986Y-86476369D01*
X131573172Y-86476000D01*
X130900615Y-86476000D01*
X130885376Y-86480475D01*
X130884171Y-86481865D01*
X130882500Y-86489548D01*
X130882500Y-89273884D01*
X130374500Y-89273884D01*
X130374500Y-88156115D01*
X130370025Y-88140876D01*
X130368635Y-88139671D01*
X130360952Y-88138000D01*
X129238616Y-88138000D01*
X129223377Y-88142475D01*
X129222172Y-88143865D01*
X129220501Y-88151548D01*
X129220501Y-88828669D01*
X121051441Y-88828669D01*
X121279512Y-88382980D01*
X121468534Y-88013599D01*
X121470813Y-88009348D01*
X121486132Y-87982051D01*
X121691450Y-87616179D01*
X121967083Y-87125008D01*
X121969531Y-87120835D01*
X122028649Y-87024363D01*
X123744003Y-87024363D01*
X123745205Y-87038676D01*
X123759655Y-87210747D01*
X123761308Y-87230435D01*
X123818309Y-87429223D01*
X123821127Y-87434705D01*
X123821128Y-87434709D01*
X123910016Y-87607666D01*
X123910019Y-87607670D01*
X123912836Y-87613152D01*
X124041288Y-87775218D01*
X124045981Y-87779212D01*
X124045982Y-87779213D01*
X124179971Y-87893246D01*
X124198773Y-87909248D01*
X124379291Y-88010137D01*
X124575968Y-88074041D01*
X124781311Y-88098527D01*
X124787446Y-88098055D01*
X124787448Y-88098055D01*
X124981358Y-88083134D01*
X124981362Y-88083133D01*
X124987500Y-88082661D01*
X125186680Y-88027049D01*
X125192184Y-88024269D01*
X125192186Y-88024268D01*
X125365764Y-87936588D01*
X125365766Y-87936587D01*
X125371265Y-87933809D01*
X125534224Y-87806491D01*
X125538250Y-87801827D01*
X125538253Y-87801824D01*
X125665321Y-87654614D01*
X125665322Y-87654612D01*
X125669350Y-87649946D01*
X125690972Y-87611885D01*
X129220500Y-87611885D01*
X129224975Y-87627124D01*
X129226365Y-87628329D01*
X129234048Y-87630000D01*
X130356385Y-87630000D01*
X130371624Y-87625525D01*
X130372829Y-87624135D01*
X130374500Y-87616452D01*
X130374500Y-86494116D01*
X130370025Y-86478877D01*
X130368635Y-86477672D01*
X130360952Y-86476001D01*
X129683831Y-86476001D01*
X129677010Y-86476371D01*
X129626148Y-86481895D01*
X129610896Y-86485521D01*
X129490446Y-86530676D01*
X129474851Y-86539214D01*
X129372776Y-86615715D01*
X129360215Y-86628276D01*
X129283714Y-86730351D01*
X129275176Y-86745946D01*
X129230022Y-86866394D01*
X129226395Y-86881649D01*
X129220869Y-86932514D01*
X129220500Y-86939328D01*
X129220500Y-87611885D01*
X125690972Y-87611885D01*
X125734184Y-87535819D01*
X125768452Y-87475497D01*
X125768454Y-87475493D01*
X125771497Y-87470136D01*
X125826596Y-87304502D01*
X125834827Y-87279758D01*
X125834828Y-87279755D01*
X125836772Y-87273910D01*
X125862691Y-87068743D01*
X125863104Y-87039157D01*
X125842924Y-86833346D01*
X125783153Y-86635374D01*
X125712737Y-86502940D01*
X125688961Y-86458224D01*
X125688959Y-86458221D01*
X125686067Y-86452782D01*
X125682176Y-86448012D01*
X125682174Y-86448008D01*
X125559260Y-86297300D01*
X125559257Y-86297297D01*
X125555365Y-86292525D01*
X125548468Y-86286819D01*
X125400773Y-86164635D01*
X125400768Y-86164632D01*
X125396024Y-86160707D01*
X125390605Y-86157777D01*
X125390602Y-86157775D01*
X125219534Y-86065279D01*
X125219529Y-86065277D01*
X125214114Y-86062349D01*
X125016565Y-86001197D01*
X125010440Y-86000553D01*
X125010439Y-86000553D01*
X124817028Y-85980225D01*
X124817026Y-85980225D01*
X124810899Y-85979581D01*
X124684731Y-85991063D01*
X124611093Y-85997764D01*
X124611092Y-85997764D01*
X124604952Y-85998323D01*
X124406568Y-86056711D01*
X124401103Y-86059568D01*
X124228763Y-86149665D01*
X124228759Y-86149668D01*
X124223303Y-86152520D01*
X124062137Y-86282100D01*
X123929210Y-86440517D01*
X123829584Y-86621735D01*
X123767055Y-86818853D01*
X123766369Y-86824970D01*
X123766368Y-86824974D01*
X123747462Y-86993522D01*
X123744003Y-87024363D01*
X122028649Y-87024363D01*
X122499402Y-86256163D01*
X122502009Y-86252088D01*
X123064653Y-85408439D01*
X123067414Y-85404466D01*
X123662049Y-84583011D01*
X123664960Y-84579148D01*
X124116977Y-84002669D01*
X134808501Y-84002669D01*
X134808871Y-84009490D01*
X134814395Y-84060352D01*
X134818021Y-84075604D01*
X134863176Y-84196054D01*
X134871714Y-84211649D01*
X134948215Y-84313724D01*
X134960776Y-84326285D01*
X135062851Y-84402786D01*
X135078446Y-84411324D01*
X135198894Y-84456478D01*
X135214149Y-84460105D01*
X135265014Y-84465631D01*
X135271828Y-84466000D01*
X135944385Y-84466000D01*
X135959624Y-84461525D01*
X135960829Y-84460135D01*
X135962500Y-84452452D01*
X135962500Y-84447884D01*
X136470500Y-84447884D01*
X136474975Y-84463123D01*
X136476365Y-84464328D01*
X136484048Y-84465999D01*
X137161169Y-84465999D01*
X137167990Y-84465629D01*
X137218852Y-84460105D01*
X137234104Y-84456479D01*
X137354554Y-84411324D01*
X137370149Y-84402786D01*
X137472224Y-84326285D01*
X137484785Y-84313724D01*
X137527545Y-84256669D01*
X149540501Y-84256669D01*
X149540871Y-84263490D01*
X149546395Y-84314352D01*
X149550021Y-84329604D01*
X149595176Y-84450054D01*
X149603714Y-84465649D01*
X149680215Y-84567724D01*
X149692776Y-84580285D01*
X149794851Y-84656786D01*
X149810446Y-84665324D01*
X149930894Y-84710478D01*
X149946149Y-84714105D01*
X149997014Y-84719631D01*
X150003828Y-84720000D01*
X150676385Y-84720000D01*
X150691624Y-84715525D01*
X150692829Y-84714135D01*
X150694500Y-84706452D01*
X150694500Y-84701884D01*
X151202500Y-84701884D01*
X151206975Y-84717123D01*
X151208365Y-84718328D01*
X151216048Y-84719999D01*
X151893169Y-84719999D01*
X151899990Y-84719629D01*
X151950852Y-84714105D01*
X151966104Y-84710479D01*
X152086554Y-84665324D01*
X152102149Y-84656786D01*
X152204224Y-84580285D01*
X152216785Y-84567724D01*
X152293286Y-84465649D01*
X152301824Y-84450054D01*
X152346978Y-84329606D01*
X152350605Y-84314351D01*
X152356131Y-84263486D01*
X152356500Y-84256672D01*
X152356500Y-84107365D01*
X152376502Y-84039244D01*
X152430158Y-83992751D01*
X152500432Y-83982647D01*
X152565012Y-84012141D01*
X152585395Y-84034642D01*
X152606850Y-84065000D01*
X152758837Y-84213059D01*
X152763633Y-84216264D01*
X152763636Y-84216266D01*
X152869243Y-84286830D01*
X152935260Y-84330941D01*
X152940563Y-84333219D01*
X152940566Y-84333221D01*
X153124904Y-84412419D01*
X153130211Y-84414699D01*
X153204854Y-84431589D01*
X153331525Y-84460252D01*
X153331530Y-84460253D01*
X153337162Y-84461527D01*
X153342933Y-84461754D01*
X153342935Y-84461754D01*
X153408411Y-84464326D01*
X153549181Y-84469857D01*
X153654174Y-84454633D01*
X153753453Y-84440239D01*
X153753458Y-84440238D01*
X153759167Y-84439410D01*
X153764631Y-84437555D01*
X153764636Y-84437554D01*
X153893914Y-84393670D01*
X153960089Y-84371207D01*
X153996925Y-84350578D01*
X154140170Y-84270357D01*
X154140174Y-84270354D01*
X154145217Y-84267530D01*
X154308352Y-84131852D01*
X154444030Y-83968717D01*
X154446854Y-83963674D01*
X154446857Y-83963670D01*
X154544883Y-83788632D01*
X154544884Y-83788630D01*
X154547707Y-83783589D01*
X154615910Y-83582667D01*
X154617477Y-83571865D01*
X154645824Y-83376355D01*
X154646357Y-83372681D01*
X154647946Y-83312000D01*
X154630520Y-83122355D01*
X154629060Y-83106462D01*
X154629059Y-83106459D01*
X154628531Y-83100708D01*
X154616003Y-83056285D01*
X154572504Y-82902051D01*
X154572503Y-82902049D01*
X154570936Y-82896492D01*
X154568080Y-82890699D01*
X154479645Y-82711372D01*
X154477090Y-82706191D01*
X154385372Y-82583365D01*
X154353589Y-82540803D01*
X154353588Y-82540802D01*
X154350136Y-82536179D01*
X154336475Y-82523551D01*
X154198566Y-82396069D01*
X154198563Y-82396067D01*
X154194326Y-82392150D01*
X154014877Y-82278926D01*
X153817800Y-82200300D01*
X153812143Y-82199175D01*
X153812137Y-82199173D01*
X153615363Y-82160033D01*
X153615359Y-82160033D01*
X153609695Y-82158906D01*
X153603920Y-82158830D01*
X153603916Y-82158830D01*
X153497304Y-82157434D01*
X153397531Y-82156128D01*
X153391834Y-82157107D01*
X153391833Y-82157107D01*
X153194110Y-82191082D01*
X153188413Y-82192061D01*
X152989346Y-82265501D01*
X152984385Y-82268453D01*
X152984384Y-82268453D01*
X152811963Y-82371032D01*
X152811960Y-82371034D01*
X152806995Y-82373988D01*
X152802655Y-82377794D01*
X152802651Y-82377797D01*
X152657628Y-82504980D01*
X152647468Y-82513890D01*
X152643893Y-82518425D01*
X152643892Y-82518426D01*
X152581449Y-82597634D01*
X152523567Y-82638747D01*
X152452647Y-82642041D01*
X152391205Y-82606469D01*
X152358748Y-82543326D01*
X152356499Y-82519628D01*
X152356499Y-82367331D01*
X152356129Y-82360510D01*
X152350605Y-82309648D01*
X152346979Y-82294396D01*
X152301824Y-82173946D01*
X152293286Y-82158351D01*
X152216785Y-82056276D01*
X152204224Y-82043715D01*
X152102149Y-81967214D01*
X152086554Y-81958676D01*
X151966106Y-81913522D01*
X151950851Y-81909895D01*
X151899986Y-81904369D01*
X151893172Y-81904000D01*
X151220615Y-81904000D01*
X151205376Y-81908475D01*
X151204171Y-81909865D01*
X151202500Y-81917548D01*
X151202500Y-84701884D01*
X150694500Y-84701884D01*
X150694500Y-83584115D01*
X150690025Y-83568876D01*
X150688635Y-83567671D01*
X150680952Y-83566000D01*
X149558616Y-83566000D01*
X149543377Y-83570475D01*
X149542172Y-83571865D01*
X149540501Y-83579548D01*
X149540501Y-84256669D01*
X137527545Y-84256669D01*
X137561286Y-84211649D01*
X137569824Y-84196054D01*
X137614978Y-84075606D01*
X137618605Y-84060351D01*
X137624131Y-84009486D01*
X137624500Y-84002672D01*
X137624500Y-83853365D01*
X137644502Y-83785244D01*
X137698158Y-83738751D01*
X137768432Y-83728647D01*
X137833012Y-83758141D01*
X137853395Y-83780642D01*
X137874850Y-83811000D01*
X138026837Y-83959059D01*
X138031633Y-83962264D01*
X138031636Y-83962266D01*
X138139958Y-84034644D01*
X138203260Y-84076941D01*
X138208563Y-84079219D01*
X138208566Y-84079221D01*
X138390844Y-84157534D01*
X138398211Y-84160699D01*
X138474250Y-84177905D01*
X138599525Y-84206252D01*
X138599530Y-84206253D01*
X138605162Y-84207527D01*
X138610933Y-84207754D01*
X138610935Y-84207754D01*
X138674265Y-84210242D01*
X138817181Y-84215857D01*
X138922174Y-84200633D01*
X139021453Y-84186239D01*
X139021458Y-84186238D01*
X139027167Y-84185410D01*
X139032631Y-84183555D01*
X139032636Y-84183554D01*
X139129332Y-84150730D01*
X139228089Y-84117207D01*
X139233132Y-84114383D01*
X139408170Y-84016357D01*
X139408174Y-84016354D01*
X139413217Y-84013530D01*
X139576352Y-83877852D01*
X139712030Y-83714717D01*
X139714854Y-83709674D01*
X139714857Y-83709670D01*
X139812883Y-83534632D01*
X139812884Y-83534630D01*
X139815707Y-83529589D01*
X139853646Y-83417824D01*
X139882054Y-83334136D01*
X139882055Y-83334131D01*
X139883910Y-83328667D01*
X139885477Y-83317865D01*
X139903795Y-83191525D01*
X139914357Y-83118681D01*
X139915946Y-83058000D01*
X139896531Y-82846708D01*
X139884939Y-82805604D01*
X139864369Y-82732669D01*
X142428501Y-82732669D01*
X142428871Y-82739490D01*
X142434395Y-82790352D01*
X142438021Y-82805604D01*
X142483176Y-82926054D01*
X142491714Y-82941649D01*
X142568215Y-83043724D01*
X142580776Y-83056285D01*
X142682851Y-83132786D01*
X142698446Y-83141324D01*
X142818894Y-83186478D01*
X142834149Y-83190105D01*
X142885014Y-83195631D01*
X142891828Y-83196000D01*
X143564385Y-83196000D01*
X143579624Y-83191525D01*
X143580829Y-83190135D01*
X143582500Y-83182452D01*
X143582500Y-83177884D01*
X144090500Y-83177884D01*
X144094975Y-83193123D01*
X144096365Y-83194328D01*
X144104048Y-83195999D01*
X144781169Y-83195999D01*
X144787990Y-83195629D01*
X144838852Y-83190105D01*
X144854104Y-83186479D01*
X144974554Y-83141324D01*
X144990149Y-83132786D01*
X145092224Y-83056285D01*
X145104785Y-83043724D01*
X145107662Y-83039885D01*
X149540500Y-83039885D01*
X149544975Y-83055124D01*
X149546365Y-83056329D01*
X149554048Y-83058000D01*
X150676385Y-83058000D01*
X150691624Y-83053525D01*
X150692829Y-83052135D01*
X150694500Y-83044452D01*
X150694500Y-81922116D01*
X150690025Y-81906877D01*
X150688635Y-81905672D01*
X150680952Y-81904001D01*
X150003831Y-81904001D01*
X149997010Y-81904371D01*
X149946148Y-81909895D01*
X149930896Y-81913521D01*
X149810446Y-81958676D01*
X149794851Y-81967214D01*
X149692776Y-82043715D01*
X149680215Y-82056276D01*
X149603714Y-82158351D01*
X149595176Y-82173946D01*
X149550022Y-82294394D01*
X149546395Y-82309649D01*
X149540869Y-82360514D01*
X149540500Y-82367328D01*
X149540500Y-83039885D01*
X145107662Y-83039885D01*
X145181286Y-82941649D01*
X145189824Y-82926054D01*
X145234978Y-82805606D01*
X145238605Y-82790351D01*
X145244131Y-82739486D01*
X145244500Y-82732672D01*
X145244500Y-82583365D01*
X145264502Y-82515244D01*
X145318158Y-82468751D01*
X145388432Y-82458647D01*
X145453012Y-82488141D01*
X145473395Y-82510642D01*
X145494850Y-82541000D01*
X145646837Y-82689059D01*
X145651633Y-82692264D01*
X145651636Y-82692266D01*
X145791747Y-82785885D01*
X145823260Y-82806941D01*
X145828563Y-82809219D01*
X145828566Y-82809221D01*
X145966074Y-82868299D01*
X146018211Y-82890699D01*
X146043813Y-82896492D01*
X146219525Y-82936252D01*
X146219530Y-82936253D01*
X146225162Y-82937527D01*
X146230933Y-82937754D01*
X146230935Y-82937754D01*
X146296411Y-82940326D01*
X146437181Y-82945857D01*
X146542174Y-82930634D01*
X146641453Y-82916239D01*
X146641458Y-82916238D01*
X146647167Y-82915410D01*
X146652631Y-82913555D01*
X146652636Y-82913554D01*
X146794446Y-82865416D01*
X146848089Y-82847207D01*
X146858910Y-82841147D01*
X147028170Y-82746357D01*
X147028174Y-82746354D01*
X147033217Y-82743530D01*
X147196352Y-82607852D01*
X147332030Y-82444717D01*
X147334854Y-82439674D01*
X147334857Y-82439670D01*
X147432883Y-82264632D01*
X147432884Y-82264630D01*
X147435707Y-82259589D01*
X147476496Y-82139428D01*
X147502054Y-82064136D01*
X147502055Y-82064131D01*
X147503910Y-82058667D01*
X147505477Y-82047865D01*
X147526041Y-81906033D01*
X147534357Y-81848681D01*
X147535946Y-81788000D01*
X147523300Y-81650371D01*
X147517060Y-81582462D01*
X147517059Y-81582459D01*
X147516531Y-81576708D01*
X147513819Y-81567090D01*
X147460504Y-81378051D01*
X147460503Y-81378049D01*
X147458936Y-81372492D01*
X147448725Y-81351785D01*
X147367645Y-81187372D01*
X147365090Y-81182191D01*
X147322216Y-81124775D01*
X147241589Y-81016803D01*
X147241588Y-81016802D01*
X147238136Y-81012179D01*
X147233900Y-81008263D01*
X147086566Y-80872069D01*
X147086563Y-80872067D01*
X147082326Y-80868150D01*
X146902877Y-80754926D01*
X146705800Y-80676300D01*
X146700143Y-80675175D01*
X146700137Y-80675173D01*
X146503363Y-80636033D01*
X146503359Y-80636033D01*
X146497695Y-80634906D01*
X146491920Y-80634830D01*
X146491916Y-80634830D01*
X146385304Y-80633434D01*
X146285531Y-80632128D01*
X146279834Y-80633107D01*
X146279833Y-80633107D01*
X146082110Y-80667082D01*
X146076413Y-80668061D01*
X145877346Y-80741501D01*
X145872385Y-80744453D01*
X145872384Y-80744453D01*
X145699963Y-80847032D01*
X145699960Y-80847034D01*
X145694995Y-80849988D01*
X145690655Y-80853794D01*
X145690651Y-80853797D01*
X145589105Y-80942851D01*
X145535468Y-80989890D01*
X145531893Y-80994425D01*
X145531892Y-80994426D01*
X145469449Y-81073634D01*
X145411567Y-81114747D01*
X145340647Y-81118041D01*
X145279205Y-81082469D01*
X145246748Y-81019326D01*
X145244499Y-80995628D01*
X145244499Y-80843331D01*
X145244129Y-80836510D01*
X145238605Y-80785648D01*
X145234979Y-80770396D01*
X145189824Y-80649946D01*
X145181286Y-80634351D01*
X145104785Y-80532276D01*
X145092224Y-80519715D01*
X144990149Y-80443214D01*
X144974554Y-80434676D01*
X144854106Y-80389522D01*
X144838851Y-80385895D01*
X144787986Y-80380369D01*
X144781172Y-80380000D01*
X144108615Y-80380000D01*
X144093376Y-80384475D01*
X144092171Y-80385865D01*
X144090500Y-80393548D01*
X144090500Y-83177884D01*
X143582500Y-83177884D01*
X143582500Y-82060115D01*
X143578025Y-82044876D01*
X143576635Y-82043671D01*
X143568952Y-82042000D01*
X142446616Y-82042000D01*
X142431377Y-82046475D01*
X142430172Y-82047865D01*
X142428501Y-82055548D01*
X142428501Y-82732669D01*
X139864369Y-82732669D01*
X139840504Y-82648051D01*
X139840503Y-82648049D01*
X139838936Y-82642492D01*
X139821854Y-82607852D01*
X139747645Y-82457372D01*
X139745090Y-82452191D01*
X139724680Y-82424858D01*
X139621589Y-82286803D01*
X139621588Y-82286802D01*
X139618136Y-82282179D01*
X139605027Y-82270061D01*
X139466566Y-82142069D01*
X139466563Y-82142067D01*
X139462326Y-82138150D01*
X139282877Y-82024926D01*
X139085800Y-81946300D01*
X139080143Y-81945175D01*
X139080137Y-81945173D01*
X138883363Y-81906033D01*
X138883359Y-81906033D01*
X138877695Y-81904906D01*
X138871920Y-81904830D01*
X138871916Y-81904830D01*
X138765304Y-81903434D01*
X138665531Y-81902128D01*
X138659834Y-81903107D01*
X138659833Y-81903107D01*
X138462110Y-81937082D01*
X138456413Y-81938061D01*
X138257346Y-82011501D01*
X138252385Y-82014453D01*
X138252384Y-82014453D01*
X138079963Y-82117032D01*
X138079960Y-82117034D01*
X138074995Y-82119988D01*
X138070655Y-82123794D01*
X138070651Y-82123797D01*
X137990530Y-82194062D01*
X137915468Y-82259890D01*
X137911893Y-82264425D01*
X137911892Y-82264426D01*
X137849449Y-82343634D01*
X137791567Y-82384747D01*
X137720647Y-82388041D01*
X137659205Y-82352469D01*
X137626748Y-82289326D01*
X137624499Y-82265628D01*
X137624499Y-82113331D01*
X137624129Y-82106510D01*
X137618605Y-82055648D01*
X137614979Y-82040396D01*
X137569824Y-81919946D01*
X137561286Y-81904351D01*
X137484785Y-81802276D01*
X137472224Y-81789715D01*
X137370149Y-81713214D01*
X137354554Y-81704676D01*
X137234106Y-81659522D01*
X137218851Y-81655895D01*
X137167986Y-81650369D01*
X137161172Y-81650000D01*
X136488615Y-81650000D01*
X136473376Y-81654475D01*
X136472171Y-81655865D01*
X136470500Y-81663548D01*
X136470500Y-84447884D01*
X135962500Y-84447884D01*
X135962500Y-83330115D01*
X135958025Y-83314876D01*
X135956635Y-83313671D01*
X135948952Y-83312000D01*
X134826616Y-83312000D01*
X134811377Y-83316475D01*
X134810172Y-83317865D01*
X134808501Y-83325548D01*
X134808501Y-84002669D01*
X124116977Y-84002669D01*
X124290680Y-83781137D01*
X124293738Y-83777387D01*
X124949649Y-83003964D01*
X124952848Y-83000336D01*
X125149356Y-82785885D01*
X134808500Y-82785885D01*
X134812975Y-82801124D01*
X134814365Y-82802329D01*
X134822048Y-82804000D01*
X135944385Y-82804000D01*
X135959624Y-82799525D01*
X135960829Y-82798135D01*
X135962500Y-82790452D01*
X135962500Y-81668116D01*
X135958025Y-81652877D01*
X135956635Y-81651672D01*
X135948952Y-81650001D01*
X135271831Y-81650001D01*
X135265010Y-81650371D01*
X135214148Y-81655895D01*
X135198896Y-81659521D01*
X135078446Y-81704676D01*
X135062851Y-81713214D01*
X134960776Y-81789715D01*
X134948215Y-81802276D01*
X134871714Y-81904351D01*
X134863176Y-81919946D01*
X134818022Y-82040394D01*
X134814395Y-82055649D01*
X134808869Y-82106514D01*
X134808500Y-82113328D01*
X134808500Y-82785885D01*
X125149356Y-82785885D01*
X125532890Y-82367331D01*
X125637941Y-82252688D01*
X125641272Y-82249189D01*
X125698774Y-82191082D01*
X126354621Y-81528331D01*
X126358025Y-81525021D01*
X126364239Y-81519206D01*
X128145092Y-81519206D01*
X128146093Y-81531124D01*
X128156571Y-81655895D01*
X128162397Y-81725278D01*
X128219398Y-81924066D01*
X128222216Y-81929548D01*
X128222217Y-81929552D01*
X128311105Y-82102509D01*
X128311108Y-82102513D01*
X128313925Y-82107995D01*
X128442377Y-82270061D01*
X128447070Y-82274055D01*
X128447071Y-82274056D01*
X128568967Y-82377797D01*
X128599862Y-82404091D01*
X128780380Y-82504980D01*
X128977057Y-82568884D01*
X129182400Y-82593370D01*
X129188535Y-82592898D01*
X129188537Y-82592898D01*
X129382447Y-82577977D01*
X129382451Y-82577976D01*
X129388589Y-82577504D01*
X129587769Y-82521892D01*
X129593273Y-82519112D01*
X129593275Y-82519111D01*
X129766853Y-82431431D01*
X129766855Y-82431430D01*
X129772354Y-82428652D01*
X129935313Y-82301334D01*
X129939339Y-82296670D01*
X129939342Y-82296667D01*
X130066410Y-82149457D01*
X130066411Y-82149455D01*
X130070439Y-82144789D01*
X130172586Y-81964979D01*
X130226710Y-81802276D01*
X130235916Y-81774601D01*
X130235917Y-81774598D01*
X130237861Y-81768753D01*
X130263780Y-81563586D01*
X130264193Y-81534000D01*
X130262417Y-81515885D01*
X142428500Y-81515885D01*
X142432975Y-81531124D01*
X142434365Y-81532329D01*
X142442048Y-81534000D01*
X143564385Y-81534000D01*
X143579624Y-81529525D01*
X143580829Y-81528135D01*
X143582500Y-81520452D01*
X143582500Y-80398116D01*
X143578025Y-80382877D01*
X143576635Y-80381672D01*
X143568952Y-80380001D01*
X142891831Y-80380001D01*
X142885010Y-80380371D01*
X142834148Y-80385895D01*
X142818896Y-80389521D01*
X142698446Y-80434676D01*
X142682851Y-80443214D01*
X142580776Y-80519715D01*
X142568215Y-80532276D01*
X142491714Y-80634351D01*
X142483176Y-80649946D01*
X142438022Y-80770394D01*
X142434395Y-80785649D01*
X142428869Y-80836514D01*
X142428500Y-80843328D01*
X142428500Y-81515885D01*
X130262417Y-81515885D01*
X130244013Y-81328189D01*
X130184242Y-81130217D01*
X130087156Y-80947625D01*
X130083265Y-80942855D01*
X130083263Y-80942851D01*
X129960349Y-80792143D01*
X129960346Y-80792140D01*
X129956454Y-80787368D01*
X129949557Y-80781662D01*
X129801862Y-80659478D01*
X129801857Y-80659475D01*
X129797113Y-80655550D01*
X129791694Y-80652620D01*
X129791691Y-80652618D01*
X129620623Y-80560122D01*
X129620618Y-80560120D01*
X129615203Y-80557192D01*
X129417654Y-80496040D01*
X129411529Y-80495396D01*
X129411528Y-80495396D01*
X129218117Y-80475068D01*
X129218115Y-80475068D01*
X129211988Y-80474424D01*
X129085820Y-80485906D01*
X129012182Y-80492607D01*
X129012181Y-80492607D01*
X129006041Y-80493166D01*
X128807657Y-80551554D01*
X128802192Y-80554411D01*
X128629852Y-80644508D01*
X128629848Y-80644511D01*
X128624392Y-80647363D01*
X128463226Y-80776943D01*
X128330299Y-80935360D01*
X128230673Y-81116578D01*
X128168144Y-81313696D01*
X128167458Y-81319813D01*
X128167457Y-81319817D01*
X128157060Y-81412510D01*
X128145092Y-81519206D01*
X126364239Y-81519206D01*
X127098501Y-80832096D01*
X127102078Y-80828875D01*
X127868593Y-80164899D01*
X127872309Y-80161803D01*
X128663727Y-79527757D01*
X128667560Y-79524805D01*
X128843369Y-79394713D01*
X129482759Y-78921589D01*
X129486699Y-78918790D01*
X130277266Y-78379502D01*
X130324426Y-78347332D01*
X130328463Y-78344690D01*
X130394695Y-78303143D01*
X131187516Y-77805808D01*
X131191649Y-77803324D01*
X132070770Y-77297807D01*
X132075009Y-77295476D01*
X132911655Y-76856227D01*
X132972895Y-76824075D01*
X132977186Y-76821927D01*
X133779576Y-76439206D01*
X136943910Y-76439206D01*
X136961215Y-76645278D01*
X137018216Y-76844066D01*
X137021034Y-76849548D01*
X137021035Y-76849552D01*
X137109923Y-77022509D01*
X137109926Y-77022513D01*
X137112743Y-77027995D01*
X137241195Y-77190061D01*
X137245888Y-77194055D01*
X137245889Y-77194056D01*
X137343600Y-77277214D01*
X137398680Y-77324091D01*
X137579198Y-77424980D01*
X137775875Y-77488884D01*
X137981218Y-77513370D01*
X137987353Y-77512898D01*
X137987355Y-77512898D01*
X138181266Y-77497977D01*
X138181271Y-77497976D01*
X138187407Y-77497504D01*
X138193341Y-77495847D01*
X138193348Y-77495846D01*
X138239426Y-77482981D01*
X138310416Y-77483927D01*
X138330724Y-77493489D01*
X138330963Y-77492979D01*
X138337069Y-77495846D01*
X138338036Y-77496300D01*
X138356546Y-77507423D01*
X138359124Y-77508834D01*
X138366305Y-77514216D01*
X138410642Y-77530837D01*
X138419957Y-77534762D01*
X138462809Y-77554881D01*
X138471684Y-77556263D01*
X138474511Y-77557127D01*
X138491388Y-77561555D01*
X138494281Y-77562191D01*
X138502694Y-77565345D01*
X138549934Y-77568856D01*
X138559953Y-77570007D01*
X138568589Y-77571352D01*
X138568593Y-77571352D01*
X138573395Y-77572100D01*
X138588919Y-77572100D01*
X138598257Y-77572447D01*
X138638999Y-77575475D01*
X138639000Y-77575475D01*
X138647950Y-77576140D01*
X138656727Y-77574266D01*
X138664978Y-77573704D01*
X138680175Y-77572100D01*
X148693441Y-77572100D01*
X148705571Y-77573455D01*
X148705610Y-77572973D01*
X148714557Y-77573693D01*
X148723313Y-77575674D01*
X148758580Y-77573486D01*
X148830019Y-77590495D01*
X148921800Y-77644203D01*
X149051847Y-77708468D01*
X149299397Y-77830800D01*
X149299405Y-77830803D01*
X149301399Y-77831789D01*
X149693266Y-77992179D01*
X149695366Y-77992870D01*
X149695376Y-77992874D01*
X150016436Y-78098564D01*
X150095454Y-78124576D01*
X150505966Y-78228324D01*
X150922765Y-78302906D01*
X150924964Y-78303141D01*
X150924976Y-78303143D01*
X151239179Y-78336762D01*
X151343782Y-78347954D01*
X151345978Y-78348033D01*
X151345987Y-78348034D01*
X151732738Y-78362008D01*
X151749190Y-78363689D01*
X151754372Y-78364565D01*
X151759247Y-78364629D01*
X151759250Y-78364629D01*
X151760422Y-78364644D01*
X151766924Y-78364729D01*
X151771744Y-78364043D01*
X151771745Y-78364043D01*
X151794834Y-78360757D01*
X151812587Y-78359500D01*
X153153183Y-78359500D01*
X153221304Y-78379502D01*
X153242278Y-78396405D01*
X155534078Y-80688205D01*
X155541701Y-80697745D01*
X155542069Y-80697431D01*
X155547887Y-80704267D01*
X155552677Y-80711859D01*
X155559405Y-80717801D01*
X155593026Y-80747494D01*
X155598713Y-80752840D01*
X155610156Y-80764283D01*
X155617681Y-80769923D01*
X155618531Y-80770560D01*
X155626360Y-80776934D01*
X155661852Y-80808279D01*
X155669975Y-80812093D01*
X155672463Y-80813727D01*
X155687424Y-80822715D01*
X155690009Y-80824130D01*
X155697196Y-80829517D01*
X155734037Y-80843328D01*
X155741543Y-80846142D01*
X155750859Y-80850068D01*
X155793701Y-80870182D01*
X155802570Y-80871563D01*
X155805403Y-80872429D01*
X155822290Y-80876859D01*
X155825175Y-80877493D01*
X155833585Y-80880646D01*
X155862743Y-80882813D01*
X155880807Y-80884155D01*
X155890853Y-80885309D01*
X155899476Y-80886652D01*
X155899479Y-80886652D01*
X155904287Y-80887401D01*
X155919807Y-80887401D01*
X155929144Y-80887747D01*
X155978842Y-80891440D01*
X155987621Y-80889566D01*
X155995879Y-80889003D01*
X156011062Y-80887401D01*
X158289187Y-80887401D01*
X158357308Y-80907403D01*
X158395097Y-80945144D01*
X158396564Y-80947420D01*
X158399378Y-80952896D01*
X158403201Y-80957720D01*
X158403204Y-80957724D01*
X158458105Y-81026991D01*
X158527830Y-81114962D01*
X158532523Y-81118956D01*
X158532524Y-81118957D01*
X158612912Y-81187372D01*
X158685315Y-81248992D01*
X158865833Y-81349881D01*
X159062510Y-81413785D01*
X159267853Y-81438271D01*
X159273988Y-81437799D01*
X159273990Y-81437799D01*
X159467900Y-81422878D01*
X159467904Y-81422877D01*
X159474042Y-81422405D01*
X159512866Y-81411565D01*
X159583854Y-81412510D01*
X159635844Y-81443828D01*
X162903595Y-84711579D01*
X162937621Y-84773891D01*
X162940500Y-84800674D01*
X162940500Y-86056633D01*
X162939000Y-86076018D01*
X162936690Y-86090851D01*
X162936690Y-86090855D01*
X162935309Y-86099724D01*
X162936474Y-86108630D01*
X162936455Y-86110180D01*
X162936956Y-86115943D01*
X162952473Y-86471334D01*
X162971481Y-86615715D01*
X162999355Y-86827444D01*
X163000203Y-86833888D01*
X163079351Y-87190902D01*
X163119865Y-87319397D01*
X163188485Y-87537039D01*
X163188490Y-87537052D01*
X163189312Y-87539660D01*
X163329252Y-87877507D01*
X163498104Y-88201871D01*
X163694583Y-88510286D01*
X163696245Y-88512452D01*
X163696252Y-88512462D01*
X163900796Y-88779031D01*
X163917194Y-88800402D01*
X164141639Y-89045343D01*
X164151388Y-89057395D01*
X164154600Y-89061906D01*
X164163367Y-89070890D01*
X164167251Y-89073801D01*
X164167259Y-89073808D01*
X164185710Y-89087636D01*
X164199240Y-89099367D01*
X168733496Y-93633624D01*
X168767522Y-93695936D01*
X168770401Y-93722719D01*
X168770401Y-95467210D01*
X168750399Y-95535331D01*
X168708549Y-95573596D01*
X168709319Y-95574773D01*
X168704162Y-95578148D01*
X168698702Y-95581002D01*
X168537536Y-95710582D01*
X168404609Y-95868999D01*
X168304983Y-96050217D01*
X168303120Y-96056090D01*
X168259161Y-96194669D01*
X168242454Y-96247335D01*
X168241768Y-96253452D01*
X168241767Y-96253456D01*
X168221009Y-96438522D01*
X168219402Y-96452845D01*
X168225166Y-96521479D01*
X168235109Y-96639884D01*
X168236707Y-96658917D01*
X168293708Y-96857705D01*
X168296526Y-96863187D01*
X168296527Y-96863191D01*
X168385415Y-97036148D01*
X168385418Y-97036152D01*
X168388235Y-97041634D01*
X168516687Y-97203700D01*
X168521380Y-97207694D01*
X168521381Y-97207695D01*
X168606603Y-97280224D01*
X168674172Y-97337730D01*
X168854690Y-97438619D01*
X169051367Y-97502523D01*
X169256710Y-97527009D01*
X169262845Y-97526537D01*
X169262847Y-97526537D01*
X169456757Y-97511616D01*
X169456761Y-97511615D01*
X169462899Y-97511143D01*
X169662079Y-97455531D01*
X169667583Y-97452751D01*
X169667585Y-97452750D01*
X169841163Y-97365070D01*
X169841165Y-97365069D01*
X169846664Y-97362291D01*
X170009623Y-97234973D01*
X170013649Y-97230309D01*
X170013652Y-97230306D01*
X170140720Y-97083096D01*
X170140721Y-97083094D01*
X170144749Y-97078428D01*
X170246896Y-96898618D01*
X170312171Y-96702392D01*
X170338090Y-96497225D01*
X170338503Y-96467639D01*
X170318323Y-96261828D01*
X170258552Y-96063856D01*
X170198089Y-95950141D01*
X170164360Y-95886706D01*
X170164358Y-95886703D01*
X170161466Y-95881264D01*
X170157575Y-95876494D01*
X170157573Y-95876490D01*
X170034659Y-95725782D01*
X170034656Y-95725779D01*
X170030764Y-95721007D01*
X170023867Y-95715301D01*
X169876172Y-95593117D01*
X169876167Y-95593114D01*
X169871423Y-95589189D01*
X169853474Y-95579484D01*
X169803065Y-95529492D01*
X169787401Y-95468648D01*
X169787401Y-93530974D01*
X169788756Y-93518844D01*
X169788274Y-93518805D01*
X169788994Y-93509858D01*
X169790975Y-93501102D01*
X169787643Y-93447393D01*
X169787401Y-93439591D01*
X169787401Y-93423388D01*
X169785917Y-93413023D01*
X169784888Y-93402973D01*
X169782512Y-93364683D01*
X169782512Y-93364682D01*
X169781956Y-93355724D01*
X169778908Y-93347283D01*
X169778305Y-93344369D01*
X169774083Y-93327435D01*
X169773253Y-93324596D01*
X169771981Y-93315714D01*
X169752378Y-93272601D01*
X169748572Y-93263250D01*
X169735545Y-93227163D01*
X169735544Y-93227161D01*
X169732497Y-93218721D01*
X169727205Y-93211477D01*
X169725826Y-93208883D01*
X169716979Y-93193744D01*
X169715406Y-93191284D01*
X169711693Y-93183119D01*
X169705839Y-93176325D01*
X169705837Y-93176322D01*
X169692840Y-93161239D01*
X169680782Y-93147244D01*
X169674498Y-93139329D01*
X169669351Y-93132283D01*
X169669345Y-93132276D01*
X169666476Y-93128349D01*
X169655501Y-93117374D01*
X169649143Y-93110526D01*
X169622477Y-93079578D01*
X169622476Y-93079577D01*
X169616614Y-93072774D01*
X169609079Y-93067890D01*
X169602835Y-93062443D01*
X169590970Y-93052843D01*
X164921107Y-88382980D01*
X164908458Y-88368210D01*
X164902922Y-88360632D01*
X164894306Y-88348837D01*
X164878834Y-88336943D01*
X164862268Y-88321666D01*
X164755790Y-88204184D01*
X164681388Y-88122094D01*
X164673560Y-88112556D01*
X164495556Y-87872542D01*
X164488693Y-87862270D01*
X164335094Y-87606001D01*
X164329265Y-87595097D01*
X164248010Y-87423297D01*
X164201512Y-87324985D01*
X164196782Y-87313565D01*
X164193540Y-87304502D01*
X164152894Y-87190902D01*
X164096128Y-87032249D01*
X164092539Y-87020418D01*
X164063771Y-86905568D01*
X164744477Y-86905568D01*
X164746740Y-86932514D01*
X164761163Y-87104263D01*
X164761782Y-87111640D01*
X164818783Y-87310428D01*
X164821601Y-87315910D01*
X164821602Y-87315914D01*
X164910490Y-87488871D01*
X164910493Y-87488875D01*
X164913310Y-87494357D01*
X165041762Y-87656423D01*
X165046455Y-87660417D01*
X165046456Y-87660418D01*
X165114993Y-87718747D01*
X165199247Y-87790453D01*
X165379765Y-87891342D01*
X165576442Y-87955246D01*
X165781785Y-87979732D01*
X165787920Y-87979260D01*
X165787922Y-87979260D01*
X165981832Y-87964339D01*
X165981836Y-87964338D01*
X165987974Y-87963866D01*
X166187154Y-87908254D01*
X166192658Y-87905474D01*
X166192660Y-87905473D01*
X166366238Y-87817793D01*
X166366240Y-87817792D01*
X166371739Y-87815014D01*
X166534698Y-87687696D01*
X166538724Y-87683032D01*
X166538727Y-87683029D01*
X166665795Y-87535819D01*
X166665796Y-87535817D01*
X166669824Y-87531151D01*
X166750209Y-87389649D01*
X166768926Y-87356702D01*
X166768928Y-87356698D01*
X166771971Y-87351341D01*
X166818740Y-87210747D01*
X166835301Y-87160963D01*
X166835302Y-87160960D01*
X166837246Y-87155115D01*
X166863165Y-86949948D01*
X166863578Y-86920362D01*
X166843398Y-86714551D01*
X166783627Y-86516579D01*
X166686541Y-86333987D01*
X166682650Y-86329217D01*
X166682648Y-86329213D01*
X166559734Y-86178505D01*
X166559731Y-86178502D01*
X166555839Y-86173730D01*
X166544845Y-86164635D01*
X166401247Y-86045840D01*
X166401242Y-86045837D01*
X166396498Y-86041912D01*
X166391079Y-86038982D01*
X166391076Y-86038980D01*
X166220008Y-85946484D01*
X166220003Y-85946482D01*
X166214588Y-85943554D01*
X166017039Y-85882402D01*
X166010914Y-85881758D01*
X166010913Y-85881758D01*
X165817502Y-85861430D01*
X165817500Y-85861430D01*
X165811373Y-85860786D01*
X165685205Y-85872268D01*
X165611567Y-85878969D01*
X165611566Y-85878969D01*
X165605426Y-85879528D01*
X165407042Y-85937916D01*
X165401577Y-85940773D01*
X165229237Y-86030870D01*
X165229233Y-86030873D01*
X165223777Y-86033725D01*
X165062611Y-86163305D01*
X164929684Y-86321722D01*
X164830058Y-86502940D01*
X164767529Y-86700058D01*
X164766843Y-86706175D01*
X164766842Y-86706179D01*
X164748871Y-86866394D01*
X164744477Y-86905568D01*
X164063771Y-86905568D01*
X164057779Y-86881648D01*
X164019937Y-86730574D01*
X164017528Y-86718459D01*
X164016949Y-86714551D01*
X163973687Y-86422907D01*
X163972476Y-86410606D01*
X163959804Y-86152642D01*
X163961397Y-86125565D01*
X163961768Y-86123357D01*
X163961768Y-86123353D01*
X163962576Y-86118552D01*
X163962729Y-86106000D01*
X163958773Y-86078376D01*
X163957500Y-86060514D01*
X163957500Y-84608929D01*
X163958855Y-84596799D01*
X163958373Y-84596760D01*
X163959093Y-84587813D01*
X163961074Y-84579057D01*
X163957742Y-84525349D01*
X163957500Y-84517547D01*
X163957500Y-84501344D01*
X163956016Y-84490979D01*
X163954987Y-84480929D01*
X163952611Y-84442641D01*
X163952055Y-84433680D01*
X163949006Y-84425234D01*
X163948407Y-84422343D01*
X163944178Y-84405377D01*
X163943352Y-84402552D01*
X163942080Y-84393670D01*
X163922478Y-84350559D01*
X163918672Y-84341208D01*
X163905645Y-84305122D01*
X163902596Y-84296676D01*
X163897301Y-84289428D01*
X163895920Y-84286830D01*
X163887085Y-84271712D01*
X163885506Y-84269243D01*
X163881792Y-84261075D01*
X163850884Y-84225204D01*
X163844599Y-84217288D01*
X163839452Y-84210242D01*
X163839447Y-84210237D01*
X163836575Y-84206305D01*
X163825600Y-84195330D01*
X163819242Y-84188482D01*
X163792576Y-84157534D01*
X163792575Y-84157533D01*
X163786713Y-84150730D01*
X163779178Y-84145846D01*
X163772934Y-84140399D01*
X163761069Y-84130799D01*
X160357297Y-80727027D01*
X160323271Y-80664715D01*
X160323506Y-80613678D01*
X160323314Y-80613654D01*
X160323514Y-80612075D01*
X160323514Y-80612071D01*
X160349233Y-80408487D01*
X160349646Y-80378901D01*
X160329466Y-80173090D01*
X160269695Y-79975118D01*
X160172609Y-79792526D01*
X160168718Y-79787756D01*
X160168716Y-79787752D01*
X160045802Y-79637044D01*
X160045799Y-79637041D01*
X160041907Y-79632269D01*
X160035010Y-79626563D01*
X159887315Y-79504379D01*
X159887310Y-79504376D01*
X159882566Y-79500451D01*
X159877147Y-79497521D01*
X159877144Y-79497519D01*
X159706076Y-79405023D01*
X159706071Y-79405021D01*
X159700656Y-79402093D01*
X159503107Y-79340941D01*
X159496982Y-79340297D01*
X159496981Y-79340297D01*
X159303570Y-79319969D01*
X159303568Y-79319969D01*
X159297441Y-79319325D01*
X159171273Y-79330807D01*
X159097635Y-79337508D01*
X159097634Y-79337508D01*
X159091494Y-79338067D01*
X158893110Y-79396455D01*
X158887645Y-79399312D01*
X158715305Y-79489409D01*
X158715301Y-79489412D01*
X158709845Y-79492264D01*
X158548679Y-79621844D01*
X158415752Y-79780261D01*
X158412786Y-79785657D01*
X158412780Y-79785665D01*
X158402096Y-79805100D01*
X158351752Y-79855160D01*
X158291681Y-79870401D01*
X156206718Y-79870401D01*
X156138597Y-79850399D01*
X156117623Y-79833496D01*
X153825823Y-77541696D01*
X153818200Y-77532156D01*
X153817832Y-77532470D01*
X153812014Y-77525634D01*
X153807224Y-77518042D01*
X153766875Y-77482407D01*
X153761188Y-77477061D01*
X153749745Y-77465618D01*
X153741370Y-77459341D01*
X153733541Y-77452967D01*
X153698049Y-77421622D01*
X153689926Y-77417808D01*
X153687438Y-77416174D01*
X153672477Y-77407186D01*
X153669892Y-77405771D01*
X153662705Y-77400384D01*
X153618357Y-77383759D01*
X153609040Y-77379832D01*
X153574326Y-77363534D01*
X153566200Y-77359719D01*
X153557331Y-77358338D01*
X153554498Y-77357472D01*
X153537611Y-77353042D01*
X153534726Y-77352408D01*
X153526316Y-77349255D01*
X153497158Y-77347088D01*
X153479094Y-77345746D01*
X153469048Y-77344592D01*
X153460425Y-77343249D01*
X153460422Y-77343249D01*
X153455614Y-77342500D01*
X153440094Y-77342500D01*
X153430757Y-77342154D01*
X153413854Y-77340898D01*
X153381059Y-77338461D01*
X153372280Y-77340335D01*
X153364022Y-77340898D01*
X153348839Y-77342500D01*
X151817018Y-77342500D01*
X151797525Y-77340983D01*
X151789286Y-77339693D01*
X151782966Y-77338703D01*
X151782965Y-77338703D01*
X151774102Y-77337315D01*
X151765200Y-77338471D01*
X151752940Y-77340063D01*
X151731534Y-77341006D01*
X151371552Y-77326185D01*
X151361439Y-77325360D01*
X150972803Y-77277830D01*
X150962790Y-77276194D01*
X150677262Y-77217649D01*
X150614548Y-77184372D01*
X150579780Y-77122471D01*
X150583997Y-77051600D01*
X150625861Y-76994259D01*
X150639089Y-76985944D01*
X150639017Y-76985831D01*
X150644219Y-76982530D01*
X150649720Y-76979751D01*
X150812679Y-76852433D01*
X150816705Y-76847769D01*
X150816708Y-76847766D01*
X150943776Y-76700556D01*
X150943777Y-76700554D01*
X150947805Y-76695888D01*
X151020994Y-76567053D01*
X151046907Y-76521439D01*
X151046909Y-76521435D01*
X151049952Y-76516078D01*
X151115227Y-76319852D01*
X151141146Y-76114685D01*
X151141559Y-76085099D01*
X151121379Y-75879288D01*
X151061608Y-75681316D01*
X151003812Y-75572618D01*
X150967416Y-75504166D01*
X150967414Y-75504163D01*
X150964522Y-75498724D01*
X150960631Y-75493954D01*
X150960629Y-75493950D01*
X150837715Y-75343242D01*
X150837712Y-75343239D01*
X150833820Y-75338467D01*
X150826923Y-75332761D01*
X150679228Y-75210577D01*
X150679223Y-75210574D01*
X150674479Y-75206649D01*
X150669060Y-75203719D01*
X150669057Y-75203717D01*
X150497989Y-75111221D01*
X150497984Y-75111219D01*
X150492569Y-75108291D01*
X150295020Y-75047139D01*
X150288895Y-75046495D01*
X150288894Y-75046495D01*
X150095483Y-75026167D01*
X150095481Y-75026167D01*
X150089354Y-75025523D01*
X149963186Y-75037005D01*
X149889548Y-75043706D01*
X149889547Y-75043706D01*
X149883407Y-75044265D01*
X149685023Y-75102653D01*
X149679558Y-75105510D01*
X149507218Y-75195607D01*
X149507214Y-75195610D01*
X149501758Y-75198462D01*
X149340592Y-75328042D01*
X149207665Y-75486459D01*
X149108039Y-75667677D01*
X149045510Y-75864795D01*
X149044824Y-75870912D01*
X149044823Y-75870916D01*
X149040325Y-75911020D01*
X149022458Y-76070305D01*
X149039763Y-76276377D01*
X149055215Y-76330263D01*
X149056904Y-76336155D01*
X149056453Y-76407150D01*
X149017691Y-76466631D01*
X148952925Y-76495714D01*
X148907977Y-76493778D01*
X148880431Y-76487545D01*
X148880428Y-76487545D01*
X148871675Y-76485564D01*
X148862715Y-76486120D01*
X148853770Y-76485400D01*
X148853775Y-76485333D01*
X148852397Y-76485272D01*
X148852396Y-76485340D01*
X148843422Y-76485269D01*
X148834546Y-76483926D01*
X148825651Y-76485128D01*
X148825649Y-76485128D01*
X148785137Y-76490602D01*
X148776068Y-76491495D01*
X148735258Y-76494027D01*
X148735257Y-76494027D01*
X148726297Y-76494583D01*
X148717854Y-76497631D01*
X148709063Y-76499451D01*
X148709049Y-76499386D01*
X148707713Y-76499713D01*
X148707731Y-76499777D01*
X148699092Y-76502229D01*
X148690200Y-76503431D01*
X148682004Y-76507080D01*
X148681999Y-76507081D01*
X148644641Y-76523711D01*
X148636185Y-76527114D01*
X148589295Y-76544042D01*
X148588870Y-76542864D01*
X148539794Y-76555100D01*
X145264036Y-76555100D01*
X145195915Y-76535098D01*
X145149422Y-76481442D01*
X145139318Y-76411168D01*
X145168812Y-76346588D01*
X145230152Y-76307741D01*
X145323568Y-76281659D01*
X145323567Y-76281659D01*
X145329496Y-76280004D01*
X145334985Y-76277231D01*
X145334991Y-76277229D01*
X145421170Y-76233696D01*
X145496314Y-76195738D01*
X145524724Y-76173542D01*
X145573640Y-76135324D01*
X145643587Y-76080675D01*
X145647613Y-76076011D01*
X145647616Y-76076008D01*
X145761680Y-75943863D01*
X145765707Y-75939198D01*
X145858021Y-75776695D01*
X145872291Y-75733800D01*
X145912202Y-75613821D01*
X145917014Y-75599357D01*
X145923130Y-75550941D01*
X145939996Y-75417441D01*
X145939997Y-75417432D01*
X145940438Y-75413938D01*
X145940811Y-75387200D01*
X145922573Y-75201199D01*
X145918619Y-75188101D01*
X145892294Y-75100911D01*
X145868555Y-75022283D01*
X145780815Y-74857266D01*
X145682817Y-74737109D01*
X145666588Y-74717210D01*
X145666585Y-74717207D01*
X145662693Y-74712435D01*
X145657944Y-74708506D01*
X145523439Y-74597234D01*
X145523436Y-74597232D01*
X145518689Y-74593305D01*
X145354289Y-74504414D01*
X145265021Y-74476781D01*
X145181641Y-74450970D01*
X145181638Y-74450969D01*
X145175754Y-74449148D01*
X145169629Y-74448504D01*
X145169628Y-74448504D01*
X144996013Y-74430256D01*
X144996012Y-74430256D01*
X144989885Y-74429612D01*
X144871287Y-74440406D01*
X144809903Y-74445992D01*
X144809902Y-74445992D01*
X144803762Y-74446551D01*
X144797848Y-74448292D01*
X144797846Y-74448292D01*
X144677589Y-74483686D01*
X144624473Y-74499319D01*
X144458847Y-74585905D01*
X144313195Y-74703013D01*
X144193062Y-74846181D01*
X144190099Y-74851570D01*
X144190096Y-74851575D01*
X144156310Y-74913033D01*
X144103026Y-75009957D01*
X144101165Y-75015824D01*
X144101164Y-75015826D01*
X144091435Y-75046495D01*
X144046515Y-75188101D01*
X144025682Y-75373830D01*
X144026198Y-75379974D01*
X144040555Y-75550941D01*
X144041321Y-75560067D01*
X144092836Y-75739720D01*
X144114592Y-75782052D01*
X144167716Y-75885421D01*
X144178264Y-75905946D01*
X144182087Y-75910770D01*
X144182090Y-75910774D01*
X144264467Y-76014707D01*
X144294352Y-76052412D01*
X144299046Y-76056407D01*
X144332019Y-76084469D01*
X144436678Y-76173542D01*
X144599821Y-76264719D01*
X144605681Y-76266623D01*
X144736926Y-76309267D01*
X144795532Y-76349340D01*
X144823169Y-76414737D01*
X144811062Y-76484694D01*
X144763056Y-76537000D01*
X144697990Y-76555100D01*
X139187174Y-76555100D01*
X139119053Y-76535098D01*
X139072560Y-76481442D01*
X139061775Y-76441395D01*
X139050431Y-76325700D01*
X139042831Y-76248189D01*
X138983060Y-76050217D01*
X138906350Y-75905946D01*
X138888868Y-75873067D01*
X138888866Y-75873064D01*
X138885974Y-75867625D01*
X138882083Y-75862855D01*
X138882081Y-75862851D01*
X138759167Y-75712143D01*
X138759164Y-75712140D01*
X138755272Y-75707368D01*
X138748375Y-75701662D01*
X138600680Y-75579478D01*
X138600675Y-75579475D01*
X138595931Y-75575550D01*
X138590512Y-75572620D01*
X138590509Y-75572618D01*
X138419441Y-75480122D01*
X138419436Y-75480120D01*
X138414021Y-75477192D01*
X138216472Y-75416040D01*
X138210347Y-75415396D01*
X138210346Y-75415396D01*
X138016935Y-75395068D01*
X138016933Y-75395068D01*
X138010806Y-75394424D01*
X137884638Y-75405906D01*
X137811000Y-75412607D01*
X137810999Y-75412607D01*
X137804859Y-75413166D01*
X137606475Y-75471554D01*
X137601010Y-75474411D01*
X137428670Y-75564508D01*
X137428666Y-75564511D01*
X137423210Y-75567363D01*
X137262044Y-75696943D01*
X137129117Y-75855360D01*
X137029491Y-76036578D01*
X136966962Y-76233696D01*
X136966276Y-76239813D01*
X136966275Y-76239817D01*
X136957984Y-76313733D01*
X136943910Y-76439206D01*
X133779576Y-76439206D01*
X133892513Y-76385338D01*
X133896889Y-76383353D01*
X134828289Y-75982229D01*
X134832747Y-75980410D01*
X135778862Y-75615334D01*
X135783392Y-75613685D01*
X135808149Y-75605209D01*
X135957931Y-75553927D01*
X136742813Y-75285203D01*
X136747419Y-75283724D01*
X137233072Y-75138021D01*
X137718740Y-74992314D01*
X137723366Y-74991022D01*
X138705173Y-74737109D01*
X138709879Y-74735988D01*
X138861115Y-74703013D01*
X139700725Y-74519948D01*
X139705421Y-74519019D01*
X140703809Y-74341179D01*
X140708550Y-74340428D01*
X141713037Y-74201044D01*
X141717825Y-74200473D01*
X142726924Y-74099752D01*
X142731710Y-74099366D01*
X143743930Y-74037456D01*
X143748723Y-74037255D01*
X144762619Y-74014247D01*
X144767419Y-74014231D01*
X145285680Y-74022372D01*
G37*
%TD.AperFunction*%
%TD*%
M02*
