M48
; DRILL file {KiCad (6.0.4)} date Fri Jan 19 15:57:00 2024
; FORMAT={-:-/ absolute / inch / decimal}
; #@! TF.CreationDate,2024-01-19T15:57:00-08:00
; #@! TF.GenerationSoftware,Kicad,Pcbnew,(6.0.4)
; #@! TF.FileFunction,Plated,1,2,PTH
FMAT,2
INCH
; #@! TA.AperFunction,Plated,PTH,ComponentDrill
T1C0.0315
; #@! TA.AperFunction,Plated,PTH,ComponentDrill
T2C0.0354
; #@! TA.AperFunction,Plated,PTH,ComponentDrill
T3C0.0394
; #@! TA.AperFunction,Plated,PTH,ComponentDrill
T4C0.0650
%
G90
G05
T1
X4.7537Y-3.7927
X4.9163Y-3.4273
X5.0868Y-3.21
X5.4332Y-3.01
X5.9087Y-2.9955
X6.2713Y-3.1645
X6.5277Y-3.4221
X6.6645Y-3.7979
T2
X5.0Y-3.69
X5.1Y-3.69
X5.1429Y-3.46
X5.2429Y-3.46
X5.3629Y-3.27
X5.3729Y-3.75
X5.4629Y-3.27
X5.4729Y-3.75
X5.5529Y-3.605
X5.6529Y-3.605
X5.6629Y-3.22
X5.7629Y-3.22
X5.7829Y-3.605
X5.8829Y-3.605
X5.9429Y-3.28
X5.9429Y-3.745
X6.0429Y-3.28
X6.0429Y-3.745
X6.1629Y-3.48
X6.2629Y-3.48
X6.3129Y-3.68
X6.4129Y-3.68
T3
X6.238Y-4.5667
X6.314Y-4.4762
X6.3899Y-4.3858
T4
X5.26Y-4.425
X6.09Y-4.425
T0
M30
