%TF.GenerationSoftware,KiCad,Pcbnew,(6.0.4)*%
%TF.CreationDate,2024-01-19T15:56:56-08:00*%
%TF.ProjectId,Alpenglow_RadiantRainbow_PCB,416c7065-6e67-46c6-9f77-5f5261646961,rev?*%
%TF.SameCoordinates,Original*%
%TF.FileFunction,Copper,L1,Top*%
%TF.FilePolarity,Positive*%
%FSLAX46Y46*%
G04 Gerber Fmt 4.6, Leading zero omitted, Abs format (unit mm)*
G04 Created by KiCad (PCBNEW (6.0.4)) date 2024-01-19 15:56:56*
%MOMM*%
%LPD*%
G01*
G04 APERTURE LIST*
G04 Aperture macros list*
%AMHorizOval*
0 Thick line with rounded ends*
0 $1 width*
0 $2 $3 position (X,Y) of the first rounded end (center of the circle)*
0 $4 $5 position (X,Y) of the second rounded end (center of the circle)*
0 Add line between two ends*
20,1,$1,$2,$3,$4,$5,0*
0 Add two circle primitives to create the rounded ends*
1,1,$1,$2,$3*
1,1,$1,$4,$5*%
G04 Aperture macros list end*
%TA.AperFunction,ComponentPad*%
%ADD10R,1.800000X1.800000*%
%TD*%
%TA.AperFunction,ComponentPad*%
%ADD11C,1.800000*%
%TD*%
%TA.AperFunction,ComponentPad*%
%ADD12C,1.600000*%
%TD*%
%TA.AperFunction,ComponentPad*%
%ADD13HorizOval,1.600000X0.000000X0.000000X0.000000X0.000000X0*%
%TD*%
%TA.AperFunction,ComponentPad*%
%ADD14HorizOval,1.600000X0.000000X0.000000X0.000000X0.000000X0*%
%TD*%
%TA.AperFunction,ComponentPad*%
%ADD15HorizOval,1.600000X0.000000X0.000000X0.000000X0.000000X0*%
%TD*%
%TA.AperFunction,ComponentPad*%
%ADD16C,2.000000*%
%TD*%
%TA.AperFunction,ComponentPad*%
%ADD17O,2.500000X4.000000*%
%TD*%
%TA.AperFunction,ComponentPad*%
%ADD18HorizOval,1.600000X0.000000X0.000000X0.000000X0.000000X0*%
%TD*%
%TA.AperFunction,Conductor*%
%ADD19C,0.508000*%
%TD*%
G04 APERTURE END LIST*
D10*
%TO.P,D1,1,K*%
%TO.N,GND*%
X160346500Y-93472000D03*
D11*
%TO.P,D1,2,A*%
%TO.N,Net-(D1-Pad2)*%
X162886500Y-93472000D03*
%TD*%
D10*
%TO.P,D3,1,K*%
%TO.N,GND*%
X136216500Y-83058000D03*
D11*
%TO.P,D3,2,A*%
%TO.N,Net-(D1-Pad2)*%
X138756500Y-83058000D03*
%TD*%
D10*
%TO.P,D5,1,K*%
%TO.N,GND*%
X143836500Y-81788000D03*
D11*
%TO.P,D5,2,A*%
%TO.N,Net-(D5-Pad2)*%
X146376500Y-81788000D03*
%TD*%
D10*
%TO.P,D11,1,K*%
%TO.N,GND*%
X141042500Y-91567000D03*
D11*
%TO.P,D11,2,A*%
%TO.N,Net-(D10-Pad2)*%
X143582500Y-91567000D03*
%TD*%
D10*
%TO.P,D4,1,K*%
%TO.N,GND*%
X127000000Y-93726000D03*
D11*
%TO.P,D4,2,A*%
%TO.N,Net-(D1-Pad2)*%
X129540000Y-93726000D03*
%TD*%
D10*
%TO.P,D8,1,K*%
%TO.N,GND*%
X146884500Y-91567000D03*
D11*
%TO.P,D8,2,A*%
%TO.N,Net-(D8-Pad2)*%
X149424500Y-91567000D03*
%TD*%
D10*
%TO.P,D7,1,K*%
%TO.N,GND*%
X156536500Y-88392000D03*
D11*
%TO.P,D7,2,A*%
%TO.N,Net-(D5-Pad2)*%
X159076500Y-88392000D03*
%TD*%
D10*
%TO.P,D10,1,K*%
%TO.N,GND*%
X150948500Y-95123000D03*
D11*
%TO.P,D10,2,A*%
%TO.N,Net-(D10-Pad2)*%
X153488500Y-95123000D03*
%TD*%
D10*
%TO.P,D9,1,K*%
%TO.N,GND*%
X136470500Y-95250000D03*
D11*
%TO.P,D9,2,A*%
%TO.N,Net-(D8-Pad2)*%
X139010500Y-95250000D03*
%TD*%
D10*
%TO.P,D6,1,K*%
%TO.N,GND*%
X130628500Y-87884000D03*
D11*
%TO.P,D6,2,A*%
%TO.N,Net-(D5-Pad2)*%
X133168500Y-87884000D03*
%TD*%
D10*
%TO.P,D2,1,K*%
%TO.N,GND*%
X150948500Y-83312000D03*
D11*
%TO.P,D2,2,A*%
%TO.N,Net-(D1-Pad2)*%
X153488500Y-83312000D03*
%TD*%
D12*
%TO.P,R4,1*%
%TO.N,/LED+*%
X120742778Y-96334811D03*
D13*
%TO.P,R4,2*%
%TO.N,Net-(D10-Pad2)*%
X124875222Y-87053189D03*
%TD*%
D12*
%TO.P,R1,1*%
%TO.N,/LED+*%
X138003409Y-76454000D03*
D14*
%TO.P,R1,2*%
%TO.N,Net-(D1-Pad2)*%
X129204591Y-81534000D03*
%TD*%
D12*
%TO.P,R3,1*%
%TO.N,/LED+*%
X169278901Y-96467639D03*
D15*
%TO.P,R3,2*%
%TO.N,Net-(D8-Pad2)*%
X165803976Y-86920362D03*
%TD*%
D16*
%TO.P,SW1,1,A*%
%TO.N,/LED+*%
X162303158Y-111398438D03*
%TO.P,SW1,2,B*%
%TO.N,VCC*%
X160374795Y-113696572D03*
%TO.P,SW1,3,C*%
%TO.N,unconnected-(SW1-Pad3)*%
X158446432Y-115994705D03*
%TD*%
D17*
%TO.P,BT1,1,+*%
%TO.N,VCC*%
X133604000Y-112395000D03*
X154686000Y-112395000D03*
%TD*%
D12*
%TO.P,R2,1*%
%TO.N,/LED+*%
X159290044Y-80378901D03*
D18*
%TO.P,R2,2*%
%TO.N,Net-(D5-Pad2)*%
X150081957Y-76085099D03*
%TD*%
D19*
%TO.N,/LED+*%
X169278901Y-96467639D02*
X169278901Y-94702542D01*
X139512427Y-77216000D02*
X148197899Y-77216000D01*
X163449000Y-86106000D02*
X163449000Y-85780498D01*
X162570320Y-83659177D02*
X159290044Y-80378901D01*
X157186542Y-80378901D02*
X159290044Y-80378901D01*
X168400221Y-92581221D02*
X164526631Y-88707631D01*
X149661327Y-77851000D02*
X152173359Y-77851000D01*
X148905006Y-77508893D02*
X148954220Y-77558107D01*
X137922000Y-76454000D02*
X138098214Y-76630214D01*
X154294679Y-78729679D02*
X155065221Y-79500221D01*
X154294699Y-78729659D02*
G75*
G03*
X152173359Y-77851000I-2121299J-2121341D01*
G01*
X163449012Y-86106000D02*
G75*
G03*
X164526632Y-88707630I3679288J0D01*
G01*
X148905006Y-77508893D02*
G75*
G03*
X148197899Y-77216000I-707106J-707107D01*
G01*
X169278871Y-94702542D02*
G75*
G03*
X168400221Y-92581221I-2999971J42D01*
G01*
X148954207Y-77558120D02*
G75*
G03*
X149661327Y-77851000I707093J707120D01*
G01*
X157186542Y-80378871D02*
G75*
G02*
X155065221Y-79500221I-42J2999971D01*
G01*
X139512427Y-77215980D02*
G75*
G02*
X138098215Y-76630213I-27J1999980D01*
G01*
X163449001Y-85780498D02*
G75*
G03*
X162570320Y-83659177I-3000001J-2D01*
G01*
%TD*%
%TA.AperFunction,Conductor*%
%TO.N,GND*%
G36*
X145285680Y-74022372D02*
G01*
X145781352Y-74030159D01*
X145786187Y-74030327D01*
X146523424Y-74070254D01*
X146798833Y-74085169D01*
X146803643Y-74085523D01*
X147813379Y-74179194D01*
X147818181Y-74179733D01*
X148823606Y-74312100D01*
X148828344Y-74312816D01*
X149328173Y-74398252D01*
X149827979Y-74483686D01*
X149832731Y-74484593D01*
X150288793Y-74580700D01*
X150825025Y-74693702D01*
X150829689Y-74694778D01*
X151813283Y-74941840D01*
X151817926Y-74943102D01*
X152791240Y-75227720D01*
X152795837Y-75229160D01*
X153587211Y-75493950D01*
X153757539Y-75550941D01*
X153762092Y-75552562D01*
X153854624Y-75587527D01*
X154710723Y-75911020D01*
X154715215Y-75912817D01*
X155027604Y-76044775D01*
X155649385Y-76307425D01*
X155653748Y-76309368D01*
X156572108Y-76739558D01*
X156576441Y-76741690D01*
X156892790Y-76904970D01*
X157477589Y-77206807D01*
X157481844Y-77209108D01*
X158364458Y-77708468D01*
X158368622Y-77710931D01*
X158371708Y-77712837D01*
X159096082Y-78160219D01*
X159231390Y-78243787D01*
X159235449Y-78246402D01*
X159409201Y-78363158D01*
X160077178Y-78812020D01*
X160081141Y-78814795D01*
X160900516Y-79412294D01*
X160904369Y-79415219D01*
X161700200Y-80043728D01*
X161703938Y-80046799D01*
X162475041Y-80705383D01*
X162478659Y-80708595D01*
X162532206Y-80758007D01*
X163219004Y-81391765D01*
X163223917Y-81396299D01*
X163227407Y-81399645D01*
X163250721Y-81422878D01*
X163945742Y-82115478D01*
X163949102Y-82118958D01*
X164639403Y-82861810D01*
X164642615Y-82865401D01*
X165303943Y-83634266D01*
X165306965Y-83637918D01*
X165924844Y-84414699D01*
X165938279Y-84431589D01*
X165941207Y-84435419D01*
X166527135Y-85233063D01*
X166541559Y-85252699D01*
X166544348Y-85256653D01*
X167112904Y-86096407D01*
X167115538Y-86100464D01*
X167651390Y-86961347D01*
X167653868Y-86965502D01*
X167870616Y-87345501D01*
X168126127Y-87793458D01*
X168156330Y-87846410D01*
X168158636Y-87850641D01*
X168604711Y-88707543D01*
X168626884Y-88750137D01*
X168629032Y-88754463D01*
X169004621Y-89549028D01*
X169062405Y-89671272D01*
X169064382Y-89675670D01*
X169255659Y-90124112D01*
X169462258Y-90608478D01*
X169464070Y-90612963D01*
X169825831Y-91560320D01*
X169827469Y-91564872D01*
X170152604Y-92525442D01*
X170154066Y-92530051D01*
X170431991Y-93468305D01*
X170442076Y-93502353D01*
X170443357Y-93507002D01*
X170691066Y-94478803D01*
X170693839Y-94489681D01*
X170694941Y-94494377D01*
X170773727Y-94861884D01*
X170907516Y-95485954D01*
X170908439Y-95490703D01*
X170957999Y-95774670D01*
X171080458Y-96476324D01*
X171082790Y-96489687D01*
X171083527Y-96494449D01*
X171219403Y-97499403D01*
X171219958Y-97504196D01*
X171227592Y-97583475D01*
X171317155Y-98513629D01*
X171317524Y-98518429D01*
X171336838Y-98853395D01*
X171375899Y-99530843D01*
X171376085Y-99535677D01*
X171395562Y-100550015D01*
X171395576Y-100553973D01*
X171387702Y-101198416D01*
X171387591Y-101202373D01*
X171343338Y-102215923D01*
X171343034Y-102220751D01*
X171259942Y-103231421D01*
X171259453Y-103236234D01*
X171137626Y-104242961D01*
X171136953Y-104247752D01*
X170976565Y-105249089D01*
X170975708Y-105253850D01*
X170777008Y-106248245D01*
X170775970Y-106252970D01*
X170539229Y-107239067D01*
X170538009Y-107243749D01*
X170263602Y-108219984D01*
X170262204Y-108224615D01*
X169950517Y-109189617D01*
X169948942Y-109194191D01*
X169603138Y-110139146D01*
X169600437Y-110146526D01*
X169598702Y-110150999D01*
X169233803Y-111040715D01*
X169213896Y-111089253D01*
X169211975Y-111093692D01*
X168791442Y-112016468D01*
X168789352Y-112020831D01*
X168333706Y-112926780D01*
X168331450Y-112931060D01*
X168135673Y-113285710D01*
X167877304Y-113753746D01*
X167841350Y-113818876D01*
X167838939Y-113823052D01*
X167655420Y-114127275D01*
X167315130Y-114691380D01*
X167312552Y-114695474D01*
X166755800Y-115543048D01*
X166753067Y-115547040D01*
X166164166Y-116372648D01*
X166161281Y-116376531D01*
X165966260Y-116628860D01*
X165541797Y-117178052D01*
X165541170Y-117178863D01*
X165538147Y-117182624D01*
X165478470Y-117253997D01*
X164887639Y-117960621D01*
X164884465Y-117964272D01*
X164204589Y-118716707D01*
X164201277Y-118720233D01*
X163493046Y-119445984D01*
X163489602Y-119449381D01*
X162753994Y-120147447D01*
X162750421Y-120150709D01*
X162328780Y-120521130D01*
X161988592Y-120819992D01*
X161984897Y-120823115D01*
X161197909Y-121462683D01*
X161194097Y-121465661D01*
X160383153Y-122074534D01*
X160379229Y-122077364D01*
X159545510Y-122654659D01*
X159541481Y-122657336D01*
X158686209Y-123202204D01*
X158682080Y-123204725D01*
X157806518Y-123716363D01*
X157802310Y-123718714D01*
X156907716Y-124196383D01*
X156903453Y-124198555D01*
X155991210Y-124641516D01*
X155986852Y-124643530D01*
X155058249Y-125051158D01*
X155053811Y-125053005D01*
X154525354Y-125261170D01*
X154110272Y-125424675D01*
X154105738Y-125426361D01*
X153148646Y-125761530D01*
X153144050Y-125763041D01*
X152174790Y-126061224D01*
X152170140Y-126062557D01*
X151620279Y-126208864D01*
X151190146Y-126323313D01*
X151185484Y-126324458D01*
X150196187Y-126547407D01*
X150191468Y-126548376D01*
X149194336Y-126733182D01*
X149189581Y-126733970D01*
X148900808Y-126776097D01*
X148186130Y-126880357D01*
X148181330Y-126880964D01*
X147677143Y-126934847D01*
X147172936Y-126988731D01*
X147168159Y-126989148D01*
X146560801Y-127030554D01*
X146156436Y-127058120D01*
X146151604Y-127058357D01*
X145644768Y-127073400D01*
X145137919Y-127088443D01*
X145133108Y-127088493D01*
X144432205Y-127082376D01*
X144119067Y-127079643D01*
X144114232Y-127079508D01*
X143710953Y-127060490D01*
X143101282Y-127031738D01*
X143096471Y-127031420D01*
X142086051Y-126944796D01*
X142081257Y-126944292D01*
X141074946Y-126818950D01*
X141070161Y-126818260D01*
X140069414Y-126654381D01*
X140064656Y-126653508D01*
X139070911Y-126451329D01*
X139066189Y-126450273D01*
X138080962Y-126210100D01*
X138076285Y-126208864D01*
X137189701Y-125956314D01*
X137101007Y-125931049D01*
X137096388Y-125929637D01*
X136132480Y-125614583D01*
X136127911Y-125612992D01*
X135176813Y-125261170D01*
X135172309Y-125259405D01*
X134235410Y-124871329D01*
X134230977Y-124869392D01*
X133735521Y-124641508D01*
X133309661Y-124445634D01*
X133305334Y-124443542D01*
X132400957Y-123984726D01*
X132396694Y-123982459D01*
X132263849Y-123908518D01*
X131510625Y-123489279D01*
X131506444Y-123486846D01*
X131226261Y-123316492D01*
X130639937Y-122960001D01*
X130635880Y-122957427D01*
X129790228Y-122397702D01*
X129786246Y-122394955D01*
X128962728Y-121803197D01*
X128958854Y-121800299D01*
X128158652Y-121177359D01*
X128154892Y-121174314D01*
X127873483Y-120937346D01*
X127379193Y-120521115D01*
X127375570Y-120517943D01*
X126625513Y-119835443D01*
X126621998Y-119832120D01*
X125898685Y-119121322D01*
X125895301Y-119117865D01*
X125199844Y-118379864D01*
X125196594Y-118376280D01*
X124837176Y-117964272D01*
X124529944Y-117612086D01*
X124526868Y-117608420D01*
X124003159Y-116959379D01*
X123890046Y-116819196D01*
X123887081Y-116815374D01*
X123281028Y-116002293D01*
X123278212Y-115998359D01*
X123275701Y-115994705D01*
X157187140Y-115994705D01*
X157206271Y-116213379D01*
X157263085Y-116425408D01*
X157265410Y-116430393D01*
X157353527Y-116619364D01*
X157353530Y-116619369D01*
X157355853Y-116624351D01*
X157359009Y-116628858D01*
X157359010Y-116628860D01*
X157395544Y-116681035D01*
X157481758Y-116804162D01*
X157636975Y-116959379D01*
X157641483Y-116962536D01*
X157641486Y-116962538D01*
X157812277Y-117082127D01*
X157816786Y-117085284D01*
X157821768Y-117087607D01*
X157821773Y-117087610D01*
X157922548Y-117134601D01*
X158015729Y-117178052D01*
X158227758Y-117234866D01*
X158446432Y-117253997D01*
X158665106Y-117234866D01*
X158877135Y-117178052D01*
X158970316Y-117134601D01*
X159071091Y-117087610D01*
X159071096Y-117087607D01*
X159076078Y-117085284D01*
X159080587Y-117082127D01*
X159251378Y-116962538D01*
X159251381Y-116962536D01*
X159255889Y-116959379D01*
X159411106Y-116804162D01*
X159497321Y-116681035D01*
X159533854Y-116628860D01*
X159533855Y-116628858D01*
X159537011Y-116624351D01*
X159539334Y-116619369D01*
X159539337Y-116619364D01*
X159627454Y-116430393D01*
X159629779Y-116425408D01*
X159686593Y-116213379D01*
X159705724Y-115994705D01*
X159686593Y-115776031D01*
X159629779Y-115564002D01*
X159586328Y-115470821D01*
X159539337Y-115370046D01*
X159539334Y-115370041D01*
X159537011Y-115365059D01*
X159411106Y-115185248D01*
X159255889Y-115030031D01*
X159251381Y-115026874D01*
X159251378Y-115026872D01*
X159080587Y-114907283D01*
X159080585Y-114907282D01*
X159076078Y-114904126D01*
X159071096Y-114901803D01*
X159071091Y-114901800D01*
X158970316Y-114854809D01*
X158877135Y-114811358D01*
X158665106Y-114754544D01*
X158446432Y-114735413D01*
X158227758Y-114754544D01*
X158015729Y-114811358D01*
X157922548Y-114854809D01*
X157821773Y-114901800D01*
X157821768Y-114901803D01*
X157816786Y-114904126D01*
X157812279Y-114907282D01*
X157812277Y-114907283D01*
X157641486Y-115026872D01*
X157641483Y-115026874D01*
X157636975Y-115030031D01*
X157481758Y-115185248D01*
X157355853Y-115365059D01*
X157353530Y-115370041D01*
X157353527Y-115370046D01*
X157306536Y-115470821D01*
X157263085Y-115564002D01*
X157206271Y-115776031D01*
X157187140Y-115994705D01*
X123275701Y-115994705D01*
X122703832Y-115162631D01*
X122701169Y-115158592D01*
X122323455Y-114561107D01*
X122159289Y-114301423D01*
X122156787Y-114297291D01*
X122100649Y-114200447D01*
X121765009Y-113621439D01*
X121648210Y-113419950D01*
X121645865Y-113415719D01*
X121534740Y-113205841D01*
X132099500Y-113205841D01*
X132099702Y-113208349D01*
X132099702Y-113208354D01*
X132109925Y-113335411D01*
X132114021Y-113386324D01*
X132115226Y-113391232D01*
X132115227Y-113391235D01*
X132170564Y-113616525D01*
X132171771Y-113621439D01*
X132173746Y-113626091D01*
X132173747Y-113626095D01*
X132264393Y-113839642D01*
X132266369Y-113844297D01*
X132395380Y-114049163D01*
X132398725Y-114052957D01*
X132528755Y-114200447D01*
X132555486Y-114230768D01*
X132742568Y-114384439D01*
X132746936Y-114386981D01*
X132943730Y-114501518D01*
X132951812Y-114506222D01*
X132956535Y-114508035D01*
X133173106Y-114591169D01*
X133173109Y-114591170D01*
X133177835Y-114592984D01*
X133414823Y-114642493D01*
X133419873Y-114642722D01*
X133419878Y-114642723D01*
X133530112Y-114647728D01*
X133656677Y-114653476D01*
X133661697Y-114652895D01*
X133661701Y-114652895D01*
X133769568Y-114640414D01*
X133897176Y-114625649D01*
X133902050Y-114624270D01*
X133902054Y-114624269D01*
X134125264Y-114561107D01*
X134125266Y-114561106D01*
X134130133Y-114559729D01*
X134349553Y-114457411D01*
X134353733Y-114454570D01*
X134353737Y-114454568D01*
X134545601Y-114324178D01*
X134545602Y-114324177D01*
X134549793Y-114321329D01*
X134553470Y-114317852D01*
X134553476Y-114317847D01*
X134722020Y-114158461D01*
X134725699Y-114154982D01*
X134872747Y-113962652D01*
X134987153Y-113749285D01*
X135003419Y-113702047D01*
X135064326Y-113525160D01*
X135065975Y-113520371D01*
X135084051Y-113415719D01*
X135106508Y-113285710D01*
X135106509Y-113285704D01*
X135107183Y-113281800D01*
X135107665Y-113271180D01*
X135108436Y-113254216D01*
X135108436Y-113254197D01*
X135108500Y-113252797D01*
X135108500Y-113205841D01*
X153181500Y-113205841D01*
X153181702Y-113208349D01*
X153181702Y-113208354D01*
X153191925Y-113335411D01*
X153196021Y-113386324D01*
X153197226Y-113391232D01*
X153197227Y-113391235D01*
X153252564Y-113616525D01*
X153253771Y-113621439D01*
X153255746Y-113626091D01*
X153255747Y-113626095D01*
X153346393Y-113839642D01*
X153348369Y-113844297D01*
X153477380Y-114049163D01*
X153480725Y-114052957D01*
X153610755Y-114200447D01*
X153637486Y-114230768D01*
X153824568Y-114384439D01*
X153828936Y-114386981D01*
X154025730Y-114501518D01*
X154033812Y-114506222D01*
X154038535Y-114508035D01*
X154255106Y-114591169D01*
X154255109Y-114591170D01*
X154259835Y-114592984D01*
X154496823Y-114642493D01*
X154501873Y-114642722D01*
X154501878Y-114642723D01*
X154612112Y-114647728D01*
X154738677Y-114653476D01*
X154743697Y-114652895D01*
X154743701Y-114652895D01*
X154851568Y-114640414D01*
X154979176Y-114625649D01*
X154984050Y-114624270D01*
X154984054Y-114624269D01*
X155207264Y-114561107D01*
X155207266Y-114561106D01*
X155212133Y-114559729D01*
X155431553Y-114457411D01*
X155435733Y-114454570D01*
X155435737Y-114454568D01*
X155627601Y-114324178D01*
X155627602Y-114324177D01*
X155631793Y-114321329D01*
X155635470Y-114317852D01*
X155635476Y-114317847D01*
X155804020Y-114158461D01*
X155807699Y-114154982D01*
X155954747Y-113962652D01*
X156069153Y-113749285D01*
X156085419Y-113702047D01*
X156087304Y-113696572D01*
X159115503Y-113696572D01*
X159134634Y-113915246D01*
X159191448Y-114127275D01*
X159234899Y-114220456D01*
X159281890Y-114321231D01*
X159281893Y-114321236D01*
X159284216Y-114326218D01*
X159287372Y-114330725D01*
X159287373Y-114330727D01*
X159374088Y-114454568D01*
X159410121Y-114506029D01*
X159565338Y-114661246D01*
X159569846Y-114664403D01*
X159569849Y-114664405D01*
X159740640Y-114783994D01*
X159745149Y-114787151D01*
X159750131Y-114789474D01*
X159750136Y-114789477D01*
X159797061Y-114811358D01*
X159944092Y-114879919D01*
X160156121Y-114936733D01*
X160374795Y-114955864D01*
X160593469Y-114936733D01*
X160805498Y-114879919D01*
X160952529Y-114811358D01*
X160999454Y-114789477D01*
X160999459Y-114789474D01*
X161004441Y-114787151D01*
X161008950Y-114783994D01*
X161179741Y-114664405D01*
X161179744Y-114664403D01*
X161184252Y-114661246D01*
X161339469Y-114506029D01*
X161375503Y-114454568D01*
X161462217Y-114330727D01*
X161462218Y-114330725D01*
X161465374Y-114326218D01*
X161467697Y-114321236D01*
X161467700Y-114321231D01*
X161514691Y-114220456D01*
X161558142Y-114127275D01*
X161614956Y-113915246D01*
X161634087Y-113696572D01*
X161614956Y-113477898D01*
X161558142Y-113265869D01*
X161514691Y-113172688D01*
X161467700Y-113071913D01*
X161467697Y-113071908D01*
X161465374Y-113066926D01*
X161339469Y-112887115D01*
X161184252Y-112731898D01*
X161179744Y-112728741D01*
X161179741Y-112728739D01*
X161008950Y-112609150D01*
X161008948Y-112609149D01*
X161004441Y-112605993D01*
X160999459Y-112603670D01*
X160999454Y-112603667D01*
X160898679Y-112556676D01*
X160805498Y-112513225D01*
X160593469Y-112456411D01*
X160374795Y-112437280D01*
X160156121Y-112456411D01*
X159944092Y-112513225D01*
X159850911Y-112556676D01*
X159750136Y-112603667D01*
X159750131Y-112603670D01*
X159745149Y-112605993D01*
X159740642Y-112609149D01*
X159740640Y-112609150D01*
X159569849Y-112728739D01*
X159569846Y-112728741D01*
X159565338Y-112731898D01*
X159410121Y-112887115D01*
X159284216Y-113066926D01*
X159281893Y-113071908D01*
X159281890Y-113071913D01*
X159234899Y-113172688D01*
X159191448Y-113265869D01*
X159134634Y-113477898D01*
X159115503Y-113696572D01*
X156087304Y-113696572D01*
X156146326Y-113525160D01*
X156147975Y-113520371D01*
X156166051Y-113415719D01*
X156188508Y-113285710D01*
X156188509Y-113285704D01*
X156189183Y-113281800D01*
X156189665Y-113271180D01*
X156190436Y-113254216D01*
X156190436Y-113254197D01*
X156190500Y-113252797D01*
X156190500Y-111584159D01*
X156186608Y-111535784D01*
X156176385Y-111408717D01*
X156176384Y-111408712D01*
X156175979Y-111403676D01*
X156174693Y-111398438D01*
X161043866Y-111398438D01*
X161062997Y-111617112D01*
X161119811Y-111829141D01*
X161122136Y-111834126D01*
X161210253Y-112023097D01*
X161210256Y-112023102D01*
X161212579Y-112028084D01*
X161338484Y-112207895D01*
X161493701Y-112363112D01*
X161498209Y-112366269D01*
X161498212Y-112366271D01*
X161628978Y-112457834D01*
X161673512Y-112489017D01*
X161678494Y-112491340D01*
X161678499Y-112491343D01*
X161779274Y-112538334D01*
X161872455Y-112581785D01*
X162084484Y-112638599D01*
X162303158Y-112657730D01*
X162521832Y-112638599D01*
X162733861Y-112581785D01*
X162827042Y-112538334D01*
X162927817Y-112491343D01*
X162927822Y-112491340D01*
X162932804Y-112489017D01*
X162977338Y-112457834D01*
X163108104Y-112366271D01*
X163108107Y-112366269D01*
X163112615Y-112363112D01*
X163267832Y-112207895D01*
X163393737Y-112028084D01*
X163396060Y-112023102D01*
X163396063Y-112023097D01*
X163484180Y-111834126D01*
X163486505Y-111829141D01*
X163543319Y-111617112D01*
X163562450Y-111398438D01*
X163543319Y-111179764D01*
X163486505Y-110967735D01*
X163421042Y-110827348D01*
X163396063Y-110773779D01*
X163396060Y-110773774D01*
X163393737Y-110768792D01*
X163371506Y-110737043D01*
X163270991Y-110593492D01*
X163270989Y-110593489D01*
X163267832Y-110588981D01*
X163112615Y-110433764D01*
X163108107Y-110430607D01*
X163108104Y-110430605D01*
X162937313Y-110311016D01*
X162937311Y-110311015D01*
X162932804Y-110307859D01*
X162927822Y-110305536D01*
X162927817Y-110305533D01*
X162827042Y-110258542D01*
X162733861Y-110215091D01*
X162521832Y-110158277D01*
X162303158Y-110139146D01*
X162084484Y-110158277D01*
X161872455Y-110215091D01*
X161779274Y-110258542D01*
X161678499Y-110305533D01*
X161678494Y-110305536D01*
X161673512Y-110307859D01*
X161669005Y-110311015D01*
X161669003Y-110311016D01*
X161498212Y-110430605D01*
X161498209Y-110430607D01*
X161493701Y-110433764D01*
X161338484Y-110588981D01*
X161335327Y-110593489D01*
X161335325Y-110593492D01*
X161234810Y-110737043D01*
X161212579Y-110768792D01*
X161210256Y-110773774D01*
X161210253Y-110773779D01*
X161185274Y-110827348D01*
X161119811Y-110967735D01*
X161062997Y-111179764D01*
X161043866Y-111398438D01*
X156174693Y-111398438D01*
X156119436Y-111173475D01*
X156118229Y-111168561D01*
X156065993Y-111045500D01*
X156025607Y-110950358D01*
X156025607Y-110950357D01*
X156023631Y-110945703D01*
X155894620Y-110740837D01*
X155734514Y-110559232D01*
X155547432Y-110405561D01*
X155384988Y-110311016D01*
X155342556Y-110286320D01*
X155342554Y-110286319D01*
X155338188Y-110283778D01*
X155204362Y-110232407D01*
X155116894Y-110198831D01*
X155116891Y-110198830D01*
X155112165Y-110197016D01*
X154875177Y-110147507D01*
X154870127Y-110147278D01*
X154870122Y-110147277D01*
X154759888Y-110142272D01*
X154633323Y-110136524D01*
X154628303Y-110137105D01*
X154628299Y-110137105D01*
X154527381Y-110148782D01*
X154392824Y-110164351D01*
X154387950Y-110165730D01*
X154387946Y-110165731D01*
X154164736Y-110228893D01*
X154164734Y-110228894D01*
X154159867Y-110230271D01*
X153940447Y-110332589D01*
X153936267Y-110335430D01*
X153936263Y-110335432D01*
X153791571Y-110433764D01*
X153740207Y-110468671D01*
X153736530Y-110472148D01*
X153736524Y-110472153D01*
X153695995Y-110510480D01*
X153564301Y-110635018D01*
X153417253Y-110827348D01*
X153302847Y-111040715D01*
X153301201Y-111045496D01*
X153301199Y-111045500D01*
X153254968Y-111179764D01*
X153224025Y-111269629D01*
X153223163Y-111274621D01*
X153200001Y-111408717D01*
X153182817Y-111508200D01*
X153181500Y-111537203D01*
X153181500Y-113205841D01*
X135108500Y-113205841D01*
X135108500Y-111584159D01*
X135104608Y-111535784D01*
X135094385Y-111408717D01*
X135094384Y-111408712D01*
X135093979Y-111403676D01*
X135092693Y-111398438D01*
X135037436Y-111173475D01*
X135036229Y-111168561D01*
X134983993Y-111045500D01*
X134943607Y-110950358D01*
X134943607Y-110950357D01*
X134941631Y-110945703D01*
X134812620Y-110740837D01*
X134652514Y-110559232D01*
X134465432Y-110405561D01*
X134302988Y-110311016D01*
X134260556Y-110286320D01*
X134260554Y-110286319D01*
X134256188Y-110283778D01*
X134122362Y-110232407D01*
X134034894Y-110198831D01*
X134034891Y-110198830D01*
X134030165Y-110197016D01*
X133793177Y-110147507D01*
X133788127Y-110147278D01*
X133788122Y-110147277D01*
X133677888Y-110142272D01*
X133551323Y-110136524D01*
X133546303Y-110137105D01*
X133546299Y-110137105D01*
X133445381Y-110148782D01*
X133310824Y-110164351D01*
X133305950Y-110165730D01*
X133305946Y-110165731D01*
X133082736Y-110228893D01*
X133082734Y-110228894D01*
X133077867Y-110230271D01*
X132858447Y-110332589D01*
X132854267Y-110335430D01*
X132854263Y-110335432D01*
X132709571Y-110433764D01*
X132658207Y-110468671D01*
X132654530Y-110472148D01*
X132654524Y-110472153D01*
X132613995Y-110510480D01*
X132482301Y-110635018D01*
X132335253Y-110827348D01*
X132220847Y-111040715D01*
X132219201Y-111045496D01*
X132219199Y-111045500D01*
X132172968Y-111179764D01*
X132142025Y-111269629D01*
X132141163Y-111274621D01*
X132118001Y-111408717D01*
X132100817Y-111508200D01*
X132099500Y-111537203D01*
X132099500Y-113205841D01*
X121534740Y-113205841D01*
X121171357Y-112519529D01*
X121169175Y-112515211D01*
X121140646Y-112455932D01*
X120729397Y-111601420D01*
X120727386Y-111597028D01*
X120722886Y-111586678D01*
X120323015Y-110667036D01*
X120321176Y-110662575D01*
X120312000Y-110639038D01*
X119952811Y-109717767D01*
X119951142Y-109713232D01*
X119619311Y-108754960D01*
X119617822Y-108750376D01*
X119323022Y-107780073D01*
X119321705Y-107775419D01*
X119064369Y-106794515D01*
X119063232Y-106789812D01*
X118943700Y-106250639D01*
X118843750Y-105799792D01*
X118842796Y-105795065D01*
X118661470Y-104797292D01*
X118660697Y-104792517D01*
X118583165Y-104247752D01*
X118517812Y-103788556D01*
X118517224Y-103783768D01*
X118460393Y-103233829D01*
X118412978Y-102775001D01*
X118412576Y-102770204D01*
X118347138Y-101758270D01*
X118346918Y-101753437D01*
X118326584Y-100976913D01*
X118320372Y-100739667D01*
X118320338Y-100734855D01*
X118322573Y-100552000D01*
X118332728Y-99720818D01*
X118332879Y-99716005D01*
X118342137Y-99533266D01*
X118384186Y-98703190D01*
X118384523Y-98698381D01*
X118400582Y-98518453D01*
X118474668Y-97688335D01*
X118475190Y-97683527D01*
X118604047Y-96677637D01*
X118604754Y-96672851D01*
X118654194Y-96377410D01*
X118663798Y-96320017D01*
X119683279Y-96320017D01*
X119686131Y-96353974D01*
X119699929Y-96518285D01*
X119700584Y-96526089D01*
X119757585Y-96724877D01*
X119760403Y-96730359D01*
X119760404Y-96730363D01*
X119849292Y-96903320D01*
X119849295Y-96903324D01*
X119852112Y-96908806D01*
X119980564Y-97070872D01*
X120138049Y-97204902D01*
X120318567Y-97305791D01*
X120515244Y-97369695D01*
X120720587Y-97394181D01*
X120726722Y-97393709D01*
X120726724Y-97393709D01*
X120920634Y-97378788D01*
X120920638Y-97378787D01*
X120926776Y-97378315D01*
X121125956Y-97322703D01*
X121131460Y-97319923D01*
X121131462Y-97319922D01*
X121305040Y-97232242D01*
X121305042Y-97232241D01*
X121310541Y-97229463D01*
X121473500Y-97102145D01*
X121477526Y-97097481D01*
X121477529Y-97097478D01*
X121604597Y-96950268D01*
X121604598Y-96950266D01*
X121608626Y-96945600D01*
X121710773Y-96765790D01*
X121776048Y-96569564D01*
X121801967Y-96364397D01*
X121802380Y-96334811D01*
X121788639Y-96194669D01*
X135062501Y-96194669D01*
X135062871Y-96201490D01*
X135068395Y-96252352D01*
X135072021Y-96267604D01*
X135117176Y-96388054D01*
X135125714Y-96403649D01*
X135202215Y-96505724D01*
X135214776Y-96518285D01*
X135316851Y-96594786D01*
X135332446Y-96603324D01*
X135452894Y-96648478D01*
X135468149Y-96652105D01*
X135519014Y-96657631D01*
X135525828Y-96658000D01*
X136198385Y-96658000D01*
X136213624Y-96653525D01*
X136214829Y-96652135D01*
X136216500Y-96644452D01*
X136216500Y-96639884D01*
X136724500Y-96639884D01*
X136728975Y-96655123D01*
X136730365Y-96656328D01*
X136738048Y-96657999D01*
X137415169Y-96657999D01*
X137421990Y-96657629D01*
X137472852Y-96652105D01*
X137488104Y-96648479D01*
X137608554Y-96603324D01*
X137624149Y-96594786D01*
X137726224Y-96518285D01*
X137738785Y-96505724D01*
X137815286Y-96403649D01*
X137823824Y-96388054D01*
X137868978Y-96267606D01*
X137872605Y-96252351D01*
X137878131Y-96201486D01*
X137878500Y-96194672D01*
X137878500Y-96045365D01*
X137898502Y-95977244D01*
X137952158Y-95930751D01*
X138022432Y-95920647D01*
X138087012Y-95950141D01*
X138107395Y-95972642D01*
X138128850Y-96003000D01*
X138185734Y-96058414D01*
X138273818Y-96144221D01*
X138280837Y-96151059D01*
X138285633Y-96154264D01*
X138285636Y-96154266D01*
X138389131Y-96223419D01*
X138457260Y-96268941D01*
X138462563Y-96271219D01*
X138462566Y-96271221D01*
X138618734Y-96338316D01*
X138652211Y-96352699D01*
X138703909Y-96364397D01*
X138853525Y-96398252D01*
X138853530Y-96398253D01*
X138859162Y-96399527D01*
X138864933Y-96399754D01*
X138864935Y-96399754D01*
X138930411Y-96402326D01*
X139071181Y-96407857D01*
X139176174Y-96392634D01*
X139275453Y-96378239D01*
X139275458Y-96378238D01*
X139281167Y-96377410D01*
X139286631Y-96375555D01*
X139286636Y-96375554D01*
X139379740Y-96343949D01*
X139482089Y-96309207D01*
X139487132Y-96306383D01*
X139662170Y-96208357D01*
X139662174Y-96208354D01*
X139667217Y-96205530D01*
X139830352Y-96069852D01*
X139832168Y-96067669D01*
X149540501Y-96067669D01*
X149540871Y-96074490D01*
X149546395Y-96125352D01*
X149550021Y-96140604D01*
X149595176Y-96261054D01*
X149603714Y-96276649D01*
X149680215Y-96378724D01*
X149692776Y-96391285D01*
X149794851Y-96467786D01*
X149810446Y-96476324D01*
X149930894Y-96521478D01*
X149946149Y-96525105D01*
X149997014Y-96530631D01*
X150003828Y-96531000D01*
X150676385Y-96531000D01*
X150691624Y-96526525D01*
X150692829Y-96525135D01*
X150694500Y-96517452D01*
X150694500Y-96512884D01*
X151202500Y-96512884D01*
X151206975Y-96528123D01*
X151208365Y-96529328D01*
X151216048Y-96530999D01*
X151893169Y-96530999D01*
X151899990Y-96530629D01*
X151950852Y-96525105D01*
X151966104Y-96521479D01*
X152086554Y-96476324D01*
X152102149Y-96467786D01*
X152204224Y-96391285D01*
X152216785Y-96378724D01*
X152293286Y-96276649D01*
X152301824Y-96261054D01*
X152346978Y-96140606D01*
X152350605Y-96125351D01*
X152356131Y-96074486D01*
X152356500Y-96067672D01*
X152356500Y-95918365D01*
X152376502Y-95850244D01*
X152430158Y-95803751D01*
X152500432Y-95793647D01*
X152565012Y-95823141D01*
X152585395Y-95845642D01*
X152606850Y-95876000D01*
X152758837Y-96024059D01*
X152763633Y-96027264D01*
X152763636Y-96027266D01*
X152894202Y-96114507D01*
X152935260Y-96141941D01*
X152940563Y-96144219D01*
X152940566Y-96144221D01*
X153124904Y-96223419D01*
X153130211Y-96225699D01*
X153199874Y-96241462D01*
X153331525Y-96271252D01*
X153331530Y-96271253D01*
X153337162Y-96272527D01*
X153342933Y-96272754D01*
X153342935Y-96272754D01*
X153408411Y-96275326D01*
X153549181Y-96280857D01*
X153654174Y-96265633D01*
X153753453Y-96251239D01*
X153753458Y-96251238D01*
X153759167Y-96250410D01*
X153764631Y-96248555D01*
X153764636Y-96248554D01*
X153857740Y-96216949D01*
X153960089Y-96182207D01*
X153965132Y-96179383D01*
X154140170Y-96081357D01*
X154140174Y-96081354D01*
X154145217Y-96078530D01*
X154308352Y-95942852D01*
X154444030Y-95779717D01*
X154446854Y-95774674D01*
X154446857Y-95774670D01*
X154544883Y-95599632D01*
X154544884Y-95599630D01*
X154547707Y-95594589D01*
X154595624Y-95453429D01*
X154614054Y-95399136D01*
X154614055Y-95399131D01*
X154615910Y-95393667D01*
X154617477Y-95382865D01*
X154645824Y-95187355D01*
X154646357Y-95183681D01*
X154647946Y-95123000D01*
X154628531Y-94911708D01*
X154620677Y-94883857D01*
X154572504Y-94713051D01*
X154572503Y-94713049D01*
X154570936Y-94707492D01*
X154566127Y-94697739D01*
X154479645Y-94522372D01*
X154477090Y-94517191D01*
X154460065Y-94494391D01*
X154402027Y-94416669D01*
X158938501Y-94416669D01*
X158938871Y-94423490D01*
X158944395Y-94474352D01*
X158948021Y-94489604D01*
X158993176Y-94610054D01*
X159001714Y-94625649D01*
X159078215Y-94727724D01*
X159090776Y-94740285D01*
X159192851Y-94816786D01*
X159208446Y-94825324D01*
X159328894Y-94870478D01*
X159344149Y-94874105D01*
X159395014Y-94879631D01*
X159401828Y-94880000D01*
X160074385Y-94880000D01*
X160089624Y-94875525D01*
X160090829Y-94874135D01*
X160092500Y-94866452D01*
X160092500Y-94861884D01*
X160600500Y-94861884D01*
X160604975Y-94877123D01*
X160606365Y-94878328D01*
X160614048Y-94879999D01*
X161291169Y-94879999D01*
X161297990Y-94879629D01*
X161348852Y-94874105D01*
X161364104Y-94870479D01*
X161484554Y-94825324D01*
X161500149Y-94816786D01*
X161602224Y-94740285D01*
X161614785Y-94727724D01*
X161691286Y-94625649D01*
X161699824Y-94610054D01*
X161744978Y-94489606D01*
X161748605Y-94474351D01*
X161754131Y-94423486D01*
X161754500Y-94416672D01*
X161754500Y-94267365D01*
X161774502Y-94199244D01*
X161828158Y-94152751D01*
X161898432Y-94142647D01*
X161963012Y-94172141D01*
X161983395Y-94194642D01*
X162004850Y-94225000D01*
X162008984Y-94229027D01*
X162126251Y-94343263D01*
X162156837Y-94373059D01*
X162161633Y-94376264D01*
X162161636Y-94376266D01*
X162302313Y-94470263D01*
X162333260Y-94490941D01*
X162338563Y-94493219D01*
X162338566Y-94493221D01*
X162394358Y-94517191D01*
X162528211Y-94574699D01*
X162604250Y-94591905D01*
X162729525Y-94620252D01*
X162729530Y-94620253D01*
X162735162Y-94621527D01*
X162740933Y-94621754D01*
X162740935Y-94621754D01*
X162806411Y-94624326D01*
X162947181Y-94629857D01*
X163052174Y-94614633D01*
X163151453Y-94600239D01*
X163151458Y-94600238D01*
X163157167Y-94599410D01*
X163162631Y-94597555D01*
X163162636Y-94597554D01*
X163304072Y-94549543D01*
X163358089Y-94531207D01*
X163373865Y-94522372D01*
X163538170Y-94430357D01*
X163538174Y-94430354D01*
X163543217Y-94427530D01*
X163706352Y-94291852D01*
X163842030Y-94128717D01*
X163844854Y-94123674D01*
X163844857Y-94123670D01*
X163942883Y-93948632D01*
X163942884Y-93948630D01*
X163945707Y-93943589D01*
X163980449Y-93841240D01*
X164012054Y-93748136D01*
X164012055Y-93748131D01*
X164013910Y-93742667D01*
X164015477Y-93731865D01*
X164043824Y-93536355D01*
X164044357Y-93532681D01*
X164045946Y-93472000D01*
X164026531Y-93260708D01*
X163996687Y-93154887D01*
X163970504Y-93062051D01*
X163970503Y-93062049D01*
X163968936Y-93056492D01*
X163951172Y-93020469D01*
X163877645Y-92871372D01*
X163875090Y-92866191D01*
X163852012Y-92835285D01*
X163751589Y-92700803D01*
X163751588Y-92700802D01*
X163748136Y-92696179D01*
X163742302Y-92690786D01*
X163596566Y-92556069D01*
X163596563Y-92556067D01*
X163592326Y-92552150D01*
X163412877Y-92438926D01*
X163215800Y-92360300D01*
X163210143Y-92359175D01*
X163210137Y-92359173D01*
X163013363Y-92320033D01*
X163013359Y-92320033D01*
X163007695Y-92318906D01*
X163001920Y-92318830D01*
X163001916Y-92318830D01*
X162895304Y-92317434D01*
X162795531Y-92316128D01*
X162789834Y-92317107D01*
X162789833Y-92317107D01*
X162592110Y-92351082D01*
X162586413Y-92352061D01*
X162387346Y-92425501D01*
X162382385Y-92428453D01*
X162382384Y-92428453D01*
X162209963Y-92531032D01*
X162209960Y-92531034D01*
X162204995Y-92533988D01*
X162200655Y-92537794D01*
X162200651Y-92537797D01*
X162120530Y-92608062D01*
X162045468Y-92673890D01*
X162041893Y-92678425D01*
X162041892Y-92678426D01*
X161979449Y-92757634D01*
X161921567Y-92798747D01*
X161850647Y-92802041D01*
X161789205Y-92766469D01*
X161756748Y-92703326D01*
X161754499Y-92679628D01*
X161754499Y-92527331D01*
X161754129Y-92520510D01*
X161748605Y-92469648D01*
X161744979Y-92454396D01*
X161699824Y-92333946D01*
X161691286Y-92318351D01*
X161614785Y-92216276D01*
X161602224Y-92203715D01*
X161500149Y-92127214D01*
X161484554Y-92118676D01*
X161364106Y-92073522D01*
X161348851Y-92069895D01*
X161297986Y-92064369D01*
X161291172Y-92064000D01*
X160618615Y-92064000D01*
X160603376Y-92068475D01*
X160602171Y-92069865D01*
X160600500Y-92077548D01*
X160600500Y-94861884D01*
X160092500Y-94861884D01*
X160092500Y-93744115D01*
X160088025Y-93728876D01*
X160086635Y-93727671D01*
X160078952Y-93726000D01*
X158956616Y-93726000D01*
X158941377Y-93730475D01*
X158940172Y-93731865D01*
X158938501Y-93739548D01*
X158938501Y-94416669D01*
X154402027Y-94416669D01*
X154353589Y-94351803D01*
X154353588Y-94351802D01*
X154350136Y-94347179D01*
X154335954Y-94334069D01*
X154198566Y-94207069D01*
X154198563Y-94207067D01*
X154194326Y-94203150D01*
X154014877Y-94089926D01*
X153817800Y-94011300D01*
X153812143Y-94010175D01*
X153812137Y-94010173D01*
X153615363Y-93971033D01*
X153615359Y-93971033D01*
X153609695Y-93969906D01*
X153603920Y-93969830D01*
X153603916Y-93969830D01*
X153497304Y-93968434D01*
X153397531Y-93967128D01*
X153391834Y-93968107D01*
X153391833Y-93968107D01*
X153217197Y-93998115D01*
X153188413Y-94003061D01*
X152989346Y-94076501D01*
X152984385Y-94079453D01*
X152984384Y-94079453D01*
X152811963Y-94182032D01*
X152811960Y-94182034D01*
X152806995Y-94184988D01*
X152802655Y-94188794D01*
X152802651Y-94188797D01*
X152651809Y-94321083D01*
X152647468Y-94324890D01*
X152643893Y-94329425D01*
X152643892Y-94329426D01*
X152581449Y-94408634D01*
X152523567Y-94449747D01*
X152452647Y-94453041D01*
X152391205Y-94417469D01*
X152358748Y-94354326D01*
X152356499Y-94330628D01*
X152356499Y-94178331D01*
X152356129Y-94171510D01*
X152350605Y-94120648D01*
X152346979Y-94105396D01*
X152301824Y-93984946D01*
X152293286Y-93969351D01*
X152216785Y-93867276D01*
X152204224Y-93854715D01*
X152102149Y-93778214D01*
X152086554Y-93769676D01*
X151966106Y-93724522D01*
X151950851Y-93720895D01*
X151899986Y-93715369D01*
X151893172Y-93715000D01*
X151220615Y-93715000D01*
X151205376Y-93719475D01*
X151204171Y-93720865D01*
X151202500Y-93728548D01*
X151202500Y-96512884D01*
X150694500Y-96512884D01*
X150694500Y-95395115D01*
X150690025Y-95379876D01*
X150688635Y-95378671D01*
X150680952Y-95377000D01*
X149558616Y-95377000D01*
X149543377Y-95381475D01*
X149542172Y-95382865D01*
X149540501Y-95390548D01*
X149540501Y-96067669D01*
X139832168Y-96067669D01*
X139966030Y-95906717D01*
X139968854Y-95901674D01*
X139968857Y-95901670D01*
X140066883Y-95726632D01*
X140066884Y-95726630D01*
X140069707Y-95721589D01*
X140119943Y-95573596D01*
X140136054Y-95526136D01*
X140136055Y-95526131D01*
X140137910Y-95520667D01*
X140139453Y-95510031D01*
X140161071Y-95360933D01*
X140168357Y-95310681D01*
X140169946Y-95250000D01*
X140157622Y-95115884D01*
X140151060Y-95044462D01*
X140151059Y-95044459D01*
X140150531Y-95038708D01*
X140138003Y-94994285D01*
X140097560Y-94850885D01*
X149540500Y-94850885D01*
X149544975Y-94866124D01*
X149546365Y-94867329D01*
X149554048Y-94869000D01*
X150676385Y-94869000D01*
X150691624Y-94864525D01*
X150692829Y-94863135D01*
X150694500Y-94855452D01*
X150694500Y-93733116D01*
X150690025Y-93717877D01*
X150688635Y-93716672D01*
X150680952Y-93715001D01*
X150003831Y-93715001D01*
X149997010Y-93715371D01*
X149946148Y-93720895D01*
X149930896Y-93724521D01*
X149810446Y-93769676D01*
X149794851Y-93778214D01*
X149692776Y-93854715D01*
X149680215Y-93867276D01*
X149603714Y-93969351D01*
X149595176Y-93984946D01*
X149550022Y-94105394D01*
X149546395Y-94120649D01*
X149540869Y-94171514D01*
X149540500Y-94178328D01*
X149540500Y-94850885D01*
X140097560Y-94850885D01*
X140094504Y-94840051D01*
X140094503Y-94840049D01*
X140092936Y-94834492D01*
X140090080Y-94828699D01*
X140001645Y-94649372D01*
X139999090Y-94644191D01*
X139982336Y-94621754D01*
X139875589Y-94478803D01*
X139875588Y-94478802D01*
X139872136Y-94474179D01*
X139867900Y-94470263D01*
X139720566Y-94334069D01*
X139720563Y-94334067D01*
X139716326Y-94330150D01*
X139536877Y-94216926D01*
X139339800Y-94138300D01*
X139334143Y-94137175D01*
X139334137Y-94137173D01*
X139137363Y-94098033D01*
X139137359Y-94098033D01*
X139131695Y-94096906D01*
X139125920Y-94096830D01*
X139125916Y-94096830D01*
X139019304Y-94095434D01*
X138919531Y-94094128D01*
X138913834Y-94095107D01*
X138913833Y-94095107D01*
X138716110Y-94129082D01*
X138710413Y-94130061D01*
X138511346Y-94203501D01*
X138506385Y-94206453D01*
X138506384Y-94206453D01*
X138333963Y-94309032D01*
X138333960Y-94309034D01*
X138328995Y-94311988D01*
X138324655Y-94315794D01*
X138324651Y-94315797D01*
X138193699Y-94430640D01*
X138169468Y-94451890D01*
X138165893Y-94456425D01*
X138165892Y-94456426D01*
X138103449Y-94535634D01*
X138045567Y-94576747D01*
X137974647Y-94580041D01*
X137913205Y-94544469D01*
X137880748Y-94481326D01*
X137878499Y-94457628D01*
X137878499Y-94305331D01*
X137878129Y-94298510D01*
X137872605Y-94247648D01*
X137868979Y-94232396D01*
X137823824Y-94111946D01*
X137815286Y-94096351D01*
X137738785Y-93994276D01*
X137726224Y-93981715D01*
X137624149Y-93905214D01*
X137608554Y-93896676D01*
X137488106Y-93851522D01*
X137472851Y-93847895D01*
X137421986Y-93842369D01*
X137415172Y-93842000D01*
X136742615Y-93842000D01*
X136727376Y-93846475D01*
X136726171Y-93847865D01*
X136724500Y-93855548D01*
X136724500Y-96639884D01*
X136216500Y-96639884D01*
X136216500Y-95522115D01*
X136212025Y-95506876D01*
X136210635Y-95505671D01*
X136202952Y-95504000D01*
X135080616Y-95504000D01*
X135065377Y-95508475D01*
X135064172Y-95509865D01*
X135062501Y-95517548D01*
X135062501Y-96194669D01*
X121788639Y-96194669D01*
X121782200Y-96129000D01*
X121722429Y-95931028D01*
X121649382Y-95793647D01*
X121628237Y-95753878D01*
X121628235Y-95753875D01*
X121625343Y-95748436D01*
X121621452Y-95743666D01*
X121621450Y-95743662D01*
X121498536Y-95592954D01*
X121498533Y-95592951D01*
X121494641Y-95588179D01*
X121487744Y-95582473D01*
X121340049Y-95460289D01*
X121340044Y-95460286D01*
X121335300Y-95456361D01*
X121329881Y-95453431D01*
X121329878Y-95453429D01*
X121158810Y-95360933D01*
X121158805Y-95360931D01*
X121153390Y-95358003D01*
X120955841Y-95296851D01*
X120949716Y-95296207D01*
X120949715Y-95296207D01*
X120756304Y-95275879D01*
X120756302Y-95275879D01*
X120750175Y-95275235D01*
X120624007Y-95286717D01*
X120550369Y-95293418D01*
X120550368Y-95293418D01*
X120544228Y-95293977D01*
X120345844Y-95352365D01*
X120340379Y-95355222D01*
X120168039Y-95445319D01*
X120168035Y-95445322D01*
X120162579Y-95448174D01*
X120001413Y-95577754D01*
X119868486Y-95736171D01*
X119768860Y-95917389D01*
X119706331Y-96114507D01*
X119705645Y-96120624D01*
X119705644Y-96120628D01*
X119684808Y-96306383D01*
X119683279Y-96320017D01*
X118663798Y-96320017D01*
X118772126Y-95672677D01*
X118773014Y-95667933D01*
X118788542Y-95592954D01*
X118936534Y-94878328D01*
X118978658Y-94674920D01*
X118979624Y-94670669D01*
X125592001Y-94670669D01*
X125592371Y-94677490D01*
X125597895Y-94728352D01*
X125601521Y-94743604D01*
X125646676Y-94864054D01*
X125655214Y-94879649D01*
X125731715Y-94981724D01*
X125744276Y-94994285D01*
X125846351Y-95070786D01*
X125861946Y-95079324D01*
X125982394Y-95124478D01*
X125997649Y-95128105D01*
X126048514Y-95133631D01*
X126055328Y-95134000D01*
X126727885Y-95134000D01*
X126743124Y-95129525D01*
X126744329Y-95128135D01*
X126746000Y-95120452D01*
X126746000Y-95115884D01*
X127254000Y-95115884D01*
X127258475Y-95131123D01*
X127259865Y-95132328D01*
X127267548Y-95133999D01*
X127944669Y-95133999D01*
X127951490Y-95133629D01*
X128002352Y-95128105D01*
X128017604Y-95124479D01*
X128138054Y-95079324D01*
X128153649Y-95070786D01*
X128255724Y-94994285D01*
X128268285Y-94981724D01*
X128271162Y-94977885D01*
X135062500Y-94977885D01*
X135066975Y-94993124D01*
X135068365Y-94994329D01*
X135076048Y-94996000D01*
X136198385Y-94996000D01*
X136213624Y-94991525D01*
X136214829Y-94990135D01*
X136216500Y-94982452D01*
X136216500Y-93860116D01*
X136212025Y-93844877D01*
X136210635Y-93843672D01*
X136202952Y-93842001D01*
X135525831Y-93842001D01*
X135519010Y-93842371D01*
X135468148Y-93847895D01*
X135452896Y-93851521D01*
X135332446Y-93896676D01*
X135316851Y-93905214D01*
X135214776Y-93981715D01*
X135202215Y-93994276D01*
X135125714Y-94096351D01*
X135117176Y-94111946D01*
X135072022Y-94232394D01*
X135068395Y-94247649D01*
X135062869Y-94298514D01*
X135062500Y-94305328D01*
X135062500Y-94977885D01*
X128271162Y-94977885D01*
X128344786Y-94879649D01*
X128353324Y-94864054D01*
X128398478Y-94743606D01*
X128402105Y-94728351D01*
X128407631Y-94677486D01*
X128408000Y-94670672D01*
X128408000Y-94521365D01*
X128428002Y-94453244D01*
X128481658Y-94406751D01*
X128551932Y-94396647D01*
X128616512Y-94426141D01*
X128636895Y-94448642D01*
X128658350Y-94479000D01*
X128810337Y-94627059D01*
X128815133Y-94630264D01*
X128815136Y-94630266D01*
X128934816Y-94710233D01*
X128986760Y-94744941D01*
X128992063Y-94747219D01*
X128992066Y-94747221D01*
X129176404Y-94826419D01*
X129181711Y-94828699D01*
X129207313Y-94834492D01*
X129383025Y-94874252D01*
X129383030Y-94874253D01*
X129388662Y-94875527D01*
X129394433Y-94875754D01*
X129394435Y-94875754D01*
X129459911Y-94878326D01*
X129600681Y-94883857D01*
X129714671Y-94867329D01*
X129804953Y-94854239D01*
X129804958Y-94854238D01*
X129810667Y-94853410D01*
X129816131Y-94851555D01*
X129816136Y-94851554D01*
X129949453Y-94806299D01*
X130011589Y-94785207D01*
X130016632Y-94782383D01*
X130191670Y-94684357D01*
X130191674Y-94684354D01*
X130196717Y-94681530D01*
X130359852Y-94545852D01*
X130495530Y-94382717D01*
X130498354Y-94377674D01*
X130498357Y-94377670D01*
X130596383Y-94202632D01*
X130596384Y-94202630D01*
X130599207Y-94197589D01*
X130661441Y-94014252D01*
X130665554Y-94002136D01*
X130665555Y-94002131D01*
X130667410Y-93996667D01*
X130668977Y-93985865D01*
X130689419Y-93844877D01*
X130697857Y-93786681D01*
X130699446Y-93726000D01*
X130682020Y-93536355D01*
X130680560Y-93520462D01*
X130680559Y-93520459D01*
X130680031Y-93514708D01*
X130635916Y-93358286D01*
X130624004Y-93316051D01*
X130624003Y-93316049D01*
X130622436Y-93310492D01*
X130597886Y-93260708D01*
X130567891Y-93199885D01*
X158938500Y-93199885D01*
X158942975Y-93215124D01*
X158944365Y-93216329D01*
X158952048Y-93218000D01*
X160074385Y-93218000D01*
X160089624Y-93213525D01*
X160090829Y-93212135D01*
X160092500Y-93204452D01*
X160092500Y-92082116D01*
X160088025Y-92066877D01*
X160086635Y-92065672D01*
X160078952Y-92064001D01*
X159401831Y-92064001D01*
X159395010Y-92064371D01*
X159344148Y-92069895D01*
X159328896Y-92073521D01*
X159208446Y-92118676D01*
X159192851Y-92127214D01*
X159090776Y-92203715D01*
X159078215Y-92216276D01*
X159001714Y-92318351D01*
X158993176Y-92333946D01*
X158948022Y-92454394D01*
X158944395Y-92469649D01*
X158938869Y-92520514D01*
X158938500Y-92527328D01*
X158938500Y-93199885D01*
X130567891Y-93199885D01*
X130531145Y-93125372D01*
X130528590Y-93120191D01*
X130475765Y-93049449D01*
X130405089Y-92954803D01*
X130405088Y-92954802D01*
X130401636Y-92950179D01*
X130397400Y-92946263D01*
X130250066Y-92810069D01*
X130250063Y-92810067D01*
X130245826Y-92806150D01*
X130066377Y-92692926D01*
X129869300Y-92614300D01*
X129863643Y-92613175D01*
X129863637Y-92613173D01*
X129666863Y-92574033D01*
X129666859Y-92574033D01*
X129661195Y-92572906D01*
X129655420Y-92572830D01*
X129655416Y-92572830D01*
X129548804Y-92571434D01*
X129449031Y-92570128D01*
X129443334Y-92571107D01*
X129443333Y-92571107D01*
X129245610Y-92605082D01*
X129239913Y-92606061D01*
X129040846Y-92679501D01*
X129035885Y-92682453D01*
X129035884Y-92682453D01*
X128863463Y-92785032D01*
X128863460Y-92785034D01*
X128858495Y-92787988D01*
X128854155Y-92791794D01*
X128854151Y-92791797D01*
X128818886Y-92822724D01*
X128698968Y-92927890D01*
X128695393Y-92932425D01*
X128695392Y-92932426D01*
X128632949Y-93011634D01*
X128575067Y-93052747D01*
X128504147Y-93056041D01*
X128442705Y-93020469D01*
X128410248Y-92957326D01*
X128407999Y-92933628D01*
X128407999Y-92781331D01*
X128407629Y-92774510D01*
X128402105Y-92723648D01*
X128398479Y-92708396D01*
X128353324Y-92587946D01*
X128344786Y-92572351D01*
X128299307Y-92511669D01*
X139634501Y-92511669D01*
X139634871Y-92518490D01*
X139640395Y-92569352D01*
X139644021Y-92584604D01*
X139689176Y-92705054D01*
X139697714Y-92720649D01*
X139774215Y-92822724D01*
X139786776Y-92835285D01*
X139888851Y-92911786D01*
X139904446Y-92920324D01*
X140024894Y-92965478D01*
X140040149Y-92969105D01*
X140091014Y-92974631D01*
X140097828Y-92975000D01*
X140770385Y-92975000D01*
X140785624Y-92970525D01*
X140786829Y-92969135D01*
X140788500Y-92961452D01*
X140788500Y-92956884D01*
X141296500Y-92956884D01*
X141300975Y-92972123D01*
X141302365Y-92973328D01*
X141310048Y-92974999D01*
X141987169Y-92974999D01*
X141993990Y-92974629D01*
X142044852Y-92969105D01*
X142060104Y-92965479D01*
X142180554Y-92920324D01*
X142196149Y-92911786D01*
X142298224Y-92835285D01*
X142310785Y-92822724D01*
X142387286Y-92720649D01*
X142395824Y-92705054D01*
X142440978Y-92584606D01*
X142444605Y-92569351D01*
X142450131Y-92518486D01*
X142450500Y-92511672D01*
X142450500Y-92362365D01*
X142470502Y-92294244D01*
X142524158Y-92247751D01*
X142594432Y-92237647D01*
X142659012Y-92267141D01*
X142679395Y-92289642D01*
X142700850Y-92320000D01*
X142763688Y-92381214D01*
X142842219Y-92457715D01*
X142852837Y-92468059D01*
X142857633Y-92471264D01*
X142857636Y-92471266D01*
X142947083Y-92531032D01*
X143029260Y-92585941D01*
X143034563Y-92588219D01*
X143034566Y-92588221D01*
X143116408Y-92623383D01*
X143224211Y-92669699D01*
X143280576Y-92682453D01*
X143425525Y-92715252D01*
X143425530Y-92715253D01*
X143431162Y-92716527D01*
X143436933Y-92716754D01*
X143436935Y-92716754D01*
X143502411Y-92719326D01*
X143643181Y-92724857D01*
X143767413Y-92706844D01*
X143847453Y-92695239D01*
X143847458Y-92695238D01*
X143853167Y-92694410D01*
X143858631Y-92692555D01*
X143858636Y-92692554D01*
X143951740Y-92660949D01*
X144054089Y-92626207D01*
X144059132Y-92623383D01*
X144234170Y-92525357D01*
X144234174Y-92525354D01*
X144239217Y-92522530D01*
X144252276Y-92511669D01*
X145476501Y-92511669D01*
X145476871Y-92518490D01*
X145482395Y-92569352D01*
X145486021Y-92584604D01*
X145531176Y-92705054D01*
X145539714Y-92720649D01*
X145616215Y-92822724D01*
X145628776Y-92835285D01*
X145730851Y-92911786D01*
X145746446Y-92920324D01*
X145866894Y-92965478D01*
X145882149Y-92969105D01*
X145933014Y-92974631D01*
X145939828Y-92975000D01*
X146612385Y-92975000D01*
X146627624Y-92970525D01*
X146628829Y-92969135D01*
X146630500Y-92961452D01*
X146630500Y-92956884D01*
X147138500Y-92956884D01*
X147142975Y-92972123D01*
X147144365Y-92973328D01*
X147152048Y-92974999D01*
X147829169Y-92974999D01*
X147835990Y-92974629D01*
X147886852Y-92969105D01*
X147902104Y-92965479D01*
X148022554Y-92920324D01*
X148038149Y-92911786D01*
X148140224Y-92835285D01*
X148152785Y-92822724D01*
X148229286Y-92720649D01*
X148237824Y-92705054D01*
X148282978Y-92584606D01*
X148286605Y-92569351D01*
X148292131Y-92518486D01*
X148292500Y-92511672D01*
X148292500Y-92362365D01*
X148312502Y-92294244D01*
X148366158Y-92247751D01*
X148436432Y-92237647D01*
X148501012Y-92267141D01*
X148521395Y-92289642D01*
X148542850Y-92320000D01*
X148605688Y-92381214D01*
X148684219Y-92457715D01*
X148694837Y-92468059D01*
X148699633Y-92471264D01*
X148699636Y-92471266D01*
X148789083Y-92531032D01*
X148871260Y-92585941D01*
X148876563Y-92588219D01*
X148876566Y-92588221D01*
X148958408Y-92623383D01*
X149066211Y-92669699D01*
X149122576Y-92682453D01*
X149267525Y-92715252D01*
X149267530Y-92715253D01*
X149273162Y-92716527D01*
X149278933Y-92716754D01*
X149278935Y-92716754D01*
X149344411Y-92719326D01*
X149485181Y-92724857D01*
X149609413Y-92706844D01*
X149689453Y-92695239D01*
X149689458Y-92695238D01*
X149695167Y-92694410D01*
X149700631Y-92692555D01*
X149700636Y-92692554D01*
X149793740Y-92660949D01*
X149896089Y-92626207D01*
X149901132Y-92623383D01*
X150076170Y-92525357D01*
X150076174Y-92525354D01*
X150081217Y-92522530D01*
X150244352Y-92386852D01*
X150380030Y-92223717D01*
X150382854Y-92218674D01*
X150382857Y-92218670D01*
X150480883Y-92043632D01*
X150480884Y-92043630D01*
X150483707Y-92038589D01*
X150551910Y-91837667D01*
X150553477Y-91826865D01*
X150581824Y-91631355D01*
X150582357Y-91627681D01*
X150583946Y-91567000D01*
X150564531Y-91355708D01*
X150506936Y-91151492D01*
X150413090Y-90961191D01*
X150286136Y-90791179D01*
X150281900Y-90787263D01*
X150134566Y-90651069D01*
X150134563Y-90651067D01*
X150130326Y-90647150D01*
X149950877Y-90533926D01*
X149753800Y-90455300D01*
X149748143Y-90454175D01*
X149748137Y-90454173D01*
X149551363Y-90415033D01*
X149551359Y-90415033D01*
X149545695Y-90413906D01*
X149539920Y-90413830D01*
X149539916Y-90413830D01*
X149433304Y-90412434D01*
X149333531Y-90411128D01*
X149327834Y-90412107D01*
X149327833Y-90412107D01*
X149310805Y-90415033D01*
X149124413Y-90447061D01*
X148925346Y-90520501D01*
X148920385Y-90523453D01*
X148920384Y-90523453D01*
X148747963Y-90626032D01*
X148747960Y-90626034D01*
X148742995Y-90628988D01*
X148738655Y-90632794D01*
X148738651Y-90632797D01*
X148587809Y-90765083D01*
X148583468Y-90768890D01*
X148579893Y-90773425D01*
X148579892Y-90773426D01*
X148517449Y-90852634D01*
X148459567Y-90893747D01*
X148388647Y-90897041D01*
X148327205Y-90861469D01*
X148294748Y-90798326D01*
X148292499Y-90774628D01*
X148292499Y-90622331D01*
X148292129Y-90615510D01*
X148286605Y-90564648D01*
X148282979Y-90549396D01*
X148237824Y-90428946D01*
X148229286Y-90413351D01*
X148152785Y-90311276D01*
X148140224Y-90298715D01*
X148038149Y-90222214D01*
X148022554Y-90213676D01*
X147902106Y-90168522D01*
X147886851Y-90164895D01*
X147835986Y-90159369D01*
X147829172Y-90159000D01*
X147156615Y-90159000D01*
X147141376Y-90163475D01*
X147140171Y-90164865D01*
X147138500Y-90172548D01*
X147138500Y-92956884D01*
X146630500Y-92956884D01*
X146630500Y-91839115D01*
X146626025Y-91823876D01*
X146624635Y-91822671D01*
X146616952Y-91821000D01*
X145494616Y-91821000D01*
X145479377Y-91825475D01*
X145478172Y-91826865D01*
X145476501Y-91834548D01*
X145476501Y-92511669D01*
X144252276Y-92511669D01*
X144402352Y-92386852D01*
X144538030Y-92223717D01*
X144540854Y-92218674D01*
X144540857Y-92218670D01*
X144638883Y-92043632D01*
X144638884Y-92043630D01*
X144641707Y-92038589D01*
X144709910Y-91837667D01*
X144711477Y-91826865D01*
X144739824Y-91631355D01*
X144740357Y-91627681D01*
X144741946Y-91567000D01*
X144722531Y-91355708D01*
X144705377Y-91294885D01*
X145476500Y-91294885D01*
X145480975Y-91310124D01*
X145482365Y-91311329D01*
X145490048Y-91313000D01*
X146612385Y-91313000D01*
X146627624Y-91308525D01*
X146628829Y-91307135D01*
X146630500Y-91299452D01*
X146630500Y-90177116D01*
X146626025Y-90161877D01*
X146624635Y-90160672D01*
X146616952Y-90159001D01*
X145939831Y-90159001D01*
X145933010Y-90159371D01*
X145882148Y-90164895D01*
X145866896Y-90168521D01*
X145746446Y-90213676D01*
X145730851Y-90222214D01*
X145628776Y-90298715D01*
X145616215Y-90311276D01*
X145539714Y-90413351D01*
X145531176Y-90428946D01*
X145486022Y-90549394D01*
X145482395Y-90564649D01*
X145476869Y-90615514D01*
X145476500Y-90622328D01*
X145476500Y-91294885D01*
X144705377Y-91294885D01*
X144664936Y-91151492D01*
X144571090Y-90961191D01*
X144444136Y-90791179D01*
X144439900Y-90787263D01*
X144292566Y-90651069D01*
X144292563Y-90651067D01*
X144288326Y-90647150D01*
X144108877Y-90533926D01*
X143911800Y-90455300D01*
X143906143Y-90454175D01*
X143906137Y-90454173D01*
X143709363Y-90415033D01*
X143709359Y-90415033D01*
X143703695Y-90413906D01*
X143697920Y-90413830D01*
X143697916Y-90413830D01*
X143591304Y-90412434D01*
X143491531Y-90411128D01*
X143485834Y-90412107D01*
X143485833Y-90412107D01*
X143468805Y-90415033D01*
X143282413Y-90447061D01*
X143083346Y-90520501D01*
X143078385Y-90523453D01*
X143078384Y-90523453D01*
X142905963Y-90626032D01*
X142905960Y-90626034D01*
X142900995Y-90628988D01*
X142896655Y-90632794D01*
X142896651Y-90632797D01*
X142745809Y-90765083D01*
X142741468Y-90768890D01*
X142737893Y-90773425D01*
X142737892Y-90773426D01*
X142675449Y-90852634D01*
X142617567Y-90893747D01*
X142546647Y-90897041D01*
X142485205Y-90861469D01*
X142452748Y-90798326D01*
X142450499Y-90774628D01*
X142450499Y-90622331D01*
X142450129Y-90615510D01*
X142444605Y-90564648D01*
X142440979Y-90549396D01*
X142395824Y-90428946D01*
X142387286Y-90413351D01*
X142310785Y-90311276D01*
X142298224Y-90298715D01*
X142196149Y-90222214D01*
X142180554Y-90213676D01*
X142060106Y-90168522D01*
X142044851Y-90164895D01*
X141993986Y-90159369D01*
X141987172Y-90159000D01*
X141314615Y-90159000D01*
X141299376Y-90163475D01*
X141298171Y-90164865D01*
X141296500Y-90172548D01*
X141296500Y-92956884D01*
X140788500Y-92956884D01*
X140788500Y-91839115D01*
X140784025Y-91823876D01*
X140782635Y-91822671D01*
X140774952Y-91821000D01*
X139652616Y-91821000D01*
X139637377Y-91825475D01*
X139636172Y-91826865D01*
X139634501Y-91834548D01*
X139634501Y-92511669D01*
X128299307Y-92511669D01*
X128268285Y-92470276D01*
X128255724Y-92457715D01*
X128153649Y-92381214D01*
X128138054Y-92372676D01*
X128017606Y-92327522D01*
X128002351Y-92323895D01*
X127951486Y-92318369D01*
X127944672Y-92318000D01*
X127272115Y-92318000D01*
X127256876Y-92322475D01*
X127255671Y-92323865D01*
X127254000Y-92331548D01*
X127254000Y-95115884D01*
X126746000Y-95115884D01*
X126746000Y-93998115D01*
X126741525Y-93982876D01*
X126740135Y-93981671D01*
X126732452Y-93980000D01*
X125610116Y-93980000D01*
X125594877Y-93984475D01*
X125593672Y-93985865D01*
X125592001Y-93993548D01*
X125592001Y-94670669D01*
X118979624Y-94670669D01*
X118979730Y-94670202D01*
X119223339Y-93685820D01*
X119224591Y-93681147D01*
X119290187Y-93453885D01*
X125592000Y-93453885D01*
X125596475Y-93469124D01*
X125597865Y-93470329D01*
X125605548Y-93472000D01*
X126727885Y-93472000D01*
X126743124Y-93467525D01*
X126744329Y-93466135D01*
X126746000Y-93458452D01*
X126746000Y-92336116D01*
X126741525Y-92320877D01*
X126740135Y-92319672D01*
X126732452Y-92318001D01*
X126055331Y-92318001D01*
X126048510Y-92318371D01*
X125997648Y-92323895D01*
X125982396Y-92327521D01*
X125861946Y-92372676D01*
X125846351Y-92381214D01*
X125744276Y-92457715D01*
X125731715Y-92470276D01*
X125655214Y-92572351D01*
X125646676Y-92587946D01*
X125601522Y-92708394D01*
X125597895Y-92723649D01*
X125592369Y-92774514D01*
X125592000Y-92781328D01*
X125592000Y-93453885D01*
X119290187Y-93453885D01*
X119500849Y-92724028D01*
X119505810Y-92706842D01*
X119507239Y-92702223D01*
X119544942Y-92588221D01*
X119825663Y-91739397D01*
X119827265Y-91734849D01*
X119868721Y-91623972D01*
X119985613Y-91311329D01*
X119991761Y-91294885D01*
X139634500Y-91294885D01*
X139638975Y-91310124D01*
X139640365Y-91311329D01*
X139648048Y-91313000D01*
X140770385Y-91313000D01*
X140785624Y-91308525D01*
X140786829Y-91307135D01*
X140788500Y-91299452D01*
X140788500Y-90177116D01*
X140784025Y-90161877D01*
X140782635Y-90160672D01*
X140774952Y-90159001D01*
X140097831Y-90159001D01*
X140091010Y-90159371D01*
X140040148Y-90164895D01*
X140024896Y-90168521D01*
X139904446Y-90213676D01*
X139888851Y-90222214D01*
X139786776Y-90298715D01*
X139774215Y-90311276D01*
X139697714Y-90413351D01*
X139689176Y-90428946D01*
X139644022Y-90549394D01*
X139640395Y-90564649D01*
X139634869Y-90615514D01*
X139634500Y-90622328D01*
X139634500Y-91294885D01*
X119991761Y-91294885D01*
X120182405Y-90784986D01*
X120184186Y-90780488D01*
X120575526Y-89844961D01*
X120577478Y-89840535D01*
X120811364Y-89336669D01*
X155128501Y-89336669D01*
X155128871Y-89343490D01*
X155134395Y-89394352D01*
X155138021Y-89409604D01*
X155183176Y-89530054D01*
X155191714Y-89545649D01*
X155268215Y-89647724D01*
X155280776Y-89660285D01*
X155382851Y-89736786D01*
X155398446Y-89745324D01*
X155518894Y-89790478D01*
X155534149Y-89794105D01*
X155585014Y-89799631D01*
X155591828Y-89800000D01*
X156264385Y-89800000D01*
X156279624Y-89795525D01*
X156280829Y-89794135D01*
X156282500Y-89786452D01*
X156282500Y-89781884D01*
X156790500Y-89781884D01*
X156794975Y-89797123D01*
X156796365Y-89798328D01*
X156804048Y-89799999D01*
X157481169Y-89799999D01*
X157487990Y-89799629D01*
X157538852Y-89794105D01*
X157554104Y-89790479D01*
X157674554Y-89745324D01*
X157690149Y-89736786D01*
X157792224Y-89660285D01*
X157804785Y-89647724D01*
X157881286Y-89545649D01*
X157889824Y-89530054D01*
X157934978Y-89409606D01*
X157938605Y-89394351D01*
X157944131Y-89343486D01*
X157944500Y-89336672D01*
X157944500Y-89187365D01*
X157964502Y-89119244D01*
X158018158Y-89072751D01*
X158088432Y-89062647D01*
X158153012Y-89092141D01*
X158173395Y-89114642D01*
X158194850Y-89145000D01*
X158198984Y-89149027D01*
X158339699Y-89286105D01*
X158346837Y-89293059D01*
X158351633Y-89296264D01*
X158351636Y-89296266D01*
X158493686Y-89391180D01*
X158523260Y-89410941D01*
X158528563Y-89413219D01*
X158528566Y-89413221D01*
X158610408Y-89448383D01*
X158718211Y-89494699D01*
X158794250Y-89511905D01*
X158919525Y-89540252D01*
X158919530Y-89540253D01*
X158925162Y-89541527D01*
X158930933Y-89541754D01*
X158930935Y-89541754D01*
X158996411Y-89544326D01*
X159137181Y-89549857D01*
X159242174Y-89534633D01*
X159341453Y-89520239D01*
X159341458Y-89520238D01*
X159347167Y-89519410D01*
X159352631Y-89517555D01*
X159352636Y-89517554D01*
X159445740Y-89485949D01*
X159548089Y-89451207D01*
X159622373Y-89409606D01*
X159728170Y-89350357D01*
X159728174Y-89350354D01*
X159733217Y-89347530D01*
X159896352Y-89211852D01*
X160032030Y-89048717D01*
X160034854Y-89043674D01*
X160034857Y-89043670D01*
X160132883Y-88868632D01*
X160132884Y-88868630D01*
X160135707Y-88863589D01*
X160189930Y-88703852D01*
X160202054Y-88668136D01*
X160202055Y-88668131D01*
X160203910Y-88662667D01*
X160205477Y-88651865D01*
X160225689Y-88512462D01*
X160234357Y-88452681D01*
X160235946Y-88392000D01*
X160216531Y-88180708D01*
X160206141Y-88143865D01*
X160160504Y-87982051D01*
X160160503Y-87982049D01*
X160158936Y-87976492D01*
X160148819Y-87955975D01*
X160067645Y-87791372D01*
X160065090Y-87786191D01*
X159994374Y-87691490D01*
X159941589Y-87620803D01*
X159941588Y-87620802D01*
X159938136Y-87616179D01*
X159933491Y-87611885D01*
X159786566Y-87476069D01*
X159786563Y-87476067D01*
X159782326Y-87472150D01*
X159602877Y-87358926D01*
X159405800Y-87280300D01*
X159400143Y-87279175D01*
X159400137Y-87279173D01*
X159203363Y-87240033D01*
X159203359Y-87240033D01*
X159197695Y-87238906D01*
X159191920Y-87238830D01*
X159191916Y-87238830D01*
X159085304Y-87237434D01*
X158985531Y-87236128D01*
X158979834Y-87237107D01*
X158979833Y-87237107D01*
X158902519Y-87250392D01*
X158776413Y-87272061D01*
X158577346Y-87345501D01*
X158572385Y-87348453D01*
X158572384Y-87348453D01*
X158399963Y-87451032D01*
X158399960Y-87451034D01*
X158394995Y-87453988D01*
X158390655Y-87457794D01*
X158390651Y-87457797D01*
X158239809Y-87590083D01*
X158235468Y-87593890D01*
X158231893Y-87598425D01*
X158231892Y-87598426D01*
X158169449Y-87677634D01*
X158111567Y-87718747D01*
X158040647Y-87722041D01*
X157979205Y-87686469D01*
X157946748Y-87623326D01*
X157944499Y-87599628D01*
X157944499Y-87447331D01*
X157944129Y-87440510D01*
X157938605Y-87389648D01*
X157934979Y-87374396D01*
X157889824Y-87253946D01*
X157881286Y-87238351D01*
X157804785Y-87136276D01*
X157792224Y-87123715D01*
X157690149Y-87047214D01*
X157674554Y-87038676D01*
X157554106Y-86993522D01*
X157538851Y-86989895D01*
X157487986Y-86984369D01*
X157481172Y-86984000D01*
X156808615Y-86984000D01*
X156793376Y-86988475D01*
X156792171Y-86989865D01*
X156790500Y-86997548D01*
X156790500Y-89781884D01*
X156282500Y-89781884D01*
X156282500Y-88664115D01*
X156278025Y-88648876D01*
X156276635Y-88647671D01*
X156268952Y-88646000D01*
X155146616Y-88646000D01*
X155131377Y-88650475D01*
X155130172Y-88651865D01*
X155128501Y-88659548D01*
X155128501Y-89336669D01*
X120811364Y-89336669D01*
X121004442Y-88920718D01*
X121006563Y-88916369D01*
X121051441Y-88828669D01*
X129220501Y-88828669D01*
X129220871Y-88835490D01*
X129226395Y-88886352D01*
X129230021Y-88901604D01*
X129275176Y-89022054D01*
X129283714Y-89037649D01*
X129360215Y-89139724D01*
X129372776Y-89152285D01*
X129474851Y-89228786D01*
X129490446Y-89237324D01*
X129610894Y-89282478D01*
X129626149Y-89286105D01*
X129677014Y-89291631D01*
X129683828Y-89292000D01*
X130356385Y-89292000D01*
X130371624Y-89287525D01*
X130372829Y-89286135D01*
X130374500Y-89278452D01*
X130374500Y-89273884D01*
X130882500Y-89273884D01*
X130886975Y-89289123D01*
X130888365Y-89290328D01*
X130896048Y-89291999D01*
X131573169Y-89291999D01*
X131579990Y-89291629D01*
X131630852Y-89286105D01*
X131646104Y-89282479D01*
X131766554Y-89237324D01*
X131782149Y-89228786D01*
X131884224Y-89152285D01*
X131896785Y-89139724D01*
X131973286Y-89037649D01*
X131981824Y-89022054D01*
X132026978Y-88901606D01*
X132030605Y-88886351D01*
X132036131Y-88835486D01*
X132036500Y-88828672D01*
X132036500Y-88679365D01*
X132056502Y-88611244D01*
X132110158Y-88564751D01*
X132180432Y-88554647D01*
X132245012Y-88584141D01*
X132265395Y-88606642D01*
X132286850Y-88637000D01*
X132307332Y-88656953D01*
X132405194Y-88752285D01*
X132438837Y-88785059D01*
X132443633Y-88788264D01*
X132443636Y-88788266D01*
X132563913Y-88868632D01*
X132615260Y-88902941D01*
X132620563Y-88905219D01*
X132620566Y-88905221D01*
X132804904Y-88984419D01*
X132810211Y-88986699D01*
X132886250Y-89003905D01*
X133011525Y-89032252D01*
X133011530Y-89032253D01*
X133017162Y-89033527D01*
X133022933Y-89033754D01*
X133022935Y-89033754D01*
X133088411Y-89036326D01*
X133229181Y-89041857D01*
X133334174Y-89026634D01*
X133433453Y-89012239D01*
X133433458Y-89012238D01*
X133439167Y-89011410D01*
X133444631Y-89009555D01*
X133444636Y-89009554D01*
X133537740Y-88977949D01*
X133640089Y-88943207D01*
X133714373Y-88901606D01*
X133820170Y-88842357D01*
X133820174Y-88842354D01*
X133825217Y-88839530D01*
X133988352Y-88703852D01*
X134124030Y-88540717D01*
X134126854Y-88535674D01*
X134126857Y-88535670D01*
X134224883Y-88360632D01*
X134224884Y-88360630D01*
X134227707Y-88355589D01*
X134262449Y-88253240D01*
X134294054Y-88160136D01*
X134294055Y-88160131D01*
X134295910Y-88154667D01*
X134297364Y-88144643D01*
X134300954Y-88119885D01*
X155128500Y-88119885D01*
X155132975Y-88135124D01*
X155134365Y-88136329D01*
X155142048Y-88138000D01*
X156264385Y-88138000D01*
X156279624Y-88133525D01*
X156280829Y-88132135D01*
X156282500Y-88124452D01*
X156282500Y-87002116D01*
X156278025Y-86986877D01*
X156276635Y-86985672D01*
X156268952Y-86984001D01*
X155591831Y-86984001D01*
X155585010Y-86984371D01*
X155534148Y-86989895D01*
X155518896Y-86993521D01*
X155398446Y-87038676D01*
X155382851Y-87047214D01*
X155280776Y-87123715D01*
X155268215Y-87136276D01*
X155191714Y-87238351D01*
X155183176Y-87253946D01*
X155138022Y-87374394D01*
X155134395Y-87389649D01*
X155128869Y-87440514D01*
X155128500Y-87447328D01*
X155128500Y-88119885D01*
X134300954Y-88119885D01*
X134316981Y-88009348D01*
X134326357Y-87944681D01*
X134327946Y-87884000D01*
X134313064Y-87722041D01*
X134309060Y-87678462D01*
X134309059Y-87678459D01*
X134308531Y-87672708D01*
X134303939Y-87656423D01*
X134252504Y-87474051D01*
X134252503Y-87474049D01*
X134250936Y-87468492D01*
X134243784Y-87453988D01*
X134159645Y-87283372D01*
X134157090Y-87278191D01*
X134152546Y-87272105D01*
X134033589Y-87112803D01*
X134033588Y-87112802D01*
X134030136Y-87108179D01*
X134025900Y-87104263D01*
X133878566Y-86968069D01*
X133878563Y-86968067D01*
X133874326Y-86964150D01*
X133694877Y-86850926D01*
X133497800Y-86772300D01*
X133492143Y-86771175D01*
X133492137Y-86771173D01*
X133295363Y-86732033D01*
X133295359Y-86732033D01*
X133289695Y-86730906D01*
X133283920Y-86730830D01*
X133283916Y-86730830D01*
X133177304Y-86729434D01*
X133077531Y-86728128D01*
X133071834Y-86729107D01*
X133071833Y-86729107D01*
X133054805Y-86732033D01*
X132868413Y-86764061D01*
X132669346Y-86837501D01*
X132664385Y-86840453D01*
X132664384Y-86840453D01*
X132491963Y-86943032D01*
X132491960Y-86943034D01*
X132486995Y-86945988D01*
X132482655Y-86949794D01*
X132482651Y-86949797D01*
X132335038Y-87079251D01*
X132327468Y-87085890D01*
X132323893Y-87090425D01*
X132323892Y-87090426D01*
X132261449Y-87169634D01*
X132203567Y-87210747D01*
X132132647Y-87214041D01*
X132071205Y-87178469D01*
X132038748Y-87115326D01*
X132036499Y-87091628D01*
X132036499Y-86939331D01*
X132036129Y-86932510D01*
X132030605Y-86881648D01*
X132026979Y-86866396D01*
X131981824Y-86745946D01*
X131973286Y-86730351D01*
X131896785Y-86628276D01*
X131884224Y-86615715D01*
X131782149Y-86539214D01*
X131766554Y-86530676D01*
X131646106Y-86485522D01*
X131630851Y-86481895D01*
X131579986Y-86476369D01*
X131573172Y-86476000D01*
X130900615Y-86476000D01*
X130885376Y-86480475D01*
X130884171Y-86481865D01*
X130882500Y-86489548D01*
X130882500Y-89273884D01*
X130374500Y-89273884D01*
X130374500Y-88156115D01*
X130370025Y-88140876D01*
X130368635Y-88139671D01*
X130360952Y-88138000D01*
X129238616Y-88138000D01*
X129223377Y-88142475D01*
X129222172Y-88143865D01*
X129220501Y-88151548D01*
X129220501Y-88828669D01*
X121051441Y-88828669D01*
X121279512Y-88382980D01*
X121468534Y-88013599D01*
X121470813Y-88009348D01*
X121486132Y-87982051D01*
X121770076Y-87476069D01*
X121967083Y-87125008D01*
X121969531Y-87120835D01*
X122020050Y-87038395D01*
X123815723Y-87038395D01*
X123833028Y-87244467D01*
X123890029Y-87443255D01*
X123892847Y-87448737D01*
X123892848Y-87448741D01*
X123981736Y-87621698D01*
X123981739Y-87621702D01*
X123984556Y-87627184D01*
X124113008Y-87789250D01*
X124117701Y-87793244D01*
X124117702Y-87793245D01*
X124213734Y-87874974D01*
X124270493Y-87923280D01*
X124451011Y-88024169D01*
X124647688Y-88088073D01*
X124853031Y-88112559D01*
X124859166Y-88112087D01*
X124859168Y-88112087D01*
X125053078Y-88097166D01*
X125053082Y-88097165D01*
X125059220Y-88096693D01*
X125258400Y-88041081D01*
X125263904Y-88038301D01*
X125263906Y-88038300D01*
X125437484Y-87950620D01*
X125437486Y-87950619D01*
X125442985Y-87947841D01*
X125605944Y-87820523D01*
X125609970Y-87815859D01*
X125609973Y-87815856D01*
X125737041Y-87668646D01*
X125737042Y-87668644D01*
X125741070Y-87663978D01*
X125770663Y-87611885D01*
X129220500Y-87611885D01*
X129224975Y-87627124D01*
X129226365Y-87628329D01*
X129234048Y-87630000D01*
X130356385Y-87630000D01*
X130371624Y-87625525D01*
X130372829Y-87624135D01*
X130374500Y-87616452D01*
X130374500Y-86494116D01*
X130370025Y-86478877D01*
X130368635Y-86477672D01*
X130360952Y-86476001D01*
X129683831Y-86476001D01*
X129677010Y-86476371D01*
X129626148Y-86481895D01*
X129610896Y-86485521D01*
X129490446Y-86530676D01*
X129474851Y-86539214D01*
X129372776Y-86615715D01*
X129360215Y-86628276D01*
X129283714Y-86730351D01*
X129275176Y-86745946D01*
X129230022Y-86866394D01*
X129226395Y-86881649D01*
X129220869Y-86932514D01*
X129220500Y-86939328D01*
X129220500Y-87611885D01*
X125770663Y-87611885D01*
X125816527Y-87531151D01*
X125840172Y-87489529D01*
X125840174Y-87489525D01*
X125843217Y-87484168D01*
X125896168Y-87324990D01*
X125906547Y-87293790D01*
X125906548Y-87293787D01*
X125908492Y-87287942D01*
X125934411Y-87082775D01*
X125934824Y-87053189D01*
X125914644Y-86847378D01*
X125854873Y-86649406D01*
X125781354Y-86511137D01*
X125760681Y-86472256D01*
X125760679Y-86472253D01*
X125757787Y-86466814D01*
X125753896Y-86462044D01*
X125753894Y-86462040D01*
X125630980Y-86311332D01*
X125630977Y-86311329D01*
X125627085Y-86306557D01*
X125620188Y-86300851D01*
X125472493Y-86178667D01*
X125472488Y-86178664D01*
X125467744Y-86174739D01*
X125462325Y-86171809D01*
X125462322Y-86171807D01*
X125291254Y-86079311D01*
X125291249Y-86079309D01*
X125285834Y-86076381D01*
X125088285Y-86015229D01*
X125082160Y-86014585D01*
X125082159Y-86014585D01*
X124888748Y-85994257D01*
X124888746Y-85994257D01*
X124882619Y-85993613D01*
X124756451Y-86005095D01*
X124682813Y-86011796D01*
X124682812Y-86011796D01*
X124676672Y-86012355D01*
X124478288Y-86070743D01*
X124472823Y-86073600D01*
X124300483Y-86163697D01*
X124300479Y-86163700D01*
X124295023Y-86166552D01*
X124133857Y-86296132D01*
X124000930Y-86454549D01*
X123901304Y-86635767D01*
X123838775Y-86832885D01*
X123838089Y-86839002D01*
X123838088Y-86839006D01*
X123820756Y-86993522D01*
X123815723Y-87038395D01*
X122020050Y-87038395D01*
X122499402Y-86256163D01*
X122502009Y-86252088D01*
X123044085Y-85439279D01*
X123064657Y-85408433D01*
X123067414Y-85404466D01*
X123662049Y-84583011D01*
X123664960Y-84579148D01*
X124116977Y-84002669D01*
X134808501Y-84002669D01*
X134808871Y-84009490D01*
X134814395Y-84060352D01*
X134818021Y-84075604D01*
X134863176Y-84196054D01*
X134871714Y-84211649D01*
X134948215Y-84313724D01*
X134960776Y-84326285D01*
X135062851Y-84402786D01*
X135078446Y-84411324D01*
X135198894Y-84456478D01*
X135214149Y-84460105D01*
X135265014Y-84465631D01*
X135271828Y-84466000D01*
X135944385Y-84466000D01*
X135959624Y-84461525D01*
X135960829Y-84460135D01*
X135962500Y-84452452D01*
X135962500Y-84447884D01*
X136470500Y-84447884D01*
X136474975Y-84463123D01*
X136476365Y-84464328D01*
X136484048Y-84465999D01*
X137161169Y-84465999D01*
X137167990Y-84465629D01*
X137218852Y-84460105D01*
X137234104Y-84456479D01*
X137354554Y-84411324D01*
X137370149Y-84402786D01*
X137472224Y-84326285D01*
X137484785Y-84313724D01*
X137527545Y-84256669D01*
X149540501Y-84256669D01*
X149540871Y-84263490D01*
X149546395Y-84314352D01*
X149550021Y-84329604D01*
X149595176Y-84450054D01*
X149603714Y-84465649D01*
X149680215Y-84567724D01*
X149692776Y-84580285D01*
X149794851Y-84656786D01*
X149810446Y-84665324D01*
X149930894Y-84710478D01*
X149946149Y-84714105D01*
X149997014Y-84719631D01*
X150003828Y-84720000D01*
X150676385Y-84720000D01*
X150691624Y-84715525D01*
X150692829Y-84714135D01*
X150694500Y-84706452D01*
X150694500Y-84701884D01*
X151202500Y-84701884D01*
X151206975Y-84717123D01*
X151208365Y-84718328D01*
X151216048Y-84719999D01*
X151893169Y-84719999D01*
X151899990Y-84719629D01*
X151950852Y-84714105D01*
X151966104Y-84710479D01*
X152086554Y-84665324D01*
X152102149Y-84656786D01*
X152204224Y-84580285D01*
X152216785Y-84567724D01*
X152293286Y-84465649D01*
X152301824Y-84450054D01*
X152346978Y-84329606D01*
X152350605Y-84314351D01*
X152356131Y-84263486D01*
X152356500Y-84256672D01*
X152356500Y-84107365D01*
X152376502Y-84039244D01*
X152430158Y-83992751D01*
X152500432Y-83982647D01*
X152565012Y-84012141D01*
X152585395Y-84034642D01*
X152606850Y-84065000D01*
X152758837Y-84213059D01*
X152763633Y-84216264D01*
X152763636Y-84216266D01*
X152905686Y-84311180D01*
X152935260Y-84330941D01*
X152940563Y-84333219D01*
X152940566Y-84333221D01*
X153124904Y-84412419D01*
X153130211Y-84414699D01*
X153204854Y-84431589D01*
X153331525Y-84460252D01*
X153331530Y-84460253D01*
X153337162Y-84461527D01*
X153342933Y-84461754D01*
X153342935Y-84461754D01*
X153408411Y-84464326D01*
X153549181Y-84469857D01*
X153654174Y-84454633D01*
X153753453Y-84440239D01*
X153753458Y-84440238D01*
X153759167Y-84439410D01*
X153764631Y-84437555D01*
X153764636Y-84437554D01*
X153867059Y-84402786D01*
X153960089Y-84371207D01*
X154034373Y-84329606D01*
X154140170Y-84270357D01*
X154140174Y-84270354D01*
X154145217Y-84267530D01*
X154308352Y-84131852D01*
X154444030Y-83968717D01*
X154446854Y-83963674D01*
X154446857Y-83963670D01*
X154544883Y-83788632D01*
X154544884Y-83788630D01*
X154547707Y-83783589D01*
X154615910Y-83582667D01*
X154617477Y-83571865D01*
X154645824Y-83376355D01*
X154646357Y-83372681D01*
X154647946Y-83312000D01*
X154630520Y-83122355D01*
X154629060Y-83106462D01*
X154629059Y-83106459D01*
X154628531Y-83100708D01*
X154616003Y-83056285D01*
X154572504Y-82902051D01*
X154572503Y-82902049D01*
X154570936Y-82896492D01*
X154568080Y-82890699D01*
X154479645Y-82711372D01*
X154477090Y-82706191D01*
X154385372Y-82583365D01*
X154353589Y-82540803D01*
X154353588Y-82540802D01*
X154350136Y-82536179D01*
X154336475Y-82523551D01*
X154198566Y-82396069D01*
X154198563Y-82396067D01*
X154194326Y-82392150D01*
X154014877Y-82278926D01*
X153817800Y-82200300D01*
X153812143Y-82199175D01*
X153812137Y-82199173D01*
X153615363Y-82160033D01*
X153615359Y-82160033D01*
X153609695Y-82158906D01*
X153603920Y-82158830D01*
X153603916Y-82158830D01*
X153497304Y-82157434D01*
X153397531Y-82156128D01*
X153391834Y-82157107D01*
X153391833Y-82157107D01*
X153194110Y-82191082D01*
X153188413Y-82192061D01*
X152989346Y-82265501D01*
X152984385Y-82268453D01*
X152984384Y-82268453D01*
X152811963Y-82371032D01*
X152811960Y-82371034D01*
X152806995Y-82373988D01*
X152802655Y-82377794D01*
X152802651Y-82377797D01*
X152657628Y-82504980D01*
X152647468Y-82513890D01*
X152643893Y-82518425D01*
X152643892Y-82518426D01*
X152581449Y-82597634D01*
X152523567Y-82638747D01*
X152452647Y-82642041D01*
X152391205Y-82606469D01*
X152358748Y-82543326D01*
X152356499Y-82519628D01*
X152356499Y-82367331D01*
X152356129Y-82360510D01*
X152350605Y-82309648D01*
X152346979Y-82294396D01*
X152301824Y-82173946D01*
X152293286Y-82158351D01*
X152216785Y-82056276D01*
X152204224Y-82043715D01*
X152102149Y-81967214D01*
X152086554Y-81958676D01*
X151966106Y-81913522D01*
X151950851Y-81909895D01*
X151899986Y-81904369D01*
X151893172Y-81904000D01*
X151220615Y-81904000D01*
X151205376Y-81908475D01*
X151204171Y-81909865D01*
X151202500Y-81917548D01*
X151202500Y-84701884D01*
X150694500Y-84701884D01*
X150694500Y-83584115D01*
X150690025Y-83568876D01*
X150688635Y-83567671D01*
X150680952Y-83566000D01*
X149558616Y-83566000D01*
X149543377Y-83570475D01*
X149542172Y-83571865D01*
X149540501Y-83579548D01*
X149540501Y-84256669D01*
X137527545Y-84256669D01*
X137561286Y-84211649D01*
X137569824Y-84196054D01*
X137614978Y-84075606D01*
X137618605Y-84060351D01*
X137624131Y-84009486D01*
X137624500Y-84002672D01*
X137624500Y-83853365D01*
X137644502Y-83785244D01*
X137698158Y-83738751D01*
X137768432Y-83728647D01*
X137833012Y-83758141D01*
X137853395Y-83780642D01*
X137874850Y-83811000D01*
X138026837Y-83959059D01*
X138031633Y-83962264D01*
X138031636Y-83962266D01*
X138123199Y-84023446D01*
X138203260Y-84076941D01*
X138208563Y-84079219D01*
X138208566Y-84079221D01*
X138314205Y-84124607D01*
X138398211Y-84160699D01*
X138474250Y-84177905D01*
X138599525Y-84206252D01*
X138599530Y-84206253D01*
X138605162Y-84207527D01*
X138610933Y-84207754D01*
X138610935Y-84207754D01*
X138676411Y-84210326D01*
X138817181Y-84215857D01*
X138922174Y-84200633D01*
X139021453Y-84186239D01*
X139021458Y-84186238D01*
X139027167Y-84185410D01*
X139032631Y-84183555D01*
X139032636Y-84183554D01*
X139174072Y-84135543D01*
X139228089Y-84117207D01*
X139233132Y-84114383D01*
X139408170Y-84016357D01*
X139408174Y-84016354D01*
X139413217Y-84013530D01*
X139576352Y-83877852D01*
X139712030Y-83714717D01*
X139714854Y-83709674D01*
X139714857Y-83709670D01*
X139812883Y-83534632D01*
X139812884Y-83534630D01*
X139815707Y-83529589D01*
X139853646Y-83417824D01*
X139882054Y-83334136D01*
X139882055Y-83334131D01*
X139883910Y-83328667D01*
X139885477Y-83317865D01*
X139903795Y-83191525D01*
X139914357Y-83118681D01*
X139915946Y-83058000D01*
X139896531Y-82846708D01*
X139884939Y-82805604D01*
X139864369Y-82732669D01*
X142428501Y-82732669D01*
X142428871Y-82739490D01*
X142434395Y-82790352D01*
X142438021Y-82805604D01*
X142483176Y-82926054D01*
X142491714Y-82941649D01*
X142568215Y-83043724D01*
X142580776Y-83056285D01*
X142682851Y-83132786D01*
X142698446Y-83141324D01*
X142818894Y-83186478D01*
X142834149Y-83190105D01*
X142885014Y-83195631D01*
X142891828Y-83196000D01*
X143564385Y-83196000D01*
X143579624Y-83191525D01*
X143580829Y-83190135D01*
X143582500Y-83182452D01*
X143582500Y-83177884D01*
X144090500Y-83177884D01*
X144094975Y-83193123D01*
X144096365Y-83194328D01*
X144104048Y-83195999D01*
X144781169Y-83195999D01*
X144787990Y-83195629D01*
X144838852Y-83190105D01*
X144854104Y-83186479D01*
X144974554Y-83141324D01*
X144990149Y-83132786D01*
X145092224Y-83056285D01*
X145104785Y-83043724D01*
X145107662Y-83039885D01*
X149540500Y-83039885D01*
X149544975Y-83055124D01*
X149546365Y-83056329D01*
X149554048Y-83058000D01*
X150676385Y-83058000D01*
X150691624Y-83053525D01*
X150692829Y-83052135D01*
X150694500Y-83044452D01*
X150694500Y-81922116D01*
X150690025Y-81906877D01*
X150688635Y-81905672D01*
X150680952Y-81904001D01*
X150003831Y-81904001D01*
X149997010Y-81904371D01*
X149946148Y-81909895D01*
X149930896Y-81913521D01*
X149810446Y-81958676D01*
X149794851Y-81967214D01*
X149692776Y-82043715D01*
X149680215Y-82056276D01*
X149603714Y-82158351D01*
X149595176Y-82173946D01*
X149550022Y-82294394D01*
X149546395Y-82309649D01*
X149540869Y-82360514D01*
X149540500Y-82367328D01*
X149540500Y-83039885D01*
X145107662Y-83039885D01*
X145181286Y-82941649D01*
X145189824Y-82926054D01*
X145234978Y-82805606D01*
X145238605Y-82790351D01*
X145244131Y-82739486D01*
X145244500Y-82732672D01*
X145244500Y-82583365D01*
X145264502Y-82515244D01*
X145318158Y-82468751D01*
X145388432Y-82458647D01*
X145453012Y-82488141D01*
X145473395Y-82510642D01*
X145494850Y-82541000D01*
X145646837Y-82689059D01*
X145651633Y-82692264D01*
X145651636Y-82692266D01*
X145791747Y-82785885D01*
X145823260Y-82806941D01*
X145828563Y-82809219D01*
X145828566Y-82809221D01*
X145966074Y-82868299D01*
X146018211Y-82890699D01*
X146043813Y-82896492D01*
X146219525Y-82936252D01*
X146219530Y-82936253D01*
X146225162Y-82937527D01*
X146230933Y-82937754D01*
X146230935Y-82937754D01*
X146296411Y-82940326D01*
X146437181Y-82945857D01*
X146542174Y-82930634D01*
X146641453Y-82916239D01*
X146641458Y-82916238D01*
X146647167Y-82915410D01*
X146652631Y-82913555D01*
X146652636Y-82913554D01*
X146794446Y-82865416D01*
X146848089Y-82847207D01*
X146858910Y-82841147D01*
X147028170Y-82746357D01*
X147028174Y-82746354D01*
X147033217Y-82743530D01*
X147196352Y-82607852D01*
X147332030Y-82444717D01*
X147334854Y-82439674D01*
X147334857Y-82439670D01*
X147432883Y-82264632D01*
X147432884Y-82264630D01*
X147435707Y-82259589D01*
X147476496Y-82139428D01*
X147502054Y-82064136D01*
X147502055Y-82064131D01*
X147503910Y-82058667D01*
X147505477Y-82047865D01*
X147526041Y-81906033D01*
X147534357Y-81848681D01*
X147535946Y-81788000D01*
X147523300Y-81650371D01*
X147517060Y-81582462D01*
X147517059Y-81582459D01*
X147516531Y-81576708D01*
X147513819Y-81567090D01*
X147460504Y-81378051D01*
X147460503Y-81378049D01*
X147458936Y-81372492D01*
X147448725Y-81351785D01*
X147367645Y-81187372D01*
X147365090Y-81182191D01*
X147322216Y-81124775D01*
X147241589Y-81016803D01*
X147241588Y-81016802D01*
X147238136Y-81012179D01*
X147233900Y-81008263D01*
X147086566Y-80872069D01*
X147086563Y-80872067D01*
X147082326Y-80868150D01*
X146902877Y-80754926D01*
X146705800Y-80676300D01*
X146700143Y-80675175D01*
X146700137Y-80675173D01*
X146503363Y-80636033D01*
X146503359Y-80636033D01*
X146497695Y-80634906D01*
X146491920Y-80634830D01*
X146491916Y-80634830D01*
X146385304Y-80633434D01*
X146285531Y-80632128D01*
X146279834Y-80633107D01*
X146279833Y-80633107D01*
X146082110Y-80667082D01*
X146076413Y-80668061D01*
X145877346Y-80741501D01*
X145872385Y-80744453D01*
X145872384Y-80744453D01*
X145699963Y-80847032D01*
X145699960Y-80847034D01*
X145694995Y-80849988D01*
X145690655Y-80853794D01*
X145690651Y-80853797D01*
X145589105Y-80942851D01*
X145535468Y-80989890D01*
X145531893Y-80994425D01*
X145531892Y-80994426D01*
X145469449Y-81073634D01*
X145411567Y-81114747D01*
X145340647Y-81118041D01*
X145279205Y-81082469D01*
X145246748Y-81019326D01*
X145244499Y-80995628D01*
X145244499Y-80843331D01*
X145244129Y-80836510D01*
X145238605Y-80785648D01*
X145234979Y-80770396D01*
X145189824Y-80649946D01*
X145181286Y-80634351D01*
X145104785Y-80532276D01*
X145092224Y-80519715D01*
X144990149Y-80443214D01*
X144974554Y-80434676D01*
X144854106Y-80389522D01*
X144838851Y-80385895D01*
X144787986Y-80380369D01*
X144781172Y-80380000D01*
X144108615Y-80380000D01*
X144093376Y-80384475D01*
X144092171Y-80385865D01*
X144090500Y-80393548D01*
X144090500Y-83177884D01*
X143582500Y-83177884D01*
X143582500Y-82060115D01*
X143578025Y-82044876D01*
X143576635Y-82043671D01*
X143568952Y-82042000D01*
X142446616Y-82042000D01*
X142431377Y-82046475D01*
X142430172Y-82047865D01*
X142428501Y-82055548D01*
X142428501Y-82732669D01*
X139864369Y-82732669D01*
X139840504Y-82648051D01*
X139840503Y-82648049D01*
X139838936Y-82642492D01*
X139821854Y-82607852D01*
X139747645Y-82457372D01*
X139745090Y-82452191D01*
X139724680Y-82424858D01*
X139621589Y-82286803D01*
X139621588Y-82286802D01*
X139618136Y-82282179D01*
X139605027Y-82270061D01*
X139466566Y-82142069D01*
X139466563Y-82142067D01*
X139462326Y-82138150D01*
X139282877Y-82024926D01*
X139085800Y-81946300D01*
X139080143Y-81945175D01*
X139080137Y-81945173D01*
X138883363Y-81906033D01*
X138883359Y-81906033D01*
X138877695Y-81904906D01*
X138871920Y-81904830D01*
X138871916Y-81904830D01*
X138765304Y-81903434D01*
X138665531Y-81902128D01*
X138659834Y-81903107D01*
X138659833Y-81903107D01*
X138462110Y-81937082D01*
X138456413Y-81938061D01*
X138257346Y-82011501D01*
X138252385Y-82014453D01*
X138252384Y-82014453D01*
X138079963Y-82117032D01*
X138079960Y-82117034D01*
X138074995Y-82119988D01*
X138070655Y-82123794D01*
X138070651Y-82123797D01*
X137990530Y-82194062D01*
X137915468Y-82259890D01*
X137911893Y-82264425D01*
X137911892Y-82264426D01*
X137849449Y-82343634D01*
X137791567Y-82384747D01*
X137720647Y-82388041D01*
X137659205Y-82352469D01*
X137626748Y-82289326D01*
X137624499Y-82265628D01*
X137624499Y-82113331D01*
X137624129Y-82106510D01*
X137618605Y-82055648D01*
X137614979Y-82040396D01*
X137569824Y-81919946D01*
X137561286Y-81904351D01*
X137484785Y-81802276D01*
X137472224Y-81789715D01*
X137370149Y-81713214D01*
X137354554Y-81704676D01*
X137234106Y-81659522D01*
X137218851Y-81655895D01*
X137167986Y-81650369D01*
X137161172Y-81650000D01*
X136488615Y-81650000D01*
X136473376Y-81654475D01*
X136472171Y-81655865D01*
X136470500Y-81663548D01*
X136470500Y-84447884D01*
X135962500Y-84447884D01*
X135962500Y-83330115D01*
X135958025Y-83314876D01*
X135956635Y-83313671D01*
X135948952Y-83312000D01*
X134826616Y-83312000D01*
X134811377Y-83316475D01*
X134810172Y-83317865D01*
X134808501Y-83325548D01*
X134808501Y-84002669D01*
X124116977Y-84002669D01*
X124290680Y-83781137D01*
X124293738Y-83777387D01*
X124949649Y-83003964D01*
X124952848Y-83000336D01*
X125149356Y-82785885D01*
X134808500Y-82785885D01*
X134812975Y-82801124D01*
X134814365Y-82802329D01*
X134822048Y-82804000D01*
X135944385Y-82804000D01*
X135959624Y-82799525D01*
X135960829Y-82798135D01*
X135962500Y-82790452D01*
X135962500Y-81668116D01*
X135958025Y-81652877D01*
X135956635Y-81651672D01*
X135948952Y-81650001D01*
X135271831Y-81650001D01*
X135265010Y-81650371D01*
X135214148Y-81655895D01*
X135198896Y-81659521D01*
X135078446Y-81704676D01*
X135062851Y-81713214D01*
X134960776Y-81789715D01*
X134948215Y-81802276D01*
X134871714Y-81904351D01*
X134863176Y-81919946D01*
X134818022Y-82040394D01*
X134814395Y-82055649D01*
X134808869Y-82106514D01*
X134808500Y-82113328D01*
X134808500Y-82785885D01*
X125149356Y-82785885D01*
X125532890Y-82367331D01*
X125637941Y-82252688D01*
X125641272Y-82249189D01*
X125698774Y-82191082D01*
X126354621Y-81528331D01*
X126358025Y-81525021D01*
X126364239Y-81519206D01*
X128145092Y-81519206D01*
X128146093Y-81531124D01*
X128156571Y-81655895D01*
X128162397Y-81725278D01*
X128219398Y-81924066D01*
X128222216Y-81929548D01*
X128222217Y-81929552D01*
X128311105Y-82102509D01*
X128311108Y-82102513D01*
X128313925Y-82107995D01*
X128442377Y-82270061D01*
X128447070Y-82274055D01*
X128447071Y-82274056D01*
X128568967Y-82377797D01*
X128599862Y-82404091D01*
X128780380Y-82504980D01*
X128977057Y-82568884D01*
X129182400Y-82593370D01*
X129188535Y-82592898D01*
X129188537Y-82592898D01*
X129382447Y-82577977D01*
X129382451Y-82577976D01*
X129388589Y-82577504D01*
X129587769Y-82521892D01*
X129593273Y-82519112D01*
X129593275Y-82519111D01*
X129766853Y-82431431D01*
X129766855Y-82431430D01*
X129772354Y-82428652D01*
X129935313Y-82301334D01*
X129939339Y-82296670D01*
X129939342Y-82296667D01*
X130066410Y-82149457D01*
X130066411Y-82149455D01*
X130070439Y-82144789D01*
X130172586Y-81964979D01*
X130226710Y-81802276D01*
X130235916Y-81774601D01*
X130235917Y-81774598D01*
X130237861Y-81768753D01*
X130263780Y-81563586D01*
X130264193Y-81534000D01*
X130262417Y-81515885D01*
X142428500Y-81515885D01*
X142432975Y-81531124D01*
X142434365Y-81532329D01*
X142442048Y-81534000D01*
X143564385Y-81534000D01*
X143579624Y-81529525D01*
X143580829Y-81528135D01*
X143582500Y-81520452D01*
X143582500Y-80398116D01*
X143578025Y-80382877D01*
X143576635Y-80381672D01*
X143568952Y-80380001D01*
X142891831Y-80380001D01*
X142885010Y-80380371D01*
X142834148Y-80385895D01*
X142818896Y-80389521D01*
X142698446Y-80434676D01*
X142682851Y-80443214D01*
X142580776Y-80519715D01*
X142568215Y-80532276D01*
X142491714Y-80634351D01*
X142483176Y-80649946D01*
X142438022Y-80770394D01*
X142434395Y-80785649D01*
X142428869Y-80836514D01*
X142428500Y-80843328D01*
X142428500Y-81515885D01*
X130262417Y-81515885D01*
X130244013Y-81328189D01*
X130184242Y-81130217D01*
X130087156Y-80947625D01*
X130083265Y-80942855D01*
X130083263Y-80942851D01*
X129960349Y-80792143D01*
X129960346Y-80792140D01*
X129956454Y-80787368D01*
X129949557Y-80781662D01*
X129801862Y-80659478D01*
X129801857Y-80659475D01*
X129797113Y-80655550D01*
X129791694Y-80652620D01*
X129791691Y-80652618D01*
X129620623Y-80560122D01*
X129620618Y-80560120D01*
X129615203Y-80557192D01*
X129417654Y-80496040D01*
X129411529Y-80495396D01*
X129411528Y-80495396D01*
X129218117Y-80475068D01*
X129218115Y-80475068D01*
X129211988Y-80474424D01*
X129085820Y-80485906D01*
X129012182Y-80492607D01*
X129012181Y-80492607D01*
X129006041Y-80493166D01*
X128807657Y-80551554D01*
X128802192Y-80554411D01*
X128629852Y-80644508D01*
X128629848Y-80644511D01*
X128624392Y-80647363D01*
X128463226Y-80776943D01*
X128330299Y-80935360D01*
X128230673Y-81116578D01*
X128168144Y-81313696D01*
X128167458Y-81319813D01*
X128167457Y-81319817D01*
X128157060Y-81412510D01*
X128145092Y-81519206D01*
X126364239Y-81519206D01*
X127098501Y-80832096D01*
X127102078Y-80828875D01*
X127868593Y-80164899D01*
X127872309Y-80161803D01*
X128663727Y-79527757D01*
X128667560Y-79524805D01*
X128843369Y-79394713D01*
X129482759Y-78921589D01*
X129486699Y-78918790D01*
X129856503Y-78666527D01*
X130324426Y-78347332D01*
X130328463Y-78344690D01*
X130485140Y-78246407D01*
X131187516Y-77805808D01*
X131191649Y-77803324D01*
X132070770Y-77297807D01*
X132075009Y-77295476D01*
X132683603Y-76975957D01*
X132972895Y-76824075D01*
X132977186Y-76821927D01*
X133779576Y-76439206D01*
X136943910Y-76439206D01*
X136961215Y-76645278D01*
X137018216Y-76844066D01*
X137021034Y-76849548D01*
X137021035Y-76849552D01*
X137109923Y-77022509D01*
X137109926Y-77022513D01*
X137112743Y-77027995D01*
X137241195Y-77190061D01*
X137245888Y-77194055D01*
X137245889Y-77194056D01*
X137380589Y-77308694D01*
X137398680Y-77324091D01*
X137579198Y-77424980D01*
X137775875Y-77488884D01*
X137981218Y-77513370D01*
X137987353Y-77512898D01*
X137987355Y-77512898D01*
X138181266Y-77497977D01*
X138181271Y-77497976D01*
X138187407Y-77497504D01*
X138215670Y-77489613D01*
X138315274Y-77461804D01*
X138386264Y-77462751D01*
X138410102Y-77472882D01*
X138422322Y-77479636D01*
X138444352Y-77488761D01*
X138679349Y-77586098D01*
X138679357Y-77586101D01*
X138682624Y-77587454D01*
X138953362Y-77665448D01*
X138956834Y-77666038D01*
X138956839Y-77666039D01*
X139102382Y-77690766D01*
X139231129Y-77712639D01*
X139435737Y-77724127D01*
X139476431Y-77726412D01*
X139490267Y-77727959D01*
X139495080Y-77728769D01*
X139495089Y-77728770D01*
X139499882Y-77729576D01*
X139506384Y-77729655D01*
X139507575Y-77729670D01*
X139507578Y-77729670D01*
X139512434Y-77729729D01*
X139517242Y-77729040D01*
X139517248Y-77729040D01*
X139540055Y-77725773D01*
X139557919Y-77724500D01*
X148148533Y-77724500D01*
X148167918Y-77726000D01*
X148182752Y-77728310D01*
X148182755Y-77728310D01*
X148191624Y-77729691D01*
X148201559Y-77728392D01*
X148202646Y-77728250D01*
X148231331Y-77727793D01*
X148281437Y-77732728D01*
X148305659Y-77737546D01*
X148322055Y-77742519D01*
X148374116Y-77758312D01*
X148396932Y-77767762D01*
X148460025Y-77801486D01*
X148480552Y-77815203D01*
X148514223Y-77842835D01*
X148525261Y-77854510D01*
X148525768Y-77854015D01*
X148532037Y-77860439D01*
X148537334Y-77867690D01*
X148551203Y-77878351D01*
X148577056Y-77905170D01*
X148579370Y-77908421D01*
X148579375Y-77908427D01*
X148582198Y-77912392D01*
X148590966Y-77921375D01*
X148607633Y-77933866D01*
X148615135Y-77939951D01*
X148741037Y-78050360D01*
X148744463Y-78052649D01*
X148871715Y-78137672D01*
X148905460Y-78160219D01*
X149082815Y-78247676D01*
X149270069Y-78311235D01*
X149274107Y-78312038D01*
X149274114Y-78312040D01*
X149459982Y-78349007D01*
X149459990Y-78349008D01*
X149464017Y-78349809D01*
X149468122Y-78350078D01*
X149468130Y-78350079D01*
X149587765Y-78357917D01*
X149616498Y-78359799D01*
X149629160Y-78361275D01*
X149643980Y-78363768D01*
X149643991Y-78363769D01*
X149648789Y-78364576D01*
X149655291Y-78364655D01*
X149656482Y-78364670D01*
X149656485Y-78364670D01*
X149661341Y-78364729D01*
X149666149Y-78364040D01*
X149666154Y-78364040D01*
X149688960Y-78360773D01*
X149706825Y-78359500D01*
X152123999Y-78359500D01*
X152143383Y-78361000D01*
X152158217Y-78363310D01*
X152158220Y-78363310D01*
X152167090Y-78364691D01*
X152175992Y-78363527D01*
X152175995Y-78363527D01*
X152185084Y-78362338D01*
X152208484Y-78361472D01*
X152445270Y-78374766D01*
X152459296Y-78376346D01*
X152644258Y-78407770D01*
X152720804Y-78420775D01*
X152734579Y-78423919D01*
X152989465Y-78497347D01*
X153002802Y-78502014D01*
X153247856Y-78603516D01*
X153260586Y-78609646D01*
X153391358Y-78681918D01*
X153492747Y-78737952D01*
X153504702Y-78745464D01*
X153573533Y-78794301D01*
X153721031Y-78898955D01*
X153732077Y-78907764D01*
X153903366Y-79060833D01*
X153921150Y-79080458D01*
X153927010Y-79088479D01*
X153934130Y-79093952D01*
X153952250Y-79107881D01*
X153964555Y-79118682D01*
X154668003Y-79822130D01*
X154681549Y-79838144D01*
X154693196Y-79854502D01*
X154701963Y-79863486D01*
X154705862Y-79866408D01*
X154705872Y-79866417D01*
X154714889Y-79873856D01*
X154905707Y-80046799D01*
X154958094Y-80094279D01*
X154960574Y-80096118D01*
X154960581Y-80096124D01*
X155072630Y-80179223D01*
X155234979Y-80299626D01*
X155530659Y-80476846D01*
X155688621Y-80551554D01*
X155839486Y-80622906D01*
X155839490Y-80622908D01*
X155842286Y-80624230D01*
X155845193Y-80625270D01*
X155845200Y-80625273D01*
X155962054Y-80667082D01*
X156166858Y-80740359D01*
X156169857Y-80741110D01*
X156169863Y-80741112D01*
X156498252Y-80823364D01*
X156498255Y-80823365D01*
X156501251Y-80824115D01*
X156504301Y-80824567D01*
X156504309Y-80824569D01*
X156839180Y-80874238D01*
X156839183Y-80874238D01*
X156842242Y-80874692D01*
X156845327Y-80874844D01*
X156845332Y-80874844D01*
X157154065Y-80890007D01*
X157168781Y-80891600D01*
X157173997Y-80892477D01*
X157180526Y-80892557D01*
X157181690Y-80892571D01*
X157181693Y-80892571D01*
X157186549Y-80892630D01*
X157191357Y-80891941D01*
X157191363Y-80891941D01*
X157214170Y-80888674D01*
X157232034Y-80887401D01*
X158289187Y-80887401D01*
X158357308Y-80907403D01*
X158395097Y-80945144D01*
X158396564Y-80947420D01*
X158399378Y-80952896D01*
X158403201Y-80957720D01*
X158403204Y-80957724D01*
X158458105Y-81026991D01*
X158527830Y-81114962D01*
X158532523Y-81118956D01*
X158532524Y-81118957D01*
X158612912Y-81187372D01*
X158685315Y-81248992D01*
X158865833Y-81349881D01*
X159062510Y-81413785D01*
X159267853Y-81438271D01*
X159273988Y-81437799D01*
X159273990Y-81437799D01*
X159467900Y-81422878D01*
X159467904Y-81422877D01*
X159474042Y-81422405D01*
X159512866Y-81411565D01*
X159583854Y-81412510D01*
X159635844Y-81443828D01*
X160924684Y-82732669D01*
X162175845Y-83983830D01*
X162188492Y-83998598D01*
X162196447Y-84009486D01*
X162202648Y-84017974D01*
X162209767Y-84023446D01*
X162217033Y-84029032D01*
X162234191Y-84044966D01*
X162392216Y-84221795D01*
X162401026Y-84232843D01*
X162554520Y-84449173D01*
X162562037Y-84461136D01*
X162566399Y-84469028D01*
X162670170Y-84656786D01*
X162690341Y-84693283D01*
X162696470Y-84706010D01*
X162702112Y-84719631D01*
X162797977Y-84951069D01*
X162802644Y-84964406D01*
X162876074Y-85219288D01*
X162879218Y-85233063D01*
X162923650Y-85494564D01*
X162925232Y-85508605D01*
X162938119Y-85738084D01*
X162936817Y-85764532D01*
X162936691Y-85765344D01*
X162935309Y-85774222D01*
X162936473Y-85783124D01*
X162936473Y-85783126D01*
X162939436Y-85805781D01*
X162940500Y-85822119D01*
X162940500Y-86056633D01*
X162939000Y-86076018D01*
X162936690Y-86090851D01*
X162936690Y-86090855D01*
X162935309Y-86099724D01*
X162936474Y-86108630D01*
X162936455Y-86110180D01*
X162936956Y-86115943D01*
X162952473Y-86471334D01*
X162974894Y-86641640D01*
X162991947Y-86771173D01*
X163000203Y-86833888D01*
X163079351Y-87190902D01*
X163119865Y-87319397D01*
X163188485Y-87537039D01*
X163188490Y-87537052D01*
X163189312Y-87539660D01*
X163329252Y-87877507D01*
X163498104Y-88201871D01*
X163694583Y-88510286D01*
X163696245Y-88512452D01*
X163696252Y-88512462D01*
X163900796Y-88779031D01*
X163917194Y-88800402D01*
X164141639Y-89045343D01*
X164151388Y-89057395D01*
X164154600Y-89061906D01*
X164163367Y-89070890D01*
X164167251Y-89073801D01*
X164167259Y-89073808D01*
X164185710Y-89087636D01*
X164199240Y-89099367D01*
X168005746Y-92905874D01*
X168018394Y-92920643D01*
X168032545Y-92940014D01*
X168039662Y-92945485D01*
X168039665Y-92945488D01*
X168046933Y-92951075D01*
X168064092Y-92967010D01*
X168222113Y-93143839D01*
X168230923Y-93154887D01*
X168337653Y-93305312D01*
X168384410Y-93371212D01*
X168391921Y-93383165D01*
X168520237Y-93615341D01*
X168526355Y-93628048D01*
X168574430Y-93744115D01*
X168627859Y-93873108D01*
X168632526Y-93886445D01*
X168705953Y-94141328D01*
X168709097Y-94155104D01*
X168717821Y-94206453D01*
X168753525Y-94416608D01*
X168755105Y-94430632D01*
X168767998Y-94660269D01*
X168766695Y-94686721D01*
X168765210Y-94696259D01*
X168766374Y-94705160D01*
X168769338Y-94727831D01*
X168770401Y-94744166D01*
X168770401Y-95467210D01*
X168750399Y-95535331D01*
X168708549Y-95573596D01*
X168709319Y-95574773D01*
X168704162Y-95578148D01*
X168698702Y-95581002D01*
X168693902Y-95584862D01*
X168693901Y-95584862D01*
X168688609Y-95589117D01*
X168537536Y-95710582D01*
X168404609Y-95868999D01*
X168304983Y-96050217D01*
X168281864Y-96123098D01*
X168259161Y-96194669D01*
X168242454Y-96247335D01*
X168241768Y-96253452D01*
X168241767Y-96253456D01*
X168226307Y-96391285D01*
X168219402Y-96452845D01*
X168225166Y-96521479D01*
X168235109Y-96639884D01*
X168236707Y-96658917D01*
X168293708Y-96857705D01*
X168296526Y-96863187D01*
X168296527Y-96863191D01*
X168385415Y-97036148D01*
X168385418Y-97036152D01*
X168388235Y-97041634D01*
X168516687Y-97203700D01*
X168521380Y-97207694D01*
X168521381Y-97207695D01*
X168658465Y-97324362D01*
X168674172Y-97337730D01*
X168854690Y-97438619D01*
X169051367Y-97502523D01*
X169256710Y-97527009D01*
X169262845Y-97526537D01*
X169262847Y-97526537D01*
X169456757Y-97511616D01*
X169456761Y-97511615D01*
X169462899Y-97511143D01*
X169662079Y-97455531D01*
X169667583Y-97452751D01*
X169667585Y-97452750D01*
X169841163Y-97365070D01*
X169841165Y-97365069D01*
X169846664Y-97362291D01*
X170009623Y-97234973D01*
X170013649Y-97230309D01*
X170013652Y-97230306D01*
X170140720Y-97083096D01*
X170140721Y-97083094D01*
X170144749Y-97078428D01*
X170217555Y-96950268D01*
X170243851Y-96903979D01*
X170243853Y-96903975D01*
X170246896Y-96898618D01*
X170293027Y-96759942D01*
X170310226Y-96708240D01*
X170310227Y-96708237D01*
X170312171Y-96702392D01*
X170338090Y-96497225D01*
X170338503Y-96467639D01*
X170318323Y-96261828D01*
X170258552Y-96063856D01*
X170198089Y-95950141D01*
X170164360Y-95886706D01*
X170164358Y-95886703D01*
X170161466Y-95881264D01*
X170157575Y-95876494D01*
X170157573Y-95876490D01*
X170034659Y-95725782D01*
X170034656Y-95725779D01*
X170030764Y-95721007D01*
X170023867Y-95715301D01*
X169876172Y-95593117D01*
X169876167Y-95593114D01*
X169871423Y-95589189D01*
X169853474Y-95579484D01*
X169803065Y-95529492D01*
X169787401Y-95468648D01*
X169787401Y-94755793D01*
X169789148Y-94734886D01*
X169790247Y-94728352D01*
X169792477Y-94715101D01*
X169792630Y-94702549D01*
X169791896Y-94697427D01*
X169790777Y-94685754D01*
X169774844Y-94361332D01*
X169774844Y-94361327D01*
X169774692Y-94358242D01*
X169769745Y-94324890D01*
X169724569Y-94020309D01*
X169724567Y-94020301D01*
X169724115Y-94017251D01*
X169723364Y-94014252D01*
X169641112Y-93685863D01*
X169641110Y-93685857D01*
X169640359Y-93682858D01*
X169577445Y-93507017D01*
X169525273Y-93361200D01*
X169525270Y-93361193D01*
X169524230Y-93358286D01*
X169376846Y-93046659D01*
X169199626Y-92750979D01*
X169104997Y-92623383D01*
X168996124Y-92476581D01*
X168996118Y-92476574D01*
X168994279Y-92474094D01*
X168784444Y-92242572D01*
X168775168Y-92231041D01*
X168775081Y-92230919D01*
X168775080Y-92230918D01*
X168772253Y-92226947D01*
X168763486Y-92217963D01*
X168759602Y-92215052D01*
X168759594Y-92215045D01*
X168741143Y-92201217D01*
X168727613Y-92189486D01*
X164921107Y-88382980D01*
X164908458Y-88368210D01*
X164902922Y-88360632D01*
X164894306Y-88348837D01*
X164878834Y-88336943D01*
X164862268Y-88321666D01*
X164755790Y-88204184D01*
X164681388Y-88122094D01*
X164673560Y-88112556D01*
X164495556Y-87872542D01*
X164488693Y-87862270D01*
X164335094Y-87606001D01*
X164329265Y-87595097D01*
X164254646Y-87437329D01*
X164201512Y-87324985D01*
X164196782Y-87313565D01*
X164193540Y-87304502D01*
X164152894Y-87190902D01*
X164096128Y-87032249D01*
X164092539Y-87020418D01*
X164063771Y-86905568D01*
X164744477Y-86905568D01*
X164746740Y-86932514D01*
X164761163Y-87104263D01*
X164761782Y-87111640D01*
X164818783Y-87310428D01*
X164821601Y-87315910D01*
X164821602Y-87315914D01*
X164910490Y-87488871D01*
X164910493Y-87488875D01*
X164913310Y-87494357D01*
X165041762Y-87656423D01*
X165046455Y-87660417D01*
X165046456Y-87660418D01*
X165114993Y-87718747D01*
X165199247Y-87790453D01*
X165379765Y-87891342D01*
X165576442Y-87955246D01*
X165781785Y-87979732D01*
X165787920Y-87979260D01*
X165787922Y-87979260D01*
X165981832Y-87964339D01*
X165981836Y-87964338D01*
X165987974Y-87963866D01*
X166187154Y-87908254D01*
X166192658Y-87905474D01*
X166192660Y-87905473D01*
X166366238Y-87817793D01*
X166366240Y-87817792D01*
X166371739Y-87815014D01*
X166534698Y-87687696D01*
X166538724Y-87683032D01*
X166538727Y-87683029D01*
X166665795Y-87535819D01*
X166665796Y-87535817D01*
X166669824Y-87531151D01*
X166750209Y-87389649D01*
X166768926Y-87356702D01*
X166768928Y-87356698D01*
X166771971Y-87351341D01*
X166818740Y-87210747D01*
X166835301Y-87160963D01*
X166835302Y-87160960D01*
X166837246Y-87155115D01*
X166863165Y-86949948D01*
X166863578Y-86920362D01*
X166843398Y-86714551D01*
X166783627Y-86516579D01*
X166686541Y-86333987D01*
X166682650Y-86329217D01*
X166682648Y-86329213D01*
X166559734Y-86178505D01*
X166559731Y-86178502D01*
X166555839Y-86173730D01*
X166548942Y-86168024D01*
X166401247Y-86045840D01*
X166401242Y-86045837D01*
X166396498Y-86041912D01*
X166391079Y-86038982D01*
X166391076Y-86038980D01*
X166220008Y-85946484D01*
X166220003Y-85946482D01*
X166214588Y-85943554D01*
X166017039Y-85882402D01*
X166010914Y-85881758D01*
X166010913Y-85881758D01*
X165817502Y-85861430D01*
X165817500Y-85861430D01*
X165811373Y-85860786D01*
X165685205Y-85872268D01*
X165611567Y-85878969D01*
X165611566Y-85878969D01*
X165605426Y-85879528D01*
X165407042Y-85937916D01*
X165401577Y-85940773D01*
X165229237Y-86030870D01*
X165229233Y-86030873D01*
X165223777Y-86033725D01*
X165062611Y-86163305D01*
X164929684Y-86321722D01*
X164830058Y-86502940D01*
X164767529Y-86700058D01*
X164766843Y-86706175D01*
X164766842Y-86706179D01*
X164748871Y-86866394D01*
X164744477Y-86905568D01*
X164063771Y-86905568D01*
X164057779Y-86881648D01*
X164019937Y-86730574D01*
X164017528Y-86718459D01*
X164016949Y-86714551D01*
X163973687Y-86422907D01*
X163972476Y-86410606D01*
X163959804Y-86152642D01*
X163961397Y-86125565D01*
X163961768Y-86123357D01*
X163961768Y-86123353D01*
X163962576Y-86118552D01*
X163962729Y-86106000D01*
X163958773Y-86078376D01*
X163957500Y-86060514D01*
X163957500Y-85833748D01*
X163959246Y-85812843D01*
X163961770Y-85797842D01*
X163961770Y-85797839D01*
X163962576Y-85793050D01*
X163962729Y-85780498D01*
X163962039Y-85775684D01*
X163962036Y-85775632D01*
X163960922Y-85764027D01*
X163944969Y-85439279D01*
X163944969Y-85439274D01*
X163944817Y-85436190D01*
X163894235Y-85095198D01*
X163810474Y-84760805D01*
X163809437Y-84757906D01*
X163809434Y-84757897D01*
X163741388Y-84567724D01*
X163694340Y-84436233D01*
X163562944Y-84158419D01*
X163548268Y-84127389D01*
X163548266Y-84127386D01*
X163546952Y-84124607D01*
X163493030Y-84034644D01*
X163371318Y-83831579D01*
X163371312Y-83831570D01*
X163369729Y-83828929D01*
X163302848Y-83738751D01*
X163166224Y-83554535D01*
X163166221Y-83554531D01*
X163164377Y-83552045D01*
X162954551Y-83320538D01*
X162945270Y-83309003D01*
X162942348Y-83304899D01*
X162933581Y-83295915D01*
X162911235Y-83279168D01*
X162897711Y-83267441D01*
X160357297Y-80727027D01*
X160323271Y-80664715D01*
X160323506Y-80613678D01*
X160323314Y-80613654D01*
X160323514Y-80612075D01*
X160323514Y-80612071D01*
X160349233Y-80408487D01*
X160349646Y-80378901D01*
X160329466Y-80173090D01*
X160269695Y-79975118D01*
X160205912Y-79855160D01*
X160175503Y-79797968D01*
X160175501Y-79797965D01*
X160172609Y-79792526D01*
X160168718Y-79787756D01*
X160168716Y-79787752D01*
X160045802Y-79637044D01*
X160045799Y-79637041D01*
X160041907Y-79632269D01*
X160034763Y-79626359D01*
X159887315Y-79504379D01*
X159887310Y-79504376D01*
X159882566Y-79500451D01*
X159877147Y-79497521D01*
X159877144Y-79497519D01*
X159706076Y-79405023D01*
X159706071Y-79405021D01*
X159700656Y-79402093D01*
X159503107Y-79340941D01*
X159496982Y-79340297D01*
X159496981Y-79340297D01*
X159303570Y-79319969D01*
X159303568Y-79319969D01*
X159297441Y-79319325D01*
X159171273Y-79330807D01*
X159097635Y-79337508D01*
X159097634Y-79337508D01*
X159091494Y-79338067D01*
X158893110Y-79396455D01*
X158887645Y-79399312D01*
X158715305Y-79489409D01*
X158715301Y-79489412D01*
X158709845Y-79492264D01*
X158548679Y-79621844D01*
X158415752Y-79780261D01*
X158412786Y-79785657D01*
X158412780Y-79785665D01*
X158402096Y-79805100D01*
X158351752Y-79855160D01*
X158291681Y-79870401D01*
X157235902Y-79870401D01*
X157216518Y-79868901D01*
X157201684Y-79866591D01*
X157201681Y-79866591D01*
X157192811Y-79865210D01*
X157183909Y-79866374D01*
X157183906Y-79866374D01*
X157174978Y-79867542D01*
X157151578Y-79868408D01*
X156914632Y-79855105D01*
X156900608Y-79853525D01*
X156743885Y-79826899D01*
X156639104Y-79809097D01*
X156625328Y-79805953D01*
X156370445Y-79732526D01*
X156357108Y-79727859D01*
X156309471Y-79708128D01*
X156112048Y-79626355D01*
X156099341Y-79620237D01*
X155867165Y-79491921D01*
X155855212Y-79484410D01*
X155638887Y-79330923D01*
X155627839Y-79322113D01*
X155456451Y-79168954D01*
X155438670Y-79149332D01*
X155438188Y-79148672D01*
X155438186Y-79148670D01*
X155432890Y-79141421D01*
X155425774Y-79135951D01*
X155425771Y-79135948D01*
X155407650Y-79122019D01*
X155395345Y-79111218D01*
X154691897Y-78407770D01*
X154678351Y-78391756D01*
X154669529Y-78379366D01*
X154666704Y-78375398D01*
X154657937Y-78366414D01*
X154654046Y-78363498D01*
X154653659Y-78363158D01*
X154645255Y-78356227D01*
X154428989Y-78160219D01*
X154401825Y-78135599D01*
X154399349Y-78133762D01*
X154399342Y-78133757D01*
X154127426Y-77932096D01*
X154124937Y-77930250D01*
X153829255Y-77753029D01*
X153621161Y-77654611D01*
X153520426Y-77606968D01*
X153520422Y-77606966D01*
X153517626Y-77605644D01*
X153514719Y-77604604D01*
X153514712Y-77604601D01*
X153355339Y-77547579D01*
X153193051Y-77489514D01*
X153190045Y-77488761D01*
X152861667Y-77406510D01*
X152861663Y-77406509D01*
X152858656Y-77405756D01*
X152855587Y-77405301D01*
X152855583Y-77405300D01*
X152740395Y-77388215D01*
X152517662Y-77355179D01*
X152514571Y-77355027D01*
X152514569Y-77355027D01*
X152341741Y-77346539D01*
X152205582Y-77339852D01*
X152190866Y-77338259D01*
X152185904Y-77337424D01*
X152179521Y-77337346D01*
X152178211Y-77337330D01*
X152178208Y-77337330D01*
X152173352Y-77337271D01*
X152168544Y-77337960D01*
X152168538Y-77337960D01*
X152145731Y-77341227D01*
X152127867Y-77342500D01*
X150419683Y-77342500D01*
X150351562Y-77322498D01*
X150305069Y-77268842D01*
X150294965Y-77198568D01*
X150324459Y-77133988D01*
X150385799Y-77095142D01*
X150387349Y-77094709D01*
X150465135Y-77072991D01*
X150470639Y-77070211D01*
X150470641Y-77070210D01*
X150644219Y-76982530D01*
X150644221Y-76982529D01*
X150649720Y-76979751D01*
X150812679Y-76852433D01*
X150816705Y-76847769D01*
X150816708Y-76847766D01*
X150943776Y-76700556D01*
X150943777Y-76700554D01*
X150947805Y-76695888D01*
X151020261Y-76568344D01*
X151046907Y-76521439D01*
X151046909Y-76521435D01*
X151049952Y-76516078D01*
X151115227Y-76319852D01*
X151141146Y-76114685D01*
X151141559Y-76085099D01*
X151121379Y-75879288D01*
X151061608Y-75681316D01*
X151005371Y-75575550D01*
X150967416Y-75504166D01*
X150967414Y-75504163D01*
X150964522Y-75498724D01*
X150960631Y-75493954D01*
X150960629Y-75493950D01*
X150837715Y-75343242D01*
X150837712Y-75343239D01*
X150833820Y-75338467D01*
X150826923Y-75332761D01*
X150679228Y-75210577D01*
X150679223Y-75210574D01*
X150674479Y-75206649D01*
X150669060Y-75203719D01*
X150669057Y-75203717D01*
X150497989Y-75111221D01*
X150497984Y-75111219D01*
X150492569Y-75108291D01*
X150295020Y-75047139D01*
X150288895Y-75046495D01*
X150288894Y-75046495D01*
X150095483Y-75026167D01*
X150095481Y-75026167D01*
X150089354Y-75025523D01*
X149963186Y-75037005D01*
X149889548Y-75043706D01*
X149889547Y-75043706D01*
X149883407Y-75044265D01*
X149685023Y-75102653D01*
X149679558Y-75105510D01*
X149507218Y-75195607D01*
X149507214Y-75195610D01*
X149501758Y-75198462D01*
X149340592Y-75328042D01*
X149207665Y-75486459D01*
X149108039Y-75667677D01*
X149045510Y-75864795D01*
X149044824Y-75870912D01*
X149044823Y-75870916D01*
X149040325Y-75911020D01*
X149022458Y-76070305D01*
X149023700Y-76085099D01*
X149033921Y-76206804D01*
X149039763Y-76276377D01*
X149096764Y-76475165D01*
X149099582Y-76480647D01*
X149099583Y-76480651D01*
X149188471Y-76653608D01*
X149188474Y-76653612D01*
X149191291Y-76659094D01*
X149319743Y-76821160D01*
X149324436Y-76825154D01*
X149324437Y-76825155D01*
X149418220Y-76904970D01*
X149477228Y-76955190D01*
X149657746Y-77056079D01*
X149701237Y-77070210D01*
X149782663Y-77096667D01*
X149841269Y-77136740D01*
X149868906Y-77202137D01*
X149856799Y-77272094D01*
X149808793Y-77324400D01*
X149743727Y-77342500D01*
X149710680Y-77342500D01*
X149691298Y-77341000D01*
X149688876Y-77340623D01*
X149667589Y-77337309D01*
X149658689Y-77338473D01*
X149658681Y-77338473D01*
X149656567Y-77338750D01*
X149627882Y-77339208D01*
X149609764Y-77337424D01*
X149577770Y-77334274D01*
X149553546Y-77329455D01*
X149485101Y-77308694D01*
X149462280Y-77299242D01*
X149399191Y-77265522D01*
X149378653Y-77251800D01*
X149345038Y-77224214D01*
X149333952Y-77212488D01*
X149333451Y-77212977D01*
X149327182Y-77206553D01*
X149321885Y-77199303D01*
X149308024Y-77188648D01*
X149282178Y-77161838D01*
X149279864Y-77158588D01*
X149279855Y-77158577D01*
X149277034Y-77154615D01*
X149273640Y-77151137D01*
X149273635Y-77151131D01*
X149271660Y-77149108D01*
X149268267Y-77145631D01*
X149264380Y-77142718D01*
X149264370Y-77142709D01*
X149251400Y-77132988D01*
X149243890Y-77126896D01*
X149121292Y-77019382D01*
X149118186Y-77016658D01*
X148953767Y-76906797D01*
X148950068Y-76904973D01*
X148950063Y-76904970D01*
X148826561Y-76844066D01*
X148776416Y-76819337D01*
X148767555Y-76816329D01*
X148593072Y-76757100D01*
X148593069Y-76757099D01*
X148589165Y-76755774D01*
X148585126Y-76754971D01*
X148585120Y-76754969D01*
X148399263Y-76718000D01*
X148399260Y-76718000D01*
X148395220Y-76717196D01*
X148391109Y-76716927D01*
X148391105Y-76716926D01*
X148242736Y-76707201D01*
X148230083Y-76705727D01*
X148210450Y-76702424D01*
X148204105Y-76702347D01*
X148202758Y-76702330D01*
X148202755Y-76702330D01*
X148197898Y-76702271D01*
X148171956Y-76705986D01*
X148170274Y-76706227D01*
X148152412Y-76707500D01*
X139561787Y-76707500D01*
X139542403Y-76706000D01*
X139527569Y-76703690D01*
X139527566Y-76703690D01*
X139518696Y-76702309D01*
X139502732Y-76704397D01*
X139502509Y-76704426D01*
X139477930Y-76705220D01*
X139325984Y-76695263D01*
X139309643Y-76693112D01*
X139245445Y-76680343D01*
X139157972Y-76662945D01*
X139095062Y-76630039D01*
X139059930Y-76568344D01*
X139057546Y-76523573D01*
X139062156Y-76487087D01*
X139062156Y-76487082D01*
X139062598Y-76483586D01*
X139063011Y-76454000D01*
X139042831Y-76248189D01*
X138983060Y-76050217D01*
X138909501Y-75911872D01*
X138888868Y-75873067D01*
X138888866Y-75873064D01*
X138885974Y-75867625D01*
X138882083Y-75862855D01*
X138882081Y-75862851D01*
X138759167Y-75712143D01*
X138759164Y-75712140D01*
X138755272Y-75707368D01*
X138748375Y-75701662D01*
X138600680Y-75579478D01*
X138600675Y-75579475D01*
X138595931Y-75575550D01*
X138590512Y-75572620D01*
X138590509Y-75572618D01*
X138419441Y-75480122D01*
X138419436Y-75480120D01*
X138414021Y-75477192D01*
X138216472Y-75416040D01*
X138210347Y-75415396D01*
X138210346Y-75415396D01*
X138016935Y-75395068D01*
X138016933Y-75395068D01*
X138010806Y-75394424D01*
X137884638Y-75405906D01*
X137811000Y-75412607D01*
X137810999Y-75412607D01*
X137804859Y-75413166D01*
X137606475Y-75471554D01*
X137601010Y-75474411D01*
X137428670Y-75564508D01*
X137428666Y-75564511D01*
X137423210Y-75567363D01*
X137262044Y-75696943D01*
X137129117Y-75855360D01*
X137029491Y-76036578D01*
X136966962Y-76233696D01*
X136966276Y-76239813D01*
X136966275Y-76239817D01*
X136957984Y-76313733D01*
X136943910Y-76439206D01*
X133779576Y-76439206D01*
X133892513Y-76385338D01*
X133896889Y-76383353D01*
X134828289Y-75982229D01*
X134832747Y-75980410D01*
X135778862Y-75615334D01*
X135783392Y-75613685D01*
X136441731Y-75388286D01*
X144156374Y-75388286D01*
X144175446Y-75569749D01*
X144234248Y-75742477D01*
X144299870Y-75849144D01*
X144322188Y-75885421D01*
X144329856Y-75897886D01*
X144342718Y-75911020D01*
X144444256Y-76014707D01*
X144457518Y-76028250D01*
X144610890Y-76127092D01*
X144617510Y-76129501D01*
X144617513Y-76129503D01*
X144775732Y-76187090D01*
X144775735Y-76187091D01*
X144782349Y-76189498D01*
X144840399Y-76196831D01*
X144919342Y-76206804D01*
X144919345Y-76206804D01*
X144923270Y-76207300D01*
X145020677Y-76207300D01*
X145156125Y-76192107D01*
X145163618Y-76189498D01*
X145232781Y-76165413D01*
X145328439Y-76132101D01*
X145483176Y-76035411D01*
X145548192Y-75970847D01*
X145607649Y-75911804D01*
X145607652Y-75911800D01*
X145612646Y-75906841D01*
X145622138Y-75891885D01*
X145706635Y-75758737D01*
X145710414Y-75752783D01*
X145771622Y-75580893D01*
X145772455Y-75573907D01*
X145772456Y-75573903D01*
X145791622Y-75413166D01*
X145793226Y-75399714D01*
X145774154Y-75218251D01*
X145736100Y-75106469D01*
X145717622Y-75052190D01*
X145717621Y-75052187D01*
X145715352Y-75045523D01*
X145619744Y-74890114D01*
X145492082Y-74759750D01*
X145338710Y-74660908D01*
X145332090Y-74658499D01*
X145332087Y-74658497D01*
X145173868Y-74600910D01*
X145173865Y-74600909D01*
X145167251Y-74598502D01*
X145109201Y-74591169D01*
X145030258Y-74581196D01*
X145030255Y-74581196D01*
X145026330Y-74580700D01*
X144928923Y-74580700D01*
X144793475Y-74595893D01*
X144786822Y-74598210D01*
X144786821Y-74598210D01*
X144779068Y-74600910D01*
X144621161Y-74655899D01*
X144466424Y-74752589D01*
X144454147Y-74764781D01*
X144341951Y-74876196D01*
X144341948Y-74876200D01*
X144336954Y-74881159D01*
X144333180Y-74887105D01*
X144333179Y-74887107D01*
X144316726Y-74913033D01*
X144239186Y-75035217D01*
X144177978Y-75207107D01*
X144177145Y-75214093D01*
X144177144Y-75214097D01*
X144168842Y-75283724D01*
X144156374Y-75388286D01*
X136441731Y-75388286D01*
X136742813Y-75285203D01*
X136747419Y-75283724D01*
X137233072Y-75138021D01*
X137718740Y-74992314D01*
X137723366Y-74991022D01*
X138598173Y-74764781D01*
X138705173Y-74737109D01*
X138709879Y-74735988D01*
X139036710Y-74664727D01*
X139700725Y-74519948D01*
X139705421Y-74519019D01*
X140703809Y-74341179D01*
X140708550Y-74340428D01*
X141713037Y-74201044D01*
X141717825Y-74200473D01*
X142726924Y-74099752D01*
X142731710Y-74099366D01*
X143743930Y-74037456D01*
X143748723Y-74037255D01*
X144762619Y-74014247D01*
X144767419Y-74014231D01*
X145285680Y-74022372D01*
G37*
%TD.AperFunction*%
%TD*%
M02*
