M48
; DRILL file {KiCad (6.0.4)} date Mon Jun  6 16:58:22 2022
; FORMAT={-:-/ absolute / inch / decimal}
; #@! TF.CreationDate,2022-06-06T16:58:22-07:00
; #@! TF.GenerationSoftware,Kicad,Pcbnew,(6.0.4)
; #@! TF.FileFunction,Plated,1,2,PTH
FMAT,2
INCH
; #@! TA.AperFunction,Plated,PTH,ComponentDrill
T1C0.0315
; #@! TA.AperFunction,Plated,PTH,ComponentDrill
T2C0.0354
; #@! TA.AperFunction,Plated,PTH,ViaDrill
T3C0.0500
; #@! TA.AperFunction,Plated,PTH,ComponentDrill
T4C0.0591
; #@! TA.AperFunction,Plated,PTH,ComponentDrill
T5C0.0650
%
G90
G05
T1
X4.7445Y-3.7893
X4.9135Y-3.4267
X5.0868Y-3.21
X5.4332Y-3.01
X5.9087Y-2.9955
X6.2713Y-3.1645
X6.5277Y-3.4221
X6.6645Y-3.7979
T2
X5.0Y-3.69
X5.1Y-3.69
X5.1429Y-3.46
X5.2429Y-3.46
X5.3629Y-3.27
X5.3729Y-3.75
X5.4629Y-3.27
X5.4729Y-3.75
X5.5529Y-3.605
X5.6529Y-3.605
X5.6629Y-3.22
X5.7629Y-3.22
X5.7829Y-3.605
X5.8829Y-3.605
X5.9429Y-3.28
X5.9429Y-3.745
X6.0429Y-3.28
X6.0429Y-3.745
X6.1629Y-3.48
X6.2629Y-3.48
X6.3129Y-3.68
X6.3794Y-4.6153
X6.4129Y-3.68
X6.43Y-4.555
X6.4806Y-4.4947
T3
X5.708Y-2.968
T4
X6.3262Y-4.6787
X6.5338Y-4.4313
T5
X5.26Y-4.425
X6.09Y-4.425
T0
M30
