%TF.GenerationSoftware,KiCad,Pcbnew,(6.0.4)*%
%TF.CreationDate,2022-06-06T16:58:20-07:00*%
%TF.ProjectId,Alpenglow_RadiantRainbow_PCB,416c7065-6e67-46c6-9f77-5f5261646961,rev?*%
%TF.SameCoordinates,Original*%
%TF.FileFunction,Soldermask,Top*%
%TF.FilePolarity,Negative*%
%FSLAX46Y46*%
G04 Gerber Fmt 4.6, Leading zero omitted, Abs format (unit mm)*
G04 Created by KiCad (PCBNEW (6.0.4)) date 2022-06-06 16:58:20*
%MOMM*%
%LPD*%
G01*
G04 APERTURE LIST*
G04 Aperture macros list*
%AMHorizOval*
0 Thick line with rounded ends*
0 $1 width*
0 $2 $3 position (X,Y) of the first rounded end (center of the circle)*
0 $4 $5 position (X,Y) of the second rounded end (center of the circle)*
0 Add line between two ends*
20,1,$1,$2,$3,$4,$5,0*
0 Add two circle primitives to create the rounded ends*
1,1,$1,$2,$3*
1,1,$1,$4,$5*%
%AMRotRect*
0 Rectangle, with rotation*
0 The origin of the aperture is its center*
0 $1 length*
0 $2 width*
0 $3 Rotation angle, in degrees counterclockwise*
0 Add horizontal line*
21,1,$1,$2,0,0,$3*%
G04 Aperture macros list end*
%ADD10C,0.635000*%
%ADD11R,1.800000X1.800000*%
%ADD12C,1.800000*%
%ADD13C,1.600000*%
%ADD14HorizOval,1.600000X0.000000X0.000000X0.000000X0.000000X0*%
%ADD15HorizOval,1.600000X0.000000X0.000000X0.000000X0.000000X0*%
%ADD16HorizOval,1.600000X0.000000X0.000000X0.000000X0.000000X0*%
%ADD17HorizOval,1.900000X-0.612836X0.514230X0.612836X-0.514230X0*%
%ADD18RotRect,1.300000X2.500000X230.000000*%
%ADD19HorizOval,1.300000X-0.459627X0.385673X0.459627X-0.385673X0*%
%ADD20O,2.500000X4.000000*%
%ADD21HorizOval,1.600000X0.000000X0.000000X0.000000X0.000000X0*%
G04 APERTURE END LIST*
D10*
X142430500Y-117538500D02*
G75*
G03*
X146367500Y-117538500I1968500J0D01*
G01*
%TO.C,G\u002A\u002A\u002A*%
G36*
X145151954Y-77801633D02*
G01*
X145703631Y-77822009D01*
X146264324Y-77858119D01*
X146823521Y-77909364D01*
X147370708Y-77975145D01*
X147612753Y-78009709D01*
X148498738Y-78163798D01*
X149374545Y-78357913D01*
X150239428Y-78591571D01*
X151092638Y-78864294D01*
X151933430Y-79175599D01*
X152761056Y-79525008D01*
X153574768Y-79912038D01*
X154373819Y-80336210D01*
X155157463Y-80797043D01*
X155924952Y-81294057D01*
X156675539Y-81826771D01*
X157408477Y-82394704D01*
X158123018Y-82997376D01*
X158818416Y-83634306D01*
X159493923Y-84305014D01*
X160148792Y-85009020D01*
X160782277Y-85745842D01*
X161393629Y-86515000D01*
X161897538Y-87196957D01*
X162497029Y-88072033D01*
X163067505Y-88978137D01*
X163608615Y-89914479D01*
X164120009Y-90880264D01*
X164601338Y-91874699D01*
X165052250Y-92896992D01*
X165472397Y-93946350D01*
X165861427Y-95021980D01*
X166218991Y-96123089D01*
X166544739Y-97248884D01*
X166831922Y-98371829D01*
X166863677Y-98505900D01*
X166891383Y-98625851D01*
X166913784Y-98725988D01*
X166929622Y-98800619D01*
X166937640Y-98844048D01*
X166938135Y-98852805D01*
X166917129Y-98843830D01*
X166866588Y-98808806D01*
X166789565Y-98750090D01*
X166689110Y-98670039D01*
X166568276Y-98571008D01*
X166505272Y-98518545D01*
X166368909Y-98412174D01*
X166252800Y-98338576D01*
X166177402Y-98303687D01*
X166091321Y-98265112D01*
X166045879Y-98228601D01*
X166037393Y-98211137D01*
X165736000Y-97083684D01*
X165404966Y-95983152D01*
X165044556Y-94910018D01*
X164655035Y-93864756D01*
X164236668Y-92847843D01*
X163789720Y-91859755D01*
X163314456Y-90900966D01*
X162811140Y-89971953D01*
X162280038Y-89073190D01*
X161721415Y-88205155D01*
X161135536Y-87368322D01*
X160522665Y-86563168D01*
X159883068Y-85790167D01*
X159217009Y-85049795D01*
X158524753Y-84342529D01*
X158072191Y-83911279D01*
X157731090Y-83599562D01*
X157407742Y-83314078D01*
X157093400Y-83047663D01*
X156779321Y-82793156D01*
X156456757Y-82543397D01*
X156116964Y-82291222D01*
X155922935Y-82151310D01*
X155160479Y-81630757D01*
X154385250Y-81149554D01*
X153597522Y-80707799D01*
X152797568Y-80305589D01*
X151985664Y-79943023D01*
X151162082Y-79620197D01*
X150327097Y-79337210D01*
X149480983Y-79094160D01*
X148624014Y-78891144D01*
X147756464Y-78728260D01*
X146878606Y-78605606D01*
X145990715Y-78523279D01*
X145706596Y-78505582D01*
X145231410Y-78485374D01*
X144772352Y-78478587D01*
X144316237Y-78485498D01*
X143849880Y-78506388D01*
X143360095Y-78541536D01*
X143155407Y-78559581D01*
X142289955Y-78660236D01*
X141433114Y-78801224D01*
X140585618Y-78982090D01*
X139748205Y-79202379D01*
X138921612Y-79461635D01*
X138106574Y-79759401D01*
X137303829Y-80095224D01*
X136514113Y-80468645D01*
X135738163Y-80879211D01*
X134976715Y-81326466D01*
X134230506Y-81809953D01*
X133500272Y-82329217D01*
X132786750Y-82883803D01*
X132090677Y-83473254D01*
X131412790Y-84097115D01*
X130753824Y-84754931D01*
X130114516Y-85446245D01*
X129495604Y-86170603D01*
X128897823Y-86927547D01*
X128321910Y-87716624D01*
X128297984Y-87750787D01*
X127714654Y-88619712D01*
X127159729Y-89517381D01*
X126632959Y-90444339D01*
X126134098Y-91401127D01*
X125662895Y-92388289D01*
X125219104Y-93406369D01*
X124802475Y-94455908D01*
X124412761Y-95537451D01*
X124049713Y-96651540D01*
X123728123Y-97744743D01*
X123585640Y-98254763D01*
X123469698Y-98310961D01*
X123366825Y-98370255D01*
X123236874Y-98461395D01*
X123080622Y-98583790D01*
X122898845Y-98736854D01*
X122839576Y-98788556D01*
X122763520Y-98853055D01*
X122706004Y-98897115D01*
X122671414Y-98917635D01*
X122663673Y-98912863D01*
X122672267Y-98881228D01*
X122689273Y-98815613D01*
X122713061Y-98722417D01*
X122742002Y-98608039D01*
X122774467Y-98478877D01*
X122790291Y-98415636D01*
X122944944Y-97822171D01*
X123118044Y-97204149D01*
X123306060Y-96573108D01*
X123505458Y-95940587D01*
X123712710Y-95318124D01*
X123910065Y-94756550D01*
X124302124Y-93721348D01*
X124720609Y-92713286D01*
X125165034Y-91732918D01*
X125634910Y-90780798D01*
X126129751Y-89857476D01*
X126649069Y-88963508D01*
X127192377Y-88099444D01*
X127759186Y-87265839D01*
X128349011Y-86463245D01*
X128961364Y-85692215D01*
X129595756Y-84953302D01*
X130251701Y-84247059D01*
X130928711Y-83574039D01*
X131626300Y-82934793D01*
X132343978Y-82329877D01*
X133081260Y-81759842D01*
X133837657Y-81225241D01*
X134612683Y-80726626D01*
X135405849Y-80264552D01*
X136216669Y-79839571D01*
X137044655Y-79452235D01*
X137613716Y-79212056D01*
X138441421Y-78898392D01*
X139272842Y-78624958D01*
X140110647Y-78391180D01*
X140957503Y-78196482D01*
X141816077Y-78040290D01*
X142689036Y-77922030D01*
X143579047Y-77841125D01*
X144117697Y-77810482D01*
X144619805Y-77797591D01*
X145151954Y-77801633D01*
G37*
G36*
X145033897Y-85054270D02*
G01*
X145253243Y-85056138D01*
X145443983Y-85059913D01*
X145614189Y-85066146D01*
X145771932Y-85075392D01*
X145925284Y-85088205D01*
X146082317Y-85105137D01*
X146251102Y-85126742D01*
X146439711Y-85153573D01*
X146612940Y-85179576D01*
X147313399Y-85307181D01*
X148008737Y-85475635D01*
X148698396Y-85684569D01*
X149381815Y-85933612D01*
X150058436Y-86222393D01*
X150727699Y-86550543D01*
X151389044Y-86917691D01*
X152041913Y-87323466D01*
X152685745Y-87767499D01*
X153319981Y-88249419D01*
X153944062Y-88768856D01*
X154557428Y-89325439D01*
X155159521Y-89918798D01*
X155749780Y-90548564D01*
X156327646Y-91214365D01*
X156892560Y-91915831D01*
X157000041Y-92055277D01*
X157280101Y-92430174D01*
X157570514Y-92835773D01*
X157865962Y-93263963D01*
X158161127Y-93706636D01*
X158450691Y-94155678D01*
X158729338Y-94602981D01*
X158991749Y-95040434D01*
X159232607Y-95459925D01*
X159234525Y-95463352D01*
X159263509Y-95515146D01*
X158734348Y-95521560D01*
X158477019Y-95525999D01*
X158256702Y-95533269D01*
X158065691Y-95544425D01*
X157896281Y-95560520D01*
X157740765Y-95582608D01*
X157591440Y-95611742D01*
X157440600Y-95648976D01*
X157280539Y-95695364D01*
X157142191Y-95739278D01*
X156939689Y-95808421D01*
X156774739Y-95871966D01*
X156641065Y-95932731D01*
X156532393Y-95993533D01*
X156453336Y-96048629D01*
X156404307Y-96083763D01*
X156369252Y-96103811D01*
X156362699Y-96105603D01*
X156346266Y-96088689D01*
X156311139Y-96041738D01*
X156261304Y-95970436D01*
X156200746Y-95880467D01*
X156141286Y-95789657D01*
X155617398Y-95003707D01*
X155086831Y-94255308D01*
X154549895Y-93544761D01*
X154006902Y-92872370D01*
X153458164Y-92238437D01*
X152903991Y-91643265D01*
X152344696Y-91087155D01*
X151780589Y-90570410D01*
X151211982Y-90093332D01*
X150639186Y-89656225D01*
X150062513Y-89259389D01*
X149482274Y-88903129D01*
X148898780Y-88587745D01*
X148555681Y-88422147D01*
X148041023Y-88199359D01*
X147536815Y-88011677D01*
X147034593Y-87856655D01*
X146525891Y-87731845D01*
X146002244Y-87634800D01*
X145669783Y-87587930D01*
X145461230Y-87567215D01*
X145219976Y-87552308D01*
X144957643Y-87543276D01*
X144685856Y-87540186D01*
X144416239Y-87543105D01*
X144160415Y-87552100D01*
X143930009Y-87567240D01*
X143826772Y-87577266D01*
X143239778Y-87661011D01*
X142658573Y-87782127D01*
X142082191Y-87941052D01*
X141509665Y-88138223D01*
X140940028Y-88374078D01*
X140372314Y-88649053D01*
X139805555Y-88963585D01*
X139238785Y-89318112D01*
X138671038Y-89713071D01*
X138101346Y-90148898D01*
X138053028Y-90187660D01*
X137852375Y-90354494D01*
X137629956Y-90548828D01*
X137391294Y-90765319D01*
X137141910Y-90998622D01*
X136887325Y-91243393D01*
X136633060Y-91494288D01*
X136384638Y-91745962D01*
X136147579Y-91993073D01*
X135927406Y-92230274D01*
X135823740Y-92345326D01*
X135471633Y-92751481D01*
X135110132Y-93189226D01*
X134744853Y-93651117D01*
X134381412Y-94129707D01*
X134025425Y-94617552D01*
X133682507Y-95107206D01*
X133358275Y-95591224D01*
X133253150Y-95753401D01*
X133196237Y-95841782D01*
X133147808Y-95916598D01*
X133112304Y-95971020D01*
X133094163Y-95998219D01*
X133092907Y-95999913D01*
X133072089Y-95994312D01*
X133027564Y-95970672D01*
X133001407Y-95954704D01*
X132924508Y-95912319D01*
X132837829Y-95873202D01*
X132816376Y-95865037D01*
X132737364Y-95831333D01*
X132662848Y-95791313D01*
X132644684Y-95779532D01*
X132562324Y-95736177D01*
X132442459Y-95692224D01*
X132292280Y-95649293D01*
X132118977Y-95609010D01*
X131929739Y-95572995D01*
X131731755Y-95542871D01*
X131532215Y-95520262D01*
X131473644Y-95515229D01*
X131403406Y-95512484D01*
X131301546Y-95512206D01*
X131176492Y-95514062D01*
X131036674Y-95517719D01*
X130890519Y-95522844D01*
X130746455Y-95529105D01*
X130612909Y-95536169D01*
X130498311Y-95543703D01*
X130411088Y-95551373D01*
X130359667Y-95558847D01*
X130357848Y-95559297D01*
X130340277Y-95561134D01*
X130333495Y-95551937D01*
X130339445Y-95526964D01*
X130360071Y-95481476D01*
X130397316Y-95410733D01*
X130453123Y-95309994D01*
X130478756Y-95264363D01*
X130989432Y-94388956D01*
X131514022Y-93552603D01*
X132052887Y-92754868D01*
X132606392Y-91995314D01*
X133174899Y-91273503D01*
X133758770Y-90588999D01*
X134358371Y-89941366D01*
X134974062Y-89330166D01*
X135606208Y-88754962D01*
X136255171Y-88215318D01*
X136489495Y-88032347D01*
X137126253Y-87566713D01*
X137774047Y-87139064D01*
X138432003Y-86749786D01*
X139099246Y-86399264D01*
X139774903Y-86087885D01*
X140458099Y-85816033D01*
X141147960Y-85584095D01*
X141843613Y-85392457D01*
X142544182Y-85241504D01*
X142976376Y-85169148D01*
X143178635Y-85139796D01*
X143359285Y-85115770D01*
X143526303Y-85096560D01*
X143687664Y-85081653D01*
X143851344Y-85070540D01*
X144025319Y-85062710D01*
X144217565Y-85057651D01*
X144436058Y-85054852D01*
X144688773Y-85053804D01*
X144777874Y-85053754D01*
X145033897Y-85054270D01*
G37*
G36*
X145101284Y-95267507D02*
G01*
X145604059Y-95314704D01*
X146106951Y-95402979D01*
X146609665Y-95532288D01*
X147111907Y-95702588D01*
X147613382Y-95913835D01*
X148113795Y-96165984D01*
X148612853Y-96458991D01*
X149110259Y-96792813D01*
X149287213Y-96921743D01*
X149408611Y-97014388D01*
X149546326Y-97123491D01*
X149695859Y-97245147D01*
X149852709Y-97375448D01*
X150012379Y-97510487D01*
X150170368Y-97646358D01*
X150322177Y-97779154D01*
X150463308Y-97904968D01*
X150589261Y-98019892D01*
X150695537Y-98120021D01*
X150777637Y-98201448D01*
X150831061Y-98260264D01*
X150836348Y-98266927D01*
X150881459Y-98325396D01*
X150828433Y-98358488D01*
X150783762Y-98391456D01*
X150723864Y-98441977D01*
X150678857Y-98483054D01*
X150608701Y-98540940D01*
X150532215Y-98591366D01*
X150488637Y-98613465D01*
X150424599Y-98651240D01*
X150335789Y-98721192D01*
X150223791Y-98822007D01*
X150146312Y-98896580D01*
X150003775Y-99036940D01*
X149889210Y-99150818D01*
X149799524Y-99241561D01*
X149731624Y-99312519D01*
X149682420Y-99367039D01*
X149648818Y-99408471D01*
X149627726Y-99440162D01*
X149616053Y-99465461D01*
X149613626Y-99473400D01*
X149586066Y-99533024D01*
X149545447Y-99586191D01*
X149512021Y-99624348D01*
X149461507Y-99687744D01*
X149401281Y-99766921D01*
X149349966Y-99836790D01*
X149269433Y-99955137D01*
X149215126Y-100052376D01*
X149182297Y-100137311D01*
X149176826Y-100157916D01*
X149153621Y-100233393D01*
X149124958Y-100298955D01*
X149105357Y-100329645D01*
X149074168Y-100380109D01*
X149062235Y-100422875D01*
X149056315Y-100460300D01*
X149041224Y-100527417D01*
X149019411Y-100613902D01*
X148999358Y-100687979D01*
X148937671Y-100909262D01*
X148737935Y-100667261D01*
X148540772Y-100434141D01*
X148324480Y-100188526D01*
X148100421Y-99942915D01*
X147879956Y-99709805D01*
X147714330Y-99541239D01*
X147368411Y-99210314D01*
X147032845Y-98918206D01*
X146705892Y-98663839D01*
X146385809Y-98446135D01*
X146070855Y-98264020D01*
X145759287Y-98116415D01*
X145449363Y-98002244D01*
X145139342Y-97920432D01*
X145068799Y-97906260D01*
X144952424Y-97891419D01*
X144806099Y-97883399D01*
X144643991Y-97882025D01*
X144480264Y-97887123D01*
X144329085Y-97898517D01*
X144204619Y-97916033D01*
X144199732Y-97916990D01*
X143883245Y-97999025D01*
X143559970Y-98119863D01*
X143233083Y-98277910D01*
X142905760Y-98471573D01*
X142581174Y-98699259D01*
X142472852Y-98783463D01*
X142272762Y-98950163D01*
X142055005Y-99144447D01*
X141826555Y-99359308D01*
X141594385Y-99587740D01*
X141365471Y-99822738D01*
X141146786Y-100057293D01*
X140945304Y-100284400D01*
X140771581Y-100492593D01*
X140714301Y-100560009D01*
X140676861Y-100593564D01*
X140656151Y-100594971D01*
X140649059Y-100565944D01*
X140648975Y-100560120D01*
X140641158Y-100523714D01*
X140620144Y-100459549D01*
X140589590Y-100378254D01*
X140568774Y-100327045D01*
X140531162Y-100233579D01*
X140497706Y-100144175D01*
X140473484Y-100072669D01*
X140466600Y-100048653D01*
X140433285Y-99972313D01*
X140389436Y-99928616D01*
X140353833Y-99899786D01*
X140345901Y-99877677D01*
X140340702Y-99852256D01*
X140322409Y-99833212D01*
X140294383Y-99801243D01*
X140256145Y-99744656D01*
X140220223Y-99683263D01*
X140168575Y-99595131D01*
X140107238Y-99499587D01*
X140068481Y-99443769D01*
X140007881Y-99359685D01*
X139942298Y-99267647D01*
X139903960Y-99213270D01*
X139828031Y-99118239D01*
X139725542Y-99009307D01*
X139606423Y-98896568D01*
X139515815Y-98818609D01*
X139459664Y-98766442D01*
X139401915Y-98704255D01*
X139390947Y-98691138D01*
X139328042Y-98633460D01*
X139244836Y-98581949D01*
X139217511Y-98569341D01*
X139155645Y-98541395D01*
X139114719Y-98518955D01*
X139104834Y-98509726D01*
X139087957Y-98492409D01*
X139043649Y-98458840D01*
X138981400Y-98416194D01*
X138979598Y-98415010D01*
X138915727Y-98374801D01*
X138864538Y-98343015D01*
X138827816Y-98315752D01*
X138807348Y-98289115D01*
X138804921Y-98259207D01*
X138822320Y-98222131D01*
X138861332Y-98173989D01*
X138923744Y-98110883D01*
X139011341Y-98028917D01*
X139125910Y-97924192D01*
X139261514Y-97799933D01*
X139642387Y-97458426D01*
X140008103Y-97150662D01*
X140363504Y-96873317D01*
X140713437Y-96623065D01*
X141062745Y-96396583D01*
X141416272Y-96190546D01*
X141778863Y-96001628D01*
X142103600Y-95849439D01*
X142599484Y-95649241D01*
X143097252Y-95490385D01*
X143596611Y-95372828D01*
X144097266Y-95296525D01*
X144598922Y-95261433D01*
X145101284Y-95267507D01*
G37*
G36*
X136333317Y-116368408D02*
G01*
X136358728Y-116377593D01*
X136382010Y-116391643D01*
X136402380Y-116410242D01*
X136419056Y-116433081D01*
X136431254Y-116459846D01*
X136434166Y-116469498D01*
X136438251Y-116497411D01*
X136436289Y-116525855D01*
X136428606Y-116553424D01*
X136415534Y-116578710D01*
X136405582Y-116591807D01*
X136402164Y-116595267D01*
X136394199Y-116603054D01*
X136381971Y-116614900D01*
X136365761Y-116630533D01*
X136345851Y-116649685D01*
X136322524Y-116672088D01*
X136296062Y-116697469D01*
X136266748Y-116725562D01*
X136234863Y-116756096D01*
X136200691Y-116788803D01*
X136164512Y-116823411D01*
X136126610Y-116859653D01*
X136087267Y-116897258D01*
X136046764Y-116935958D01*
X136005386Y-116975481D01*
X135963412Y-117015560D01*
X135921126Y-117055926D01*
X135878811Y-117096307D01*
X135836748Y-117136436D01*
X135795220Y-117176043D01*
X135754509Y-117214857D01*
X135714897Y-117252610D01*
X135676666Y-117289032D01*
X135640099Y-117323855D01*
X135605479Y-117356808D01*
X135573086Y-117387621D01*
X135543204Y-117416027D01*
X135516115Y-117441754D01*
X135492101Y-117464535D01*
X135471445Y-117484099D01*
X135454428Y-117500177D01*
X135441334Y-117512499D01*
X135432444Y-117520796D01*
X135428784Y-117524144D01*
X135410437Y-117536929D01*
X135387887Y-117547086D01*
X135363299Y-117553962D01*
X135338839Y-117556901D01*
X135322727Y-117556238D01*
X135298866Y-117550569D01*
X135274731Y-117540019D01*
X135252898Y-117525732D01*
X135251421Y-117524539D01*
X135231194Y-117503879D01*
X135216111Y-117479930D01*
X135206289Y-117453685D01*
X135201846Y-117426139D01*
X135202897Y-117398286D01*
X135209558Y-117371119D01*
X135221948Y-117345635D01*
X135229246Y-117335208D01*
X135233220Y-117330899D01*
X135241738Y-117322296D01*
X135254517Y-117309672D01*
X135271276Y-117293290D01*
X135291732Y-117273422D01*
X135315604Y-117250335D01*
X135342608Y-117224298D01*
X135372465Y-117195579D01*
X135404890Y-117164446D01*
X135439603Y-117131168D01*
X135476320Y-117096013D01*
X135514762Y-117059251D01*
X135554645Y-117021148D01*
X135595686Y-116981974D01*
X135637605Y-116941997D01*
X135680119Y-116901485D01*
X135722946Y-116860707D01*
X135765804Y-116819930D01*
X135808411Y-116779425D01*
X135850486Y-116739459D01*
X135891745Y-116700300D01*
X135931907Y-116662215D01*
X135970691Y-116625476D01*
X136007812Y-116590349D01*
X136042993Y-116557104D01*
X136075947Y-116526007D01*
X136106394Y-116497328D01*
X136134052Y-116471336D01*
X136158640Y-116448298D01*
X136179874Y-116428483D01*
X136197473Y-116412159D01*
X136211155Y-116399595D01*
X136220638Y-116391060D01*
X136225640Y-116386820D01*
X136226037Y-116386537D01*
X136252137Y-116373151D01*
X136279238Y-116365874D01*
X136306559Y-116364398D01*
X136333317Y-116368408D01*
G37*
G36*
X134877480Y-115485411D02*
G01*
X134905236Y-115493143D01*
X134912435Y-115496281D01*
X134928610Y-115506105D01*
X134945369Y-115519899D01*
X134960728Y-115535747D01*
X134972705Y-115551732D01*
X134976112Y-115557753D01*
X134980985Y-115568712D01*
X134984357Y-115579976D01*
X134986752Y-115593756D01*
X134988466Y-115609661D01*
X134989749Y-115625306D01*
X134990036Y-115636579D01*
X134989057Y-115645737D01*
X134986543Y-115655036D01*
X134982226Y-115666730D01*
X134981405Y-115668836D01*
X134972438Y-115687948D01*
X134961690Y-115705028D01*
X134956679Y-115711307D01*
X134952924Y-115714825D01*
X134944268Y-115722452D01*
X134930917Y-115734011D01*
X134913078Y-115749331D01*
X134890959Y-115768236D01*
X134864767Y-115790552D01*
X134834709Y-115816104D01*
X134800992Y-115844717D01*
X134763825Y-115876220D01*
X134723413Y-115910435D01*
X134679966Y-115947189D01*
X134633688Y-115986309D01*
X134584788Y-116027619D01*
X134533474Y-116070944D01*
X134479951Y-116116112D01*
X134424429Y-116162947D01*
X134367114Y-116211275D01*
X134308213Y-116260923D01*
X134247932Y-116311714D01*
X134186481Y-116363476D01*
X134124066Y-116416033D01*
X134060894Y-116469213D01*
X133997172Y-116522838D01*
X133933109Y-116576738D01*
X133868911Y-116630736D01*
X133804785Y-116684658D01*
X133740939Y-116738329D01*
X133677579Y-116791576D01*
X133614913Y-116844224D01*
X133553150Y-116896100D01*
X133492495Y-116947028D01*
X133433155Y-116996834D01*
X133375339Y-117045344D01*
X133319253Y-117092383D01*
X133265105Y-117137778D01*
X133213102Y-117181354D01*
X133163451Y-117222936D01*
X133116360Y-117262351D01*
X133072037Y-117299423D01*
X133030686Y-117333980D01*
X132992517Y-117365845D01*
X132957737Y-117394845D01*
X132926553Y-117420806D01*
X132899173Y-117443553D01*
X132875802Y-117462912D01*
X132856649Y-117478709D01*
X132841921Y-117490768D01*
X132831825Y-117498917D01*
X132826569Y-117502981D01*
X132826079Y-117503312D01*
X132813916Y-117510357D01*
X132803500Y-117514893D01*
X132792099Y-117517840D01*
X132776981Y-117520116D01*
X132775595Y-117520289D01*
X132756763Y-117521958D01*
X132741488Y-117521601D01*
X132726954Y-117519150D01*
X132726718Y-117519095D01*
X132697889Y-117509110D01*
X132672855Y-117493872D01*
X132652107Y-117473914D01*
X132636133Y-117449769D01*
X132625420Y-117421972D01*
X132621812Y-117404404D01*
X132619988Y-117374187D01*
X132623897Y-117346927D01*
X132633761Y-117321841D01*
X132649795Y-117298143D01*
X132652119Y-117295385D01*
X132655273Y-117292526D01*
X132663321Y-117285549D01*
X132676059Y-117274628D01*
X132693279Y-117259934D01*
X132714776Y-117241643D01*
X132740345Y-117219928D01*
X132769778Y-117194962D01*
X132802870Y-117166920D01*
X132839415Y-117135975D01*
X132879208Y-117102300D01*
X132922040Y-117066070D01*
X132967709Y-117027458D01*
X133016005Y-116986639D01*
X133066725Y-116943784D01*
X133119662Y-116899068D01*
X133174609Y-116852666D01*
X133231361Y-116804750D01*
X133289714Y-116755494D01*
X133349457Y-116705072D01*
X133410389Y-116653657D01*
X133472301Y-116601424D01*
X133534988Y-116548546D01*
X133598244Y-116495196D01*
X133661864Y-116441549D01*
X133725639Y-116387777D01*
X133789366Y-116334055D01*
X133852838Y-116280557D01*
X133915849Y-116227456D01*
X133978193Y-116174926D01*
X134039663Y-116123139D01*
X134100054Y-116072271D01*
X134159161Y-116022495D01*
X134216776Y-115973984D01*
X134272694Y-115926912D01*
X134326709Y-115881454D01*
X134378615Y-115837782D01*
X134428206Y-115796069D01*
X134475276Y-115756491D01*
X134519619Y-115719220D01*
X134561029Y-115684431D01*
X134599299Y-115652296D01*
X134634225Y-115622990D01*
X134665599Y-115596686D01*
X134693217Y-115573559D01*
X134716871Y-115553781D01*
X134736356Y-115537526D01*
X134751466Y-115524968D01*
X134761995Y-115516281D01*
X134767737Y-115511638D01*
X134768083Y-115511371D01*
X134792583Y-115496620D01*
X134819851Y-115487285D01*
X134848584Y-115483503D01*
X134877480Y-115485411D01*
G37*
G36*
X131660489Y-115753556D02*
G01*
X131686671Y-115764067D01*
X131710937Y-115780879D01*
X131713977Y-115783542D01*
X131734333Y-115805988D01*
X131749124Y-115831375D01*
X131758096Y-115858857D01*
X131760996Y-115887590D01*
X131757572Y-115916727D01*
X131755863Y-115923393D01*
X131754007Y-115927923D01*
X131749404Y-115938211D01*
X131742179Y-115953990D01*
X131732455Y-115975003D01*
X131720357Y-116000986D01*
X131706006Y-116031677D01*
X131689528Y-116066814D01*
X131671044Y-116106136D01*
X131650679Y-116149381D01*
X131628556Y-116196285D01*
X131604799Y-116246589D01*
X131579531Y-116300031D01*
X131552875Y-116356346D01*
X131524955Y-116415276D01*
X131495896Y-116476556D01*
X131465817Y-116539925D01*
X131434847Y-116605123D01*
X131403106Y-116671886D01*
X131390936Y-116697467D01*
X131350123Y-116783221D01*
X131312080Y-116863101D01*
X131276728Y-116937265D01*
X131243993Y-117005869D01*
X131213798Y-117069070D01*
X131186069Y-117127025D01*
X131160729Y-117179890D01*
X131137703Y-117227822D01*
X131116915Y-117270977D01*
X131098289Y-117309513D01*
X131081749Y-117343585D01*
X131067220Y-117373352D01*
X131054627Y-117398968D01*
X131043894Y-117420592D01*
X131034943Y-117438379D01*
X131027701Y-117452485D01*
X131022090Y-117463069D01*
X131018036Y-117470286D01*
X131015463Y-117474294D01*
X131015415Y-117474356D01*
X130994505Y-117496395D01*
X130970076Y-117512952D01*
X130942813Y-117523722D01*
X130913398Y-117528398D01*
X130895217Y-117528168D01*
X130868266Y-117522941D01*
X130842284Y-117511818D01*
X130818474Y-117495568D01*
X130798034Y-117474956D01*
X130786624Y-117458759D01*
X130778375Y-117440454D01*
X130772625Y-117418268D01*
X130769749Y-117394641D01*
X130770129Y-117372015D01*
X130771607Y-117362086D01*
X130773513Y-117356832D01*
X130778292Y-117345620D01*
X130785922Y-117328496D01*
X130796383Y-117305507D01*
X130809652Y-117276698D01*
X130825707Y-117242117D01*
X130844527Y-117201809D01*
X130866090Y-117155823D01*
X130890372Y-117104203D01*
X130917354Y-117046997D01*
X130947013Y-116984251D01*
X130979328Y-116916011D01*
X131014276Y-116842325D01*
X131051834Y-116763238D01*
X131091983Y-116678797D01*
X131134699Y-116589049D01*
X131139242Y-116579509D01*
X131179483Y-116495033D01*
X131216961Y-116416406D01*
X131251761Y-116343450D01*
X131283970Y-116275986D01*
X131313676Y-116213836D01*
X131340962Y-116156822D01*
X131365917Y-116104766D01*
X131388626Y-116057490D01*
X131409176Y-116014816D01*
X131427653Y-115976564D01*
X131444143Y-115942558D01*
X131458732Y-115912619D01*
X131471507Y-115886568D01*
X131482554Y-115864228D01*
X131491958Y-115845420D01*
X131499808Y-115829966D01*
X131506188Y-115817689D01*
X131511185Y-115808409D01*
X131514886Y-115801949D01*
X131517375Y-115798129D01*
X131517753Y-115797646D01*
X131538739Y-115777135D01*
X131563391Y-115762175D01*
X131591550Y-115752851D01*
X131601171Y-115751089D01*
X131632090Y-115749259D01*
X131660489Y-115753556D01*
G37*
G36*
X132937339Y-115538179D02*
G01*
X132953499Y-115542169D01*
X132970387Y-115549504D01*
X132978317Y-115553718D01*
X133003621Y-115570944D01*
X133023255Y-115591628D01*
X133037343Y-115615958D01*
X133046005Y-115644121D01*
X133048573Y-115662095D01*
X133049119Y-115689468D01*
X133045061Y-115713450D01*
X133035981Y-115735837D01*
X133028524Y-115748383D01*
X133025247Y-115752222D01*
X133017508Y-115760623D01*
X133005505Y-115773383D01*
X132989435Y-115790295D01*
X132969499Y-115811156D01*
X132945891Y-115835759D01*
X132918812Y-115863901D01*
X132888459Y-115895376D01*
X132855029Y-115929981D01*
X132818723Y-115967509D01*
X132779737Y-116007757D01*
X132738270Y-116050520D01*
X132694518Y-116095591D01*
X132648683Y-116142769D01*
X132600958Y-116191846D01*
X132551546Y-116242618D01*
X132500642Y-116294881D01*
X132448445Y-116348430D01*
X132410673Y-116387156D01*
X132345302Y-116454145D01*
X132284426Y-116516503D01*
X132227896Y-116574379D01*
X132175563Y-116627924D01*
X132127279Y-116677289D01*
X132082893Y-116722624D01*
X132042259Y-116764080D01*
X132005225Y-116801809D01*
X131971644Y-116835959D01*
X131941366Y-116866683D01*
X131914242Y-116894131D01*
X131890124Y-116918452D01*
X131868862Y-116939799D01*
X131850308Y-116958322D01*
X131834311Y-116974171D01*
X131820725Y-116987497D01*
X131809398Y-116998451D01*
X131800183Y-117007183D01*
X131792931Y-117013844D01*
X131787491Y-117018585D01*
X131783717Y-117021556D01*
X131782607Y-117022304D01*
X131771516Y-117028836D01*
X131761973Y-117033196D01*
X131751641Y-117036147D01*
X131738178Y-117038450D01*
X131729495Y-117039603D01*
X131711866Y-117041455D01*
X131698505Y-117041793D01*
X131687184Y-117040585D01*
X131679605Y-117038890D01*
X131651820Y-117028480D01*
X131627674Y-117013223D01*
X131607529Y-116993919D01*
X131591750Y-116971365D01*
X131580697Y-116946362D01*
X131574737Y-116919708D01*
X131574228Y-116892201D01*
X131579538Y-116864643D01*
X131589528Y-116840567D01*
X131597560Y-116827395D01*
X131607374Y-116813824D01*
X131612275Y-116807934D01*
X131616632Y-116803276D01*
X131625349Y-116794171D01*
X131638184Y-116780864D01*
X131654899Y-116763598D01*
X131675254Y-116742618D01*
X131699011Y-116718170D01*
X131725932Y-116690497D01*
X131755776Y-116659843D01*
X131788305Y-116626455D01*
X131823280Y-116590574D01*
X131860460Y-116552448D01*
X131899610Y-116512319D01*
X131940488Y-116470432D01*
X131982855Y-116427031D01*
X132026474Y-116382362D01*
X132071104Y-116336669D01*
X132116507Y-116290196D01*
X132162445Y-116243187D01*
X132208676Y-116195887D01*
X132254963Y-116148542D01*
X132301067Y-116101393D01*
X132346749Y-116054688D01*
X132391770Y-116008670D01*
X132435890Y-115963583D01*
X132478870Y-115919672D01*
X132520473Y-115877181D01*
X132560459Y-115836355D01*
X132598588Y-115797439D01*
X132634622Y-115760676D01*
X132668322Y-115726312D01*
X132699448Y-115694592D01*
X132727762Y-115665757D01*
X132753024Y-115640056D01*
X132774997Y-115617730D01*
X132793440Y-115599024D01*
X132808115Y-115584185D01*
X132818782Y-115573454D01*
X132825204Y-115567078D01*
X132827054Y-115565328D01*
X132843232Y-115553847D01*
X132859762Y-115546020D01*
X132878843Y-115541013D01*
X132897754Y-115538442D01*
X132919545Y-115537087D01*
X132937339Y-115538179D01*
G37*
G36*
X133820582Y-115401884D02*
G01*
X133850282Y-115407732D01*
X133876884Y-115418884D01*
X133899961Y-115434634D01*
X133919083Y-115454275D01*
X133933820Y-115477104D01*
X133943744Y-115502412D01*
X133948426Y-115529496D01*
X133947437Y-115557650D01*
X133940348Y-115586169D01*
X133937323Y-115593862D01*
X133936601Y-115595680D01*
X133936044Y-115597253D01*
X133935530Y-115598723D01*
X133934932Y-115600235D01*
X133934129Y-115601933D01*
X133932995Y-115603961D01*
X133931406Y-115606463D01*
X133929237Y-115609583D01*
X133926365Y-115613465D01*
X133922666Y-115618254D01*
X133918014Y-115624092D01*
X133912287Y-115631124D01*
X133905360Y-115639496D01*
X133897107Y-115649349D01*
X133887407Y-115660828D01*
X133876132Y-115674078D01*
X133863162Y-115689242D01*
X133848370Y-115706465D01*
X133831633Y-115725889D01*
X133812825Y-115747660D01*
X133791823Y-115771923D01*
X133768505Y-115798819D01*
X133742743Y-115828494D01*
X133714414Y-115861091D01*
X133683396Y-115896755D01*
X133649562Y-115935630D01*
X133612789Y-115977860D01*
X133572953Y-116023588D01*
X133529928Y-116072958D01*
X133483592Y-116126116D01*
X133433821Y-116183204D01*
X133380488Y-116244367D01*
X133323472Y-116309749D01*
X133262647Y-116379494D01*
X133197889Y-116453747D01*
X133129074Y-116532649D01*
X133056077Y-116616347D01*
X133010059Y-116669113D01*
X132941348Y-116747896D01*
X132876878Y-116821811D01*
X132816507Y-116891014D01*
X132760098Y-116955664D01*
X132707512Y-117015919D01*
X132658607Y-117071934D01*
X132613245Y-117123870D01*
X132571287Y-117171882D01*
X132532593Y-117216129D01*
X132497025Y-117256769D01*
X132464441Y-117293958D01*
X132434704Y-117327855D01*
X132407673Y-117358616D01*
X132383209Y-117386401D01*
X132361173Y-117411365D01*
X132341425Y-117433668D01*
X132323826Y-117453467D01*
X132308237Y-117470919D01*
X132294518Y-117486182D01*
X132282530Y-117499413D01*
X132272132Y-117510771D01*
X132263187Y-117520412D01*
X132255555Y-117528495D01*
X132249095Y-117535178D01*
X132243669Y-117540616D01*
X132239137Y-117544969D01*
X132235360Y-117548394D01*
X132232200Y-117551048D01*
X132229514Y-117553090D01*
X132227166Y-117554676D01*
X132226497Y-117555092D01*
X132213773Y-117562470D01*
X132203298Y-117567167D01*
X132192286Y-117570128D01*
X132177948Y-117572298D01*
X132174502Y-117572713D01*
X132159883Y-117574075D01*
X132146483Y-117574704D01*
X132136664Y-117574506D01*
X132134892Y-117574292D01*
X132107538Y-117566552D01*
X132081858Y-117553009D01*
X132059083Y-117534509D01*
X132040444Y-117511898D01*
X132037515Y-117507279D01*
X132031546Y-117497112D01*
X132027512Y-117488824D01*
X132024866Y-117480477D01*
X132023061Y-117470136D01*
X132021547Y-117455866D01*
X132020892Y-117448531D01*
X132019578Y-117431579D01*
X132019215Y-117419341D01*
X132019935Y-117409915D01*
X132021871Y-117401399D01*
X132024775Y-117392911D01*
X132030344Y-117379814D01*
X132036892Y-117367001D01*
X132040618Y-117360858D01*
X132043423Y-117357427D01*
X132050458Y-117349148D01*
X132061572Y-117336196D01*
X132076612Y-117318748D01*
X132095426Y-117296979D01*
X132117859Y-117271063D01*
X132143762Y-117241178D01*
X132172981Y-117207497D01*
X132205363Y-117170197D01*
X132240756Y-117129452D01*
X132279007Y-117085439D01*
X132319964Y-117038332D01*
X132363475Y-116988307D01*
X132409387Y-116935539D01*
X132457546Y-116880205D01*
X132507802Y-116822479D01*
X132560002Y-116762536D01*
X132613992Y-116700552D01*
X132669620Y-116636703D01*
X132726735Y-116571164D01*
X132785182Y-116504110D01*
X132844811Y-116435717D01*
X132883739Y-116391074D01*
X132956369Y-116307786D01*
X133024744Y-116229369D01*
X133088998Y-116155676D01*
X133149269Y-116086558D01*
X133205686Y-116021867D01*
X133258386Y-115961457D01*
X133307504Y-115905177D01*
X133353172Y-115852883D01*
X133395525Y-115804425D01*
X133434696Y-115759654D01*
X133470821Y-115718425D01*
X133504033Y-115680587D01*
X133534466Y-115645995D01*
X133562253Y-115614499D01*
X133587531Y-115585954D01*
X133610432Y-115560208D01*
X133631090Y-115537117D01*
X133649640Y-115516530D01*
X133666216Y-115498301D01*
X133680952Y-115482282D01*
X133693981Y-115468325D01*
X133705438Y-115456283D01*
X133715457Y-115446006D01*
X133724173Y-115437348D01*
X133731718Y-115430160D01*
X133738228Y-115424295D01*
X133743836Y-115419605D01*
X133748677Y-115415941D01*
X133752885Y-115413157D01*
X133756593Y-115411104D01*
X133759935Y-115409634D01*
X133763047Y-115408600D01*
X133766062Y-115407853D01*
X133769113Y-115407246D01*
X133772336Y-115406632D01*
X133775863Y-115405860D01*
X133777618Y-115405415D01*
X133795205Y-115401833D01*
X133812067Y-115401268D01*
X133820582Y-115401884D01*
G37*
G36*
X136013721Y-115835546D02*
G01*
X136038844Y-115845546D01*
X136061714Y-115860345D01*
X136081544Y-115879614D01*
X136097546Y-115903022D01*
X136108934Y-115930239D01*
X136110490Y-115935734D01*
X136114299Y-115962778D01*
X136112269Y-115990746D01*
X136104762Y-116018119D01*
X136092143Y-116043380D01*
X136081172Y-116058179D01*
X136077744Y-116061805D01*
X136069799Y-116069996D01*
X136057507Y-116082576D01*
X136041042Y-116099370D01*
X136020576Y-116120205D01*
X135996282Y-116144905D01*
X135968330Y-116173297D01*
X135936893Y-116205206D01*
X135902143Y-116240457D01*
X135864253Y-116278875D01*
X135823396Y-116320288D01*
X135779741Y-116364519D01*
X135733464Y-116411394D01*
X135684734Y-116460740D01*
X135633724Y-116512382D01*
X135580606Y-116566144D01*
X135525554Y-116621853D01*
X135468738Y-116679333D01*
X135410331Y-116738413D01*
X135350505Y-116798914D01*
X135289432Y-116860665D01*
X135249008Y-116901532D01*
X135172311Y-116979054D01*
X135100169Y-117051953D01*
X135032456Y-117120354D01*
X134969047Y-117184383D01*
X134909817Y-117244165D01*
X134854641Y-117299825D01*
X134803394Y-117351489D01*
X134755950Y-117399281D01*
X134712184Y-117443328D01*
X134671971Y-117483753D01*
X134635186Y-117520684D01*
X134601704Y-117554245D01*
X134571400Y-117584560D01*
X134544147Y-117611757D01*
X134519822Y-117635959D01*
X134498300Y-117657292D01*
X134479453Y-117675881D01*
X134463159Y-117691853D01*
X134449291Y-117705332D01*
X134437724Y-117716443D01*
X134428333Y-117725311D01*
X134420995Y-117732062D01*
X134415581Y-117736822D01*
X134411969Y-117739715D01*
X134410865Y-117740460D01*
X134400039Y-117746625D01*
X134390545Y-117750734D01*
X134380062Y-117753502D01*
X134366265Y-117755646D01*
X134358565Y-117756573D01*
X134340351Y-117758230D01*
X134326466Y-117758318D01*
X134314748Y-117756787D01*
X134309409Y-117755506D01*
X134280368Y-117744391D01*
X134255201Y-117728057D01*
X134234395Y-117706993D01*
X134218438Y-117681689D01*
X134208167Y-117653997D01*
X134204018Y-117625774D01*
X134205882Y-117597199D01*
X134213480Y-117569696D01*
X134226532Y-117544690D01*
X134230844Y-117538694D01*
X134234051Y-117535195D01*
X134241776Y-117527132D01*
X134253850Y-117514680D01*
X134270101Y-117498010D01*
X134290359Y-117477296D01*
X134314451Y-117452714D01*
X134342208Y-117424436D01*
X134373458Y-117392636D01*
X134408030Y-117357486D01*
X134445754Y-117319162D01*
X134486457Y-117277836D01*
X134529969Y-117233683D01*
X134576119Y-117186876D01*
X134624736Y-117137587D01*
X134675650Y-117085992D01*
X134728688Y-117032264D01*
X134783680Y-116976575D01*
X134840455Y-116919101D01*
X134898841Y-116860015D01*
X134958669Y-116799489D01*
X135019766Y-116737698D01*
X135063344Y-116693637D01*
X135139130Y-116617027D01*
X135210370Y-116545028D01*
X135277198Y-116477505D01*
X135339750Y-116414325D01*
X135398160Y-116355353D01*
X135452563Y-116300452D01*
X135503094Y-116249489D01*
X135549887Y-116202330D01*
X135593078Y-116158838D01*
X135632800Y-116118879D01*
X135669189Y-116082318D01*
X135702380Y-116049021D01*
X135732509Y-116018852D01*
X135759708Y-115991677D01*
X135784112Y-115967360D01*
X135805858Y-115945767D01*
X135825080Y-115926763D01*
X135841911Y-115910213D01*
X135856490Y-115895984D01*
X135868947Y-115883937D01*
X135879419Y-115873941D01*
X135888041Y-115865859D01*
X135894947Y-115859557D01*
X135900274Y-115854900D01*
X135904153Y-115851754D01*
X135906441Y-115850150D01*
X135932704Y-115837648D01*
X135959864Y-115831268D01*
X135987131Y-115830677D01*
X136013721Y-115835546D01*
G37*
G36*
X135237872Y-115671810D02*
G01*
X135264419Y-115682937D01*
X135288440Y-115699812D01*
X135288934Y-115700250D01*
X135309749Y-115722879D01*
X135324647Y-115748244D01*
X135333489Y-115775747D01*
X135336131Y-115804792D01*
X135332430Y-115834780D01*
X135325996Y-115855997D01*
X135325048Y-115858219D01*
X135323667Y-115860889D01*
X135321727Y-115864164D01*
X135319093Y-115868202D01*
X135315638Y-115873160D01*
X135311232Y-115879194D01*
X135305742Y-115886462D01*
X135299041Y-115895121D01*
X135290998Y-115905329D01*
X135281482Y-115917241D01*
X135270365Y-115931015D01*
X135257513Y-115946809D01*
X135242800Y-115964779D01*
X135226094Y-115985082D01*
X135207265Y-116007876D01*
X135186184Y-116033317D01*
X135162719Y-116061564D01*
X135136742Y-116092772D01*
X135108121Y-116127098D01*
X135076727Y-116164700D01*
X135042429Y-116205736D01*
X135005098Y-116250361D01*
X134964603Y-116298733D01*
X134920815Y-116351011D01*
X134873603Y-116407349D01*
X134822837Y-116467905D01*
X134768388Y-116532837D01*
X134710123Y-116602301D01*
X134647915Y-116676455D01*
X134581633Y-116755455D01*
X134536821Y-116808862D01*
X134467978Y-116890904D01*
X134403287Y-116967993D01*
X134342611Y-117040286D01*
X134285822Y-117107940D01*
X134232784Y-117171110D01*
X134183364Y-117229953D01*
X134137430Y-117284625D01*
X134094849Y-117335282D01*
X134055488Y-117382080D01*
X134019214Y-117425177D01*
X133985894Y-117464728D01*
X133955395Y-117500888D01*
X133927584Y-117533815D01*
X133902329Y-117563666D01*
X133879495Y-117590596D01*
X133858951Y-117614760D01*
X133840563Y-117636317D01*
X133824199Y-117655421D01*
X133809725Y-117672229D01*
X133797009Y-117686897D01*
X133785918Y-117699582D01*
X133776317Y-117710441D01*
X133768077Y-117719628D01*
X133761062Y-117727301D01*
X133755140Y-117733615D01*
X133750177Y-117738727D01*
X133746042Y-117742794D01*
X133742602Y-117745971D01*
X133739722Y-117748414D01*
X133737270Y-117750281D01*
X133735114Y-117751728D01*
X133734224Y-117752270D01*
X133722177Y-117758991D01*
X133711720Y-117763400D01*
X133700249Y-117766335D01*
X133685155Y-117768633D01*
X133682151Y-117769007D01*
X133663692Y-117770733D01*
X133649434Y-117770667D01*
X133637146Y-117768774D01*
X133634852Y-117768206D01*
X133605955Y-117757630D01*
X133580711Y-117742336D01*
X133559628Y-117723002D01*
X133543217Y-117700308D01*
X133531988Y-117674932D01*
X133526453Y-117647554D01*
X133526528Y-117623979D01*
X133526798Y-117619981D01*
X133526878Y-117616429D01*
X133526896Y-117613164D01*
X133526981Y-117610026D01*
X133527259Y-117606856D01*
X133527859Y-117603496D01*
X133528909Y-117599784D01*
X133530536Y-117595564D01*
X133532869Y-117590675D01*
X133536035Y-117584959D01*
X133540162Y-117578256D01*
X133545378Y-117570406D01*
X133551811Y-117561252D01*
X133559588Y-117550631D01*
X133568839Y-117538388D01*
X133579690Y-117524362D01*
X133592269Y-117508393D01*
X133606706Y-117490324D01*
X133623125Y-117469994D01*
X133641657Y-117447243D01*
X133662428Y-117421914D01*
X133685568Y-117393848D01*
X133711203Y-117362883D01*
X133739461Y-117328862D01*
X133770471Y-117291625D01*
X133804359Y-117251014D01*
X133841255Y-117206868D01*
X133881286Y-117159029D01*
X133924580Y-117107337D01*
X133971263Y-117051635D01*
X134021466Y-116991760D01*
X134075315Y-116927556D01*
X134132939Y-116858862D01*
X134194464Y-116785520D01*
X134260020Y-116707371D01*
X134324479Y-116630518D01*
X134393854Y-116547804D01*
X134459079Y-116470049D01*
X134520283Y-116397099D01*
X134577597Y-116328803D01*
X134631148Y-116265007D01*
X134681070Y-116205558D01*
X134727489Y-116150304D01*
X134770535Y-116099093D01*
X134810340Y-116051770D01*
X134847031Y-116008184D01*
X134880740Y-115968182D01*
X134911595Y-115931610D01*
X134939727Y-115898317D01*
X134965264Y-115868148D01*
X134988338Y-115840952D01*
X135009075Y-115816577D01*
X135027609Y-115794867D01*
X135044066Y-115775672D01*
X135058578Y-115758838D01*
X135071275Y-115744213D01*
X135082284Y-115731644D01*
X135091738Y-115720977D01*
X135099763Y-115712061D01*
X135106492Y-115704742D01*
X135112053Y-115698868D01*
X135116576Y-115694285D01*
X135120191Y-115690842D01*
X135123026Y-115688384D01*
X135125213Y-115686761D01*
X135125746Y-115686423D01*
X135152734Y-115673737D01*
X135181062Y-115667128D01*
X135209764Y-115666513D01*
X135237872Y-115671810D01*
G37*
G36*
X156754648Y-115940998D02*
G01*
X156768676Y-115943212D01*
X156774884Y-115944297D01*
X156790940Y-115947283D01*
X156802397Y-115950030D01*
X156811250Y-115953287D01*
X156819495Y-115957799D01*
X156829128Y-115964317D01*
X156830037Y-115964959D01*
X156850484Y-115982788D01*
X156864153Y-115999746D01*
X156866125Y-116003245D01*
X156868984Y-116009248D01*
X156872802Y-116017948D01*
X156877654Y-116029536D01*
X156883612Y-116044205D01*
X156890750Y-116062149D01*
X156899140Y-116083558D01*
X156908856Y-116108624D01*
X156919970Y-116137541D01*
X156932557Y-116170500D01*
X156946689Y-116207695D01*
X156962439Y-116249318D01*
X156979881Y-116295561D01*
X156999089Y-116346615D01*
X157020134Y-116402675D01*
X157043089Y-116463931D01*
X157068030Y-116530577D01*
X157095029Y-116602804D01*
X157124157Y-116680806D01*
X157155489Y-116764774D01*
X157171601Y-116807975D01*
X157197674Y-116877924D01*
X157223153Y-116946351D01*
X157247939Y-117012984D01*
X157271931Y-117077553D01*
X157295030Y-117139787D01*
X157317136Y-117199413D01*
X157338149Y-117256162D01*
X157357968Y-117309761D01*
X157376494Y-117359940D01*
X157393627Y-117406426D01*
X157409267Y-117448950D01*
X157423313Y-117487239D01*
X157435667Y-117521023D01*
X157446226Y-117550029D01*
X157454892Y-117573988D01*
X157461566Y-117592628D01*
X157466144Y-117605677D01*
X157468531Y-117612864D01*
X157468853Y-117614056D01*
X157471360Y-117643726D01*
X157467410Y-117672023D01*
X157456940Y-117699221D01*
X157443560Y-117720734D01*
X157423507Y-117742687D01*
X157399534Y-117759458D01*
X157372309Y-117770698D01*
X157342503Y-117776060D01*
X157336370Y-117776394D01*
X157323267Y-117776758D01*
X157314079Y-117776482D01*
X157306144Y-117775161D01*
X157296800Y-117772381D01*
X157286015Y-117768656D01*
X157272937Y-117762961D01*
X157258904Y-117755200D01*
X157251963Y-117750617D01*
X157248333Y-117748062D01*
X157244969Y-117745708D01*
X157241779Y-117743329D01*
X157238669Y-117740693D01*
X157235549Y-117737575D01*
X157232326Y-117733744D01*
X157228907Y-117728972D01*
X157225201Y-117723030D01*
X157221115Y-117715691D01*
X157216557Y-117706725D01*
X157211434Y-117695903D01*
X157205654Y-117682998D01*
X157199126Y-117667781D01*
X157191756Y-117650022D01*
X157183453Y-117629493D01*
X157174125Y-117605967D01*
X157163678Y-117579215D01*
X157152021Y-117549006D01*
X157139062Y-117515113D01*
X157124707Y-117477308D01*
X157108866Y-117435362D01*
X157091446Y-117389047D01*
X157072355Y-117338132D01*
X157051500Y-117282392D01*
X157028788Y-117221595D01*
X157004129Y-117155514D01*
X156977429Y-117083921D01*
X156948597Y-117006587D01*
X156917539Y-116923283D01*
X156911052Y-116905885D01*
X156885018Y-116836023D01*
X156859580Y-116767688D01*
X156834837Y-116701147D01*
X156810892Y-116636677D01*
X156787842Y-116574544D01*
X156765789Y-116515022D01*
X156744831Y-116458384D01*
X156725069Y-116404897D01*
X156706604Y-116354835D01*
X156689535Y-116308471D01*
X156673960Y-116266073D01*
X156659982Y-116227914D01*
X156647701Y-116194266D01*
X156637214Y-116165399D01*
X156628624Y-116141585D01*
X156622028Y-116123094D01*
X156617529Y-116110200D01*
X156615226Y-116103174D01*
X156614944Y-116102080D01*
X156612989Y-116071804D01*
X156617218Y-116042994D01*
X156627192Y-116016350D01*
X156642469Y-115992569D01*
X156662612Y-115972348D01*
X156687180Y-115956387D01*
X156713053Y-115946141D01*
X156725608Y-115942627D01*
X156735279Y-115940641D01*
X156744238Y-115940120D01*
X156754648Y-115940998D01*
G37*
G36*
X153216920Y-115548416D02*
G01*
X153244383Y-115555155D01*
X153269936Y-115567250D01*
X153289678Y-115582043D01*
X153292904Y-115585974D01*
X153299762Y-115595135D01*
X153310087Y-115609289D01*
X153323714Y-115628200D01*
X153340479Y-115651631D01*
X153360217Y-115679348D01*
X153382762Y-115711114D01*
X153407950Y-115746693D01*
X153435616Y-115785849D01*
X153465595Y-115828346D01*
X153497722Y-115873948D01*
X153531833Y-115922420D01*
X153567763Y-115973524D01*
X153605345Y-116027026D01*
X153644417Y-116082690D01*
X153684812Y-116140278D01*
X153726367Y-116199557D01*
X153768916Y-116260288D01*
X153812294Y-116322237D01*
X153856337Y-116385167D01*
X153900879Y-116448842D01*
X153945757Y-116513027D01*
X153990803Y-116577484D01*
X154035856Y-116641980D01*
X154080748Y-116706278D01*
X154125315Y-116770140D01*
X154169393Y-116833332D01*
X154212817Y-116895618D01*
X154255420Y-116956762D01*
X154297040Y-117016526D01*
X154337511Y-117074677D01*
X154376668Y-117130977D01*
X154414346Y-117185191D01*
X154450381Y-117237083D01*
X154484606Y-117286415D01*
X154516859Y-117332954D01*
X154546974Y-117376464D01*
X154574785Y-117416706D01*
X154600129Y-117453446D01*
X154622839Y-117486448D01*
X154642752Y-117515476D01*
X154659703Y-117540295D01*
X154673525Y-117560666D01*
X154684056Y-117576355D01*
X154691130Y-117587127D01*
X154694581Y-117592745D01*
X154694874Y-117593356D01*
X154702019Y-117622158D01*
X154702848Y-117650984D01*
X154697653Y-117678985D01*
X154686725Y-117705304D01*
X154670356Y-117729087D01*
X154648838Y-117749481D01*
X154639191Y-117756282D01*
X154613020Y-117769398D01*
X154584973Y-117776599D01*
X154556174Y-117777857D01*
X154527753Y-117773145D01*
X154500837Y-117762435D01*
X154496151Y-117759816D01*
X154483300Y-117751134D01*
X154470468Y-117740657D01*
X154463494Y-117733872D01*
X154460346Y-117729799D01*
X154453578Y-117720517D01*
X154443355Y-117706265D01*
X154429839Y-117687275D01*
X154413197Y-117663785D01*
X154393591Y-117636030D01*
X154371188Y-117604246D01*
X154346150Y-117568667D01*
X154318642Y-117529529D01*
X154288829Y-117487069D01*
X154256875Y-117441523D01*
X154222945Y-117393123D01*
X154187201Y-117342108D01*
X154149811Y-117288712D01*
X154110937Y-117233172D01*
X154070744Y-117175720D01*
X154029397Y-117116596D01*
X153987059Y-117056033D01*
X153943895Y-116994267D01*
X153900069Y-116931534D01*
X153855747Y-116868069D01*
X153811092Y-116804109D01*
X153766268Y-116739886D01*
X153721440Y-116675640D01*
X153676772Y-116611604D01*
X153632430Y-116548014D01*
X153588577Y-116485106D01*
X153545377Y-116423115D01*
X153502995Y-116362276D01*
X153461594Y-116302826D01*
X153421341Y-116245000D01*
X153382399Y-116189033D01*
X153344932Y-116135161D01*
X153309105Y-116083620D01*
X153275083Y-116034645D01*
X153243028Y-115988472D01*
X153213107Y-115945336D01*
X153185482Y-115905472D01*
X153160320Y-115869118D01*
X153137783Y-115836507D01*
X153118037Y-115807875D01*
X153101246Y-115783458D01*
X153087574Y-115763493D01*
X153077185Y-115748214D01*
X153070245Y-115737855D01*
X153066916Y-115732655D01*
X153066651Y-115732146D01*
X153060016Y-115705700D01*
X153059034Y-115677667D01*
X153063496Y-115649633D01*
X153073194Y-115623189D01*
X153083165Y-115606219D01*
X153092380Y-115594333D01*
X153102565Y-115583055D01*
X153110370Y-115575805D01*
X153134271Y-115560728D01*
X153160743Y-115551164D01*
X153188666Y-115547072D01*
X153216920Y-115548416D01*
G37*
G36*
X155509380Y-115618566D02*
G01*
X155536501Y-115626182D01*
X155562355Y-115639756D01*
X155567187Y-115643125D01*
X155570894Y-115646724D01*
X155578151Y-115654718D01*
X155588998Y-115667158D01*
X155603477Y-115684091D01*
X155621629Y-115705570D01*
X155643495Y-115731643D01*
X155669116Y-115762360D01*
X155698533Y-115797770D01*
X155731789Y-115837924D01*
X155768923Y-115882870D01*
X155809977Y-115932660D01*
X155854992Y-115987342D01*
X155904010Y-116046966D01*
X155957072Y-116111583D01*
X156014218Y-116181241D01*
X156075491Y-116255990D01*
X156124404Y-116315701D01*
X156172170Y-116374037D01*
X156218941Y-116431179D01*
X156264533Y-116486902D01*
X156308759Y-116540978D01*
X156351438Y-116593184D01*
X156392383Y-116643292D01*
X156431413Y-116691075D01*
X156468340Y-116736310D01*
X156502981Y-116778768D01*
X156535152Y-116818225D01*
X156564669Y-116854455D01*
X156591348Y-116887231D01*
X156615004Y-116916327D01*
X156635454Y-116941517D01*
X156652511Y-116962576D01*
X156665992Y-116979278D01*
X156675714Y-116991395D01*
X156681492Y-116998704D01*
X156682893Y-117000552D01*
X156697509Y-117023792D01*
X156706603Y-117045911D01*
X156710642Y-117068705D01*
X156710101Y-117093969D01*
X156709277Y-117101093D01*
X156706812Y-117117488D01*
X156704024Y-117129601D01*
X156700201Y-117139805D01*
X156694627Y-117150473D01*
X156694187Y-117151240D01*
X156676765Y-117176041D01*
X156656020Y-117195301D01*
X156631258Y-117209550D01*
X156606029Y-117218248D01*
X156585963Y-117221131D01*
X156562948Y-117220680D01*
X156539616Y-117217198D01*
X156518605Y-117210987D01*
X156510304Y-117207224D01*
X156498878Y-117200142D01*
X156486510Y-117190868D01*
X156480291Y-117185478D01*
X156476870Y-117181682D01*
X156469452Y-117172987D01*
X156458253Y-117159657D01*
X156443489Y-117141957D01*
X156425379Y-117120152D01*
X156404141Y-117094508D01*
X156379989Y-117065289D01*
X156353142Y-117032761D01*
X156323818Y-116997187D01*
X156292233Y-116958835D01*
X156258604Y-116917968D01*
X156223148Y-116874851D01*
X156186084Y-116829751D01*
X156147626Y-116782932D01*
X156107994Y-116734657D01*
X156067404Y-116685194D01*
X156026073Y-116634807D01*
X155984219Y-116583760D01*
X155942058Y-116532320D01*
X155899808Y-116480751D01*
X155857686Y-116429317D01*
X155815909Y-116378285D01*
X155774694Y-116327919D01*
X155734259Y-116278485D01*
X155694820Y-116230245D01*
X155656595Y-116183469D01*
X155619800Y-116138417D01*
X155584655Y-116095358D01*
X155551373Y-116054556D01*
X155520174Y-116016274D01*
X155491274Y-115980779D01*
X155464892Y-115948336D01*
X155441243Y-115919210D01*
X155420545Y-115893664D01*
X155403015Y-115871967D01*
X155388870Y-115854380D01*
X155378327Y-115841171D01*
X155371605Y-115832603D01*
X155369036Y-115829139D01*
X155357164Y-115805113D01*
X155349966Y-115778245D01*
X155347677Y-115750403D01*
X155350528Y-115723458D01*
X155354265Y-115710002D01*
X155366856Y-115683267D01*
X155384028Y-115660652D01*
X155404947Y-115642420D01*
X155428778Y-115628833D01*
X155454682Y-115620153D01*
X155481829Y-115616644D01*
X155509380Y-115618566D01*
G37*
G36*
X152074086Y-116150805D02*
G01*
X152101010Y-116161109D01*
X152119343Y-116172464D01*
X152122804Y-116175880D01*
X152130406Y-116184016D01*
X152141894Y-116196582D01*
X152157013Y-116213287D01*
X152175506Y-116233841D01*
X152197118Y-116257956D01*
X152221590Y-116285340D01*
X152248669Y-116315705D01*
X152278096Y-116348759D01*
X152309617Y-116384212D01*
X152342976Y-116421776D01*
X152377916Y-116461160D01*
X152414180Y-116502074D01*
X152451514Y-116544227D01*
X152489660Y-116587332D01*
X152528363Y-116631096D01*
X152567366Y-116675230D01*
X152606412Y-116719444D01*
X152645248Y-116763448D01*
X152683614Y-116806953D01*
X152721258Y-116849668D01*
X152757920Y-116891304D01*
X152793346Y-116931569D01*
X152827278Y-116970175D01*
X152859463Y-117006832D01*
X152889642Y-117041249D01*
X152917560Y-117073137D01*
X152942961Y-117102204D01*
X152965588Y-117128163D01*
X152985187Y-117150722D01*
X153001499Y-117169592D01*
X153014269Y-117184482D01*
X153023241Y-117195104D01*
X153028159Y-117201165D01*
X153028613Y-117201776D01*
X153041679Y-117225206D01*
X153050053Y-117251672D01*
X153053394Y-117279303D01*
X153051360Y-117306231D01*
X153049335Y-117315068D01*
X153038535Y-117342802D01*
X153022828Y-117366822D01*
X153003018Y-117386739D01*
X152979906Y-117402165D01*
X152954295Y-117412711D01*
X152926990Y-117417990D01*
X152898792Y-117417611D01*
X152870506Y-117411187D01*
X152859538Y-117406922D01*
X152847368Y-117400484D01*
X152834343Y-117391955D01*
X152828304Y-117387318D01*
X152825083Y-117383987D01*
X152817712Y-117375943D01*
X152806449Y-117363480D01*
X152791550Y-117346888D01*
X152773273Y-117326458D01*
X152751877Y-117302479D01*
X152727616Y-117275245D01*
X152700750Y-117245043D01*
X152671535Y-117212168D01*
X152640228Y-117176909D01*
X152607087Y-117139557D01*
X152572370Y-117100402D01*
X152536334Y-117059736D01*
X152499235Y-117017850D01*
X152461332Y-116975035D01*
X152422881Y-116931581D01*
X152384140Y-116887780D01*
X152345366Y-116843922D01*
X152306816Y-116800299D01*
X152268749Y-116757200D01*
X152231421Y-116714919D01*
X152195089Y-116673743D01*
X152160010Y-116633965D01*
X152126443Y-116595878D01*
X152094644Y-116559769D01*
X152064871Y-116525931D01*
X152037381Y-116494655D01*
X152012431Y-116466231D01*
X151990279Y-116440951D01*
X151971182Y-116419104D01*
X151955397Y-116400984D01*
X151943181Y-116386880D01*
X151935957Y-116378453D01*
X151917826Y-116352426D01*
X151906024Y-116324565D01*
X151900641Y-116295200D01*
X151901770Y-116264660D01*
X151902706Y-116258879D01*
X151910825Y-116230102D01*
X151924175Y-116205345D01*
X151943056Y-116184158D01*
X151962073Y-116169651D01*
X151988856Y-116155896D01*
X152017075Y-116148181D01*
X152045797Y-116146489D01*
X152074086Y-116150805D01*
G37*
G36*
X153565834Y-115395575D02*
G01*
X153579711Y-115397945D01*
X153597331Y-115401483D01*
X153610408Y-115405150D01*
X153621044Y-115409639D01*
X153629284Y-115414338D01*
X153632794Y-115417415D01*
X153640816Y-115425030D01*
X153653157Y-115436991D01*
X153669629Y-115453108D01*
X153690039Y-115473190D01*
X153714200Y-115497046D01*
X153741920Y-115524487D01*
X153773009Y-115555322D01*
X153807277Y-115589358D01*
X153844535Y-115626408D01*
X153884590Y-115666279D01*
X153927253Y-115708781D01*
X153972335Y-115753724D01*
X154019643Y-115800918D01*
X154068991Y-115850171D01*
X154120185Y-115901293D01*
X154173037Y-115954093D01*
X154227356Y-116008381D01*
X154282951Y-116063967D01*
X154339633Y-116120659D01*
X154397212Y-116178267D01*
X154455496Y-116236602D01*
X154514296Y-116295470D01*
X154573423Y-116354684D01*
X154632684Y-116414052D01*
X154691891Y-116473382D01*
X154750854Y-116532486D01*
X154809380Y-116591173D01*
X154867282Y-116649249D01*
X154924369Y-116706529D01*
X154980448Y-116762818D01*
X155035332Y-116817927D01*
X155088830Y-116871666D01*
X155140753Y-116923843D01*
X155190907Y-116974269D01*
X155239107Y-117022752D01*
X155285157Y-117069103D01*
X155328871Y-117113130D01*
X155370058Y-117154644D01*
X155408527Y-117193452D01*
X155444088Y-117229366D01*
X155476550Y-117262195D01*
X155505725Y-117291747D01*
X155531422Y-117317831D01*
X155553449Y-117340259D01*
X155571617Y-117358839D01*
X155585736Y-117373381D01*
X155595616Y-117383693D01*
X155601067Y-117389586D01*
X155601945Y-117390639D01*
X155616741Y-117415579D01*
X155625507Y-117442498D01*
X155628258Y-117470561D01*
X155625006Y-117498933D01*
X155615768Y-117526779D01*
X155600555Y-117553262D01*
X155599212Y-117555117D01*
X155579215Y-117577055D01*
X155555789Y-117593395D01*
X155529426Y-117603936D01*
X155500615Y-117608475D01*
X155473162Y-117607283D01*
X155455355Y-117604189D01*
X155439796Y-117600119D01*
X155430818Y-117596668D01*
X155419836Y-117590359D01*
X155407633Y-117581923D01*
X155401580Y-117577139D01*
X155397815Y-117573590D01*
X155389554Y-117565520D01*
X155376988Y-117553120D01*
X155360307Y-117536582D01*
X155339704Y-117516096D01*
X155315367Y-117491855D01*
X155287490Y-117464050D01*
X155256261Y-117432873D01*
X155221871Y-117398514D01*
X155184513Y-117361167D01*
X155144377Y-117321020D01*
X155101652Y-117278267D01*
X155056530Y-117233101D01*
X155009204Y-117185710D01*
X154959860Y-117136287D01*
X154908694Y-117085024D01*
X154855893Y-117032112D01*
X154801649Y-116977743D01*
X154746154Y-116922107D01*
X154689599Y-116865398D01*
X154632172Y-116807805D01*
X154574066Y-116749520D01*
X154515472Y-116690737D01*
X154456579Y-116631644D01*
X154397580Y-116572435D01*
X154338664Y-116513301D01*
X154280024Y-116454432D01*
X154221849Y-116396022D01*
X154164329Y-116338259D01*
X154107658Y-116281339D01*
X154052024Y-116225450D01*
X153997619Y-116170785D01*
X153944634Y-116117535D01*
X153893259Y-116065892D01*
X153843686Y-116016047D01*
X153796105Y-115968192D01*
X153750705Y-115922517D01*
X153707681Y-115879216D01*
X153667221Y-115838479D01*
X153629516Y-115800497D01*
X153594757Y-115765463D01*
X153563135Y-115733567D01*
X153534842Y-115705002D01*
X153510067Y-115679959D01*
X153489002Y-115658628D01*
X153471836Y-115641202D01*
X153458762Y-115627874D01*
X153449971Y-115618833D01*
X153445651Y-115614270D01*
X153445298Y-115613857D01*
X153431984Y-115591873D01*
X153423161Y-115566464D01*
X153419089Y-115539361D01*
X153420025Y-115512289D01*
X153426230Y-115486978D01*
X153426242Y-115486945D01*
X153440079Y-115458970D01*
X153458810Y-115435423D01*
X153482056Y-115416646D01*
X153509444Y-115402985D01*
X153522989Y-115398604D01*
X153534727Y-115395632D01*
X153544277Y-115394154D01*
X153553894Y-115394144D01*
X153565834Y-115395575D01*
G37*
G36*
X152440448Y-115646391D02*
G01*
X152467763Y-115656144D01*
X152488893Y-115668814D01*
X152492616Y-115672559D01*
X152500555Y-115681419D01*
X152512682Y-115695367D01*
X152528975Y-115714374D01*
X152549408Y-115738408D01*
X152573958Y-115767442D01*
X152602599Y-115801447D01*
X152635308Y-115840393D01*
X152672058Y-115884251D01*
X152712828Y-115932991D01*
X152757591Y-115986584D01*
X152806323Y-116045001D01*
X152859000Y-116108213D01*
X152915597Y-116176190D01*
X152976091Y-116248904D01*
X153040455Y-116326325D01*
X153108667Y-116408423D01*
X153180701Y-116495170D01*
X153248329Y-116576650D01*
X153304482Y-116644324D01*
X153359597Y-116710758D01*
X153413518Y-116775766D01*
X153466089Y-116839157D01*
X153517156Y-116900744D01*
X153566562Y-116960340D01*
X153614150Y-117017756D01*
X153659767Y-117072803D01*
X153703254Y-117125295D01*
X153744459Y-117175042D01*
X153783223Y-117221858D01*
X153819393Y-117265552D01*
X153852811Y-117305939D01*
X153883323Y-117342829D01*
X153910772Y-117376034D01*
X153935002Y-117405366D01*
X153955859Y-117430636D01*
X153973185Y-117451660D01*
X153986827Y-117468244D01*
X153996628Y-117480205D01*
X154002431Y-117487352D01*
X154004015Y-117489367D01*
X154017001Y-117512570D01*
X154025334Y-117539058D01*
X154028527Y-117566907D01*
X154027824Y-117582980D01*
X154021658Y-117612243D01*
X154010198Y-117638277D01*
X153994180Y-117660698D01*
X153974337Y-117679128D01*
X153951404Y-117693186D01*
X153926113Y-117702490D01*
X153899199Y-117706660D01*
X153871396Y-117705316D01*
X153843438Y-117698076D01*
X153823518Y-117688942D01*
X153811048Y-117681187D01*
X153799289Y-117672395D01*
X153792066Y-117665760D01*
X153788161Y-117661270D01*
X153780232Y-117651916D01*
X153768467Y-117637925D01*
X153753052Y-117619522D01*
X153734176Y-117596934D01*
X153712025Y-117570386D01*
X153686788Y-117540106D01*
X153658652Y-117506318D01*
X153627803Y-117469249D01*
X153594430Y-117429124D01*
X153558719Y-117386170D01*
X153520859Y-117340613D01*
X153481035Y-117292679D01*
X153439437Y-117242594D01*
X153396252Y-117190584D01*
X153351666Y-117136875D01*
X153305867Y-117081693D01*
X153259044Y-117025264D01*
X153211382Y-116967815D01*
X153163069Y-116909571D01*
X153114293Y-116850757D01*
X153065241Y-116791602D01*
X153016101Y-116732329D01*
X152967059Y-116673167D01*
X152918305Y-116614339D01*
X152870024Y-116556073D01*
X152822404Y-116498594D01*
X152775632Y-116442130D01*
X152729897Y-116386904D01*
X152685385Y-116333145D01*
X152642284Y-116281076D01*
X152600781Y-116230926D01*
X152561063Y-116182920D01*
X152523319Y-116137284D01*
X152487734Y-116094243D01*
X152454498Y-116054024D01*
X152423797Y-116016854D01*
X152395818Y-115982957D01*
X152370750Y-115952561D01*
X152348778Y-115925890D01*
X152330092Y-115903171D01*
X152314878Y-115884632D01*
X152303323Y-115870496D01*
X152295615Y-115860991D01*
X152291942Y-115856341D01*
X152291705Y-115856011D01*
X152278169Y-115829837D01*
X152270715Y-115802274D01*
X152269167Y-115774222D01*
X152273344Y-115746577D01*
X152283070Y-115720239D01*
X152298164Y-115696104D01*
X152318449Y-115675073D01*
X152329340Y-115666780D01*
X152355338Y-115652748D01*
X152383208Y-115644680D01*
X152411920Y-115642566D01*
X152440448Y-115646391D01*
G37*
G36*
X154624752Y-115405636D02*
G01*
X154645607Y-115411046D01*
X154661082Y-115417231D01*
X154674820Y-115424623D01*
X154687723Y-115434037D01*
X154700696Y-115446286D01*
X154714645Y-115462189D01*
X154730470Y-115482560D01*
X154741336Y-115497396D01*
X154746091Y-115503956D01*
X154754626Y-115515697D01*
X154766790Y-115532411D01*
X154782434Y-115553893D01*
X154801408Y-115579938D01*
X154823561Y-115610340D01*
X154848746Y-115644894D01*
X154876809Y-115683393D01*
X154907603Y-115725632D01*
X154940977Y-115771405D01*
X154976780Y-115820507D01*
X155014864Y-115872732D01*
X155055077Y-115927874D01*
X155097271Y-115985727D01*
X155141296Y-116046087D01*
X155186999Y-116108747D01*
X155234234Y-116173501D01*
X155282849Y-116240145D01*
X155332694Y-116308472D01*
X155383618Y-116378276D01*
X155435474Y-116449352D01*
X155473519Y-116501497D01*
X155525786Y-116573138D01*
X155577151Y-116643553D01*
X155627468Y-116712542D01*
X155676592Y-116779904D01*
X155724376Y-116845438D01*
X155770676Y-116908945D01*
X155815344Y-116970226D01*
X155858235Y-117029078D01*
X155899204Y-117085303D01*
X155938105Y-117138701D01*
X155974792Y-117189071D01*
X156009119Y-117236212D01*
X156040941Y-117279925D01*
X156070111Y-117320011D01*
X156096485Y-117356267D01*
X156119915Y-117388496D01*
X156140258Y-117416494D01*
X156157365Y-117440065D01*
X156171093Y-117459007D01*
X156181295Y-117473119D01*
X156187825Y-117482203D01*
X156190270Y-117485658D01*
X156205022Y-117509268D01*
X156214955Y-117530799D01*
X156220683Y-117552030D01*
X156222824Y-117574740D01*
X156222875Y-117579814D01*
X156219613Y-117607856D01*
X156210380Y-117634298D01*
X156195829Y-117658321D01*
X156176611Y-117679101D01*
X156153378Y-117695815D01*
X156126782Y-117707642D01*
X156120041Y-117709642D01*
X156092560Y-117713854D01*
X156064267Y-117712399D01*
X156037066Y-117705512D01*
X156019162Y-117697283D01*
X156006876Y-117689632D01*
X155995287Y-117681263D01*
X155988274Y-117675259D01*
X155985541Y-117671817D01*
X155979022Y-117663173D01*
X155968853Y-117649513D01*
X155955170Y-117631028D01*
X155938112Y-117607902D01*
X155917815Y-117580324D01*
X155894417Y-117548480D01*
X155868053Y-117512558D01*
X155838862Y-117472745D01*
X155806980Y-117429230D01*
X155772545Y-117382199D01*
X155735694Y-117331840D01*
X155696564Y-117278338D01*
X155655292Y-117221883D01*
X155612015Y-117162662D01*
X155566870Y-117100862D01*
X155519993Y-117036669D01*
X155471524Y-116970272D01*
X155421598Y-116901858D01*
X155370352Y-116831614D01*
X155317925Y-116759728D01*
X155264451Y-116686386D01*
X155228645Y-116637264D01*
X155160380Y-116543592D01*
X155095965Y-116455175D01*
X155035308Y-116371892D01*
X154978323Y-116293620D01*
X154924920Y-116220234D01*
X154875010Y-116151614D01*
X154828505Y-116087635D01*
X154785315Y-116028173D01*
X154745351Y-115973107D01*
X154708526Y-115922314D01*
X154674750Y-115875669D01*
X154643934Y-115833052D01*
X154615988Y-115794336D01*
X154590826Y-115759401D01*
X154568357Y-115728123D01*
X154548492Y-115700379D01*
X154531143Y-115676045D01*
X154516221Y-115654999D01*
X154503638Y-115637120D01*
X154493303Y-115622281D01*
X154485128Y-115610361D01*
X154479025Y-115601237D01*
X154474905Y-115594785D01*
X154472678Y-115590883D01*
X154472340Y-115590124D01*
X154465503Y-115563519D01*
X154464095Y-115535248D01*
X154468166Y-115507592D01*
X154470293Y-115500274D01*
X154482194Y-115473731D01*
X154498930Y-115450792D01*
X154519631Y-115431901D01*
X154543431Y-115417499D01*
X154569464Y-115408026D01*
X154596860Y-115403925D01*
X154624752Y-115405636D01*
G37*
%TO.C,G4*%
G36*
X129007798Y-113135299D02*
G01*
X129074668Y-113145992D01*
X129140346Y-113162817D01*
X129204272Y-113185603D01*
X129265888Y-113214177D01*
X129324635Y-113248368D01*
X129379956Y-113288003D01*
X129382711Y-113290196D01*
X129414978Y-113318132D01*
X129447593Y-113350260D01*
X129478804Y-113384683D01*
X129506857Y-113419505D01*
X129522837Y-113441852D01*
X129531217Y-113453936D01*
X129536887Y-113461077D01*
X129540614Y-113464021D01*
X129543161Y-113463516D01*
X129544019Y-113462519D01*
X129547401Y-113457710D01*
X129553643Y-113448839D01*
X129561766Y-113437294D01*
X129568446Y-113427800D01*
X129608947Y-113375976D01*
X129654366Y-113328403D01*
X129704290Y-113285328D01*
X129758306Y-113247002D01*
X129816001Y-113213671D01*
X129876961Y-113185586D01*
X129940773Y-113162993D01*
X130007023Y-113146141D01*
X130049378Y-113138651D01*
X130110233Y-113132435D01*
X130172105Y-113131402D01*
X130234126Y-113135378D01*
X130295426Y-113144190D01*
X130355135Y-113157662D01*
X130412386Y-113175621D01*
X130466309Y-113197893D01*
X130516034Y-113224303D01*
X130534378Y-113235870D01*
X130553918Y-113249052D01*
X130569633Y-113260364D01*
X130583428Y-113271344D01*
X130597209Y-113283528D01*
X130612882Y-113298453D01*
X130617193Y-113302670D01*
X130654537Y-113343699D01*
X130686459Y-113388249D01*
X130713121Y-113436609D01*
X130734685Y-113489066D01*
X130749034Y-113536724D01*
X130755620Y-113564226D01*
X130760515Y-113589414D01*
X130763925Y-113614112D01*
X130766054Y-113640142D01*
X130767104Y-113669328D01*
X130767295Y-113700000D01*
X130764448Y-113766906D01*
X130756303Y-113833921D01*
X130742748Y-113901363D01*
X130723675Y-113969547D01*
X130698973Y-114038792D01*
X130668532Y-114109415D01*
X130632241Y-114181734D01*
X130589991Y-114256064D01*
X130554320Y-114313333D01*
X130519472Y-114363167D01*
X130478381Y-114414417D01*
X130431273Y-114466894D01*
X130378374Y-114520410D01*
X130319913Y-114574777D01*
X130256115Y-114629806D01*
X130187208Y-114685308D01*
X130113419Y-114741096D01*
X130034974Y-114796981D01*
X129952101Y-114852774D01*
X129865026Y-114908289D01*
X129773977Y-114963335D01*
X129764378Y-114968973D01*
X129742721Y-114981568D01*
X129719266Y-114995048D01*
X129694715Y-115009024D01*
X129669767Y-115023110D01*
X129645122Y-115036917D01*
X129621482Y-115050056D01*
X129599547Y-115062141D01*
X129580016Y-115072783D01*
X129563590Y-115081595D01*
X129550970Y-115088187D01*
X129542856Y-115092174D01*
X129540050Y-115093226D01*
X129536602Y-115091657D01*
X129528130Y-115087300D01*
X129515448Y-115080588D01*
X129499367Y-115071954D01*
X129480701Y-115061831D01*
X129464378Y-115052910D01*
X129356534Y-114992273D01*
X129253910Y-114931504D01*
X129156641Y-114870704D01*
X129064859Y-114809975D01*
X128978699Y-114749419D01*
X128898295Y-114689135D01*
X128823779Y-114629227D01*
X128755287Y-114569796D01*
X128692951Y-114510942D01*
X128636906Y-114452768D01*
X128587285Y-114395375D01*
X128571946Y-114376114D01*
X128551795Y-114349274D01*
X128531686Y-114320428D01*
X128510777Y-114288318D01*
X128488228Y-114251683D01*
X128482234Y-114241666D01*
X128441744Y-114169163D01*
X128406698Y-114096932D01*
X128377131Y-114025232D01*
X128353079Y-113954322D01*
X128334575Y-113884461D01*
X128321655Y-113815907D01*
X128314353Y-113748919D01*
X128312705Y-113683756D01*
X128316744Y-113620677D01*
X128326506Y-113559940D01*
X128342025Y-113501805D01*
X128363336Y-113446530D01*
X128372792Y-113426666D01*
X128400496Y-113378820D01*
X128433569Y-113334706D01*
X128471756Y-113294472D01*
X128514805Y-113258267D01*
X128562459Y-113226242D01*
X128614466Y-113198544D01*
X128670572Y-113175324D01*
X128730522Y-113156731D01*
X128794063Y-113142913D01*
X128860941Y-113134020D01*
X128872711Y-113133002D01*
X128940292Y-113130912D01*
X129007798Y-113135299D01*
G37*
%TO.C,G\u002A\u002A\u002A*%
G36*
X127061198Y-110944657D02*
G01*
X127108011Y-110952142D01*
X127153988Y-110963920D01*
X127198739Y-110979871D01*
X127241873Y-110999875D01*
X127282999Y-111023810D01*
X127321726Y-111051556D01*
X127323655Y-111053091D01*
X127346243Y-111072648D01*
X127369075Y-111095139D01*
X127390924Y-111119237D01*
X127410562Y-111143614D01*
X127421749Y-111159258D01*
X127427615Y-111167717D01*
X127431585Y-111172716D01*
X127434194Y-111174777D01*
X127435977Y-111174423D01*
X127436577Y-111173725D01*
X127438946Y-111170359D01*
X127443315Y-111164148D01*
X127449001Y-111156067D01*
X127453678Y-111149421D01*
X127482030Y-111113141D01*
X127513826Y-111079838D01*
X127548775Y-111049684D01*
X127586589Y-111022853D01*
X127626977Y-110999521D01*
X127669652Y-110979859D01*
X127714323Y-110964043D01*
X127760702Y-110952247D01*
X127790352Y-110947003D01*
X127832954Y-110942651D01*
X127876267Y-110941928D01*
X127919684Y-110944712D01*
X127962597Y-110950880D01*
X128004396Y-110960312D01*
X128044474Y-110972884D01*
X128082223Y-110988475D01*
X128117033Y-111006963D01*
X128129874Y-111015061D01*
X128143553Y-111024288D01*
X128154554Y-111032208D01*
X128164212Y-111039894D01*
X128173859Y-111048423D01*
X128184831Y-111058872D01*
X128187849Y-111061824D01*
X128213991Y-111090546D01*
X128236338Y-111121733D01*
X128255003Y-111155587D01*
X128270099Y-111192309D01*
X128280144Y-111225672D01*
X128284754Y-111244925D01*
X128288181Y-111262558D01*
X128290568Y-111279847D01*
X128292058Y-111298069D01*
X128292793Y-111318501D01*
X128292927Y-111339973D01*
X128290934Y-111386810D01*
X128285232Y-111433724D01*
X128275743Y-111480936D01*
X128262391Y-111528668D01*
X128245099Y-111577143D01*
X128223788Y-111626583D01*
X128198383Y-111677209D01*
X128168806Y-111729244D01*
X128143835Y-111769334D01*
X128119440Y-111804221D01*
X128090674Y-111840098D01*
X128057696Y-111876834D01*
X128020665Y-111914298D01*
X127979739Y-111952357D01*
X127935078Y-111990880D01*
X127886840Y-112029734D01*
X127835184Y-112068788D01*
X127780269Y-112107910D01*
X127722254Y-112146968D01*
X127661298Y-112185830D01*
X127597559Y-112224365D01*
X127590839Y-112228312D01*
X127575678Y-112237129D01*
X127559259Y-112246566D01*
X127542071Y-112256350D01*
X127524607Y-112266211D01*
X127507355Y-112275876D01*
X127490806Y-112285074D01*
X127475450Y-112293534D01*
X127461777Y-112300984D01*
X127450279Y-112307153D01*
X127441444Y-112311768D01*
X127435764Y-112314559D01*
X127433799Y-112315295D01*
X127431385Y-112314197D01*
X127425455Y-112311146D01*
X127416576Y-112306448D01*
X127405319Y-112300404D01*
X127392252Y-112293317D01*
X127380825Y-112287072D01*
X127305329Y-112244624D01*
X127233488Y-112202082D01*
X127165395Y-112159520D01*
X127101144Y-112117007D01*
X127040828Y-112074614D01*
X126984541Y-112032413D01*
X126932377Y-111990475D01*
X126884429Y-111948870D01*
X126840791Y-111907670D01*
X126801557Y-111866945D01*
X126766820Y-111826767D01*
X126756082Y-111813284D01*
X126741976Y-111794494D01*
X126727898Y-111774301D01*
X126713261Y-111751822D01*
X126697475Y-111726176D01*
X126693279Y-111719164D01*
X126664934Y-111668409D01*
X126640400Y-111617844D01*
X126619703Y-111567651D01*
X126602865Y-111518010D01*
X126589911Y-111469104D01*
X126580867Y-111421113D01*
X126575755Y-111374218D01*
X126574601Y-111328601D01*
X126577429Y-111284443D01*
X126584262Y-111241925D01*
X126595127Y-111201228D01*
X126610046Y-111162533D01*
X126616665Y-111148627D01*
X126636059Y-111115132D01*
X126659212Y-111084250D01*
X126685945Y-111056084D01*
X126716080Y-111030740D01*
X126749441Y-111008320D01*
X126785848Y-110988931D01*
X126825125Y-110972676D01*
X126867093Y-110959659D01*
X126911574Y-110949986D01*
X126958391Y-110943761D01*
X126966631Y-110943048D01*
X127013941Y-110941585D01*
X127061198Y-110944657D01*
G37*
%TD*%
D11*
%TO.C,D1*%
X160346500Y-93472000D03*
D12*
X162886500Y-93472000D03*
%TD*%
D11*
%TO.C,D3*%
X136216500Y-83058000D03*
D12*
X138756500Y-83058000D03*
%TD*%
D11*
%TO.C,D5*%
X143836500Y-81788000D03*
D12*
X146376500Y-81788000D03*
%TD*%
D11*
%TO.C,D11*%
X141042500Y-91567000D03*
D12*
X143582500Y-91567000D03*
%TD*%
D11*
%TO.C,D4*%
X127000000Y-93726000D03*
D12*
X129540000Y-93726000D03*
%TD*%
D11*
%TO.C,D8*%
X146884500Y-91567000D03*
D12*
X149424500Y-91567000D03*
%TD*%
D11*
%TO.C,D7*%
X156536500Y-88392000D03*
D12*
X159076500Y-88392000D03*
%TD*%
D11*
%TO.C,D10*%
X150948500Y-95123000D03*
D12*
X153488500Y-95123000D03*
%TD*%
D11*
%TO.C,D9*%
X136470500Y-95250000D03*
D12*
X139010500Y-95250000D03*
%TD*%
D11*
%TO.C,D6*%
X130628500Y-87884000D03*
D12*
X133168500Y-87884000D03*
%TD*%
D11*
%TO.C,D2*%
X150948500Y-83312000D03*
D12*
X153488500Y-83312000D03*
%TD*%
D13*
%TO.C,R4*%
X120509700Y-96247244D03*
D14*
X124803502Y-87039157D03*
%TD*%
D13*
%TO.C,R1*%
X138003409Y-76454000D03*
D15*
X129204591Y-81534000D03*
%TD*%
D13*
%TO.C,R3*%
X169278901Y-96467639D03*
D16*
X165803976Y-86920362D03*
%TD*%
D17*
%TO.C,SW1*%
X160686571Y-118837782D03*
X165957429Y-112556218D03*
D18*
X164607575Y-114164911D03*
D19*
X163322000Y-115697000D03*
X162036425Y-117229089D03*
%TD*%
D20*
%TO.C,BT1*%
X133604000Y-112395000D03*
X154686000Y-112395000D03*
%TD*%
D13*
%TO.C,R2*%
X159290044Y-80378901D03*
D21*
X150081957Y-76085099D03*
%TD*%
M02*
